<?xml version="1.0" encoding="UTF-8" standalone="no"?><!DOCTYPE svg PUBLIC "-//W3C//DTD SVG 1.1//EN" "http://www.w3.org/Graphics/SVG/1.1/DTD/svg11.dtd"><svg width="270px" height="10px" version="1.1" xmlns="http://www.w3.org/2000/svg" xmlns:xlink="http://www.w3.org/1999/xlink" xml:space="preserve" xmlns:serif="http://www.serif.com/" style="fill-rule:evenodd;clip-rule:evenodd;stroke-linejoin:round;stroke-miterlimit:2;"><rect x="0" y="0" width="15.882" height="10" style="fill:#e5243b;"/><rect x="15.882" y="0" width="15.882" height="10" style="fill:#e8b333;"/><rect x="31.765" y="0" width="15.882" height="10" style="fill:#4d9c3c;"/><rect x="47.647" y="0" width="15.882" height="10" style="fill:#c6132a;"/><rect x="63.53" y="0" width="15.882" height="10" style="fill:#ff360c;"/><rect x="79.412" y="0" width="15.882" height="10" style="fill:#00bce2;"/><rect x="95.294" y="0" width="15.882" height="10" style="fill:#ffbd02;"/><rect x="111.176" y="0" width="15.882" height="10" style="fill:#a51b40;"/><rect x="127.059" y="0" width="15.882" height="10" style="fill:#ff641c;"/><rect x="142.941" y="0" width="15.882" height="10" style="fill:#e00563;"/><rect x="158.824" y="0" width="15.882" height="10" style="fill:#ff9a1a;"/><rect x="174.706" y="0" width="15.882" height="10" style="fill:#cb962b;"/><rect x="190.589" y="0" width="15.882" height="10" style="fill:#407b45;"/><rect x="206.47" y="0" width="15.882" height="10" style="fill:#0097d7;"/><rect x="222.353" y="0" width="15.882" height="10" style="fill:#57bd31;"/><rect x="238.235" y="0" width="15.882" height="10" style="fill:#006a9d;"/><rect x="254.118" y="0" width="15.882" height="10" style="fill:#114a6b;"/></svg>