<?xml version="1.0" encoding="UTF-8" standalone="no"?><!DOCTYPE svg PUBLIC "-//W3C//DTD SVG 1.1//EN" "http://www.w3.org/Graphics/SVG/1.1/DTD/svg11.dtd"><svg width="100%" height="100%" viewBox="0 0 26 26" version="1.1" xmlns="http://www.w3.org/2000/svg" xmlns:xlink="http://www.w3.org/1999/xlink" xml:space="preserve" xmlns:serif="http://www.serif.com/" style="fill-rule:evenodd;clip-rule:evenodd;stroke-linejoin:round;stroke-miterlimit:2;"><g><path d="M8.624,10.434c0.223,-0.379 0.494,-0.728 0.807,-1.038l-2.645,-2.9c-0.668,0.639 -1.235,1.376 -1.68,2.186l3.518,1.752m6.485,-2.049c0.4,0.183 0.773,0.418 1.109,0.695l2.653,-2.896c-0.704,-0.607 -1.497,-1.102 -2.351,-1.467l-1.411,3.668m6.075,0.872l-3.516,1.753c0.168,0.392 0.287,0.808 0.352,1.242l3.91,-0.369c-0.113,-0.908 -0.364,-1.794 -0.746,-2.626m-3.768,1.245l3.514,-1.752c-0.434,-0.806 -0.988,-1.542 -1.643,-2.182l-2.653,2.896c0.303,0.31 0.565,0.659 0.78,1.038m-9.489,2.498c0,-0.079 0.003,-0.158 0.007,-0.237l-3.912,-0.35c-0.061,0.928 0.023,1.86 0.247,2.763l3.778,-1.084c-0.079,-0.359 -0.12,-0.725 -0.12,-1.092m8.998,3.215c-0.278,0.339 -0.599,0.641 -0.954,0.898l2.066,3.344c0.766,-0.519 1.448,-1.152 2.022,-1.878l-3.134,-2.364m1.152,-3.215c0,0.37 -0.04,0.732 -0.117,1.08l3.778,1.085c0.22,-0.888 0.303,-1.804 0.246,-2.717l-3.911,0.37c0.003,0.061 0.004,0.121 0.004,0.182m-8.935,3.29l-3.126,2.376c0.582,0.717 1.27,1.341 2.041,1.85l2.065,-3.34c-0.364,-0.252 -0.693,-0.55 -0.98,-0.886m-1.151,-4.09c0.07,-0.443 0.198,-0.866 0.375,-1.261l-3.515,-1.751c-0.395,0.841 -0.657,1.738 -0.776,2.66l3.916,0.351m9.565,8.561l-2.062,-3.34c-0.379,0.214 -0.783,0.378 -1.204,0.489l0.728,3.863c0.893,-0.205 1.749,-0.547 2.538,-1.012m0.254,-6.134c-0.137,0.402 -0.322,0.781 -0.55,1.131l3.137,2.366c0.515,-0.74 0.915,-1.553 1.187,-2.412l-3.774,-1.085m-4.076,3.396c-0.438,0.063 -0.883,0.069 -1.323,0.018l-0.727,3.863c0.921,0.135 1.858,0.128 2.777,-0.021l-0.727,-3.86m-0.407,-10.086c0.435,0.028 0.856,0.11 1.255,0.242l1.411,-3.667c-0.858,-0.303 -1.757,-0.473 -2.666,-0.504l0,3.929m-1.475,10.007c-0.434,-0.101 -0.853,-0.259 -1.246,-0.47l-2.066,3.341c0.805,0.461 1.677,0.795 2.585,0.989l0.727,-3.86m-0.375,-9.783c0.416,-0.131 0.847,-0.208 1.282,-0.228l0,-3.929c-0.921,0.024 -1.833,0.191 -2.703,0.493l1.421,3.664m-2.679,7.679c-0.252,-0.372 -0.454,-0.775 -0.599,-1.2l-3.775,1.083c0.286,0.9 0.71,1.74 1.247,2.493l3.127,-2.376m1.06,-6.819c0.334,-0.264 0.699,-0.486 1.088,-0.659l-1.42,-3.661c-0.839,0.353 -1.619,0.83 -2.314,1.417l2.646,2.903" style="fill:#929192;fill-opacity:0.8;"/></g></svg>