<?xml version="1.0" encoding="UTF-8" standalone="no"?><!DOCTYPE svg PUBLIC "-//W3C//DTD SVG 1.1//EN" "http://www.w3.org/Graphics/SVG/1.1/DTD/svg11.dtd"><svg width="100%" height="100%" viewBox="0 0 26 26" version="1.1" xmlns="http://www.w3.org/2000/svg" xmlns:xlink="http://www.w3.org/1999/xlink" xml:space="preserve" xmlns:serif="http://www.serif.com/" style="fill-rule:evenodd;clip-rule:evenodd;stroke-linejoin:round;stroke-miterlimit:2;"><g><path d="M7.725,4c-0.243,-0.009 -0.48,0.083 -0.652,0.255l-2.817,2.817c-0.316,0.315 -0.341,0.824 -0.058,1.168l3.644,4.451c0.395,0.486 0.865,0.9 1.384,1.24l0,5.746l-1.742,0c-0.624,0.018 -1.128,0.537 -1.128,1.162c0,0.624 0.504,1.143 1.128,1.161l13.356,0c0.624,-0.018 1.128,-0.537 1.128,-1.162c0,-0.624 -0.504,-1.143 -1.128,-1.161l-1.742,0l0,-8.42c-0.002,-0.439 -0.336,-0.812 -0.772,-0.861c-0.006,-0.007 -0.008,-0.016 -0.014,-0.023l-1.99,-2.25c-0.387,-0.438 -0.909,-0.734 -1.484,-0.84l-2.759,-0.507c-1.253,-0.232 -2.387,-0.89 -3.211,-1.862l-0.513,-0.606c-0.158,-0.186 -0.386,-0.298 -0.63,-0.307l0,-0.001Zm-0.024,0.58c0.081,0.003 0.157,0.04 0.21,0.102l0.231,0.275l-0.007,0c-0.159,0 -0.29,0.131 -0.29,0.29c0,0.076 0.03,0.15 0.084,0.204l0.412,0.41c0.112,0.112 0.297,0.112 0.409,0c0.039,-0.04 0.065,-0.092 0.074,-0.147c0.866,0.843 1.962,1.411 3.15,1.632l2.758,0.507c0.447,0.082 0.853,0.312 1.154,0.653l1.662,1.88l-6.113,0l-0.226,-0.853c-0.032,-0.129 -0.149,-0.221 -0.282,-0.221c-0.159,0 -0.29,0.131 -0.29,0.29c0,0.027 0.004,0.053 0.011,0.078l0.257,0.973c0.164,0.62 0.507,1.172 0.992,1.593l1.375,1.197c0.365,0.317 0.546,0.792 0.487,1.272l-0.003,0.036c-0.018,0.145 -0.143,0.254 -0.289,0.254c-0.033,0 -0.066,-0.006 -0.098,-0.017l-2.683,-0.969c-0.937,-0.338 -1.765,-0.924 -2.395,-1.695l-2.716,-3.32c0.11,-0.044 0.183,-0.151 0.183,-0.269c0,-0.077 -0.031,-0.151 -0.085,-0.205l-0.411,-0.411c-0.113,-0.111 -0.297,-0.111 -0.41,0l-0.002,0l-0.203,-0.248c-0.094,-0.115 -0.085,-0.284 0.02,-0.389l2.816,-2.818c0.057,-0.059 0.137,-0.089 0.218,-0.084Zm-0.593,1.402l-0.003,0c-0.158,0 -0.288,0.13 -0.288,0.288c0,0.078 0.032,0.152 0.087,0.206l0.41,0.41c0.052,0.044 0.119,0.068 0.187,0.068c0.16,0 0.291,-0.131 0.291,-0.291c0,-0.068 -0.024,-0.135 -0.068,-0.187l-0.41,-0.41c-0.055,-0.055 -0.129,-0.085 -0.206,-0.084Zm-1.025,1.026l-0.002,0c-0.159,0 -0.29,0.131 -0.29,0.29c0,0.077 0.031,0.152 0.086,0.206l0.41,0.41c0.052,0.044 0.119,0.068 0.187,0.068c0.16,0 0.291,-0.131 0.291,-0.291c0,-0.068 -0.024,-0.135 -0.068,-0.187l-0.41,-0.41c-0.054,-0.055 -0.127,-0.086 -0.204,-0.086Zm5.56,3.96l6.583,0c0.16,0 0.29,0.13 0.29,0.29l0,10.161l-8.71,0l0,-7.15c0.213,0.106 0.43,0.203 0.655,0.286c-0.046,0.051 -0.072,0.118 -0.073,0.187c0,0.16 0.129,0.29 0.29,0.29l0.58,0c0.091,0 0.17,-0.044 0.223,-0.109l1.69,0.611c0.249,0.09 0.526,0.061 0.752,-0.077c0.226,-0.139 0.377,-0.374 0.409,-0.638l0.003,-0.035c0.015,-0.115 0.016,-0.23 0.01,-0.343c0.037,0.004 0.07,0.01 0.107,0.01c0.619,-0.026 1.114,-0.542 1.114,-1.161c0,-0.619 -0.495,-1.135 -1.114,-1.161c-0.462,0 -0.855,0.273 -1.042,0.663l-1.132,-0.984c-0.267,-0.233 -0.483,-0.519 -0.635,-0.84Zm5.712,0.58c-0.159,0 -0.29,0.131 -0.29,0.29l0,1.452c0,0.159 0.131,0.29 0.29,0.29c0.159,0 0.29,-0.131 0.29,-0.29l0,-1.452c0,-0.159 -0.131,-0.29 -0.29,-0.29Zm-2.903,1.161c0.306,0.018 0.548,0.275 0.548,0.581c0,0.306 -0.242,0.563 -0.548,0.581c-0.08,0 -0.158,-0.017 -0.231,-0.049c-0.081,-0.213 -0.197,-0.411 -0.344,-0.585c0.027,-0.296 0.277,-0.527 0.575,-0.528Zm2.613,1.742c-0.159,0 -0.291,0.131 -0.291,0.291c0,0.159 0.132,0.29 0.291,0.29l0.58,0c0.159,0 0.29,-0.131 0.29,-0.29c0,-0.159 -0.131,-0.29 -0.29,-0.29l-0.58,0l0,-0.001Zm-6.387,1.452c-0.159,0 -0.29,0.131 -0.29,0.29c0,0.159 0.131,0.29 0.29,0.29l0.58,0c0.159,0 0.29,-0.131 0.29,-0.29c0,-0.159 -0.131,-0.29 -0.29,-0.29l-0.58,0Zm3.484,0c-1.255,0 -2.34,0.597 -2.862,1.46c-0.014,-0.001 -0.027,-0.008 -0.042,-0.008l-0.58,0c-0.159,0 -0.29,0.131 -0.29,0.29c0,0.159 0.131,0.29 0.29,0.29l0.372,0c-0.053,0.189 -0.081,0.385 -0.082,0.581c0,0.197 0.03,0.391 0.082,0.58l-0.372,0c-0.159,0 -0.291,0.131 -0.291,0.291c0,0.159 0.132,0.29 0.291,0.29l0.58,0c0.015,0 0.028,-0.006 0.041,-0.009c0.175,0.29 0.41,0.557 0.708,0.78c0.59,0.44 1.354,0.681 2.155,0.681c1.254,0 2.34,-0.597 2.86,-1.46c0.015,0.002 0.028,0.008 0.043,0.008l0.58,0c0.159,0 0.29,-0.131 0.29,-0.29c0,-0.159 -0.131,-0.29 -0.29,-0.29l-0.372,0c0.051,-0.187 0.082,-0.381 0.082,-0.581c0,-0.2 -0.03,-0.394 -0.082,-0.58l0.372,0c0.159,0 0.29,-0.131 0.29,-0.29c0,-0.16 -0.131,-0.291 -0.29,-0.291l-0.58,0c-0.015,0 -0.028,0.007 -0.042,0.009c-0.522,-0.864 -1.607,-1.461 -2.861,-1.461Zm2.903,0c-0.159,0 -0.29,0.131 -0.29,0.29c0,0.159 0.131,0.29 0.29,0.29l0.58,0c0.159,0 0.29,-0.131 0.29,-0.29c0,-0.159 -0.131,-0.29 -0.29,-0.29l-0.58,0Zm-2.903,0.58c1.44,0 2.612,0.913 2.612,2.033c0,1.12 -1.171,2.032 -2.612,2.032c-0.676,0 -1.318,-0.2 -1.807,-0.567c-0.52,-0.388 -0.806,-0.908 -0.806,-1.465c0,-1.12 1.171,-2.032 2.613,-2.032l0,-0.001Zm-6.678,3.775l1.742,0l0,1.161l-1.742,0c-0.303,-0.022 -0.54,-0.277 -0.54,-0.58c0,-0.304 0.237,-0.559 0.54,-0.581Zm11.613,0l1.742,0c0.303,0.022 0.54,0.277 0.54,0.581c0,0.303 -0.237,0.558 -0.54,0.58l-1.742,0l0,-1.161Zm-8.42,0.29c-0.159,0 -0.29,0.131 -0.29,0.291c0,0.159 0.131,0.29 0.29,0.29l0.581,0c0.159,0 0.29,-0.131 0.29,-0.29c0,-0.159 -0.131,-0.29 -0.29,-0.29l-0.58,0l-0.001,-0.001Zm6.388,0c-0.159,0 -0.29,0.131 -0.29,0.291c0,0.159 0.131,0.29 0.29,0.29l0.58,0c0.159,0 0.29,-0.131 0.29,-0.29c0,-0.159 -0.131,-0.29 -0.29,-0.29l-0.58,0l0,-0.001Z" style="fill:#929192;fill-rule:nonzero;"/></g></svg>