<svg xmlns="http://www.w3.org/2000/svg" width="26" height="26" viewBox="0 0 26 26">
    <g fill="none" fill-rule="evenodd">
        <path fill="#202020" d="M-125-716h360V44h-360z"/>
        <path fill="#FFF" d="M-99-258h308c14.36 0 26 11.64 26 26v1424c0 14.36-11.64 26-26 26H-99c-14.36 0-26-11.64-26-26V-232c0-14.36 11.64-26 26-26z"/>
        <g>
            <path fill="#202020" d="M-125-20h360v64h-360z"/>
            <g fill="#929192">
                <g opacity=".8">
                    <path d="M8.624 10.434a5.11 5.11 0 0 1 .807-1.038l-2.645-2.9a9.046 9.046 0 0 0-1.68 2.186l3.518 1.752M15.109 8.385c.4.183.773.418 1.109.695l2.653-2.896a9.029 9.029 0 0 0-2.351-1.467l-1.411 3.668M21.184 9.257l-3.516 1.753c.168.392.287.808.352 1.242l3.91-.369a8.924 8.924 0 0 0-.746-2.626M17.416 10.502L20.93 8.75a9.035 9.035 0 0 0-1.643-2.182l-2.653 2.896c.303.31.565.659.78 1.038M7.925 13c0-.079.003-.158.007-.237l-3.912-.35a9.01 9.01 0 0 0 .247 2.763l3.778-1.084A5.079 5.079 0 0 1 7.925 13M16.923 16.215a5.14 5.14 0 0 1-.954.898l2.066 3.344a9.064 9.064 0 0 0 2.022-1.878l-3.134-2.364M18.075 13c0 .37-.04.732-.117 1.08l3.778 1.085a8.98 8.98 0 0 0 .246-2.717l-3.911.37a4.7 4.7 0 0 1 .004.182M9.14 16.29l-3.126 2.376a9.073 9.073 0 0 0 2.041 1.85l2.065-3.34a5.116 5.116 0 0 1-.98-.886M7.989 12.2c.07-.443.198-.866.375-1.261L4.849 9.188a8.938 8.938 0 0 0-.776 2.66l3.916.351M17.554 20.76l-2.062-3.34a5.058 5.058 0 0 1-1.204.489l.728 3.863a8.942 8.942 0 0 0 2.538-1.012M17.808 14.626c-.137.402-.322.781-.55 1.131l3.137 2.366a8.95 8.95 0 0 0 1.187-2.412l-3.774-1.085M13.732 18.022a5.106 5.106 0 0 1-1.323.018l-.727 3.863a9.082 9.082 0 0 0 2.777-.021l-.727-3.86M13.325 7.936c.435.028.856.11 1.255.242l1.411-3.667a8.941 8.941 0 0 0-2.666-.504v3.929M11.85 17.943a5.044 5.044 0 0 1-1.246-.47l-2.066 3.341a8.965 8.965 0 0 0 2.585.989l.727-3.86M11.475 8.16a5.024 5.024 0 0 1 1.282-.228V4.003a8.966 8.966 0 0 0-2.703.493l1.421 3.664M8.796 15.839a5.048 5.048 0 0 1-.599-1.2l-3.775 1.083c.286.9.71 1.74 1.247 2.493l3.127-2.376M9.856 9.02a5.075 5.075 0 0 1 1.088-.659L9.524 4.7A8.99 8.99 0 0 0 7.21 6.117L9.856 9.02"/>
                </g>
                <text font-family="RobotoCondensed-Regular, Roboto Condensed" font-size="11.25" font-style="condensed" letter-spacing=".225" transform="translate(-10)">
                    <tspan x=".229" y="34">The Goals</tspan>
                </text>
            </g>
        </g>
    </g>
</svg>
