<svg xmlns="http://www.w3.org/2000/svg" width="26" height="26" viewBox="0 0 26 26">
    <g fill="none" fill-rule="evenodd">
        <path fill="#000" d="M-301-2034H59V40h-360z"/>
        <path fill="#202020" d="M-301-27H59v70h-360z"/>
        <g fill="#929192">
            <text font-family="RobotoCondensed-Regular, Roboto Condensed" font-size="11.25" font-style="condensed" letter-spacing=".225" transform="translate(-7)">
                <tspan x=".385" y="34">Settings</tspan>
            </text>
            <path fill-rule="nonzero" d="M12.268 4a.899.899 0 0 0-.873.681l-.302 1.207a.315.315 0 0 1-.205.228c-.437.133-.863.31-1.268.527a.296.296 0 0 1-.293-.014l-1.075-.646a.9.9 0 0 0-1.1.136L6.119 7.154a.899.899 0 0 0-.135 1.099l.645 1.074a.3.3 0 0 1 .014.293c-.216.405-.392.83-.527 1.268a.315.315 0 0 1-.228.207l-1.206.3A.898.898 0 0 0 4 12.27v1.463c0 .414.28.773.681.873l1.207.301c.11.028.197.106.227.206.134.436.312.863.528 1.268a.3.3 0 0 1-.015.293l-.645 1.075a.899.899 0 0 0 .136 1.1l1.035 1.034a.898.898 0 0 0 1.099.135l1.074-.645a.298.298 0 0 1 .293-.014c.406.216.832.393 1.268.527.1.03.178.118.206.228l.302 1.206c.1.4.459.681.873.681h1.463c.414 0 .772-.28.873-.681l.302-1.207a.315.315 0 0 1 .205-.228c.437-.133.863-.31 1.268-.527a.299.299 0 0 1 .293.014l1.075.646a.898.898 0 0 0 1.1-.136l1.034-1.035a.899.899 0 0 0 .135-1.099l-.645-1.074a.3.3 0 0 1-.014-.293c.216-.406.393-.832.527-1.268.03-.1.118-.179.228-.207l1.206-.3a.9.9 0 0 0 .681-.874v-1.463a.899.899 0 0 0-.681-.873l-1.207-.301a.315.315 0 0 1-.228-.206 7.195 7.195 0 0 0-.527-1.268.3.3 0 0 1 .014-.293l.646-1.075a.899.899 0 0 0-.136-1.1l-1.035-1.034a.9.9 0 0 0-1.1-.135l-1.074.645a.298.298 0 0 1-.292.014 7.15 7.15 0 0 0-1.269-.527.315.315 0 0 1-.206-.228l-.3-1.206a.9.9 0 0 0-.874-.681h-1.463V4zm0 .6h1.464a.3.3 0 0 1 .29.227l.302 1.206c.076.31.308.56.613.656.4.123.79.285 1.16.483.28.146.615.135.885-.029l1.075-.645a.3.3 0 0 1 .366.045l1.035 1.035a.3.3 0 0 1 .045.366l-.645 1.075a.902.902 0 0 0-.03.883c.198.372.36.763.483 1.162.092.3.344.534.656.612l1.206.302a.3.3 0 0 1 .227.29v1.463a.3.3 0 0 1-.227.291l-1.206.302a.917.917 0 0 0-.656.612c-.123.399-.285.79-.483 1.162a.902.902 0 0 0 .03.883l.644 1.075a.3.3 0 0 1-.045.366l-1.035 1.035a.3.3 0 0 1-.366.045l-1.075-.645a.904.904 0 0 0-.883-.03 6.563 6.563 0 0 1-1.161.484.918.918 0 0 0-.613.656l-.302 1.206a.3.3 0 0 1-.29.227h-1.464a.3.3 0 0 1-.29-.227l-.302-1.206a.917.917 0 0 0-.613-.656c-.4-.123-.79-.285-1.16-.483a.878.878 0 0 0-.413-.102.917.917 0 0 0-.472.131l-1.075.645a.3.3 0 0 1-.366-.045l-1.035-1.035a.3.3 0 0 1-.045-.366l.645-1.075a.902.902 0 0 0 .03-.883 6.588 6.588 0 0 1-.483-1.162.917.917 0 0 0-.656-.612l-1.206-.302a.3.3 0 0 1-.227-.29v-1.464a.3.3 0 0 1 .227-.291l1.206-.301a.918.918 0 0 0 .656-.613c.123-.399.285-.79.483-1.161a.901.901 0 0 0-.03-.883l-.644-1.075a.3.3 0 0 1 .045-.367l1.035-1.034a.3.3 0 0 1 .366-.045l1.075.644a.9.9 0 0 0 .883.03c.372-.198.763-.36 1.162-.483a.918.918 0 0 0 .612-.656l.302-1.206a.3.3 0 0 1 .29-.227zM13 7.3A5.706 5.706 0 0 0 7.3 13a.3.3 0 1 0 .6 0c0-2.812 2.288-5.1 5.1-5.1s5.1 2.288 5.1 5.1-2.288 5.1-5.1 5.1a.3.3 0 0 0 0 .6c3.143 0 5.7-2.557 5.7-5.7 0-3.143-2.557-5.7-5.7-5.7zm-4.595 6.645a.301.301 0 0 0-.12.008l-.579.155a.3.3 0 0 0 .155.58l.58-.156a.3.3 0 0 0-.036-.587zm.401 1.157a.3.3 0 0 0-.113.038l-.52.3a.3.3 0 0 0 .3.52l.52-.3a.3.3 0 0 0-.187-.558zm.8.992a.3.3 0 0 0-.212.088l-.425.424a.3.3 0 1 0 .425.424l.424-.424a.3.3 0 0 0-.212-.512zm1.03.765a.3.3 0 0 0-.296.148l-.3.52a.3.3 0 1 0 .52.3l.3-.52a.3.3 0 0 0-.223-.448h-.001zm1.08.48a.3.3 0 0 0-.248.22l-.155.58a.3.3 0 1 0 .579.155l.155-.58a.3.3 0 0 0-.33-.375h-.001z"/>
        </g>
    </g>
</svg>
