<svg xmlns="http://www.w3.org/2000/svg" width="26" height="26" viewBox="0 0 26 26">
    <g fill="none" fill-rule="nonzero">
        <path fill="#56C02B" d="M8.647 10.443c.224-.379.495-.726.805-1.033l-2.64-2.886A9.01 9.01 0 0 0 5.135 8.7l3.512 1.744"/>
        <path fill="#DDA63A" d="M15.12 8.404c.4.183.772.416 1.108.692l2.648-2.882a9.02 9.02 0 0 0-2.347-1.46l-1.409 3.65"/>
        <path fill="#C5192D" d="M21.185 9.272l-3.51 1.744c.168.39.287.804.352 1.236l3.904-.368a8.855 8.855 0 0 0-.746-2.612"/>
        <path fill="#4C9F38" d="M17.423 10.51l3.51-1.744a8.997 8.997 0 0 0-1.64-2.17l-2.648 2.881c.301.31.564.656.778 1.033"/>
        <path fill="#3F7E44" d="M7.95 12.996c0-.079.002-.157.006-.236l-3.905-.348a8.936 8.936 0 0 0 .246 2.749l3.771-1.079a5.034 5.034 0 0 1-.118-1.086"/>
        <path fill="#FCC30B" d="M16.932 16.195a5.119 5.119 0 0 1-.953.893l2.062 3.327a9.044 9.044 0 0 0 2.02-1.869l-3.13-2.351"/>
        <path fill="#FF3A21" d="M18.081 12.996c0 .368-.04.728-.116 1.074l3.771 1.08a8.9 8.9 0 0 0 .246-2.704l-3.904.368c.002.06.003.121.003.182"/>
        <path fill="#FD9D24" d="M9.162 16.27l-3.121 2.364a9.044 9.044 0 0 0 2.038 1.84l2.062-3.323a5.103 5.103 0 0 1-.979-.882"/>
        <path fill="#0A97D9" d="M8.013 12.199c.07-.44.198-.86.374-1.254L4.879 9.203a8.87 8.87 0 0 0-.775 2.646l3.909.35"/>
        <path fill="#A21942" d="M17.562 20.716l-2.06-3.323c-.373.21-.776.376-1.2.487l.726 3.844a8.933 8.933 0 0 0 2.534-1.008"/>
        <path fill="#26BDE2" d="M17.815 14.614c-.137.4-.321.777-.548 1.125l3.13 2.354a8.902 8.902 0 0 0 1.186-2.4l-3.768-1.079"/>
        <path fill="#FD6925" d="M13.746 17.992a5.122 5.122 0 0 1-1.32.018l-.727 3.844a9.088 9.088 0 0 0 2.773-.021l-.726-3.84"/>
        <path fill="#E5243B" d="M13.34 7.957c.434.028.855.11 1.253.241L16 4.55a8.95 8.95 0 0 0-2.662-.502v3.909"/>
        <path fill="#DD1367" d="M11.867 17.914a5.046 5.046 0 0 1-1.243-.468L8.56 20.77a8.959 8.959 0 0 0 2.58.983l.726-3.84"/>
        <path fill="#19486A" d="M11.493 8.18a5.032 5.032 0 0 1 1.28-.227V4.044a8.972 8.972 0 0 0-2.698.49l1.418 3.646"/>
        <path fill="#BF8B2E" d="M8.819 15.82a5.016 5.016 0 0 1-.598-1.194l-3.769 1.078c.286.896.709 1.731 1.245 2.48l3.122-2.364"/>
        <path fill="#00689D" d="M9.877 9.036a5.077 5.077 0 0 1 1.086-.656L9.546 4.736a8.987 8.987 0 0 0-2.312 1.411l2.643 2.889"/>
    </g>
</svg>
