<?xml version="1.0" encoding="UTF-8" standalone="no"?><!DOCTYPE svg PUBLIC "-//W3C//DTD SVG 1.1//EN" "http://www.w3.org/Graphics/SVG/1.1/DTD/svg11.dtd"><svg width="100%" height="100%" viewBox="0 0 26 26" version="1.1" xmlns="http://www.w3.org/2000/svg" xmlns:xlink="http://www.w3.org/1999/xlink" xml:space="preserve" xmlns:serif="http://www.serif.com/" style="fill-rule:evenodd;clip-rule:evenodd;stroke-linejoin:round;stroke-miterlimit:2;"><g><path d="M12.268,4c-0.411,0 -0.773,0.282 -0.873,0.681l-0.302,1.207c-0.024,0.106 -0.102,0.193 -0.205,0.228c-0.437,0.133 -0.863,0.31 -1.268,0.527c-0.093,0.047 -0.205,0.042 -0.293,-0.014l-1.075,-0.646c-0.353,-0.212 -0.809,-0.156 -1.1,0.136l-1.033,1.035c-0.291,0.291 -0.347,0.746 -0.135,1.099l0.645,1.074c0.055,0.088 0.061,0.2 0.014,0.293c-0.216,0.405 -0.392,0.83 -0.527,1.268c-0.035,0.104 -0.121,0.182 -0.228,0.207l-1.206,0.3c-0.401,0.099 -0.684,0.462 -0.682,0.875l0,1.463c0,0.414 0.28,0.773 0.681,0.873l1.207,0.301c0.11,0.028 0.197,0.106 0.227,0.206c0.134,0.436 0.312,0.863 0.528,1.268c0.046,0.094 0.041,0.205 -0.015,0.293l-0.645,1.075c-0.212,0.353 -0.156,0.809 0.136,1.1l1.035,1.034c0.291,0.291 0.746,0.347 1.099,0.135l1.074,-0.645c0.088,-0.056 0.2,-0.061 0.293,-0.014c0.406,0.216 0.832,0.393 1.268,0.527c0.1,0.03 0.178,0.118 0.206,0.228l0.302,1.206c0.1,0.4 0.459,0.681 0.873,0.681l1.463,0c0.414,0 0.772,-0.28 0.873,-0.681l0.302,-1.207c0.024,-0.106 0.102,-0.193 0.205,-0.228c0.437,-0.133 0.863,-0.31 1.268,-0.527c0.093,-0.047 0.205,-0.041 0.293,0.014l1.075,0.646c0.353,0.213 0.809,0.156 1.1,-0.136l1.034,-1.035c0.291,-0.291 0.347,-0.746 0.135,-1.099l-0.645,-1.074c-0.055,-0.088 -0.061,-0.2 -0.014,-0.293c0.216,-0.406 0.393,-0.832 0.527,-1.268c0.03,-0.1 0.118,-0.179 0.228,-0.207l1.206,-0.3c0.399,-0.1 0.681,-0.462 0.681,-0.874l0,-1.463c0,-0.411 -0.282,-0.773 -0.681,-0.873l-1.207,-0.301c-0.106,-0.024 -0.193,-0.103 -0.228,-0.206c-0.135,-0.439 -0.311,-0.863 -0.527,-1.268c-0.047,-0.093 -0.041,-0.205 0.014,-0.293l0.646,-1.075c0.212,-0.353 0.156,-0.809 -0.136,-1.1l-1.035,-1.034c-0.291,-0.291 -0.747,-0.347 -1.1,-0.135l-1.074,0.645c-0.088,0.055 -0.199,0.061 -0.292,0.014c-0.405,-0.216 -0.83,-0.392 -1.269,-0.527c-0.103,-0.035 -0.182,-0.122 -0.206,-0.228l-0.3,-1.206c-0.1,-0.399 -0.462,-0.681 -0.874,-0.681l-1.463,0l0,-0.001Zm0,0.6l1.464,0c0.137,0 0.257,0.094 0.29,0.227l0.302,1.206c0.076,0.31 0.308,0.56 0.613,0.656c0.4,0.123 0.79,0.285 1.16,0.483c0.28,0.146 0.615,0.135 0.885,-0.029l1.075,-0.645c0.118,-0.07 0.269,-0.052 0.366,0.045l1.035,1.035c0.097,0.097 0.115,0.248 0.045,0.366l-0.645,1.075c-0.163,0.269 -0.175,0.604 -0.03,0.883c0.198,0.372 0.36,0.763 0.483,1.162c0.092,0.3 0.344,0.534 0.656,0.612l1.206,0.302c0.133,0.033 0.227,0.153 0.227,0.29l0,1.463c0,0.137 -0.094,0.258 -0.227,0.291l-1.206,0.302c-0.31,0.076 -0.559,0.308 -0.656,0.612c-0.123,0.399 -0.285,0.79 -0.483,1.162c-0.145,0.279 -0.133,0.614 0.03,0.883l0.644,1.075c0.07,0.118 0.052,0.269 -0.045,0.366l-1.035,1.035c-0.097,0.097 -0.248,0.115 -0.366,0.045l-1.075,-0.645c-0.269,-0.163 -0.604,-0.174 -0.883,-0.03c-0.371,0.198 -0.759,0.36 -1.161,0.484c-0.304,0.097 -0.537,0.346 -0.613,0.656l-0.302,1.206c-0.033,0.133 -0.153,0.227 -0.29,0.227l-1.464,0c-0.137,0 -0.257,-0.094 -0.29,-0.227l-0.302,-1.206c-0.076,-0.31 -0.309,-0.559 -0.613,-0.656c-0.4,-0.123 -0.79,-0.285 -1.16,-0.483c-0.127,-0.067 -0.269,-0.102 -0.413,-0.102c-0.166,0 -0.329,0.045 -0.472,0.131l-1.075,0.645c-0.118,0.07 -0.269,0.052 -0.366,-0.045l-1.035,-1.035c-0.097,-0.097 -0.115,-0.248 -0.045,-0.366l0.645,-1.075c0.163,-0.269 0.175,-0.604 0.03,-0.883c-0.198,-0.371 -0.359,-0.76 -0.483,-1.162c-0.097,-0.304 -0.346,-0.536 -0.656,-0.612l-1.206,-0.302c-0.133,-0.033 -0.227,-0.153 -0.227,-0.29l0,-1.464c0,-0.137 0.094,-0.258 0.227,-0.291l1.206,-0.301c0.31,-0.076 0.559,-0.309 0.656,-0.613c0.123,-0.399 0.285,-0.79 0.483,-1.161c0.145,-0.279 0.133,-0.614 -0.03,-0.883l-0.644,-1.075c-0.071,-0.118 -0.052,-0.27 0.045,-0.367l1.035,-1.034c0.097,-0.097 0.248,-0.115 0.366,-0.045l1.075,0.644c0.269,0.164 0.604,0.175 0.883,0.03c0.372,-0.198 0.763,-0.36 1.162,-0.483c0.304,-0.097 0.536,-0.346 0.612,-0.656l0.302,-1.206c0.033,-0.133 0.153,-0.227 0.29,-0.227Zm0.732,2.7c-3.126,0.003 -5.697,2.574 -5.7,5.7c0,0.165 0.135,0.3 0.3,0.3c0.165,0 0.3,-0.135 0.3,-0.3c0,-2.812 2.288,-5.1 5.1,-5.1c2.812,0 5.1,2.288 5.1,5.1c0,2.812 -2.288,5.1 -5.1,5.1c-0.165,0 -0.3,0.135 -0.3,0.3c0,0.165 0.135,0.3 0.3,0.3c3.143,0 5.7,-2.557 5.7,-5.7c0,-3.143 -2.557,-5.7 -5.7,-5.7Zm-4.595,6.645c-0.04,-0.005 -0.081,-0.003 -0.12,0.008l-0.579,0.155c-0.131,0.035 -0.223,0.154 -0.223,0.29c0,0.165 0.136,0.3 0.301,0.3c0.026,0 0.052,-0.003 0.077,-0.01l0.58,-0.156c0.131,-0.035 0.223,-0.154 0.223,-0.29c0,-0.149 -0.111,-0.276 -0.259,-0.297Zm0.401,1.157c-0.04,0.005 -0.078,0.018 -0.113,0.038l-0.52,0.3c-0.093,0.054 -0.15,0.153 -0.15,0.26c0,0.165 0.135,0.3 0.3,0.3c0.053,0 0.104,-0.014 0.15,-0.04l0.52,-0.3c0.093,-0.053 0.151,-0.153 0.151,-0.26c0,-0.165 -0.135,-0.3 -0.3,-0.3c-0.013,0 -0.025,0 -0.038,0.002Zm0.8,0.992c-0.08,0 -0.156,0.032 -0.212,0.088l-0.425,0.424c-0.056,0.056 -0.088,0.133 -0.088,0.212c0,0.165 0.136,0.3 0.3,0.3c0.08,0 0.157,-0.032 0.213,-0.088l0.424,-0.424c0.056,-0.056 0.088,-0.133 0.088,-0.212c0,-0.164 -0.136,-0.3 -0.3,-0.3Zm1.03,0.765c-0.119,-0.014 -0.236,0.044 -0.296,0.148l-0.3,0.52c-0.026,0.046 -0.04,0.097 -0.04,0.15c0,0.165 0.135,0.3 0.3,0.3c0.107,0 0.206,-0.057 0.26,-0.15l0.3,-0.52c0.026,-0.046 0.04,-0.097 0.04,-0.15c0,-0.151 -0.113,-0.28 -0.263,-0.298l-0.001,0Zm1.08,0.48c-0.119,0.017 -0.217,0.104 -0.248,0.22l-0.155,0.58c-0.009,0.029 -0.014,0.06 -0.014,0.091c0,0.164 0.135,0.3 0.3,0.3c0.14,0 0.263,-0.099 0.293,-0.236l0.155,-0.58c0.007,-0.025 0.01,-0.051 0.01,-0.078c0,-0.164 -0.135,-0.3 -0.3,-0.3c-0.013,0 -0.027,0.001 -0.04,0.003l-0.001,0Z" style="fill:#929192;fill-rule:nonzero;"/></g></svg>