<svg xmlns="http://www.w3.org/2000/svg" width="26" height="26" viewBox="0 0 26 26">
    <g fill="none" fill-rule="evenodd">
        <path fill="#000" d="M-33-2033h360V41H-33z"/>
        <path fill="#202020" d="M-33-26h360v70H-33z"/>
        <g fill="#929192">
            <path fill-rule="nonzero" d="M5.431 5a.933.933 0 0 0-.931.931v14.276c0 1.198.975 2.172 2.172 2.172h13.656a2.175 2.175 0 0 0 2.172-2.172v-7.759c0-.685-.556-1.241-1.241-1.241h-2.483V5.93A.933.933 0 0 0 17.845 5H5.43zm0 .62h12.414c.17 0 .31.14.31.311v14.276c0 .62.234 1.164.623 1.552H6.672a1.553 1.553 0 0 1-1.551-1.552v-.931h9.62a.31.31 0 0 0 .31-.31.31.31 0 0 0-.31-.31h-9.62V5.93c0-.17.14-.31.31-.31zm1.862 1.863a.31.31 0 0 0-.31.31c0 .172.138.31.31.31h4.966a.31.31 0 0 0 .31-.31.31.31 0 0 0-.31-.31H7.293zm6.207 0a.31.31 0 0 0-.31.31c0 .172.138.31.31.31h1.862a.31.31 0 0 0 .31-.31.31.31 0 0 0-.31-.31H13.5zM7.293 8.724a.31.31 0 0 0-.31.31c0 .173.138.31.31.31h3.104a.31.31 0 0 0 .31-.31.31.31 0 0 0-.31-.31H7.293zm4.345 0a.31.31 0 0 0-.31.31c0 .173.138.31.31.31h3.724a.31.31 0 0 0 .31-.31.31.31 0 0 0-.31-.31h-3.724zm-4.345 2.483a.31.31 0 0 0-.31.31c0 .172.138.31.31.31h3.104a.31.31 0 0 0 .31-.31.31.31 0 0 0-.31-.31H7.293zm4.966 0a.31.31 0 0 0-.31.31c0 .172.137.31.31.31h3.103a.31.31 0 0 0 .31-.31.31.31 0 0 0-.31-.31H12.26zm6.517.62h1.415a1.218 1.218 0 0 0-.174.621v5.276c0 .172.138.31.31.31a.31.31 0 0 0 .31-.31v-5.276a.622.622 0 0 1 1.242 0v7.759c0 .856-.696 1.552-1.551 1.552-.9 0-1.552-.653-1.552-1.552v-8.38zm-11.483.621a.31.31 0 0 0-.31.31c0 .173.138.311.31.311h3.104a.31.31 0 0 0 .31-.31.31.31 0 0 0-.31-.31H7.293zm4.966 0a.31.31 0 0 0-.31.31c0 .173.137.311.31.311h3.103a.31.31 0 0 0 .31-.31.31.31 0 0 0-.31-.31H12.26zM7.293 13.69a.31.31 0 0 0-.31.31c0 .172.138.31.31.31h3.104a.31.31 0 0 0 .31-.31.31.31 0 0 0-.31-.31H7.293zm4.966 0a.31.31 0 0 0-.31.31c0 .172.137.31.31.31h3.103a.31.31 0 0 0 .31-.31.31.31 0 0 0-.31-.31H12.26zM7.293 14.93a.31.31 0 0 0-.31.31c0 .173.138.31.31.31h3.104a.31.31 0 0 0 .31-.31.31.31 0 0 0-.31-.31H7.293zm4.966 0a.31.31 0 0 0-.31.31c0 .173.137.31.31.31h3.103a.31.31 0 0 0 .31-.31.31.31 0 0 0-.31-.31H12.26zm-4.966 1.241a.31.31 0 0 0-.31.31c0 .173.138.311.31.311h3.104a.31.31 0 0 0 .31-.31.31.31 0 0 0-.31-.31H7.293zm8.69 2.483a.31.31 0 0 0-.31.31c0 .173.138.31.31.31h1.241a.31.31 0 0 0 .31-.31.31.31 0 0 0-.31-.31h-1.241zm-9.62 1.242a.31.31 0 0 0-.311.31v.62c0 .173.138.31.31.31a.31.31 0 0 0 .31-.31v-.62a.31.31 0 0 0-.31-.31zm1.55 0a.31.31 0 0 0-.31.31v.62c0 .173.139.31.31.31a.31.31 0 0 0 .311-.31v-.62a.31.31 0 0 0-.31-.31zm1.553 0a.31.31 0 0 0-.31.31v.62c0 .173.137.31.31.31a.31.31 0 0 0 .31-.31v-.62a.31.31 0 0 0-.31-.31zm1.551 0a.31.31 0 0 0-.31.31v.62c0 .173.138.31.31.31a.31.31 0 0 0 .31-.31v-.62a.31.31 0 0 0-.31-.31zm1.552 0a.31.31 0 0 0-.31.31v.62c0 .173.138.31.31.31a.31.31 0 0 0 .31-.31v-.62a.31.31 0 0 0-.31-.31zm1.552 0a.31.31 0 0 0-.31.31v.62c0 .173.138.31.31.31a.31.31 0 0 0 .31-.31v-.62a.31.31 0 0 0-.31-.31zm1.551 0a.31.31 0 0 0-.31.31v.62c0 .173.138.31.31.31a.31.31 0 0 0 .31-.31v-.62a.31.31 0 0 0-.31-.31zm1.552 0a.31.31 0 0 0-.31.31v.62c0 .173.138.31.31.31a.31.31 0 0 0 .31-.31v-.62a.31.31 0 0 0-.31-.31z"/>
            <text font-family="RobotoCondensed-Regular, Roboto Condensed" font-size="11.25" font-style="condensed" letter-spacing=".225" transform="translate(-7)">
                <tspan x=".937" y="34">Updates</tspan>
            </text>
        </g>
    </g>
</svg>
