<svg xmlns="http://www.w3.org/2000/svg" width="26" height="26" viewBox="0 0 26 26">
    <g fill="none" fill-rule="evenodd">
        <path fill="#000" d="M-215-2033h360V41h-360z"/>
        <path fill="#202020" d="M-215-26h360v70h-360z"/>
        <g fill="#929192">
            <path fill-rule="nonzero" d="M7.725 4a.876.876 0 0 0-.652.255L4.256 7.072a.87.87 0 0 0-.058 1.168l3.644 4.451c.395.486.865.9 1.384 1.24v5.746H7.484a1.162 1.162 0 0 0 0 2.323H20.84a1.162 1.162 0 0 0 0-2.323h-1.742v-8.42a.87.87 0 0 0-.772-.861c-.006-.007-.008-.016-.014-.023l-1.99-2.25a2.615 2.615 0 0 0-1.484-.84l-2.759-.507a5.532 5.532 0 0 1-3.211-1.862l-.513-.606a.87.87 0 0 0-.63-.307zm-.024.58a.29.29 0 0 1 .21.102l.231.275a.29.29 0 0 0-.213.494l.412.41a.29.29 0 0 0 .409 0 .273.273 0 0 0 .074-.147 6.117 6.117 0 0 0 3.15 1.632l2.758.507a2.03 2.03 0 0 1 1.154.653l1.662 1.88h-6.113l-.226-.853a.29.29 0 1 0-.561.147l.257.973c.164.62.507 1.172.992 1.593l1.375 1.197c.365.317.546.792.487 1.272l-.003.036a.291.291 0 0 1-.387.237l-2.683-.969a5.51 5.51 0 0 1-2.395-1.695l-2.716-3.32a.29.29 0 0 0 .098-.474l-.411-.411a.292.292 0 0 0-.41 0H4.85l-.203-.248a.29.29 0 0 1 .02-.389l2.816-2.818a.279.279 0 0 1 .218-.084zm-.593 1.402a.288.288 0 0 0-.204.494l.41.41a.291.291 0 0 0 .41-.41l-.41-.41a.287.287 0 0 0-.206-.084zM6.083 7.008a.29.29 0 0 0-.206.496l.41.41a.291.291 0 0 0 .41-.41l-.41-.41a.288.288 0 0 0-.204-.086zm5.56 3.96h6.583c.16 0 .29.13.29.29v10.161h-8.71v-7.15c.213.106.43.203.655.286a.282.282 0 0 0-.073.187c0 .16.129.29.29.29h.58c.091 0 .17-.044.223-.109l1.69.611a.874.874 0 0 0 .752-.077.871.871 0 0 0 .409-.638l.003-.035c.015-.115.016-.23.01-.343.037.004.07.01.107.01a1.162 1.162 0 0 0 0-2.322c-.462 0-.855.273-1.042.663l-1.132-.984a2.583 2.583 0 0 1-.635-.84zm5.712.58a.29.29 0 0 0-.29.29v1.452a.29.29 0 1 0 .58 0v-1.452a.29.29 0 0 0-.29-.29zm-2.903 1.161a.582.582 0 0 1 0 1.162.583.583 0 0 1-.231-.049 2.007 2.007 0 0 0-.344-.585.58.58 0 0 1 .575-.528zm2.613 1.742a.29.29 0 1 0 0 .581h.58a.29.29 0 1 0 0-.58h-.58zm-6.387 1.452a.29.29 0 1 0 0 .58h.58a.29.29 0 1 0 0-.58h-.58zm3.484 0c-1.255 0-2.34.597-2.862 1.46-.014-.001-.027-.008-.042-.008h-.58a.29.29 0 1 0 0 .58h.372a2.202 2.202 0 0 0-.082.581c0 .197.03.391.082.58h-.372a.29.29 0 1 0 0 .581h.58c.015 0 .028-.006.041-.009.175.29.41.557.708.78.59.44 1.354.681 2.155.681 1.254 0 2.34-.597 2.86-1.46.015.002.028.008.043.008h.58a.29.29 0 1 0 0-.58h-.372c.051-.187.082-.381.082-.581 0-.2-.03-.394-.082-.58h.372a.29.29 0 1 0 0-.581h-.58c-.015 0-.028.007-.042.009-.522-.864-1.607-1.461-2.861-1.461zm2.903 0a.29.29 0 1 0 0 .58h.58a.29.29 0 1 0 0-.58h-.58zm-2.903.58c1.44 0 2.612.913 2.612 2.033 0 1.12-1.171 2.032-2.612 2.032-.676 0-1.318-.2-1.807-.567-.52-.388-.806-.908-.806-1.465 0-1.12 1.171-2.032 2.613-2.032zm-6.678 3.775h1.742v1.161H7.484a.582.582 0 0 1 0-1.161zm11.613 0h1.742a.582.582 0 0 1 0 1.161h-1.742v-1.161zm-8.42.29a.29.29 0 1 0 0 .581h.581a.29.29 0 1 0 0-.58h-.58zm6.388 0a.29.29 0 1 0 0 .581h.58a.29.29 0 1 0 0-.58h-.58z"/>
            <text font-family="RobotoCondensed-Regular, Roboto Condensed" font-size="11.25" font-style="condensed" letter-spacing=".225" transform="translate(-3)">
                <tspan x=".079" y="34">Donate</tspan>
            </text>
        </g>
    </g>
</svg>
