<?xml version="1.0" encoding="UTF-8" standalone="no"?><!DOCTYPE svg PUBLIC "-//W3C//DTD SVG 1.1//EN" "http://www.w3.org/Graphics/SVG/1.1/DTD/svg11.dtd"><svg width="100%" height="100%" viewBox="0 0 26 26" version="1.1" xmlns="http://www.w3.org/2000/svg" xmlns:xlink="http://www.w3.org/1999/xlink" xml:space="preserve" xmlns:serif="http://www.serif.com/" style="fill-rule:evenodd;clip-rule:evenodd;stroke-linejoin:round;stroke-miterlimit:2;"><g><path d="M5.431,5c-0.51,0.001 -0.93,0.421 -0.931,0.931l0,14.276c0,1.198 0.975,2.172 2.172,2.172l13.656,0c1.191,-0.002 2.17,-0.981 2.172,-2.172l0,-7.759c0,-0.685 -0.556,-1.241 -1.241,-1.241l-2.483,0l0,-5.277c-0.002,-0.51 -0.421,-0.929 -0.931,-0.93l-12.415,0l0.001,0Zm0,0.62l12.414,0c0.17,0 0.31,0.14 0.31,0.311l0,14.276c0,0.62 0.234,1.164 0.623,1.552l-12.106,0c-0.851,-0.001 -1.55,-0.701 -1.551,-1.552l0,-0.931l9.62,0c0.17,0 0.31,-0.14 0.31,-0.31c0,-0.17 -0.14,-0.31 -0.31,-0.31l-9.62,0l0,-12.726c0,-0.17 0.14,-0.31 0.31,-0.31Zm1.862,1.863c-0.17,0 -0.31,0.14 -0.31,0.31c0,0.172 0.138,0.31 0.31,0.31l4.966,0c0.17,0 0.31,-0.14 0.31,-0.31c0,-0.17 -0.14,-0.31 -0.31,-0.31l-4.966,0Zm6.207,0c-0.17,0 -0.31,0.14 -0.31,0.31c0,0.172 0.138,0.31 0.31,0.31l1.862,0c0.17,0 0.31,-0.14 0.31,-0.31c0,-0.17 -0.14,-0.31 -0.31,-0.31l-1.862,0Zm-6.207,1.241c-0.17,0 -0.31,0.14 -0.31,0.31c0,0.173 0.138,0.31 0.31,0.31l3.104,0c0.17,0 0.31,-0.14 0.31,-0.31c0,-0.17 -0.14,-0.31 -0.31,-0.31l-3.104,0Zm4.345,0c-0.17,0 -0.31,0.14 -0.31,0.31c0,0.173 0.138,0.31 0.31,0.31l3.724,0c0.17,0 0.31,-0.14 0.31,-0.31c0,-0.17 -0.14,-0.31 -0.31,-0.31l-3.724,0Zm-4.345,2.483c-0.17,0 -0.31,0.14 -0.31,0.31c0,0.172 0.138,0.31 0.31,0.31l3.104,0c0.17,0 0.31,-0.14 0.31,-0.31c0,-0.17 -0.14,-0.31 -0.31,-0.31l-3.104,0Zm4.966,0c-0.17,0 -0.31,0.14 -0.31,0.31c0,0.172 0.137,0.31 0.31,0.31l3.103,0c0.17,0 0.31,-0.14 0.31,-0.31c0,-0.17 -0.14,-0.31 -0.31,-0.31l-3.102,0l-0.001,0Zm6.517,0.62l1.415,0c-0.113,0.188 -0.173,0.402 -0.174,0.621l0,5.276c0,0.172 0.138,0.31 0.31,0.31c0.17,0 0.31,-0.14 0.31,-0.31l0,-5.276c0.019,-0.327 0.293,-0.587 0.621,-0.587c0.328,0 0.602,0.26 0.621,0.587l0,7.759c0,0.856 -0.696,1.552 -1.551,1.552c-0.9,0 -1.552,-0.653 -1.552,-1.552l0,-8.38Zm-11.483,0.621c-0.17,0 -0.31,0.14 -0.31,0.31c0,0.173 0.138,0.311 0.31,0.311l3.104,0c0.17,0 0.31,-0.14 0.31,-0.31c0,-0.17 -0.14,-0.31 -0.31,-0.31l-3.104,0l0,-0.001Zm4.966,0c-0.17,0 -0.31,0.14 -0.31,0.31c0,0.173 0.137,0.311 0.31,0.311l3.103,0c0.17,0 0.31,-0.14 0.31,-0.31c0,-0.17 -0.14,-0.31 -0.31,-0.31l-3.102,0l-0.001,-0.001Zm-4.966,1.242c-0.17,0 -0.31,0.14 -0.31,0.31c0,0.172 0.138,0.31 0.31,0.31l3.104,0c0.17,0 0.31,-0.14 0.31,-0.31c0,-0.17 -0.14,-0.31 -0.31,-0.31l-3.104,0Zm4.966,0c-0.17,0 -0.31,0.14 -0.31,0.31c0,0.172 0.137,0.31 0.31,0.31l3.103,0c0.17,0 0.31,-0.14 0.31,-0.31c0,-0.17 -0.14,-0.31 -0.31,-0.31l-3.102,0l-0.001,0Zm-4.966,1.24c-0.17,0 -0.31,0.14 -0.31,0.31c0,0.173 0.138,0.31 0.31,0.31l3.104,0c0.17,0 0.31,-0.14 0.31,-0.31c0,-0.17 -0.14,-0.31 -0.31,-0.31l-3.104,0Zm4.966,0c-0.17,0 -0.31,0.14 -0.31,0.31c0,0.173 0.137,0.31 0.31,0.31l3.103,0c0.17,0 0.31,-0.14 0.31,-0.31c0,-0.17 -0.14,-0.31 -0.31,-0.31l-3.102,0l-0.001,0Zm-4.966,1.241c-0.17,0 -0.31,0.14 -0.31,0.31c0,0.173 0.138,0.311 0.31,0.311l3.104,0c0.17,0 0.31,-0.14 0.31,-0.31c0,-0.17 -0.14,-0.31 -0.31,-0.31l-3.104,0l0,-0.001Zm8.69,2.483c-0.17,0 -0.31,0.14 -0.31,0.31c0,0.173 0.138,0.31 0.31,0.31l1.241,0c0.17,0 0.31,-0.14 0.31,-0.31c0,-0.17 -0.14,-0.31 -0.31,-0.31l-1.241,0Zm-9.62,1.242c0,0 -0.001,0 -0.001,0c-0.17,0 -0.31,0.14 -0.31,0.31l0,0.62c0,0.173 0.138,0.31 0.31,0.31c0.17,0 0.31,-0.14 0.31,-0.31l0,-0.62c0,-0.17 -0.14,-0.31 -0.31,-0.31l0.001,0Zm1.55,0c-0.17,0 -0.31,0.14 -0.31,0.31l0,0.62c0,0.173 0.139,0.31 0.31,0.31c0,0 0.001,0 0.001,0c0.17,0 0.31,-0.14 0.31,-0.31c0,0 0,0 0,0l0,-0.62c0,-0.17 -0.14,-0.31 -0.31,-0.31l-0.001,0Zm1.553,0c-0.17,0 -0.31,0.14 -0.31,0.31l0,0.62c0,0.173 0.137,0.31 0.31,0.31c0.17,0 0.31,-0.14 0.31,-0.31l0,-0.62c0,-0.17 -0.14,-0.31 -0.31,-0.31Zm1.551,0c-0.17,0 -0.31,0.14 -0.31,0.31l0,0.62c0,0.173 0.138,0.31 0.31,0.31c0.17,0 0.31,-0.14 0.31,-0.31l0,-0.62c0,-0.17 -0.14,-0.31 -0.31,-0.31Zm1.552,0c-0.17,0 -0.31,0.14 -0.31,0.31l0,0.62c0,0.173 0.138,0.31 0.31,0.31c0.17,0 0.31,-0.14 0.31,-0.31l0,-0.62c0,-0.17 -0.14,-0.31 -0.31,-0.31Zm1.552,0c-0.17,0 -0.31,0.14 -0.31,0.31l0,0.62c0,0.173 0.138,0.31 0.31,0.31c0.17,0 0.31,-0.14 0.31,-0.31l0,-0.62c0,-0.17 -0.14,-0.31 -0.31,-0.31Zm1.551,0c-0.17,0 -0.31,0.14 -0.31,0.31l0,0.62c0,0.173 0.138,0.31 0.31,0.31c0.17,0 0.31,-0.14 0.31,-0.31l0,-0.62c0,-0.17 -0.14,-0.31 -0.31,-0.31Zm1.552,0c-0.17,0 -0.31,0.14 -0.31,0.31l0,0.62c0,0.173 0.138,0.31 0.31,0.31c0.17,0 0.31,-0.14 0.31,-0.31l0,-0.62c0,-0.17 -0.14,-0.31 -0.31,-0.31Z" style="fill:#4297FF;fill-rule:nonzero;"/></g></svg>