<svg xmlns="http://www.w3.org/2000/svg" width="726" height="81" viewBox="0 0 726 81">
    <g fill="none" fill-rule="evenodd">
        <g fill="#FFF">
            <path d="M501.624 38.768h9.457v20.975h-4.784v-4.285c-.884 2.948-2.75 4.743-6.37 4.743-5.717 0-8.34-4.512-8.34-10.594V30.6c0-6.136 2.974-10.601 9.983-10.601 7.35 0 9.511 4.056 9.511 9.854v3.471h-6.07v-3.997c0-2.434-.938-3.82-3.334-3.82-2.389 0-3.43 1.681-3.43 4.055v21.082c0 2.375.987 4.053 3.266 4.053 2.156 0 3.263-1.213 3.263-3.76v-6.952h-3.152v-5.218zM514.293 20.473h6.655v33.883h7.934v5.385h-14.589zM543.767 50.645V29.563c0-2.375-1.054-4.058-3.453-4.058-2.332 0-3.386 1.683-3.386 4.058v21.082c0 2.376 1.054 4.059 3.386 4.059 2.4 0 3.453-1.683 3.453-4.059m-13.493-1.038V30.601c0-6.136 3.04-10.591 10.04-10.591 7.064 0 10.099 4.455 10.099 10.591v19.006c0 6.08-3.035 10.595-10.1 10.595-7 0-10.039-4.514-10.039-10.595M560.275 42.074v12.283h2.92c2.22 0 3.268-1.104 3.268-3.19v-5.906c0-2.083-.99-3.187-3.326-3.187h-2.862zm0-5.041h2.337c2.166 0 3.158-1.1 3.158-3.184v-4.81c0-2.145-.992-3.18-3.212-3.18h-2.283v11.174zm-6.65-16.56h9.628c6.66 0 8.875 3.065 8.875 8.621v4c0 3.3-1.228 5.392-3.968 6.261 3.323.753 4.958 2.95 4.958 6.544v5.213c0 5.562-2.505 8.63-9.162 8.63h-10.332v-39.27zM582.865 47.286h5.31l-2.62-15.75h-.062l-2.628 15.75zm-8.346 12.457l7.47-39.27h7.592l7.53 39.27h-6.834l-1.228-7.181h-7.06l-1.165 7.18h-6.305zM599.274 20.473h6.655v33.883h7.934v5.385h-14.589zM631.899 38.768h9.454v20.975h-4.784v-4.285c-.88 2.948-2.747 4.743-6.365 4.743-5.722 0-8.347-4.512-8.347-10.594V30.6c0-6.136 2.975-10.601 9.98-10.601 7.353 0 9.516 4.056 9.516 9.854v3.471h-6.068v-3.997c0-2.434-.94-3.82-3.337-3.82-2.39 0-3.44 1.681-3.44 4.055v21.082c0 2.375.991 4.053 3.274 4.053 2.157 0 3.266-1.213 3.266-3.76v-6.952h-3.15v-5.218zM658.048 50.645V29.563c0-2.375-1.058-4.058-3.444-4.058-2.341 0-3.396 1.683-3.396 4.058v21.082c0 2.376 1.055 4.059 3.396 4.059 2.386 0 3.444-1.683 3.444-4.059m-13.485-1.038V30.601c0-6.136 3.032-10.591 10.04-10.591 7.06 0 10.092 4.455 10.092 10.591v19.006c0 6.08-3.032 10.595-10.091 10.595-7.009 0-10.04-4.514-10.04-10.595M674.333 47.286h5.31l-2.629-15.75h-.057l-2.624 15.75zm-8.35 12.457l7.471-39.27h7.59l7.53 39.27h-6.833l-1.225-7.181h-7.062l-1.171 7.18h-6.3zM690.729 20.473h6.65v33.883h7.947v5.385h-14.597zM706.75 51.287v-5.276h6.185v5.39c0 2.203 1 3.474 3.274 3.474 2.098 0 3.03-1.391 3.03-3.474v-1.506c0-2.265-.932-3.65-2.978-5.562l-3.914-3.88c-3.789-3.708-5.538-5.967-5.538-10.483v-1.336c0-4.863 2.86-8.633 9.336-8.633 6.656 0 9.283 3.251 9.283 8.925v3.192h-6.071v-3.423c0-2.26-1.05-3.364-3.148-3.364-1.876 0-3.157 1.047-3.157 3.248v.807c0 2.205 1.227 3.475 3.157 5.329l4.26 4.169c3.614 3.652 5.367 5.856 5.367 10.2v1.911c0 5.39-2.914 9.206-9.691 9.206-6.77 0-9.395-3.76-9.395-8.914M424 20.473h17.683v5.384h-5.49v33.884h-6.708V25.857H424zM457.262 42.426h-6.418v17.316h-6.65V20.473h6.65v16.623h6.418V20.473h6.714v39.269h-6.714zM467.187 20.473h15.88v5.384h-9.22v11.238h6.592v5.33h-6.592v11.93h9.22v5.386h-15.88z"/>
        </g>
        <g fill-rule="nonzero">
            <path fill="#56C02B" d="M359.829 30A19.591 19.591 0 0 1 363 26.047L352.602 15A34.63 34.63 0 0 0 346 23.326L359.829 30"/>
            <path fill="#DDA63A" d="M386 22.292A20.211 20.211 0 0 1 390.423 25L401 13.715A36.15 36.15 0 0 0 391.626 8L386 22.292"/>
            <path fill="#C5192D" d="M410.02 26L396 33.022A20.247 20.247 0 0 1 397.404 38L413 36.52A35.882 35.882 0 0 0 410.02 26"/>
            <path fill="#4C9F38" d="M395.087 30L409 23.317A34.62 34.62 0 0 0 402.499 15L392 26.042A19.508 19.508 0 0 1 395.087 30"/>
            <path fill="#3F7E44" d="M357.53 40.337c0-.315.01-.63.023-.943L342.078 38a36.088 36.088 0 0 0 .976 11L358 44.685a20.333 20.333 0 0 1-.47-4.348"/>
            <path fill="#FCC30B" d="M392.734 53A20.3 20.3 0 0 1 389 56.597L397.084 70A35.85 35.85 0 0 0 405 62.472L392.734 53"/>
            <path fill="#FF3A21" d="M397.46 40.236c0 1.5-.157 2.961-.46 4.37L411.955 49a37.104 37.104 0 0 0 .976-11l-15.485 1.495c.009.248.014.494.014.741"/>
            <path fill="#FD9D24" d="M362.181 53L350 62.56a35.764 35.764 0 0 0 7.955 7.44L366 56.562A20.176 20.176 0 0 1 362.181 53"/>
            <path fill="#0A97D9" d="M357.515 37A20.077 20.077 0 0 1 359 31.978L345.074 25A35.765 35.765 0 0 0 342 35.6l15.515 1.4"/>
            <path fill="#A21942" d="M396 71.045L387.791 58A20.34 20.34 0 0 1 383 59.91L385.897 75A35.945 35.945 0 0 0 396 71.045"/>
            <path fill="#26BDE2" d="M396.159 47A20.496 20.496 0 0 1 394 51.527L406.332 61A36.144 36.144 0 0 0 411 51.343L396.159 47"/>
            <path fill="#FD6925" d="M380.12 60c-.946.139-1.914.214-2.899.214-.791 0-1.573-.05-2.34-.14L372 75.61a35.252 35.252 0 0 0 11-.088L380.12 60"/>
            <path fill="#E5243B" d="M379 20.07c1.798.107 3.535.426 5.18.93L390 6.936A39.347 39.347 0 0 0 379 5v15.07"/>
            <path fill="#DD1367" d="M373 59.85a19.797 19.797 0 0 1-4.89-1.85L360 71.12A35.151 35.151 0 0 0 370.147 75L373 59.85"/>
            <path fill="#19486A" d="M371.782 21a21.514 21.514 0 0 1 5.218-.878V5c-3.844.097-7.537.76-11 1.895L371.782 21"/>
            <path fill="#BF8B2E" d="M361 51.697A19.818 19.818 0 0 1 358.673 47L344 51.241A35.188 35.188 0 0 0 348.847 61L361 51.697"/>
            <path fill="#00689D" d="M365.63 25a20.494 20.494 0 0 1 4.37-2.591L364.299 8A36.27 36.27 0 0 0 355 13.58L365.63 25"/>
        </g>
        <path fill="#FFF" d="M245.902 38.008v5.58h3.795v5.54c.012.494-.014 1.026-.096 1.455-.151 1.033-1.1 2.79-3.793 2.79-2.678 0-3.611-1.757-3.773-2.79a9.803 9.803 0 0 1-.097-1.455V31.637c0-.618.041-1.296.169-1.809.183-.932.983-2.77 3.68-2.77 2.832 0 3.54 1.938 3.701 2.77.107.552.113 1.477.113 1.477v2.123h9.325v-1.254s.041-1.312-.071-2.534c-.702-7.178-6.424-9.45-12.985-9.45-6.575 0-12.181 2.293-12.999 9.45-.074.655-.186 1.833-.186 2.534v16.088c0 .7.022 1.244.148 2.524.608 6.98 6.462 9.455 13.01 9.455 6.588 0 12.402-2.474 13.02-9.455.11-1.28.122-1.824.137-2.524V38.008h-13.098zM181.606 21.22h-9.364v28.31c.015.494 0 1.048-.083 1.454-.194.951-.974 2.78-3.557 2.78-2.551 0-3.35-1.829-3.531-2.78-.093-.406-.105-.96-.093-1.454V21.22h-9.361v27.432c-.012.707.041 2.151.081 2.53.647 7.148 6.097 9.47 12.904 9.47 6.82 0 12.267-2.322 12.926-9.47.052-.379.12-1.823.078-2.53V21.22zm-86.04 0l-4.67 29.914-4.668-29.914H71.12l-.8 38.268h9.254l.25-35.425 6.367 35.425h9.39l6.373-35.425.25 35.425h9.278l-.828-38.268H95.566zm-55.925 0l-6.86 38.268h10.003l5.168-35.425 5.044 35.425h9.932L56.1 21.22H39.641zm174.692 30.81l-8.72-30.81h-13.74v37.869h9.09l-.528-31.796 9.363 31.796h13.18v-37.87h-9.15l.505 30.811zm-84.075-20.85a5.294 5.294 0 0 1-.033-1.98c.265-1.225 1.062-2.56 3.357-2.56 2.137 0 3.391 1.378 3.391 3.445v2.341h9.129v-2.668c0-8.245-7.152-9.54-12.33-9.54-6.522 0-11.849 2.221-12.822 8.426-.257 1.687-.32 3.187.088 5.1 1.585 7.736 14.616 9.98 16.508 14.873.333.925.239 2.108.067 2.804-.283 1.273-1.11 2.554-3.568 2.554-2.304 0-3.69-1.37-3.69-3.433l-.004-3.673h-9.826v2.92c0 8.46 6.412 11.012 13.317 11.012 6.612 0 12.075-2.336 12.951-8.668.418-3.27.102-5.402-.065-6.203-1.53-7.936-15.419-10.321-16.47-14.75zM9.842 31.085c-.18-.771-.138-1.587-.038-2.01.253-1.22 1.054-2.579 3.39-2.579 2.164 0 3.44 1.39 3.44 3.475v2.369h9.236v-2.689c0-8.324-7.262-9.652-12.497-9.652C6.795 20 1.421 22.257.438 28.506.17 30.221.123 31.73.512 33.664c1.604 7.824 14.763 10.087 16.678 15.037.358.92.25 2.102.072 2.826-.305 1.287-1.14 2.584-3.617 2.584-2.312 0-3.696-1.392-3.696-3.484l-.014-3.681H0v2.925C0 58.428 6.502 61 13.46 61c6.69 0 12.184-2.356 13.08-8.76.446-3.3.111-5.45-.038-6.264-1.564-8.032-15.606-10.411-16.66-14.89z"/>
        <path stroke="#FFF" stroke-linecap="square" d="M300.5 0v81"/>
    </g>
</svg>
