<svg xmlns="http://www.w3.org/2000/svg" width="134" height="68" viewBox="0 0 134 68">
    <path fill="#FFF" fill-rule="evenodd" d="M93.94 39.829c-.742-.204-3.845-4.494-1.392-7.318.408-.464-.823-1.83-.487-1.857 1.343-.104 2.056.73 2.408 1.93.028.528.049 1.063.049 1.602 0 1.935-.202 3.82-.578 5.643m-7.573 13.955a4.759 4.759 0 0 1-.868-.32c-1.508-.77-1.328.459-2.07.188-.745-.276.838-1.998-1.392-.543-2.218 1.452-1.62-.225-2.588-2.683-.977-2.462 1.114-5.272 2.86-5.909 2.403-.868 3.893-1.045 5.02-1.323 3.32-.83 4.022-2.8 4.625-1.6.114.224.223.437.323.637.195.359.417 1.086.429 1.801a27.69 27.69 0 0 1-6.339 9.752M66.871 61.83c-2.7 0-5.305-.394-7.769-1.114-.353-.289-.555-.772-.334-1.35.856-2.23 3.403-3.103 5.413-3.297 4.483-.437 10.373 2.91 11.31 2.37.94-.54 2.835-3.004 5.617-2.9 1.897.073 1.883.391 2.52.632a27.527 27.527 0 0 1-16.757 5.659m-3.757-18.018c-.381.622-1.42 5.27-2.117 4.73-.702-.542.283-5.391.485-5.76 1.09-2.003 3.453-1.905 1.632 1.03m11.29-5.488c-.547.485-1.944.309-2.644-.238-.694-.54.441-1.439.856-1.47.932-.083 2.329 1.216 1.787 1.708m12.2.047c-.299-.11-.56-.394-.788-1.072-.224-.678.347-1.067.904-.792.567.286 1.304 1.133 1.304 1.586 0 .452-1.116.398-1.42.278m1.174.85c.931-.075 2.326 1.213 1.78 1.707-.543.49-1.937.31-2.636-.237-.696-.54.44-1.436.856-1.47M58.125 50.246c-.538 2.114-1.165 2.875-1.7 3.54-.533.675-2.512 1.535-3.769 1.443-1.256-.094-1.432-3.45-1.432-5.175 0-.596-.843 1.17-1.283-2.42-.281-2.298-1.757.24-1.86-1.293-.106-1.53-.844-1.225-1.62-2.181-.77-.956-1.732.093-2.811.575-1.072.478-.63.727-2.155.247-.038-.01-.06-.022-.096-.035a27.57 27.57 0 0 1-2.172-10.76c0-.933.049-1.85.137-2.759.053-.091.107-.18.17-.256 1.462-1.73 1.429-2.136 1.429-2.136l1.618-.558s2.582.397 4.53 1.13c1.6.6 4.124 1.959 5.591 1.361 1.061-.439 1.893-1.017 1.792-1.901-.119-1.109-.992-1.37-2.049-.626-.39.275-1.22-1.67-1.871-1.57-.652.096.805 2.286.253 2.379-.555.095-1.668-2.283-1.858-2.668-.188-.381-1.047-1.335-1.818-.608-1.631 1.548-4.278 1.455-4.81 1.852-1.619 1.211-2.046-.397-2.01-1.377.066-.225.131-.45.203-.672.53-.583 2.425-.777 3.077-.342.714.478 1.227-.122 1.506-.413.285-.283.185-.742.007-1.123-.182-.383.357-.666.726-.765.373-.098 1.605-.96 2.097-1.25.495-.284 3.052-.593 4.198-.022 1.144.578 2.195.107 2.757-.555.707-.839 1.606-1.478 2.005-1.672.401-.188-.986-1.481-2.126-.07-1.144 1.404-1.726 1.534-2.262 1.534-.538 0-3.729-.796-4.122-1.805-.389-1.007.998-1.762 2.177-2.333 1.177-.56 4.4-.554 5.223-.74 1.676-.367 3.817-1.21 4.896-.475 1.073.723-4.506 1.993-2.672 2.983.652.358 3.601-1.698 4.612-2.223 2.377-1.225-2.306-1.63-1.698-4.123.687-2.817-5.743-1.728-8.948-1.487A27.484 27.484 0 0 1 66.87 6.54c13.043 0 23.967 9.032 26.879 21.18a4.463 4.463 0 0 1-.134 1.28c-.251.997-2.14 1.852-3.237.25-.28-.404-1.465-1.524-1.425.392.039 1.915 1.861 2.11.093 3.261-1.764 1.148-2.088.87-2.905 1.162-.813.288-1.604 2.262-1.41 3.318.2 1.054 2.718 3.934.848 3.817-.438-.034-3.74-2.288-4.286-3.74-.575-1.527-1.204-3.02-1.649-4.174-.451-1.145-1.616-1.439-2.604-.766-.982.675.274 1.346-.432 2.787-.705 1.436-1.211 2.72-2.25 1.533-2.697-3.091-6.618-1.566-7.233-5.007-.332-1.865-1.938-1.685-3.28-2.743-1.35-1.05-2.103-1.622-2.33-.86-.2.668 4.225 4.174 4.542 5.074.469 1.335-1.325 2.513-2.64 2.83-1.307.314-1.885-.739-3.174-2.08-1.286-1.339-1.85-2.297-1.94-1.244-.128 1.52 1.223 3.754 2.536 4.589 1.118.71 2.37 1.03 2.009 2.179-.364 1.152-.005.5-1.26 1.74-1.255 1.247-1.494 1.646-1.403 3.366.09 1.728-.358 1.828-.629 3.262-.267 1.436-.89.193-1.432 2.299M43.274 19.779c.063-.073.12-.135.144-.166.5-.568 1.492-.691 2.18-.798.688-.116 1.605.23 1.716.687.118.453-1.726 1.288-2.063 1.6-.954.881-2.448 2.672-3.321 2.865-.287.065-.522.02-.716-.075a27.399 27.399 0 0 1 2.06-4.113m1.418-2.818c.357-.524 1.545-2.023 1.69-2.213.306-.393.913-.473 1.338-.55.42-.08.982.157 1.05.473.073.318-.163 1.546-.37 1.757-.582.603-2.096 1.457-2.931 1.323-.647-.1-.9-.599-.777-.79m87.877 16.336C127.851 26.677 106.505.25 66.827.25 27.142.25 5.802 26.677 1.077 33.297c-.2.283-.375.525-.515.734.14.213.314.457.515.744 4.725 6.616 26.065 33.043 65.75 33.043 39.678 0 61.024-26.427 65.742-33.043.206-.287.376-.53.512-.744-.136-.209-.306-.451-.512-.734"/>
</svg>
