<svg xmlns="http://www.w3.org/2000/svg" width="74" height="73" viewBox="0 0 74 73">
    <g fill="#FFF" fill-rule="evenodd">
        <path d="M63.296 1.231s-1.514 2.002-1.073 3.95c.443 1.953 2.675 3.113 2.675 3.113s1.514-2.001 1.073-3.95C65.53 2.39 63.296 1.23 63.296 1.23M60.83 12.662s1.514-2.003 1.073-3.954C61.46 6.758 59.228 5.6 59.228 5.6s-1.516 2-1.077 3.952c.447 1.949 2.68 3.11 2.68 3.11M67.05 10.519s1.599 1.604 3.418 1.442c1.822-.16 3.17-2.024 3.17-2.024S72.042 8.33 70.22 8.492c-1.822.16-3.17 2.027-3.17 2.027M69.669 1.945c-1.48 1.495-1.273 4.144-1.273 4.144s2.61.226 4.095-1.27C73.97 3.325 73.763.677 73.763.677S71.15.451 69.669 1.945M66.4 16.469c1.815.214 3.52-1.337 3.52-1.337s-1.234-1.897-3.047-2.111c-1.815-.213-3.522 1.34-3.522 1.34s1.237 1.895 3.05 2.108M68.021 47.845H54.465c-1.06 0-1.92.851-1.92 1.909 0 1.054.86 1.91 1.92 1.91H68.02a1.91 1.91 0 0 0 0-3.819M68.021 68.896H54.465c-1.06 0-1.92.853-1.92 1.909 0 1.054.86 1.908 1.92 1.908H68.02a1.912 1.912 0 0 0 1.917-1.908 1.91 1.91 0 0 0-1.917-1.909M7.054 43.209a8.318 8.318 0 0 0-.94-.241s.347.105.94.24"/>
        <path d="M29.025 51.47c.894.016 1.79-.01 2.689-.071v7.054l-2.69-.062v-6.92zm38.497 1.528H54.96a1.09 1.09 0 0 0-1.092 1.086v3.789l-8.2.898-11.981-.275v-7.285a32.936 32.936 0 0 0 4.768-.963C49.985 47.007 52.5 37.512 52.25 30.943c-.25-6.69 1.899-9.29 4.989-10.444.886-.33 1.76-.54 2.56-.676.034 1.643.37 3.555 1.107 5.83.273-.015.547-.038.817-.068-.778-2.327-1.11-4.242-1.13-5.876 1.596-.188 2.736-.081 2.736-.081s-1.08-.578-2.603-1.845c.519-3.169 2.414-5.114 4.366-7.104 1.073-1.094 2.183-2.226 3.056-3.572l-.681-.438c-.826 1.28-1.911 2.38-2.956 3.446-1.904 1.94-3.826 3.923-4.477 7.068a25.658 25.658 0 0 1-1.975-1.98c-2.843-3.176-6.504-.842-11.724 3.998-5.224 4.838-11.79 5.003-18.205-1.533-8.464-8.626-15.845-8.577-20.907-8.087 3.463 1.467 4.673 4.69 6.427 12.881 1.838 8.595 6.47 12.483 12.807 13.02-3.526 1.24-3.699 3.222-8.423 6.47-3.686 2.533-8.876 1.732-10.98 1.257 3.861 1.199 8.437 5.234 12.528 6.636a30.442 30.442 0 0 0 7.468 1.525v6.975L5.59 57.86v4.866l40.078-.914 8.2.9v3.783c0 .601.489 1.09 1.092 1.09h12.562c.603 0 1.092-.489 1.092-1.09v-12.41a1.09 1.09 0 0 0-1.092-1.086zM4.415 61.92c0 1.026-.718 1.859-1.604 1.859h-.967c-.884 0-1.604-.833-1.604-1.86v-3.363c0-1.028.72-1.859 1.604-1.859h.967c.886 0 1.604.831 1.604 1.86v3.363z"/>
    </g>
</svg>
