<svg xmlns="http://www.w3.org/2000/svg" width="90" height="88" viewBox="0 0 90 88">
    <path fill="#FFF" fill-rule="evenodd" d="M60.92 41.345c4.614-4.263 7.51-10.347 7.51-17.095 0-1.01-.074-2.005-.197-2.982 9.375 1 16.704 8.922 16.704 18.524 0 5.454-2.38 10.352-6.146 13.765-3.526-6.581-10.12-11.284-17.871-12.212m15.903 23.157c0 10.27-8.393 18.63-18.711 18.63-3.358 0-6.498-.899-9.226-2.445 3.981-4.183 6.434-9.83 6.434-16.03 0-1.528-.153-3.02-.436-4.464a23.364 23.364 0 0 0 11.346 2.926 23.36 23.36 0 0 0 10.214-2.341c.249 1.205.38 2.45.38 3.724m-63.64.154c0-1.323.142-2.615.408-3.86a23.365 23.365 0 0 0 10.186 2.323c4.101 0 7.955-1.058 11.312-2.907a23.2 23.2 0 0 0-.406 4.29c0 6.301 2.53 12.023 6.623 16.225a18.626 18.626 0 0 1-9.413 2.557c-10.318 0-18.71-8.356-18.71-18.628M5.068 39.792c0-9.602 7.328-17.523 16.703-18.524a23.427 23.427 0 0 0-.195 2.982c0 6.818 2.955 12.964 7.653 17.232-7.772.882-14.398 5.557-17.963 12.12-3.792-3.409-6.198-8.33-6.198-13.81M45.002 5.619c7.666 0 14.26 4.616 17.151 11.203-7.613 1.335-13.966 6.338-17.151 13.108-3.184-6.771-9.538-11.775-17.15-13.108 2.89-6.587 9.484-11.203 17.15-11.203m4.454 42.38a18.67 18.67 0 0 1 8.656-2.13c7.355 0 13.715 4.261 16.772 10.424a18.657 18.657 0 0 1-8.654 2.13c-7.36 0-13.72-4.262-16.774-10.425m-8.968.127c-3.08 6.094-9.402 10.298-16.71 10.298a18.64 18.64 0 0 1-8.594-2.102c3.077-6.094 9.404-10.296 16.71-10.296 3.1 0 6.017.764 8.594 2.1M26.536 21.384c9.01 1.335 15.953 9.067 15.953 18.408 0 .973-.099 1.927-.245 2.862-9.01-1.335-15.951-9.067-15.951-18.404 0-.977.097-1.93.243-2.866m18.552 56.463c-3.502-3.387-5.687-8.116-5.687-13.345 0-5.151 2.114-9.819 5.515-13.194 3.5 3.386 5.687 8.115 5.687 13.348 0 5.15-2.11 9.817-5.515 13.19M63.711 24.25c0 9.337-6.938 17.069-15.949 18.404a18.466 18.466 0 0 1-.244-2.862c0-9.34 6.941-17.073 15.948-18.407.147.935.245 1.888.245 2.865m25.943 15.542c0-12.58-10.048-22.856-22.565-23.311C63.87 7.427 55.184.92 45.002.92s-18.865 6.506-22.089 15.56C10.396 16.938.353 27.214.353 39.79c0 7.464 3.542 14.117 9.039 18.39a23.164 23.164 0 0 0-.926 6.475c0 12.86 10.51 23.325 23.428 23.325 4.902 0 9.455-1.51 13.22-4.084a23.368 23.368 0 0 0 12.998 3.93c12.918 0 23.426-10.467 23.426-23.325 0-2.202-.314-4.33-.887-6.348 5.474-4.274 9.003-10.915 9.003-18.362"/>
</svg>
