<svg xmlns="http://www.w3.org/2000/svg" width="98" height="83" viewBox="0 0 98 83">
    <g fill="#FFF" fill-rule="evenodd">
        <path d="M71.162 62.625a5.96 5.96 0 0 1-5.958-5.96 5.954 5.954 0 0 1 5.958-5.954 5.955 5.955 0 0 1 5.964 5.954c0 3.29-2.666 5.96-5.964 5.96M97.04 59.85c-2.254-3.047-16.814-21.61-37.229-21.61-17.728 0-36.691 16.08-36.691 16.08S15.995 39.736 1.424 38.337c-.085 0-.176-.02-.273-.02H1.06c-.304.017-.589.312-.555.577.04.255.226.533.226.533 1.879 3.117 6.673 11.99 6.673 20.852 0 8.893-4.822 17.788-6.683 20.892l-.125.198a.58.58 0 0 0-.091.308.58.58 0 0 0 .537.574l.158-.014c.048 0 .099 0 .152-.014C15.969 80.861 23.12 66.237 23.12 66.237s18.963 16.08 36.691 16.08c20.415 0 34.975-18.565 37.23-21.605.06-.083.112-.155.156-.208a.619.619 0 0 0 .047-.225c0-.079-.02-.16-.047-.221-.044-.061-.095-.134-.157-.21M.965 3.345c-.044-.01-.076-.024-.113-.024a.587.587 0 0 0-.585.59v4.065c0 .17.063.32.17.42 9.856 8.563 19.185.54 21.345-1.58a.559.559 0 0 1 .153-.167.615.615 0 0 1 .323-.106c.153 0 .296.06.397.159.01.01.02.019.029.024 11.13 10.623 22.803 2.02 25.231 0l.24-.22a.546.546 0 0 1 .22-.042.58.58 0 0 1 .233.043l.239.22c2.428 2.018 14.099 10.622 25.23 0 .002-.006.016-.015.023-.025a.564.564 0 0 1 .393-.159c.123 0 .234.046.324.106.068.04.114.102.165.167 2.156 2.12 11.477 10.143 21.34 1.58.103-.1.17-.25.17-.42V3.91a.581.581 0 0 0-.578-.59c-.043 0-.081.014-.127.024a3.523 3.523 0 0 1-.295.153c-3.03 1.518-12.43 5.13-20.964-2.944-.079-.073-.163-.149-.246-.237a.673.673 0 0 0-.25-.053c-.06 0-.124.018-.175.029a.663.663 0 0 0-.299.23c-2.542 1.938-14.213 9.84-24.608.142l-.152-.147a.652.652 0 0 0-.422-.174.622.622 0 0 0-.406.174l-.162.147c-10.39 9.697-22.074 1.796-24.613-.142a.632.632 0 0 0-.288-.23c-.062-.01-.122-.029-.187-.029a.702.702 0 0 0-.246.053c-.075.088-.167.164-.25.237-8.531 8.074-17.927 4.462-20.96 2.944a5.236 5.236 0 0 1-.3-.153M21.782 21.6a.617.617 0 0 1 .155-.163.615.615 0 0 1 .321-.11c.153 0 .297.063.399.165.007.009.02.017.026.023 11.128 10.61 22.804 2.01 25.232 0l.24-.227a.607.607 0 0 1 .219-.037c.086 0 .167.01.235.037l.24.227c2.426 2.01 14.097 10.61 25.23 0 .001-.006.012-.014.02-.023a.559.559 0 0 1 .394-.165.59.59 0 0 1 .324.11c.07.046.115.095.165.162 2.156 2.123 11.477 10.147 21.34 1.576a.57.57 0 0 0 .173-.41V18.69a.582.582 0 0 0-.582-.584c-.042 0-.08.018-.124.025-.092.044-.188.095-.297.147-3.028 1.52-12.434 5.123-20.964-2.94-.079-.075-.161-.15-.246-.233a.48.48 0 0 0-.25-.058.362.362 0 0 0-.175.044.495.495 0 0 0-.297.218c-2.541 1.936-14.215 9.839-24.611.144l-.153-.153a.595.595 0 0 0-.422-.164.582.582 0 0 0-.406.164l-.16.153c-10.39 9.695-22.074 1.792-24.613-.144a.486.486 0 0 0-.288-.218.475.475 0 0 0-.429.014c-.081.082-.167.158-.255.233-8.53 8.063-17.927 4.46-20.958 2.94-.107-.052-.207-.103-.299-.147-.045-.007-.075-.025-.112-.025a.585.585 0 0 0-.587.584v4.073c0 .169.063.308.169.411 9.856 8.57 19.186.547 21.346-1.576"/>
    </g>
</svg>
