<svg xmlns="http://www.w3.org/2000/svg" width="122" height="62" viewBox="0 0 122 62">
    <path fill="#FFF" fill-rule="evenodd" d="M111.151 6.47C103.84.675 95.08.05 91.657.05c-1.806 0-3.48.163-4.704.456l-.482.111C81.846 1.715 74.103 3.55 65.088 14.784l-.264.33c-.15.214-.226.443-.226.68 0 .206.052.402.16.596l.203.337c1.489 2.5 2.726 4.67 3.708 6.512a1.19 1.19 0 0 0 1.928.272c.062-.085.127-.171.169-.238C78.55 12.458 84.654 11.018 88.69 10.066l.5-.12c.556-.135 1.457-.21 2.471-.21 1.88 0 8.404.312 13.49 4.348 4.53 3.59 6.834 9.324 6.834 17.042 0 12.935-6.233 17.98-11.465 19.935-1.991.749-4.15 1.13-6.388 1.13-5.388 0-9.532-2.165-9.588-2.194l-.374-.181c-4.497-1.963-11.212-6.05-17.56-18.853C53.596 4.713 42.664 2.227 35.425.58l-.381-.084c-.554-.128-2.12-.42-4.666-.42-4.191 0-12.256.825-19.166 6.365C6.493 10.22.866 17.564.866 31.073c0 8.232 1.689 13.669 6.017 19.388.814 1.116 8.356 10.896 22.837 10.896 2.145 0 4.37-.22 6.613-.651 2.643-.509 6.723-1.822 11.28-5.178l3.806 3.45c.426.39 1.164.35 1.547-.072.184-.198.284-.465.274-.726l2.943-18.217.002-.212a1.082 1.082 0 0 0-.353-.794c-.193-.183-.441-.282-.763-.282h-.007L37.4 43.577l-.334.055c-.225.048-.42.164-.562.326a1.103 1.103 0 0 0 .074 1.56l3.66 3.323c-1.924 1.185-3.846 1.97-5.716 2.333-1.592.306-3.17.46-4.685.46-10.007 0-14.93-6.594-15.134-6.873l-.099-.137c-3.044-4.015-4.073-7.435-4.073-13.551 0-7.744 2.258-13.481 6.707-17.051 4.954-3.967 11.326-4.276 13.163-4.276 1.005 0 1.917.076 2.502.21l.39.088c5.78 1.313 13.694 3.113 24.663 25.243C63.75 46.969 71.017 54.612 80.15 58.64c1.063.543 6.727 3.256 13.994 3.256 3.384 0 6.667-.584 9.75-1.739 5.343-1.999 17.754-8.83 17.754-29.032 0-13.499-5.712-20.86-10.497-24.657"/>
</svg>
