<svg xmlns="http://www.w3.org/2000/svg" width="138" height="60" viewBox="0 0 138 60">
    <g fill="#FFF" fill-rule="evenodd">
        <path d="M125.285 10.466a4.955 4.955 0 0 0 4.95-4.96 4.954 4.954 0 0 0-4.95-4.96 4.962 4.962 0 0 0-4.963 4.96 4.962 4.962 0 0 0 4.963 4.96M131.073 12.378c-.118-.014-.236-.03-.378-.03H119.859c-.133 0-.253.016-.364.03a6.611 6.611 0 0 0-6.008 6.586v13.744a1.92 1.92 0 0 0 1.919 1.921 1.924 1.924 0 0 0 1.924-1.92V20.903c0-.442.123-1.043.937-1.043.555 0 .677.594.694.971v35.384a2.762 2.762 0 0 0 5.522 0V35.824c.008-.223.095-.808.8-.808h.001c.701 0 .777.585.784.808v20.392c0 1.52 1.239 2.761 2.77 2.761a2.76 2.76 0 0 0 2.758-2.76V20.831c.021-.377.137-.971.696-.971.81 0 .939.6.939 1.043v11.804a1.922 1.922 0 0 0 3.843 0V18.964a6.608 6.608 0 0 0-6.001-6.586M86.145 12.808a4.692 4.692 0 0 0 4.692-4.696 4.697 4.697 0 0 0-4.692-4.703 4.7 4.7 0 0 0 0 9.399M91.731 21.429c.614-.178.786.64.786.64l3.145 10.603s.6 2.274 2.563 1.693c1.98-.582 1.28-2.91 1.28-2.91l-3.902-12.708s-1.396-3.674-4.483-3.674h-9.95c-3.09 0-4.487 3.674-4.487 3.674L72.78 31.455s-.696 2.328 1.28 2.91c1.966.581 2.564-1.693 2.564-1.693L79.77 22.07s.17-.818.784-.64c.615.176.383 1.05.383 1.05L75.46 42.35h5.095v14.234a2.448 2.448 0 0 0 2.45 2.445c1.349 0 2.44-1.097 2.44-2.445V42.35h1.392v14.234a2.447 2.447 0 0 0 4.894 0V42.35h5.093L91.35 22.478s-.23-.873.381-1.049M58.02 12.808a4.693 4.693 0 0 0 4.694-4.696c0-2.596-2.1-4.703-4.694-4.703a4.699 4.699 0 0 0-4.695 4.703c0 2.594 2.1 4.696 4.695 4.696M67.477 18.748s-1.392-3.675-4.482-3.675h-9.95c-3.087 0-4.486 3.675-4.486 3.675l-3.901 12.707s-.1.336-.116.784a1.395 1.395 0 0 0-2.313.103l-.016-.007c-.114.099-1.938 3.346-2.541 3.95-.636.64-1.206.568-1.206.568H33.73s-.574.073-1.207-.569c-.61-.603-2.427-3.85-2.543-3.949l-.012.007a1.434 1.434 0 0 0-1.207-.667c-.482 0-.89.258-1.148.625V18.964a6.61 6.61 0 0 0-6.006-6.587c-.113-.014-.23-.03-.364-.03H10.406c-.143 0-.262.016-.378.03a6.61 6.61 0 0 0-6.004 6.587v13.744c0 .736.422 1.37 1.034 1.694-.027.054-.056.107-.069.17L.585 57.912a.728.728 0 0 0 1.43.269l4.403-23.34a.728.728 0 0 0-.004-.276 1.921 1.921 0 0 0 1.457-1.857V20.904c0-.443.127-1.044.937-1.044.559 0 .675.594.7.972v35.384a2.76 2.76 0 1 0 5.52 0v-20.39c.011-.226.085-.81.788-.81h.002c.705 0 .79.584.796.81v20.39a2.762 2.762 0 0 0 5.523 0V20.832c.016-.378.143-.972.696-.972.814 0 .937.601.937 1.044v11.804c0 1.058.861 1.922 1.922 1.922.765 0 1.419-.451 1.728-1.096.03.105.056.186.056.186l3.94 7.131s.243.49.243.94v1.403l-2.08 7.634h2.08v6.275h.007c0 1.069.862 1.926 1.927 1.926 1.064 0 1.921-.857 1.921-1.926V51.06s-.01-.102 0-.232h1.162c.01.13 0 .232 0 .232v6.043c0 1.069.864 1.926 1.928 1.926 1.063 0 1.93-.857 1.93-1.926v-6.275h2.083l-2.084-7.678v-1.358c0-.45.24-.94.24-.94l3.64-6.584s.234-.495.362-.855c.199.404.536.768 1.162.952 1.965.582 2.562-1.692 2.562-1.692l3.148-10.606s.17-.815.783-.638c.615.176.383 1.048.383 1.048L47.336 42.35h5.094v14.235a2.45 2.45 0 0 0 2.448 2.444 2.444 2.444 0 0 0 2.445-2.444V42.35h1.392v14.235a2.442 2.442 0 0 0 2.444 2.444 2.444 2.444 0 0 0 2.446-2.444V42.35H68.7l-5.473-19.873s-.232-.872.378-1.048c.613-.177.787.638.787.638l3.144 10.606s.6 2.274 2.564 1.692c1.979-.582 1.28-2.91 1.28-2.91l-3.903-12.707zM106.606 34.39a3.905 3.905 0 0 0 3.907-3.911 3.9 3.9 0 0 0-3.907-3.905 3.901 3.901 0 0 0-3.908 3.905 3.906 3.906 0 0 0 3.908 3.911M115.87 45.504c-.048-.151-2.489-6.137-2.777-6.977-.88-2.572-2.485-2.551-4.03-2.593-1.546-.037-2.47 0-2.47 0s-.986-.04-3.026.02c-2.037.064-2.68 1.108-4.926 6.888-.32.833-1.406 3.525-1.42 3.686l.014.004c-.192.459-.348 1.427.57 1.849 1.075.494 1.676-.545 1.676-.545l2.124-6.775s.368-.455.368.014v15.952h.01c0 1.109.893 2.005 2.005 2.005a2.002 2.002 0 0 0 2.004-2.005V50.73s-.114-.889.6-.889c.72 0 .609.89.609.89v6.296a2.008 2.008 0 0 0 4.017 0V41.075c0-.469.248-.133.248-.133l1.666 4.64s.724 2.073.945 2.164a1.482 1.482 0 0 0 1.937-.801 1.46 1.46 0 0 0-.158-1.427l.014-.014zM15.816 10.466a4.963 4.963 0 0 0 4.963-4.96 4.963 4.963 0 0 0-4.963-4.96 4.955 4.955 0 0 0-4.952 4.96 4.956 4.956 0 0 0 4.952 4.96"/>
        <path d="M36.095 34.39a3.905 3.905 0 0 0 3.907-3.911 3.9 3.9 0 0 0-3.907-3.905 3.9 3.9 0 0 0-3.906 3.905 3.905 3.905 0 0 0 3.906 3.911"/>
    </g>
</svg>
