<svg xmlns="http://www.w3.org/2000/svg" width="122" height="92" viewBox="0 0 122 92">
    <g fill="#FFF" fill-rule="evenodd">
        <path d="M1.009 66.052H27.801a.664.664 0 0 0 .659-.665.67.67 0 0 0-.173-.442l-.037-.038L14.92 47.49l-.131-.145a.652.652 0 0 0-.484-.215.667.667 0 0 0-.432.17l-.08.093-.125.143L.663 64.769l-.2.247a.663.663 0 0 0 .545 1.036M27.72 68.509H.875a.66.66 0 0 0-.657.663v21.215c0 .366.296.666.657.666h8.642V77.705c0-.37.292-.664.657-.664h8.022c.361 0 .655.295.655.664v13.348h8.87c.362 0 .658-.3.658-.666V69.172a.66.66 0 0 0-.657-.663M118.097 71.638c0 .355-.289.64-.65.64h-7.936a.645.645 0 0 1-.652-.64v-4.874c0-.351.29-.637.652-.637h7.935c.362 0 .65.286.65.637v4.874zm0 9.004c0 .354-.289.64-.65.64h-7.936a.645.645 0 0 1-.652-.64v-4.87c0-.357.29-.641.652-.641h7.935c.362 0 .65.284.65.64v4.87zm-12.132-9.004c0 .355-.29.64-.648.64h-7.938a.645.645 0 0 1-.654-.64v-4.874c0-.351.29-.637.654-.637h7.938c.358 0 .648.286.648.637v4.874zm0 9.004c0 .354-.29.64-.648.64h-7.938a.645.645 0 0 1-.654-.64v-4.87c0-.357.29-.641.654-.641h7.938c.358 0 .648.284.648.64v4.87zm14.538-17.688H93.93a.64.64 0 0 0-.648.637v27.094c0 .353.29.638.648.638h26.572c.36 0 .65-.285.65-.638V63.59a.641.641 0 0 0-.65-.637zM54.946 19.32a.344.344 0 0 1-.344.343H48.65a.341.341 0 0 1-.341-.342v-6.703a.34.34 0 0 1 .34-.344h5.953c.19 0 .344.152.344.344v6.703zm0 15.384c0 .19-.154.345-.344.345H48.65a.342.342 0 0 1-.341-.345V28c0-.189.15-.339.34-.339h5.953c.19 0 .344.15.344.34v6.702zm0 15.388c0 .19-.154.346-.344.346H48.65a.342.342 0 0 1-.341-.346v-6.7c0-.191.15-.347.34-.347h5.953c.19 0 .344.156.344.346v6.7zm0 15.385a.341.341 0 0 1-.344.344H48.65c-.19 0-.341-.15-.341-.344v-6.698a.34.34 0 0 1 .34-.345h5.953c.19 0 .344.151.344.345v6.698zm0 15.386c0 .19-.154.346-.344.346H48.65a.342.342 0 0 1-.341-.346v-6.699c0-.19.15-.342.34-.342h5.953c.19 0 .344.152.344.342v6.699zM43.271 19.321a.344.344 0 0 1-.343.342h-5.954a.343.343 0 0 1-.34-.342v-6.703a.34.34 0 0 1 .34-.344h5.954c.189 0 .343.152.343.344v6.703zm0 15.383c0 .19-.154.345-.343.345h-5.954a.343.343 0 0 1-.34-.345V28c0-.189.151-.339.34-.339h5.954a.34.34 0 0 1 .343.34v6.702zm0 15.388c0 .19-.154.346-.343.346h-5.954a.343.343 0 0 1-.34-.346v-6.7c0-.191.151-.347.34-.347h5.954c.189 0 .343.156.343.346v6.7zm0 15.385a.341.341 0 0 1-.343.344h-5.954a.34.34 0 0 1-.34-.344v-6.698c0-.194.151-.345.34-.345h5.954c.189 0 .343.151.343.345v6.698zm0 15.386c0 .19-.154.346-.343.346h-5.954a.343.343 0 0 1-.34-.346v-6.699a.34.34 0 0 1 .34-.342h5.954c.189 0 .343.152.343.342v6.699zM58.737.064H32.734a.64.64 0 0 0-.634.644v89.737c0 .353.287.643.634.643h26.003c.35 0 .64-.29.64-.643V.708a.644.644 0 0 0-.64-.644zM121.124 60.228a.536.536 0 0 1-.535.541H93.846a.538.538 0 0 1-.535-.541v-5.4a.54.54 0 0 1 .535-.54h26.743c.297 0 .535.243.535.54v5.4zM87.19 44.43a.642.642 0 0 1-.636.642h-7.749a.641.641 0 0 1-.64-.642V39.53a.64.64 0 0 1 .64-.644h7.749a.64.64 0 0 1 .636.644v4.899zm0 9.053c0 .353-.288.64-.636.64h-7.749a.64.64 0 0 1-.64-.64v-4.899a.64.64 0 0 1 .64-.642h7.749a.64.64 0 0 1 .636.642v4.899zm0 9.053a.64.64 0 0 1-.636.639h-7.749a.64.64 0 0 1-.64-.64v-4.9a.64.64 0 0 1 .64-.642h7.749a.64.64 0 0 1 .636.642v4.9zm0 9.051a.64.64 0 0 1-.636.64h-7.749a.64.64 0 0 1-.64-.64v-4.899c0-.358.287-.642.64-.642h7.749a.64.64 0 0 1 .636.642v4.899zm0 9.05a.64.64 0 0 1-.636.642h-7.749a.64.64 0 0 1-.64-.643v-4.898a.64.64 0 0 1 .64-.64h7.749a.64.64 0 0 1 .636.64v4.898zM75.364 42.7v10.791a.64.64 0 0 1-.636.64h-7.747a.639.639 0 0 1-.64-.64v-1.359a.724.724 0 0 1 .05-.24c.012-.027.013-.037.038-.074.014-.03.037-.058.054-.085l.073-.106c.991-1.431 5.462-6.992 7.34-9.316l.187-.23a.738.738 0 0 1 .572-.273c.356 0 .64.263.71.6v.292zm-.023 19.835a.636.636 0 0 1-.634.639h-7.75a.639.639 0 0 1-.637-.64v-4.9c0-.356.285-.642.637-.642h7.75c.353 0 .634.286.634.642v4.9zm0 9.051c0 .355-.28.64-.634.64h-7.75a.638.638 0 0 1-.637-.64v-4.899c0-.358.285-.642.637-.642h7.75c.353 0 .634.284.634.642v4.899zm0 9.05a.636.636 0 0 1-.634.642h-7.75a.638.638 0 0 1-.637-.643v-4.898c0-.353.285-.64.637-.64h7.75c.353 0 .634.287.634.64v4.898zm4.046-45.848l.182-.23c1.75-2.267 4.696-5.93 6.132-7.71l.189-.227a.737.737 0 0 1 .571-.271c.355 0 .64.259.71.6v8.281c0 .4-.315.722-.708.738-.01 0-.021.007-.031.007-.01 0-.021-.007-.032-.007h-6.387c-.013 0-.021.007-.032.007-.01 0-.02-.007-.033-.007a.736.736 0 0 1-.706-.738.75.75 0 0 1 .145-.443zm10.758-17.78a.684.684 0 0 0-.652-.5.669.669 0 0 0-.372.125.384.384 0 0 0-.049.032l-.22.279-25.555 32.737-.119.159a.751.751 0 0 0-.22.511v40.229c0 .352.285.64.636.64h25.978a.637.637 0 0 0 .634-.64V17.28a.63.63 0 0 0-.06-.27z"/>
    </g>
</svg>
