<svg xmlns="http://www.w3.org/2000/svg" width="89" height="87" viewBox="0 0 89 87">
    <g fill="#FFF" fill-rule="evenodd">
        <path d="M30.22 50.266c.217 0 .393.178.393.396v13.043a.394.394 0 0 1-.394.397h-5.277a.396.396 0 0 1-.399-.397V50.662c0-.218.178-.396.399-.396h5.277zM88.18 69.701H1.204a.407.407 0 0 0-.399.408v5.318c0 .216.181.39.4.39H88.18a.398.398 0 0 0 .399-.39v-5.318a.41.41 0 0 0-.4-.408M88.18 80.267H1.204a.397.397 0 0 0-.399.392v5.332c0 .212.181.393.4.393H88.18a.403.403 0 0 0 .399-.393v-5.332a.4.4 0 0 0-.4-.392M71.63 35.83c-1.088-.851-3.987-2.835-7.525-2.835-2.527 0-4.88.994-6.984 2.966a.749.749 0 0 0-.232.547v.474c0 .234.076.45.246.594.19.142.389.197.614.142a1.12 1.12 0 0 0 .597-.316c.457-.307 1.703-.726 3.485-.726 1.842 0 5.462.494 8.962 3.756l.08.074a1.058 1.058 0 0 0 1.493.007l.07-.074c3.519-3.269 7.134-3.763 8.975-3.763 1.795 0 3.035.419 3.492.726.125.123.28.222.482.294.077.022.298.068.51.017a.747.747 0 0 0 .546-.719v-.418c0-.198-.086-.4-.234-.54-2.123-2.024-4.5-3.047-7.068-3.047-3.506 0-6.391 1.955-7.509 2.84M66.232 1.164a.729.729 0 0 0-.38.456l-.088.292a.746.746 0 0 0 .115.652.719.719 0 0 0 .537.294c.04.005.08.014.11.005a.95.95 0 0 0 .421-.107c.076-.016.237-.06.525-.06.39 0 3.896.118 6.214 4.06l.03.056a.889.889 0 0 0 .557.444.932.932 0 0 0 .715-.065l.059-.028c1.268-.634 2.581-.96 3.88-.96 2.196 0 3.63.897 3.966 1.271.069.125.172.236.292.323.074.043.204.108.283.136.038.01.084.016.128.02.023.003.051.003.077.003.12 0 .232-.028.345-.086a.722.722 0 0 0 .369-.445l.074-.257a.688.688 0 0 0 .03-.21.718.718 0 0 0-.1-.375C82.7 3.65 80.25 3.037 78.488 3.037c-1.309 0-2.455.339-3.13.587-.796-1.072-2.811-3.286-5.866-3.286-1.073 0-2.168.276-3.261.826M47.853 14.545l.027.391a.724.724 0 0 0 .346.586.733.733 0 0 0 .585.09.957.957 0 0 0 .504-.318c.37-.268 1.56-.755 3.316-.755 1.69 0 4.26.452 6.879 2.603l.06.061c.187.162.426.254.67.254h.064c.274-.022.529-.148.684-.33l.058-.064c2.9-3.068 6.022-3.525 7.625-3.525 1.142 0 1.952.237 2.268.414.118.104.267.185.452.236.053.012.18.035.318.021a1.15 1.15 0 0 0 .183-.044.74.74 0 0 0 .494-.749l-.02-.339a.752.752 0 0 0-.262-.518c-1.73-1.455-3.599-2.188-5.563-2.188-3.06 0-5.5 1.806-6.511 2.692-.925-.63-3.17-1.926-5.803-1.926-2.314 0-4.39.961-6.172 2.85a.773.773 0 0 0-.202.558M3.84 21.528c0-5.209 4.22-9.43 9.427-9.43.206 0 .404.017.605.03C14.369 5.536 19.86.338 26.58.338c7.047 0 12.76 5.711 12.76 12.758 0 1.996-.473 3.877-1.29 5.558 6.384 1.415 11.164 7.102 11.164 13.912 0 7.874-6.382 14.257-14.257 14.257-.575 0-19.027-.11-19.027-.11-5.577-.003-10.095-4.52-10.095-10.095 0-2.682 1.049-5.105 2.75-6.913-2.833-1.628-4.747-4.675-4.747-8.177"/>
    </g>
</svg>
