<svg xmlns="http://www.w3.org/2000/svg" width="98" height="84" viewBox="0 0 98 84">
    <g fill="#FFF" fill-rule="evenodd">
        <path d="M33.427 79.685v2.526c-.001.017-.009.038-.009.056 0 .023.008.042.01.06a1.187 1.187 0 0 0 1.164 1.135c.007 0 .015.005.023.005.01 0 .02-.005.029-.005H64.28c.008 0 .017.005.026.005.009 0 .016-.005.025-.005a1.191 1.191 0 0 0 1.168-1.186c0-.002.006-.004.006-.01 0 0-.006-.003-.006-.006V79.4C82.183 73.932 94.68 60.41 97.43 43.933c.006-.035.01-.069.014-.099a.898.898 0 0 0 .018-.165c0-.663-.534-1.199-1.199-1.199H1.812c-.666 0-1.202.536-1.202 1.199l.063.54C3.56 60.841 16.4 74.437 33.427 79.684M65.473 2.158c-.39.553-9.515 13.69.203 24.314 4.458 4.876 4.072 9.179 2.799 12.084h6.233c1.264-4.29.742-9.67-4.319-15.2-7.161-7.828.092-18.41.201-18.573.853-1.208.397-2.763-1.013-3.489-1.414-.72-3.247-.336-4.104.864M49.685 38.556h6.236c1.26-4.293.737-9.67-4.324-15.2-7.163-7.83.083-18.404.2-18.579.849-1.202.398-2.755-1.016-3.483-1.408-.719-3.245-.338-4.098.864-.391.552-9.526 13.69.2 24.314 4.459 4.878 4.07 9.18 2.802 12.084M27.889 2.158c-.395.553-9.52 13.69.199 24.314 4.46 4.878 4.075 9.18 2.804 12.084h6.235c1.26-4.289.739-9.669-4.326-15.2-7.163-7.828.088-18.41.205-18.577.846-1.204.395-2.759-1.019-3.485-1.408-.726-3.243-.338-4.098.864"/>
    </g>
</svg>
