<svg xmlns="http://www.w3.org/2000/svg" width="121" height="85" viewBox="0 0 121 85">
    <g fill="#FFF" fill-rule="evenodd">
        <path d="M120.744 44.998c0-5.04-3.234-9.125-8.131-9.125-2.45 0-5.404 2.681-7.009 4.331-1.604-1.651-4.363-4.335-6.813-4.335-4.898 0-8.33 4.086-8.33 9.128 0 2.52.992 4.799 2.6 6.453l12.554 12.579 12.538-12.565-.01-.01a9.235 9.235 0 0 0 2.6-6.456"/>
        <path d="M67.29 84.562l-.13-.003a2.062 2.062 0 0 1-1.904-1.71L58.88 45.708l-9.662 17.91a2.065 2.065 0 0 1-2.173 1.051 2.065 2.065 0 0 1-1.682-1.736l-4.1-28.666-7.504 16.853a2.062 2.062 0 0 1-1.884 1.225H2.712a2.062 2.062 0 0 1 0-4.124h27.824l9.87-22.17a2.064 2.064 0 0 1 3.925.547l4.228 29.557 9.527-17.663a2.06 2.06 0 1 1 3.847.63l5.906 34.4 21.524-71.5a2.062 2.062 0 0 1 3.833-.302l11.326 23.48a2.062 2.062 0 0 1-3.715 1.792L91.785 8.285l-22.522 74.81a2.058 2.058 0 0 1-1.974 1.467"/>
    </g>
</svg>
