<svg xmlns="http://www.w3.org/2000/svg" width="102" height="82" viewBox="0 0 102 82">
    <g fill="#FFF" fill-rule="evenodd">
        <path d="M39.91 24.092L7.65 5.543v60.005l32.26 9.693zM43.457 24.214v51.048l32.469-9.722V5.546zM101.248 4.025A3.808 3.808 0 0 0 97.435.222a3.809 3.809 0 0 0-3.82 3.803V8.12h7.633V4.025zM94.564 64.484h-.947l3.817 13.284 3.811-13.284h-.945.945V11.098H93.614v53.386z"/>
        <path d="M82.854 8.12L79.395 5.4v61.775L43.554 78.71H39.91L4.228 68.78V5.4L.767 8.12v63.078l38.979 10.746h3.969l35.963-11.37 3.176-.932z"/>
    </g>
</svg>
