<svg xmlns="http://www.w3.org/2000/svg" width="72" height="97" viewBox="0 0 72 97">
    <g fill="#FFF" fill-rule="evenodd">
        <path d="M29.633 63.027c-11.883 0-21.549-9.628-21.549-21.46 0-11.834 9.666-21.463 21.55-21.463 11.885 0 21.552 9.629 21.552 21.463 0 11.832-9.667 21.46-21.553 21.46m41.39-62.2H48.667a.286.286 0 0 0-.284.282v7.399c0 .158.13.284.284.284h8.902l-9.883 9.843a29.206 29.206 0 0 0-18.053-6.224C13.492 12.41.355 25.49.355 41.567c0 14.802 11.137 27.05 25.5 28.904v8.523H17.04a.282.282 0 0 0-.29.283v7.93a.28.28 0 0 0 .29.28h8.816v8.39c0 .157.127.283.282.283h7.96a.285.285 0 0 0 .287-.283v-8.39H43.2a.28.28 0 0 0 .284-.28v-7.93a.282.282 0 0 0-.284-.283h-8.816v-8.661c13.893-2.27 24.528-14.3 24.528-28.766 0-6.24-1.984-12.024-5.35-16.77l9.744-9.705v8.28c0 .157.132.282.29.282h7.427c.159 0 .29-.125.29-.283V1.11a.287.287 0 0 0-.29-.283"/>
        <path d="M43.011 32.757h-26.14c-.156 0-.283.116-.283.253v6.304c0 .147.127.258.282.258h26.141c.162 0 .29-.11.29-.258V33.01c0-.137-.128-.253-.29-.253M43.011 44.01h-26.14c-.156 0-.283.12-.283.262v6.302c0 .14.127.254.282.254h26.141c.162 0 .29-.114.29-.254v-6.302c0-.143-.128-.262-.29-.262"/>
    </g>
</svg>
