<svg xmlns="http://www.w3.org/2000/svg" width="67" height="92" viewBox="0 0 67 92">
    <path fill="#FFF" fill-rule="evenodd" d="M61.828 14.372c-1.761-.775-3.993-.496-6.137.372-8.063 3.267-13.55 4.443-22.032 1.788-5.34-1.673-10.336-5.174-16.241-3.042-3.92 1.41-7.572 2.757-12.004 2.722L2.855 3.09h60.813l-1.84 11.282zM41.214 53.339s-2.952 3.035-7.753 2.704c-4.814.33-7.762-2.704-7.762-2.704-4.868-4.863-3.132-10.915-1.438-14.041 1.047-1.958 8.527-13.19 9.17-14.147v-.075s.01.014.03.037l.026-.037v.075c.626.956 8.117 12.19 9.163 14.147 1.697 3.126 3.428 9.178-1.436 14.04zM66.334.48a.792.792 0 0 0-.591-.257H.76A.785.785 0 0 0 .177.48a.788.788 0 0 0-.164.615L10.93 67.122c.061.365.38.636.75.636h13.398l.918 10.755-5.64.007 13.12 13.118L46.629 78.49l-5.637.005.916-10.737h13.635c.374 0 .689-.27.743-.647L66.5 1.095a.8.8 0 0 0-.167-.615z"/>
</svg>
