<svg xmlns="http://www.w3.org/2000/svg" width="92" height="93" viewBox="0 0 92 93">
    <g fill="#FFF" fill-rule="evenodd">
        <path d="M46.559 92.274c1.181 0 2.14-1.059 2.14-2.026V78.705c0-.972-.959-2.042-2.14-2.042-1.187 0-2.153 1.07-2.153 2.042v11.543c0 .967.966 2.026 2.153 2.026M46.323 60.132c-7.499 0-13.577-6.137-13.577-13.712 0-6.153 4.013-11.359 9.542-13.095v5.107a8.974 8.974 0 0 0-4.853 7.988c0 4.96 3.977 8.978 8.888 8.978 4.91 0 8.888-4.019 8.888-8.978a8.97 8.97 0 0 0-4.875-8v-5.1c5.541 1.727 9.566 6.938 9.566 13.1 0 7.575-6.078 13.712-13.579 13.712zm-1.936-29.456c0-.877.872-1.843 1.943-1.843 1.068 0 1.933.966 1.933 1.843v9.05c0 .874-.865 1.83-1.933 1.83-1.071 0-1.943-.956-1.943-1.83v-9.05zm1.933-10.414c-14.418 0-26.104 11.804-26.104 26.361 0 14.566 11.686 26.365 26.104 26.365 14.415 0 26.101-11.799 26.101-26.365 0-14.557-11.686-26.36-26.101-26.36zM16.353 46.393c0-1.194-1.049-2.163-2.007-2.163H2.916c-.965 0-2.024.969-2.024 2.163 0 1.199 1.059 2.173 2.024 2.173h11.43c.958 0 2.007-.974 2.007-2.173M91.757 46.393c0-1.194-1.049-2.163-2.006-2.163H78.32c-.963 0-2.022.969-2.022 2.163 0 1.199 1.059 2.173 2.022 2.173h11.43c.958 0 2.007-.974 2.007-2.173M46.33 16.131c1.181 0 2.14-1.058 2.14-2.025V2.56c0-.973-.959-2.04-2.14-2.04-1.187 0-2.153 1.067-2.153 2.04v11.545c0 .967.966 2.025 2.153 2.025M20.313 31.36c.59-1.037.156-2.403-.676-2.883l-9.923-5.734c-.835-.485-2.23-.176-2.819.861-.589 1.042-.148 2.416.689 2.902l9.92 5.733c.83.48 2.22.16 2.81-.879M85.759 69.182c.587-1.036.152-2.403-.678-2.885l-9.921-5.732c-.837-.485-2.232-.174-2.82.863-.588 1.04-.15 2.416.688 2.9l9.92 5.733c.832.48 2.22.16 2.81-.879M61.217 20.132c1.028.593 2.378.153 2.856-.685L69.75 9.43c.48-.845.173-2.254-.854-2.847-1.03-.596-2.393-.151-2.871.694l-5.68 10.018c-.475.84-.159 2.243.872 2.838M23.763 86.217c1.025.593 2.378.154 2.853-.684l5.68-10.017c.479-.845.171-2.257-.856-2.848-1.028-.597-2.393-.152-2.87.692l-5.68 10.02c-.475.838-.157 2.243.873 2.837M31.387 20.157c1.026-.596 1.335-1.995.856-2.834L26.546 7.316c-.482-.846-1.84-1.287-2.866-.69-1.03.594-1.337 2.008-.854 2.851l5.697 10.006c.479.839 1.835 1.27 2.864.674M68.975 86.166c1.026-.597 1.336-1.996.86-2.834l-5.699-10.008c-.482-.843-1.84-1.286-2.867-.692-1.03.597-1.337 2.009-.853 2.854l5.697 10.008c.477.836 1.833 1.268 2.862.672M72.31 31.313c.59 1.034 1.977 1.347 2.807.865l9.907-5.753c.837-.487 1.28-1.858.689-2.894-.593-1.04-1.99-1.35-2.826-.865l-9.909 5.755c-.83.48-1.26 1.855-.668 2.892M6.944 69.272c.588 1.034 1.976 1.346 2.806.864l9.909-5.754c.835-.486 1.277-1.859.685-2.893-.589-1.04-1.989-1.35-2.824-.866L7.61 66.378c-.83.481-1.258 1.854-.667 2.894"/>
    </g>
</svg>
