<svg xmlns="http://www.w3.org/2000/svg" width="87" height="93" viewBox="0 0 87 93">
    <g fill="#FFF" fill-rule="evenodd">
        <path d="M77.846 22.608L59.743 40c-.684.686-1.035 1.19-1.035 2.611v48.741a1.04 1.04 0 0 0 1.035 1.042h18.699c.571 0 1.03-.47 1.03-1.042V23.048c0-.576-.445-1.626-1.626-.44M25.69 45.266L7.583 62.654c-.682.688-1.033 1.193-1.033 2.61v26.09c0 .57.465 1.037 1.033 1.037h18.703c.571 0 1.03-.467 1.03-1.037V45.702c0-.575-.449-1.628-1.626-.436"/>
        <path d="M86.075 1.518a.52.52 0 0 0-.154-.397.527.527 0 0 0-.335-.146l-.1.005-.146.009-13.864 3.157-.252.026c-.1.02-.194.071-.269.143a.536.536 0 0 0 0 .754l.156.159 3.166 3.196-31.412 31.72-14.509-14.652a.413.413 0 0 0-.59 0l-3.938 3.978c-.003 0-.003.003-.003.003L.57 52.953a.428.428 0 0 0 0 .598l3.94 3.977a.409.409 0 0 0 .588 0l22.967-23.186 10.527 10.632c.012.016.017.034.035.051l3.937 3.971a.408.408 0 0 0 .59 0l35.65-36 3.325 3.355c.205.21.538.21.74 0a.513.513 0 0 0 .152-.344l.001-.045 3.046-14.29.007-.154z"/>
        <path d="M51.87 48.318l-8.759 8.919a.416.416 0 0 1-.564-.022l-7.936-8.17c-1.454-1.46-1.767-.275-1.767.298V91.35c0 .574.456 1.041 1.026 1.041h18.704c.568 0 1.03-.467 1.03-1.04V48.647c0-.575-.448-1.629-1.734-.33"/>
    </g>
</svg>
