<svg xmlns="http://www.w3.org/2000/svg" width="92" height="92" viewBox="0 0 92 92">
    <path fill="#FFF" fill-rule="evenodd" d="M88.588 77.006L69.473 88.037V65.972l19.115-11.034v22.068zM25.445 88.037V67.65l17.658 10.197-17.658 10.191zm-2.903 0L3.431 77.007v-22.07l19.111 11.035v22.065zm20.56-61.036L25.446 37.2V16.807l17.658 10.194zM66.57 37.197L48.914 27.001 66.57 16.807v20.39zM48.914 52.421l19.108-11.03 19.113 11.03-19.113 11.035L48.914 52.42zm-4.358-2.514L26.898 39.712l17.658-10.194v20.389zm20.561-10.193l-17.656 10.19V29.519l17.656 10.196zM44.557 75.33L26.897 65.134l17.658-10.196V75.33zm46.21-24.167L69.473 38.874V14.292c0-.52-.275-.998-.725-1.258L46.735.324a1.456 1.456 0 0 0-1.451 0l-22.016 12.71a1.45 1.45 0 0 0-.726 1.258v24.582L1.252 51.163c-.45.258-.726.738-.726 1.258v25.425c0 .519.276.999.726 1.257L23.268 91.81a1.446 1.446 0 0 0 1.451 0l21.29-12.287L67.296 91.81a1.446 1.446 0 0 0 1.452 0l22.02-12.707a1.45 1.45 0 0 0 .723-1.257V52.421c0-.52-.276-1-.724-1.258z"/>
</svg>
