<?xml version="1.0" encoding="UTF-8" standalone="no"?><!DOCTYPE svg PUBLIC "-//W3C//DTD SVG 1.1//EN" "http://www.w3.org/Graphics/SVG/1.1/DTD/svg11.dtd"><svg width="100%" height="100%" viewBox="0 0 157 37" version="1.1" xmlns="http://www.w3.org/2000/svg" xmlns:xlink="http://www.w3.org/1999/xlink" xml:space="preserve" xmlns:serif="http://www.serif.com/" style="fill-rule:evenodd;clip-rule:evenodd;stroke-linejoin:round;stroke-miterlimit:2;"><path d="M0,6.78l0,6.363l0.05,0l4.238,-4.44l0.053,0l0,27.764l6.04,0l0,-36.268l-4.823,0l-5.558,6.581Z" style="fill:#fff;"/><path d="M13.77,6.78l0,6.363l0.053,0l4.24,-4.44l0.05,0l0,27.764l6.041,0l0,-36.268l-4.82,0l-5.564,6.581Z" style="fill:#fff;"/><path d="M35.884,11.707l0,-1.973l2.277,0l0,2.015c0,0.824 0.365,1.302 1.202,1.302c0.771,0 1.115,-0.52 1.115,-1.302l0,-0.563c0,-0.845 -0.344,-1.366 -1.094,-2.08l-1.436,-1.453c-1.398,-1.387 -2.041,-2.232 -2.041,-3.923l0,-0.5c0,-1.82 1.052,-3.229 3.434,-3.229c2.446,0 3.413,1.214 3.413,3.34l0,1.19l-2.232,0l0,-1.28c0,-0.844 -0.388,-1.256 -1.159,-1.256c-0.688,0 -1.158,0.39 -1.158,1.213l0,0.305c0,0.824 0.449,1.299 1.158,1.994l1.568,1.562c1.332,1.364 1.973,2.188 1.973,3.814l0,0.716c0,2.015 -1.073,3.446 -3.563,3.446c-2.455,0 -3.429,-1.371 -3.457,-3.338Z" style="fill:#fff;"/><path d="M51.087,0.175l0,11.12c0,2.276 -0.967,3.75 -3.457,3.75c-2.578,0 -3.649,-1.474 -3.649,-3.75l0,-11.12l2.447,0l0,11.358c0,0.868 0.344,1.452 1.202,1.452c0.858,0 1.202,-0.584 1.202,-1.452l0,-11.358l2.255,0Z" style="fill:#fff;"/><path d="M52.334,11.707l0,-1.973l2.274,0l0,2.015c0,0.824 0.367,1.302 1.204,1.302c0.772,0 1.115,-0.52 1.115,-1.302l0,-0.563c0,-0.845 -0.343,-1.366 -1.096,-2.08l-1.437,-1.453c-1.394,-1.387 -2.039,-2.232 -2.039,-3.923l0,-0.5c0,-1.82 1.05,-3.229 3.436,-3.229c2.446,0 3.411,1.214 3.411,3.34l0,1.19l-2.232,0l0,-1.28c0,-0.844 -0.386,-1.256 -1.158,-1.256c-0.687,0 -1.16,0.39 -1.16,1.213l0,0.305c0,0.824 0.452,1.299 1.16,1.994l1.566,1.562c1.331,1.364 1.976,2.188 1.976,3.814l0,0.716c0,2.015 -1.075,3.446 -3.563,3.446c-2.455,0 -3.429,-1.371 -3.457,-3.338Z" style="fill:#fff;"/><path d="M59.935,0.175l6.504,0l0,2.016l-2.018,0l0,12.68l-2.47,0l0,-12.68l-2.016,0l0,-2.016Z" style="fill:#fff;"/><path d="M74.297,14.872l-2.511,0l-0.45,-2.688l-2.598,0l-0.428,2.688l-2.319,0l0,-0.001l2.747,-14.696l2.791,0l2.768,14.697Zm-4.248,-10.557l-0.023,0l-0.966,5.896l1.955,0l-0.966,-5.896Z" style="fill:#fff;"/><rect x="75.285" y="0.175" width="2.447" height="14.696" style="fill:#fff;"/><path d="M81.192,5.637l0,9.233l-2.062,0l0,-14.693l2.406,0l2.639,8.43l0,-8.43l2.04,0l0,14.694l-2.148,0l-2.875,-9.234Z" style="fill:#fff;"/><path d="M95.32,14.872l-2.512,0l-0.45,-2.688l-2.597,0l-0.43,2.688l-2.318,0l-0.001,-0.001l2.748,-14.696l2.79,0l2.77,14.697Zm-4.253,-10.557l-0.02,0l-0.966,5.896l1.952,0l-0.966,-5.896Z" style="fill:#fff;"/><path d="M99.894,14.87l-3.8,0l0,-14.695l3.542,0c2.447,0 3.263,1.148 3.263,3.23l0,1.495c0,1.237 -0.45,2.017 -1.459,2.341c1.223,0.283 1.824,1.105 1.824,2.45l0,1.952c0,2.08 -0.924,3.227 -3.37,3.227Zm-0.301,-6.61l-1.052,0l0,4.595l1.074,0c0.815,0 1.201,-0.411 1.201,-1.191l0,-2.211c0,-0.78 -0.365,-1.193 -1.223,-1.193Zm-0.214,-6.069l-0.838,0l0,4.184l0.86,0c0.793,0 1.158,-0.413 1.158,-1.193l0,-1.798c0,-0.803 -0.365,-1.193 -1.18,-1.193Z" style="fill:#fff;"/><path d="M104.274,0.175l2.447,0l0,12.682l2.92,0l0,2.015l-5.367,0l0,-14.697Z" style="fill:#fff;"/><path d="M110.546,0.175l5.838,0l0,2.016l-3.392,0l0,4.205l2.426,0l0,1.994l-2.426,0l0,4.467l3.392,0l0,2.015l-5.838,0l0,-14.697Z" style="fill:#fff;"/><path d="M120.508,11.077l0,-7.11c0,-2.297 1.072,-3.967 3.65,-3.967c2.705,0 3.455,1.518 3.455,3.687l0,1.734l-2.232,0l0,-1.93c0,-0.91 -0.3,-1.43 -1.183,-1.43c-0.879,0 -1.244,0.629 -1.244,1.516l0,7.892c0,0.888 0.365,1.516 1.244,1.516c0.883,0 1.183,-0.563 1.183,-1.431l0,-2.709l2.232,0l0,2.536c0,2.103 -0.858,3.663 -3.455,3.663c-2.542,0 -3.62,-1.643 -3.65,-3.967Z" style="fill:#fff;"/><rect x="128.752" y="0.175" width="2.447" height="14.696" style="fill:#fff;"/><path d="M132.125,0.175l6.505,0l0,2.016l-2.02,0l0,12.68l-2.468,0l0,-12.68l-2.017,0l0,-2.016Z" style="fill:#fff;"/><rect x="139.596" y="0.175" width="2.446" height="14.696" style="fill:#fff;"/><path d="M143.312,0.175l5.838,0l0,2.016l-3.392,0l0,4.205l2.426,0l0,1.994l-2.426,0l0,4.467l3.392,0l0,2.015l-5.838,0l0,-14.697Z" style="fill:#fff;"/><path d="M149.817,11.707l0,-1.973l2.277,0l0,2.015c0,0.824 0.365,1.302 1.202,1.302c0.771,0 1.114,-0.52 1.114,-1.302l0,-0.563c0,-0.845 -0.343,-1.366 -1.093,-2.08l-1.438,-1.453c-1.396,-1.387 -2.04,-2.232 -2.04,-3.923l0,-0.5c0,-1.82 1.053,-3.229 3.435,-3.229c2.446,0 3.413,1.214 3.413,3.34l0,1.19l-2.234,0l0,-1.28c0,-0.844 -0.386,-1.256 -1.157,-1.256c-0.688,0 -1.158,0.39 -1.158,1.213l0,0.305c0,0.824 0.449,1.299 1.158,1.994l1.566,1.562c1.332,1.364 1.975,2.188 1.975,3.814l0,0.716c0,2.015 -1.073,3.446 -3.563,3.446c-2.455,0 -3.429,-1.371 -3.457,-3.338Z" style="fill:#fff;"/><path d="M44.236,36.465l-2.512,0l-0.45,-2.688l-2.598,0l-0.428,2.688l-2.32,0l0,-0.001l2.748,-14.696l2.79,0l2.77,14.697Zm-4.251,-10.557l-0.021,0l-0.966,5.896l1.955,0l-0.968,-5.896Z" style="fill:#fff;"/><path d="M47.265,27.23l0,9.235l-2.06,0l0,-14.696l2.402,0l2.64,8.431l0,-8.431l2.042,0l0,14.696l-2.148,0l-2.876,-9.235Z" style="fill:#fff;"/><path d="M57.421,36.466l-3.78,0l0,-14.699l3.78,0c2.583,0 3.518,1.623 3.544,3.946l0,6.807c0,2.253 -0.925,3.946 -3.544,3.946Zm-0.301,-12.683l-1.031,0l0,10.665l1.031,0l0,0.001c1.01,0 1.396,-0.607 1.396,-1.495l0,-7.697c0,-0.866 -0.386,-1.474 -1.396,-1.474Z" style="fill:#fff;"/><path d="M64.528,32.672l0,-7.11c0,-2.298 1.075,-3.968 3.653,-3.968c2.703,0 3.453,1.518 3.453,3.685l0,1.735l-2.23,0l0,-1.929c0,-0.91 -0.3,-1.431 -1.183,-1.431c-0.881,0 -1.246,0.628 -1.246,1.518l0,7.89c0,0.889 0.365,1.517 1.246,1.517c0.882,0 1.183,-0.565 1.183,-1.431l0,-2.709l2.23,0l0,2.536c0,2.104 -0.858,3.664 -3.453,3.664c-2.542,0 -3.622,-1.644 -3.653,-3.967Z" style="fill:#fff;"/><path d="M72.925,32.672l0,-7.112c0,-2.296 1.115,-3.966 3.693,-3.966c2.597,0 3.713,1.67 3.713,3.966l0,7.112c0,2.274 -1.116,3.967 -3.713,3.967c-2.578,0 -3.693,-1.693 -3.693,-3.967Zm4.96,0.39l0,-7.89c0,-0.89 -0.388,-1.518 -1.267,-1.518c-0.858,0 -1.246,0.628 -1.246,1.518l0,7.89c0,0.889 0.388,1.515 1.246,1.515c0.879,0 1.267,-0.626 1.267,-1.515Z" style="fill:#fff;"/><path d="M88.425,26.927l-0.06,0l-1.656,9.537l-1.138,0l-1.824,-9.536l-0.042,0l0,9.536l-2.02,0l0,-14.696l2.855,0l1.589,8.28l0.02,0l1.418,-8.28l3.092,0l0,14.696l-2.234,0l0,-9.537Z" style="fill:#fff;"/><path d="M98.754,26.927l-0.064,0l-1.652,9.537l-1.14,0l-1.824,-9.536l-0.043,0l0,9.536l-2.017,0l0,-14.696l2.856,0l1.586,8.28l0.023,0l1.417,-8.28l3.092,0l0,14.696l-2.234,0l0,-9.537Z" style="fill:#fff;"/><path d="M109.447,21.768l0,11.12c0,2.276 -0.967,3.75 -3.455,3.75c-2.576,0 -3.651,-1.474 -3.651,-3.75l0,-11.121l2.447,0l0,11.36c0,0.868 0.344,1.452 1.204,1.452c0.86,0 1.202,-0.584 1.202,-1.452l0,-11.36l2.253,0l0,0.001Z" style="fill:#fff;"/><path d="M112.862,27.23l0,9.235l-2.06,0l0,-14.696l2.405,0l2.64,8.431l0,-8.431l2.04,0l0,14.696l-2.146,0l-2.879,-9.235Z" style="fill:#fff;"/><rect x="119.24" y="21.768" width="2.447" height="14.696" style="fill:#fff;"/><path d="M122.762,21.768l6.505,0l0,2.017l-2.017,0l0,12.68l-2.47,0l0,-12.68l-2.018,0l0,-2.017Z" style="fill:#fff;"/><rect x="130.363" y="21.768" width="2.447" height="14.696" style="fill:#fff;"/><path d="M134.185,21.768l5.839,0l0,2.017l-3.392,0l0,4.204l2.427,0l0,1.994l-2.427,0l0,4.466l3.392,0l0,2.016l-5.84,0l0.001,-14.697Z" style="fill:#fff;"/><path d="M141.058,33.3l0,-1.973l2.275,0l0,2.016c0,0.822 0.365,1.3 1.204,1.3c0.77,0 1.115,-0.52 1.115,-1.3l0,-0.565c0,-0.844 -0.345,-1.366 -1.098,-2.08l-1.436,-1.453c-1.395,-1.387 -2.04,-2.232 -2.04,-3.923l0,-0.5c0,-1.82 1.052,-3.229 3.436,-3.229c2.447,0 3.411,1.214 3.411,3.34l0,1.19l-2.231,0l0,-1.276c0,-0.847 -0.387,-1.259 -1.157,-1.259c-0.689,0 -1.162,0.39 -1.162,1.215l0,0.303c0,0.824 0.452,1.3 1.162,1.994l1.564,1.56c1.331,1.368 1.976,2.19 1.976,3.815l0,0.717c0,2.015 -1.074,3.446 -3.563,3.446c-2.49,0 -3.457,-1.41 -3.457,-3.338l0.001,0Z" style="fill:#fff;"/></svg>