<?xml version="1.0" encoding="UTF-8" standalone="no"?><!DOCTYPE svg PUBLIC "-//W3C//DTD SVG 1.1//EN" "http://www.w3.org/Graphics/SVG/1.1/DTD/svg11.dtd"><svg width="100%" height="100%" viewBox="0 0 152 59" version="1.1" xmlns="http://www.w3.org/2000/svg" xmlns:xlink="http://www.w3.org/1999/xlink" xml:space="preserve" xmlns:serif="http://www.serif.com/" style="fill-rule:evenodd;clip-rule:evenodd;stroke-linejoin:round;stroke-miterlimit:2;"><path d="M4.315,8.931l0.054,0l0,27.763l6.07,0l0,-36.267l-4.85,0l-5.589,6.579l0,6.365l0.051,0l4.264,-4.44Z" style="fill:#fff;"/><path d="M14.059,7.916l0,4.386l5.54,0l0,-4.548c0,-2.192 1.068,-2.832 2.344,-2.832c1.174,0 2.184,0.48 2.184,2.728l0,2.993c0,2.996 -0.265,4.172 -2.239,6.26l-3.407,3.636c-3.302,3.531 -4.529,5.884 -4.529,9.468l0,6.688l15.769,0l0,-4.975l-9.963,0l0,-1.712c0,-2.834 1.013,-3.904 2.556,-5.562l3.89,-4.12c3.143,-3.368 3.837,-5.51 3.837,-9.148l0,-3.528c0,-5.19 -2.503,-7.65 -7.938,-7.65c-5.296,0 -8.012,2.802 -8.044,7.916Z" style="fill:#fff;"/><path d="M46.063,15.05l-2.46,0l0,-14.698l3.582,0c2.484,0 3.39,1.235 3.39,3.297l0,1.884c0,1.583 -0.56,2.515 -1.964,2.84l2.353,6.677l-2.59,0l-2.311,-6.74l0,-0.003l-0.001,0l0.001,0.003l0,6.74Zm0.822,-12.68l-0.823,0l0.001,0l0,4.571l0.822,0c0.84,0 1.207,-0.432 1.207,-1.214l0,-2.167c0,-0.803 -0.367,-1.19 -1.207,-1.19Z" style="fill:#fff;"/><path d="M52.153,0.353l5.871,0l0,2.017l-3.41,0l0,4.203l2.44,0l0,1.994l-2.44,0l0,4.467l3.41,0l0,2.015l-5.87,0l-0.001,-14.696Z" style="fill:#fff;"/><path d="M59.451,11.884l0,-1.971l2.288,0l0,2.015c0,0.824 0.366,1.3 1.21,1.3c0.776,0 1.12,-0.52 1.12,-1.3l0,-0.563c0,-0.845 -0.344,-1.366 -1.1,-2.082l-1.446,-1.453c-1.402,-1.388 -2.05,-2.233 -2.05,-3.923l0,-0.5c0,-1.821 1.057,-3.23 3.454,-3.23c2.46,0 3.433,1.215 3.433,3.34l0,1.19l-2.247,0l0,-1.277c0,-0.847 -0.389,-1.258 -1.165,-1.258c-0.691,0 -1.167,0.39 -1.167,1.214l0,0.304c0,0.824 0.455,1.3 1.167,1.994l1.574,1.561c1.34,1.366 1.986,2.189 1.986,3.814l0,0.716c0,2.016 -1.08,3.447 -3.582,3.447c-2.504,0 -3.476,-1.41 -3.476,-3.339l0.001,0.001Z" style="fill:#fff;"/><path d="M70.463,15.05l-2.46,0l0,-14.698l3.648,0c2.483,0 3.39,1.235 3.39,3.297l0,3.098c0,2.06 -0.907,3.316 -3.39,3.316l-1.188,0l0,4.987Zm0.908,-12.681l-0.908,0l0,5.787l0.908,0c0.842,0 1.21,-0.412 1.21,-1.215l0,-3.38c0,-0.804 -0.368,-1.192 -1.21,-1.192Z" style="fill:#fff;"/><path d="M76.554,11.256l0,-7.112c0,-2.296 1.123,-3.965 3.712,-3.965c2.613,0 3.734,1.67 3.734,3.965l0,7.112c0,2.275 -1.121,3.967 -3.734,3.967c-2.59,0 -3.712,-1.692 -3.712,-3.967Zm4.986,0.39l0,-7.89c0,-0.89 -0.387,-1.518 -1.274,-1.518c-0.863,0 -1.252,0.629 -1.252,1.518l0,7.89c0,0.89 0.389,1.516 1.252,1.516c0.887,0 1.274,-0.627 1.274,-1.516Z" style="fill:#fff;"/><path d="M87.716,5.815l0,9.235l-2.073,0l0,-14.697l2.418,0l2.655,8.432l0,-8.432l2.05,0l0,14.697l-2.159,0l-2.891,-9.235Z" style="fill:#fff;"/><path d="M94.302,11.884l0,-1.971l2.288,0l0,2.015c0,0.824 0.367,1.3 1.21,1.3c0.776,0 1.122,-0.52 1.122,-1.3l0,-0.563c0,-0.845 -0.346,-1.366 -1.102,-2.082l-1.446,-1.452c-1.403,-1.388 -2.05,-2.233 -2.05,-3.923l0,-0.5c0,-1.821 1.057,-3.23 3.454,-3.23c2.46,0 3.432,1.215 3.432,3.34l0,1.19l-2.244,0l0,-1.277c0,-0.847 -0.39,-1.258 -1.165,-1.258c-0.693,0 -1.167,0.39 -1.167,1.214l0,0.304c0,0.824 0.453,1.3 1.167,1.994l1.574,1.561c1.34,1.366 1.986,2.189 1.986,3.814l0,0.716c0,2.016 -1.08,3.447 -3.583,3.447c-2.47,0 -3.448,-1.371 -3.476,-3.339Z" style="fill:#fff;"/><rect x="102.852" y="0.352" width="2.46" height="14.698" style="fill:#fff;"/><path d="M110.802,15.049l-3.829,0l0,-14.697l3.562,0c2.46,0 3.283,1.15 3.283,3.232l0,1.493c0,1.237 -0.455,2.017 -1.47,2.341c1.236,0.283 1.837,1.107 1.837,2.451l0,1.95c0,2.081 -0.922,3.23 -3.383,3.23Zm-0.311,-6.609l-1.058,0l0,4.594l1.08,0c0.824,0 1.214,-0.413 1.214,-1.192l0,-2.212c0,-0.78 -0.368,-1.19 -1.236,-1.19Zm-0.212,-6.071l-0.846,0l0,4.183l0.869,0c0.8,0 1.168,-0.411 1.168,-1.191l0,-1.8c0,-0.803 -0.367,-1.192 -1.191,-1.192Z" style="fill:#fff;"/><path d="M115.655,0.353l2.46,0l0,12.68l2.939,0l0,2.016l-5.399,0l0,-14.696Z" style="fill:#fff;"/><path d="M122.412,0.353l5.876,0l0,2.017l-3.416,0l0,4.203l2.448,0l0,1.994l-2.448,0l0,4.467l3.416,0l0,2.015l-5.876,0l0,-14.696Z" style="fill:#fff;"/><path d="M43.603,32.842l0,-7.11c0,-2.297 1.079,-3.967 3.671,-3.967c2.72,0 3.474,1.518 3.474,3.687l0,1.734l-2.244,0l0,-1.93c0,-0.91 -0.302,-1.431 -1.188,-1.431c-0.886,0 -1.253,0.63 -1.253,1.517l0,7.89c0,0.89 0.367,1.518 1.253,1.518c0.886,0 1.188,-0.563 1.188,-1.431l0,-2.71l2.244,0l0,2.537c0,2.103 -0.863,3.663 -3.474,3.663c-2.556,0 -3.64,-1.643 -3.671,-3.967Z" style="fill:#fff;"/><path d="M52.305,32.842l0,-7.11c0,-2.297 1.125,-3.967 3.713,-3.967c2.612,0 3.734,1.67 3.734,3.967l0,7.11c0,2.277 -1.122,3.967 -3.734,3.967c-2.588,0 -3.713,-1.69 -3.713,-3.967Zm4.988,0.39l0,-7.89c0,-0.887 -0.387,-1.517 -1.275,-1.517c-0.863,0 -1.251,0.63 -1.251,1.517l0,7.89c0,0.89 0.388,1.518 1.251,1.518c0.888,0 1.274,-0.628 1.274,-1.518l0.001,0Z" style="fill:#fff;"/><path d="M63.447,27.402l0,9.233l-2.074,0l0,-14.695l2.419,0l2.655,8.432l0,-8.432l2.05,0l0,14.696l-2.157,0l-2.893,-9.234Z" style="fill:#fff;"/><path d="M69.988,33.472l0,-1.973l2.288,0l0,2.017c0,0.824 0.368,1.298 1.211,1.298c0.775,0 1.121,-0.518 1.121,-1.298l0,-0.565c0,-0.845 -0.346,-1.364 -1.1,-2.08l-1.446,-1.453c-1.404,-1.387 -2.05,-2.232 -2.05,-3.923l0,-0.5c0,-1.82 1.055,-3.229 3.452,-3.229c2.46,0 3.433,1.214 3.433,3.34l0,1.19l-2.245,0l0,-1.28c0,-0.844 -0.39,-1.256 -1.165,-1.256c-0.692,0 -1.167,0.39 -1.167,1.214l0,0.304c0,0.824 0.454,1.3 1.167,1.994l1.575,1.56c1.339,1.368 1.986,2.19 1.986,3.815l0,0.717c0,2.015 -1.08,3.446 -3.584,3.446c-2.469,0 -3.448,-1.371 -3.476,-3.338Z" style="fill:#fff;"/><path d="M85.708,21.939l0,11.12c0,2.278 -0.974,3.751 -3.476,3.751c-2.592,0 -3.67,-1.473 -3.67,-3.752l0,-11.118l2.46,0l0,11.358c0,0.868 0.347,1.454 1.21,1.454c0.865,0 1.209,-0.586 1.209,-1.454l0,-11.359l2.267,0Z" style="fill:#fff;"/><path d="M94.106,27.098l-0.064,0l-1.662,9.539l-1.144,0l-1.835,-9.539l-0.044,0l0,9.539l-2.028,0l0,-14.699l2.872,0l1.596,8.282l0.02,0l1.426,-8.282l3.109,0l0,14.699l-2.246,0l0,-9.539Z" style="fill:#fff;"/><path d="M100.435,36.637l-2.46,0l0,-14.699l3.648,0c2.483,0 3.388,1.237 3.388,3.297l0,3.1c0,2.058 -0.905,3.316 -3.388,3.316l-1.188,0l0,4.986Zm0.906,-12.682l-0.906,0l0,5.789l0.906,0c0.842,0 1.21,-0.413 1.21,-1.215l0,-3.38c0,-0.804 -0.368,-1.194 -1.21,-1.194Z" style="fill:#fff;"/><path d="M105.812,21.939l6.537,0l0,2.017l-2.024,0l0,12.68l-2.484,0l0,-12.68l-2.03,0l0.001,-2.017Z" style="fill:#fff;"/><rect x="113.519" y="21.94" width="2.46" height="14.695" style="fill:#fff;"/><path d="M117.402,32.842l0,-7.11c0,-2.297 1.125,-3.967 3.719,-3.967c2.614,0 3.729,1.67 3.729,3.967l0,7.11c0,2.277 -1.115,3.967 -3.73,3.967c-2.556,0 -3.686,-1.643 -3.718,-3.967Zm4.987,0.39l0,-7.89c0,-0.887 -0.39,-1.517 -1.268,-1.517c-0.869,0 -1.259,0.63 -1.259,1.517l0,7.89c0,0.89 0.39,1.518 1.259,1.518c0.878,0 1.268,-0.628 1.268,-1.518Z" style="fill:#fff;"/><path d="M128.355,27.402l0,9.233l-2.07,0l0,-14.695l2.414,0l2.65,8.432l0,-8.432l2.058,0l0,14.696l-2.158,0l-2.894,-9.234Z" style="fill:#fff;"/><path d="M51.57,58.223l-2.527,0l-0.453,-2.688l-2.611,0l-0.433,2.688l-2.33,0l0,-0.001l2.763,-14.696l2.806,0l2.785,14.697Zm-4.275,-10.557l-0.021,0l-0.972,5.896l1.965,0l-0.972,-5.896Z" style="fill:#fff;"/><path d="M54.723,48.989l0,9.234l-2.073,0l0,-14.696l2.418,0l2.655,8.432l0,-8.432l2.05,0l0,14.696l-2.159,0l-2.891,-9.234Z" style="fill:#fff;"/><path d="M65.045,58.224l-3.801,0l0,-14.698l3.801,0c2.633,0 3.56,1.669 3.56,3.945l0,6.807c0,2.253 -0.927,3.946 -3.56,3.946Zm-0.302,-12.681l-1.037,0l0,10.664l1.037,0c1.014,0 1.402,-0.607 1.402,-1.495l0,-7.696c0,-0.866 -0.388,-1.473 -1.402,-1.473Z" style="fill:#fff;"/><path d="M74.868,58.224l-2.46,0l0,-14.698l3.648,0c2.483,0 3.39,1.235 3.39,3.296l0,3.1c0,2.058 -0.907,3.315 -3.39,3.315l-1.188,0l0,4.987Zm0.908,-12.681l-0.908,0l0,5.786l0.909,0c0.841,0 1.209,-0.41 1.209,-1.214l0,-3.381c0,-0.803 -0.368,-1.191 -1.21,-1.191Z" style="fill:#fff;"/><path d="M83.247,58.224l-2.46,0l0,-14.698l3.581,0c2.485,0 3.39,1.235 3.39,3.296l0,1.885c0,1.583 -0.56,2.515 -1.963,2.84l2.353,6.677l-2.592,0l-2.309,-6.743l0,6.743Zm0.82,-12.681l-0.82,0l0,4.572l0.82,0c0.842,0 1.21,-0.432 1.21,-1.214l0,-2.167c0,-0.803 -0.368,-1.191 -1.21,-1.191Z" style="fill:#fff;"/><path d="M89.162,54.43l0,-7.112c0,-2.296 1.125,-3.965 3.713,-3.965c2.613,0 3.734,1.67 3.734,3.965l0,7.112c0,2.274 -1.12,3.967 -3.734,3.967c-2.588,0 -3.713,-1.693 -3.713,-3.967Zm4.987,0.39l0,-7.89c0,-0.89 -0.386,-1.518 -1.274,-1.518c-0.861,0 -1.251,0.628 -1.251,1.518l0,7.89c0,0.89 0.39,1.516 1.251,1.516c0.888,0 1.274,-0.627 1.274,-1.516Z" style="fill:#fff;"/><path d="M101.881,58.224l-3.8,0l0,-14.698l3.8,0c2.634,0 3.562,1.669 3.562,3.945l0,6.807c0,2.253 -0.928,3.946 -3.562,3.946Zm-0.302,-12.681l-1.037,0l0,10.664l1.037,0c1.014,0 1.404,-0.607 1.404,-1.495l0,-7.696c0,-0.866 -0.39,-1.473 -1.404,-1.473Z" style="fill:#fff;"/><path d="M114.063,43.526l0,11.12c0,2.276 -0.978,3.75 -3.484,3.75c-2.592,0 -3.66,-1.474 -3.66,-3.75l0,-11.12l2.458,0l0,11.358c0,0.868 0.346,1.452 1.202,1.452c0.87,0 1.214,-0.584 1.214,-1.452l0,-11.358l2.27,0Z" style="fill:#fff;"/><path d="M115.533,54.43l0,-7.112c0,-2.296 1.079,-3.965 3.662,-3.965c2.728,0 3.483,1.517 3.483,3.684l0,1.735l-2.247,0l0,-1.929c0,-0.91 -0.3,-1.43 -1.192,-1.43c-0.879,0 -1.246,0.627 -1.246,1.517l0,7.89c0,0.89 0.367,1.517 1.246,1.517c0.891,0 1.192,-0.564 1.192,-1.43l0,-2.71l2.247,0l0,2.536c0,2.104 -0.868,3.664 -3.483,3.664c-2.547,0 -3.631,-1.643 -3.662,-3.967Z" style="fill:#fff;"/><path d="M123.803,43.526l6.534,0l0,2.018l-2.027,0l0,12.679l-2.481,0l0,-12.68l-2.026,0l0,-2.017Z" style="fill:#fff;"/><rect x="131.505" y="43.526" width="2.46" height="14.697" style="fill:#fff;"/><path d="M135.39,54.43l0,-7.112c0,-2.296 1.123,-3.965 3.717,-3.965c2.615,0 3.73,1.67 3.73,3.965l0,7.112c0,2.274 -1.115,3.967 -3.73,3.967c-2.594,0 -3.717,-1.693 -3.717,-3.967Zm4.986,0.39l0,-7.89c0,-0.89 -0.39,-1.518 -1.269,-1.518c-0.868,0 -1.258,0.628 -1.258,1.518l0,7.89c0,0.89 0.39,1.516 1.258,1.516c0.879,0 1.269,-0.627 1.269,-1.516Z" style="fill:#fff;"/><path d="M146.342,48.989l0,9.234l-2.07,0l0,-14.696l2.414,0l2.65,8.432l0,-8.432l2.058,0l0,14.696l-2.158,0l-2.894,-9.234Z" style="fill:#fff;"/></svg>