<?xml version="1.0" encoding="UTF-8" standalone="no"?><!DOCTYPE svg PUBLIC "-//W3C//DTD SVG 1.1//EN" "http://www.w3.org/Graphics/SVG/1.1/DTD/svg11.dtd"><svg width="100%" height="100%" viewBox="0 0 136 37" version="1.1" xmlns="http://www.w3.org/2000/svg" xmlns:xlink="http://www.w3.org/1999/xlink" xml:space="preserve" xmlns:serif="http://www.serif.com/" style="fill-rule:evenodd;clip-rule:evenodd;stroke-linejoin:round;stroke-miterlimit:2;"><path d="M10.482,0.178l0,36.113l-6.097,0l0,-27.645l-0.054,0l-4.28,4.422l-0.051,0l0,-6.34l5.615,-6.55l4.867,0Z" style="fill:#fff;"/><path d="M13.263,0.178l15.3,0l0,5.593l-7.971,30.52l-6.046,0l8.13,-31.161l-9.413,0l0,-4.952Z" style="fill:#fff;"/><path d="M43.441,14.808l-2.47,0l0,-14.637l3.663,0c2.494,0 3.402,1.232 3.402,3.283l0,3.086c0,2.05 -0.908,3.304 -3.402,3.304l-1.193,0l0,4.964Zm0.911,-12.628l-0.911,0l0,5.764l0.91,0c0.846,0 1.215,-0.411 1.215,-1.21l0,-3.368c0,-0.8 -0.369,-1.186 -1.214,-1.186Z" style="fill:#fff;"/><path d="M56.733,14.806l-2.537,0l-0.455,-2.676l-2.623,0l-0.432,2.676l-2.342,0l2.774,-14.635l2.818,0l2.797,14.635Zm-4.293,-10.511l-0.021,0l-0.976,5.87l0,0.001l1.973,0l-0.976,-5.871Z" style="fill:#fff;"/><path d="M60.441,14.808l-2.471,0l0,-14.637l3.598,0c2.492,0 3.404,1.232 3.404,3.283l0,1.877c0,1.576 -0.564,2.504 -1.973,2.827l2.363,6.65l-2.603,0l-2.318,-6.715l0,6.715Zm0.824,-12.628l-0.824,0l0,4.555l0.824,0c0.845,0 1.214,-0.432 1.214,-1.21l0,-2.159c0,-0.8 -0.369,-1.186 -1.214,-1.186Z" style="fill:#fff;"/><path d="M65.841,0.172l6.568,0l0,2.009l-2.036,0l0,12.625l-2.495,0l0,-12.625l-2.038,0l0.001,-2.009Z" style="fill:#fff;"/><path d="M76.054,5.611l0,9.197l-2.083,0l0,-14.636l2.429,0l2.666,8.397l0,-8.397l2.06,0l0,14.636l-2.17,0l-2.902,-9.197Z" style="fill:#fff;"/><path d="M83.166,0.172l5.895,0l0,2.009l-3.425,0l0,4.186l2.451,0l0,1.985l-2.45,0l0,4.448l3.424,0l0,2.007l-5.895,0l0,-14.635Z" style="fill:#fff;"/><path d="M93.073,14.808l-2.47,0l0,-14.637l3.598,0c2.493,0 3.404,1.232 3.404,3.283l0,1.877c0,1.576 -0.563,2.504 -1.973,2.827l2.363,6.65l-2.601,0l-2.321,-6.715l0,6.715Zm0.824,-12.628l-0.824,0l0,4.555l0.824,0c0.845,0 1.214,-0.432 1.214,-1.21l0,-2.159c0,-0.8 -0.369,-1.186 -1.214,-1.186Z" style="fill:#fff;"/><path d="M98.841,11.656l0,-1.964l2.298,0l0,2.006c0,0.821 0.369,1.296 1.216,1.296c0.778,0 1.126,-0.519 1.126,-1.296l0,-0.56c0,-0.842 -0.348,-1.36 -1.105,-2.072l-1.452,-1.446c-1.41,-1.382 -2.06,-2.225 -2.06,-3.907l0,-0.497c0,-1.814 1.061,-3.216 3.468,-3.216c2.47,0 3.447,1.209 3.447,3.325l0,1.186l-2.254,0l0,-1.274c0,-0.842 -0.392,-1.251 -1.17,-1.251c-0.695,0 -1.172,0.388 -1.172,1.209l0,0.3c0,0.823 0.456,1.295 1.172,1.988l1.581,1.553c1.345,1.36 1.994,2.181 1.994,3.8l0,0.711c0,2.009 -1.083,3.432 -3.598,3.432c-2.515,0 -3.49,-1.402 -3.49,-3.323l-0.001,0Z" style="fill:#fff;"/><path d="M112.306,8.353l-2.384,0l0,6.455l-2.47,0l0,-14.636l2.47,0l0,6.195l2.384,0l0,-6.195l2.494,0l0,14.636l-2.494,0l0,-6.455Z" style="fill:#fff;"/><rect x="116.428" y="0.172" width="2.47" height="14.634" style="fill:#fff;"/><path d="M123.017,14.808l-2.47,0l0,-14.637l3.665,0c2.492,0 3.402,1.232 3.402,3.283l0,3.086c0,2.05 -0.91,3.304 -3.402,3.304l-1.195,0l0,4.964Zm0.913,-12.628l-0.912,0l0,5.764l0.912,0c0.845,0 1.214,-0.411 1.214,-1.21l0,-3.368c0,-0.8 -0.369,-1.186 -1.214,-1.186Z" style="fill:#fff;"/><path d="M128.57,11.656l0,-1.964l2.298,0l0,2.006c0,0.821 0.369,1.296 1.216,1.296c0.778,0 1.126,-0.519 1.126,-1.296l0,-0.56c0,-0.842 -0.348,-1.36 -1.107,-2.072l-1.452,-1.446c-1.408,-1.382 -2.058,-2.225 -2.058,-3.907l0,-0.497c0,-1.814 1.06,-3.216 3.468,-3.216c2.47,0 3.446,1.209 3.446,3.325l0,1.186l-2.253,0l0,-1.274c0,-0.842 -0.392,-1.251 -1.17,-1.251c-0.696,0 -1.172,0.388 -1.172,1.209l0,0.3c0,0.823 0.455,1.295 1.172,1.988l1.58,1.553c1.346,1.36 1.995,2.181 1.995,3.8l0,0.711c0,2.009 -1.085,3.432 -3.598,3.432c-2.515,0 -3.49,-1.402 -3.49,-3.323l-0.001,0Z" style="fill:#fff;"/><path d="M40.97,21.436l5.788,0l0,2.008l-3.318,0l0,4.186l2.473,0l0,1.986l-2.473,0l0,6.455l-2.47,0l0,-14.635Z" style="fill:#fff;"/><path d="M47.607,32.293l0,-7.08c0,-2.288 1.125,-3.95 3.727,-3.95c2.622,0 3.75,1.662 3.75,3.95l0,7.08c0,2.267 -1.128,3.95 -3.75,3.95c-2.602,0 -3.727,-1.683 -3.727,-3.95Zm5.006,0.389l0,-7.857c0,-0.884 -0.39,-1.512 -1.28,-1.512c-0.866,0 -1.256,0.628 -1.256,1.512l0,7.857c0,0.885 0.39,1.511 1.257,1.511c0.89,0 1.28,-0.626 1.28,-1.511l-0.001,0Z" style="fill:#fff;"/><path d="M59.183,36.072l-2.47,0l0,-14.637l3.598,0c2.491,0 3.404,1.232 3.404,3.283l0,1.876c0,1.577 -0.565,2.505 -1.973,2.828l2.363,6.65l-2.603,0l-2.319,-6.715l0,6.715Zm0.824,-12.629l-0.824,0l0,4.555l0.824,0c0.845,0 1.214,-0.432 1.214,-1.209l0,-2.16c0,-0.799 -0.369,-1.186 -1.214,-1.186Z" style="fill:#fff;"/><path d="M67.598,21.436l6.567,0l0,2.008l-2.036,0l0,12.627l-2.494,0l0,-12.627l-2.037,0l0,-2.008Z" style="fill:#fff;"/><path d="M80.194,29.616l-2.386,0l0,6.455l-2.47,0l0,-14.635l2.47,0l0,6.194l2.386,0l0,-6.194l2.492,0l0,14.635l-2.492,0l0,-6.455Z" style="fill:#fff;"/><path d="M84.314,21.436l5.897,0l0,2.008l-3.427,0l0,4.186l2.451,0l0,1.986l-2.45,0l0,4.448l3.426,0l0,2.007l-5.897,0l0,-14.635Z" style="fill:#fff;"/><path d="M98.104,28.257l3.513,0l0,7.813l-1.778,0l0,-1.597c-0.325,1.102 -1.019,1.77 -2.363,1.77c-2.125,0 -3.101,-1.682 -3.101,-3.95l0,-7.08c0,-2.287 1.106,-3.95 3.708,-3.95c2.731,0 3.534,1.51 3.534,3.67l0,1.295l-2.255,0l0,-1.49c0,-0.907 -0.348,-1.424 -1.235,-1.424c-0.89,0 -1.281,0.626 -1.281,1.511l0,7.857c0,0.886 0.368,1.512 1.215,1.512c0.802,0 1.215,-0.456 1.215,-1.404l0,-2.59l-1.172,0l0,-1.944l0,0.001Z" style="fill:#fff;"/><path d="M103.005,32.293l0,-7.08c0,-2.288 1.128,-3.95 3.73,-3.95c2.621,0 3.75,1.662 3.75,3.95l0,7.08c0,2.267 -1.129,3.95 -3.75,3.95c-2.602,0 -3.73,-1.683 -3.73,-3.95Zm5.009,0.389l0,-7.857c0,-0.884 -0.39,-1.512 -1.28,-1.512c-0.866,0 -1.258,0.628 -1.258,1.512l0,7.857c0,0.885 0.392,1.511 1.258,1.511c0.89,0 1.28,-0.626 1.28,-1.511Z" style="fill:#fff;"/><path d="M119.569,36.071l-2.536,0l-0.455,-2.677l-2.622,0l-0.434,2.677l-2.34,0l0,-0.001l2.774,-14.634l2.816,0l2.797,14.635Zm-4.292,-10.513l-0.02,0l-0.977,5.872l1.973,0l-0.976,-5.872Z" style="fill:#fff;"/><path d="M120.784,21.436l2.47,0l0,12.628l2.95,0l0,2.007l-5.42,0l0,-14.635Z" style="fill:#fff;"/><path d="M127.095,32.92l0,-1.965l2.297,0l0,2.007c0,0.82 0.37,1.295 1.215,1.295c0.78,0 1.127,-0.518 1.127,-1.295l0,-0.56c0,-0.842 -0.347,-1.36 -1.106,-2.072l-1.453,-1.447c-1.408,-1.381 -2.06,-2.224 -2.06,-3.906l0,-0.498c0,-1.813 1.063,-3.216 3.47,-3.216c2.47,0 3.447,1.21 3.447,3.325l0,1.187l-2.255,0l0,-1.274c0,-0.842 -0.39,-1.252 -1.17,-1.252c-0.694,0 -1.17,0.389 -1.17,1.21l0,0.3c0,0.822 0.455,1.295 1.17,1.987l1.58,1.554c1.347,1.36 1.997,2.18 1.997,3.8l0,0.71c0,2.01 -1.086,3.433 -3.599,3.433c-2.479,0 -3.462,-1.363 -3.49,-3.323Z" style="fill:#fff;"/></svg>