<?xml version="1.0" encoding="UTF-8" standalone="no"?><!DOCTYPE svg PUBLIC "-//W3C//DTD SVG 1.1//EN" "http://www.w3.org/Graphics/SVG/1.1/DTD/svg11.dtd"><svg width="100%" height="100%" viewBox="0 0 143 59" version="1.1" xmlns="http://www.w3.org/2000/svg" xmlns:xlink="http://www.w3.org/1999/xlink" xml:space="preserve" xmlns:serif="http://www.serif.com/" style="fill-rule:evenodd;clip-rule:evenodd;stroke-linejoin:round;stroke-miterlimit:2;"><path d="M0,6.976l0,6.339l0.054,0l4.278,-4.422l0.057,0l0,27.645l6.097,0l0,-36.115l-4.87,0l-5.616,6.553Z" style="fill:#fff;"/><path d="M20.062,16.564c0.909,-1.758 2.458,-2.93 5.027,-2.93c4.386,0 6.74,2.985 6.74,8.897l0,5.326c-0.03,5.636 -2.553,9.108 -8.986,9.108c-6.418,0 -8.88,-4.048 -8.88,-9.64l0,-17.577c0,-5.648 2.407,-9.748 8.825,-9.748c6.741,0 8.504,3.727 8.504,9.054l0,1.918l-5.56,0l0,-2.4c0,-2.237 -0.643,-3.515 -2.835,-3.515c-2.195,0 -2.89,1.545 -2.89,3.73l0,7.777l0.055,0Zm5.721,11.826c0,2.29 -0.856,3.622 -2.94,3.622c-2.033,0 -2.836,-1.385 -2.836,-3.622l0,-6.604c0.108,-2.025 0.964,-3.304 2.89,-3.304c2.083,0 2.886,1.28 2.886,3.622l0,6.286Z" style="fill:#fff;"/><path d="M46.035,15.041l-2.47,0l0,-14.636l3.663,0c2.491,0 3.402,1.232 3.402,3.283l0,3.086c0,2.05 -0.91,3.304 -3.402,3.304l-1.193,0l0,4.963Zm0.91,-12.626l-0.91,0l0,5.763l0.91,0c0.846,0 1.214,-0.411 1.214,-1.21l0,-3.367c0,-0.8 -0.368,-1.186 -1.214,-1.186Z" style="fill:#fff;"/><path d="M51.824,0.406l5.898,0l0,2.009l-3.427,0l0,4.185l2.451,0l0,1.986l-2.451,0l0,4.448l3.427,0l0,2.007l-5.898,0l0,-14.635Z" style="fill:#fff;"/><path d="M67.175,15.041l-2.537,0l-0.456,-2.676l-2.622,0l-0.433,2.676l-2.341,0l2.774,-14.635l2.818,0l2.797,14.635Zm-4.293,-10.512l-0.021,0l-0.976,5.87l0,0.001l1.973,0l-0.976,-5.871Z" style="fill:#fff;"/><path d="M68.108,11.264l0,-7.08c0,-2.289 1.084,-3.951 3.685,-3.951c2.732,0 3.49,1.511 3.49,3.67l0,1.728l-2.253,0l0,-1.922c0,-0.907 -0.305,-1.425 -1.193,-1.425c-0.89,0 -1.258,0.627 -1.258,1.51l0,7.858c0,0.886 0.369,1.511 1.258,1.511c0.888,0 1.193,-0.56 1.193,-1.425l0,-2.697l2.254,0l0,2.525c0,2.095 -0.867,3.648 -3.491,3.648c-2.601,0 -3.685,-1.683 -3.685,-3.95Z" style="fill:#fff;"/><path d="M76.738,0.406l5.898,0l0,2.009l-3.427,0l0,4.185l2.45,0l0,1.986l-2.45,0l0,4.448l3.427,0l0,2.007l-5.899,0l0.001,-14.635Z" style="fill:#fff;"/><path d="M86.711,12.883l-1.258,3.302l-1.387,0l0.303,-3.497l2.342,0l0,0.195Z" style="fill:#fff;"/><path d="M97.401,0.406l0,11.31c0,2.116 -0.932,3.497 -3.404,3.497c-2.557,0 -3.253,-1.402 -3.253,-3.258l0,-2.914l2.343,0l0,2.959c0,0.733 0.261,1.165 0.91,1.165c0.673,0 0.934,-0.432 0.934,-1.188l0,-11.57l2.47,0l0,-0.001Z" style="fill:#fff;"/><path d="M106.182,0.406l0,11.073c0,2.267 -0.976,3.734 -3.49,3.734c-2.602,0 -3.686,-1.467 -3.686,-3.734l0,-11.073l2.471,0l0,11.31c0,0.865 0.348,1.448 1.216,1.448c0.865,0 1.212,-0.583 1.212,-1.448l0,-11.31l2.277,0Z" style="fill:#fff;"/><path d="M107.679,11.891l0,-1.965l2.298,0l0,2.006c0,0.821 0.369,1.296 1.214,1.296c0.78,0 1.126,-0.519 1.126,-1.296l0,-0.56c0,-0.842 -0.346,-1.359 -1.105,-2.072l-1.452,-1.446c-1.408,-1.382 -2.06,-2.223 -2.06,-3.907l0,-0.497c0,-1.814 1.063,-3.216 3.47,-3.216c2.47,0 3.447,1.209 3.447,3.325l0,1.186l-2.256,0l0,-1.274c0,-0.842 -0.39,-1.251 -1.17,-1.251c-0.693,0 -1.17,0.388 -1.17,1.209l0,0.3c0,0.823 0.456,1.295 1.17,1.988l1.581,1.553c1.347,1.36 1.996,2.181 1.996,3.8l0,0.711c0,2.009 -1.085,3.432 -3.598,3.432c-2.515,0 -3.49,-1.402 -3.49,-3.323l-0.001,0.001Z" style="fill:#fff;"/><path d="M116.007,0.406l6.568,0l0,2.009l-2.037,0l0,12.626l-2.493,0l0,-12.626l-2.039,0l0.001,-2.009Z" style="fill:#fff;"/><rect x="123.942" y="0.407" width="2.47" height="14.634" style="fill:#fff;"/><path d="M128.061,11.264l0,-7.08c0,-2.289 1.083,-3.951 3.686,-3.951c2.73,0 3.49,1.511 3.49,3.67l0,1.728l-2.254,0l0,-1.922c0,-0.907 -0.304,-1.425 -1.193,-1.425c-0.89,0 -1.258,0.627 -1.258,1.51l0,7.858c0,0.886 0.368,1.511 1.258,1.511c0.89,0 1.193,-0.56 1.193,-1.425l0,-2.697l2.253,0l0,2.525c0,2.095 -0.866,3.648 -3.489,3.648c-2.603,0 -3.686,-1.683 -3.686,-3.95Z" style="fill:#fff;"/><path d="M136.8,0.406l5.896,0l0,2.009l-3.425,0l0,4.185l2.45,0l0,1.986l-2.45,0l0,4.448l3.425,0l0,2.007l-5.896,0l0,-14.635Z" style="fill:#fff;"/><path d="M51.563,36.981l-2.536,0l-0.456,-2.676l-2.622,0l-0.432,2.676l-2.344,0l2.775,-14.635l2.818,0l2.797,14.635Zm-4.293,-10.512l-0.021,0l-0.976,5.871l1.973,0l-0.976,-5.871Z" style="fill:#fff;"/><path d="M54.881,27.786l0,9.194l-2.082,0l0,-14.633l2.428,0l2.667,8.396l0,-8.396l2.059,0l0,14.633l-2.167,0l-2.905,-9.194Z" style="fill:#fff;"/><path d="M65.397,36.98l-3.815,0l0,-14.635l3.815,0c2.646,0 3.577,1.663 3.577,3.93l0,6.778c0,2.244 -0.931,3.927 -3.577,3.927Zm-0.303,-12.628l-1.041,0l0,10.622l1.041,0c1.018,0 1.41,-0.605 1.41,-1.489l0,-7.664c0,-0.864 -0.392,-1.469 -1.41,-1.469Z" style="fill:#fff;"/><path d="M72.965,33.829l0,-1.964l2.297,0l0,2.008c0,0.82 0.37,1.295 1.216,1.295c0.778,0 1.126,-0.518 1.126,-1.295l0,-0.562c0,-0.842 -0.348,-1.36 -1.106,-2.072l-1.45,-1.446c-1.41,-1.382 -2.06,-2.223 -2.06,-3.907l0,-0.497c0,-1.814 1.06,-3.216 3.467,-3.216c2.47,0 3.447,1.209 3.447,3.325l0,1.186l-2.255,0l0,-1.274c0,-0.842 -0.392,-1.251 -1.17,-1.251c-0.695,0 -1.172,0.388 -1.172,1.207l0,0.304c0,0.82 0.456,1.293 1.172,1.986l1.581,1.555c1.345,1.359 1.995,2.18 1.995,3.798l0,0.713c0,2.005 -1.086,3.432 -3.599,3.432c-2.514,0 -3.49,-1.404 -3.49,-3.325l0.001,0Z" style="fill:#fff;"/><path d="M80.967,22.346l6.568,0l0,2.007l-2.038,0l0,12.628l-2.493,0l0,-12.628l-2.039,0l0.002,-2.007Z" style="fill:#fff;"/><path d="M91.373,36.981l-2.47,0l0,-14.635l3.598,0c2.492,0 3.404,1.23 3.404,3.281l0,1.877c0,1.576 -0.565,2.504 -1.973,2.827l2.363,6.65l-2.603,0l-2.319,-6.713l0,6.713Zm0.824,-12.628l-0.824,0l0,4.555l0.824,0c0.846,0 1.214,-0.432 1.214,-1.21l0,-2.157c0,-0.8 -0.368,-1.188 -1.214,-1.188Z" style="fill:#fff;"/><path d="M97.467,33.202l0,-7.08c0,-2.288 1.128,-3.949 3.73,-3.949c2.621,0 3.75,1.66 3.75,3.949l0,7.08c0,2.269 -1.129,3.952 -3.75,3.952c-2.602,0 -3.73,-1.683 -3.73,-3.952Zm5.009,0.39l0,-7.859c0,-0.883 -0.39,-1.51 -1.28,-1.51c-0.866,0 -1.258,0.627 -1.258,1.51l0,7.86c0,0.885 0.392,1.509 1.258,1.509c0.89,0 1.28,-0.624 1.28,-1.51Z" style="fill:#fff;"/><path d="M108.655,27.786l0,9.194l-2.08,0l0,-14.633l2.426,0l2.667,8.396l0,-8.396l2.06,0l0,14.633l-2.168,0l-2.905,-9.194Z" style="fill:#fff;"/><path d="M119.084,29.167l3.513,0l0,7.813l-1.779,0l0,-1.599c-0.324,1.102 -1.018,1.772 -2.364,1.772c-2.123,0 -3.1,-1.684 -3.1,-3.95l0,-7.08c0,-2.289 1.107,-3.951 3.707,-3.951c2.733,0 3.536,1.51 3.536,3.669l0,1.295l-2.255,0l0,-1.488c0,-0.907 -0.348,-1.426 -1.236,-1.426c-0.889,0 -1.28,0.626 -1.28,1.512l0,7.857c0,0.885 0.368,1.511 1.215,1.511c0.801,0 1.214,-0.453 1.214,-1.402l0,-2.592l-1.171,0l0,-1.942l0,0.001Z" style="fill:#fff;"/><rect x="43.562" y="43.314" width="2.47" height="14.635" style="fill:#fff;"/><path d="M49.872,48.754l0,9.194l-2.08,0l0,-14.635l2.427,0l2.665,8.397l0,-8.397l2.06,0l0,14.635l-2.168,0l-2.904,-9.194Z" style="fill:#fff;"/><path d="M56.442,54.798l0,-1.965l2.297,0l0,2.008c0,0.823 0.37,1.295 1.216,1.295c0.778,0 1.126,-0.516 1.126,-1.295l0,-0.56c0,-0.842 -0.348,-1.359 -1.106,-2.072l-1.453,-1.447c-1.408,-1.381 -2.057,-2.223 -2.057,-3.906l0,-0.498c0,-1.813 1.06,-3.216 3.467,-3.216c2.47,0 3.447,1.21 3.447,3.325l0,1.187l-2.254,0l0,-1.275c0,-0.841 -0.392,-1.25 -1.17,-1.25c-0.695,0 -1.172,0.388 -1.172,1.208l0,0.303c0,0.82 0.456,1.293 1.172,1.985l1.581,1.554c1.345,1.362 1.994,2.18 1.994,3.8l0,0.713c0,2.007 -1.085,3.432 -3.598,3.432c-2.515,0 -3.49,-1.404 -3.49,-3.325l0,-0.001Z" style="fill:#fff;"/><path d="M64.442,43.314l6.568,0l0,2.008l-2.036,0l0,12.627l-2.494,0l0,-12.628l-2.038,0l0,-2.007Z" style="fill:#fff;"/><rect x="72.379" y="43.314" width="2.47" height="14.635" style="fill:#fff;"/><path d="M76.217,43.314l6.567,0l0,2.008l-2.036,0l0,12.627l-2.494,0l0,-12.628l-2.037,0l0,-2.007Z" style="fill:#fff;"/><path d="M91.327,43.314l0,11.073c0,2.266 -0.975,3.736 -3.488,3.736c-2.603,0 -3.687,-1.47 -3.687,-3.736l0,-11.073l2.47,0l0,11.311c0,0.863 0.348,1.447 1.217,1.447c0.864,0 1.214,-0.584 1.214,-1.447l0,-11.311l2.275,0l-0.001,0Z" style="fill:#fff;"/><path d="M92.674,43.314l6.568,0l0,2.008l-2.036,0l0,12.627l-2.494,0l0,-12.628l-2.038,0l0,-2.007Z" style="fill:#fff;"/><rect x="100.609" y="43.314" width="2.47" height="14.635" style="fill:#fff;"/><path d="M104.729,54.171l0,-7.08c0,-2.288 1.128,-3.95 3.729,-3.95c2.622,0 3.75,1.662 3.75,3.95l0,7.08c0,2.267 -1.128,3.95 -3.75,3.95c-2.601,0 -3.729,-1.683 -3.729,-3.95Zm5.008,0.389l0,-7.857c0,-0.884 -0.39,-1.512 -1.28,-1.512c-0.866,0 -1.257,0.628 -1.257,1.512l0,7.857c0,0.885 0.391,1.51 1.258,1.51c0.89,0 1.28,-0.625 1.28,-1.51l-0.001,0Z" style="fill:#fff;"/><path d="M115.918,48.754l0,9.194l-2.08,0l0,-14.635l2.428,0l2.665,8.397l0,-8.397l2.059,0l0,14.635l-2.167,0l-2.905,-9.194Z" style="fill:#fff;"/><path d="M122.488,54.798l0,-1.965l2.298,0l0,2.008c0,0.823 0.368,1.295 1.214,1.295c0.78,0 1.126,-0.516 1.126,-1.295l0,-0.56c0,-0.842 -0.346,-1.359 -1.105,-2.072l-1.452,-1.447c-1.409,-1.381 -2.06,-2.223 -2.06,-3.906l0,-0.498c0,-1.813 1.063,-3.216 3.47,-3.216c2.47,0 3.446,1.21 3.446,3.325l0,1.187l-2.255,0l0,-1.275c0,-0.841 -0.39,-1.25 -1.17,-1.25c-0.694,0 -1.17,0.388 -1.17,1.208l0,0.303c0,0.82 0.455,1.293 1.17,1.985l1.583,1.554c1.344,1.362 1.994,2.18 1.994,3.8l0,0.713c0,2.007 -1.085,3.432 -3.598,3.432c-2.515,0 -3.491,-1.404 -3.491,-3.325l0,-0.001Z" style="fill:#fff;"/></svg>