<?xml version="1.0" encoding="UTF-8" standalone="no"?><!DOCTYPE svg PUBLIC "-//W3C//DTD SVG 1.1//EN" "http://www.w3.org/Graphics/SVG/1.1/DTD/svg11.dtd"><svg width="100%" height="100%" viewBox="0 0 97 37" version="1.1" xmlns="http://www.w3.org/2000/svg" xmlns:xlink="http://www.w3.org/1999/xlink" xml:space="preserve" xmlns:serif="http://www.serif.com/" style="fill-rule:evenodd;clip-rule:evenodd;stroke-linejoin:round;stroke-miterlimit:2;"><path d="M0,6.553l0,6.337l0.053,0l4.26,-4.42l0.054,0l0,27.645l6.072,0l0,-36.115l-4.849,0l-5.59,6.553Z" style="fill:#fff;"/><path d="M24.874,11.454c-2.397,0 -4.152,0.85 -5.114,2.502l-0.054,0l0,-9.002l10.442,0l0,-4.953l-15.98,0l0,20.349l5.538,0l0,-0.803c0,-2.128 0.96,-3.3 2.664,-3.3c1.865,0 2.611,1.28 2.611,3.25l0,8.735c0,1.915 -0.692,3.248 -2.558,3.248c-2.076,0 -2.819,-1.385 -2.819,-3.515l0,-4.527l-5.543,0l0,4.103c0,5.485 2.185,9 8.362,9c6.126,0 8.628,-3.25 8.628,-8.256l0,-8.843c0,-5.7 -2.927,-7.99 -6.177,-7.99l0,0.002Z" style="fill:#fff;"/><path d="M44.122,0.007l2.46,0l0,12.63l2.937,0l0,2.007l-5.397,0l0,-14.637Z" style="fill:#fff;"/><rect x="50.858" y="0.007" width="2.46" height="14.635" style="fill:#fff;"/><path d="M55.177,0.007l5.764,0l0,2.01l-3.304,0l0,4.185l2.462,0l0,1.986l-2.462,0l0,6.455l-2.46,0l0,-14.636Z" style="fill:#fff;"/><path d="M62.216,0.007l5.873,0l0,2.01l-3.413,0l0,4.185l2.44,0l0,1.986l-2.44,0l0,4.448l3.413,0l0,2.007l-5.873,0l0,-14.636Z" style="fill:#fff;"/><path d="M44.105,32.373l0,-7.08c0,-2.289 1.123,-3.951 3.711,-3.951c2.614,0 3.735,1.662 3.735,3.95l0,7.08c0,2.267 -1.121,3.951 -3.735,3.951c-2.552,0 -3.679,-1.637 -3.711,-3.95Zm4.986,0.388l0,-7.857c0,-0.884 -0.387,-1.511 -1.275,-1.511c-0.862,0 -1.25,0.627 -1.25,1.51l0,7.858c0,0.886 0.388,1.51 1.25,1.51c0.858,0 1.249,-0.583 1.275,-1.51Z" style="fill:#fff;"/><path d="M54.986,26.954l0,9.196l-2.071,0l0,-14.635l2.418,0l2.655,8.397l0,-8.397l2.049,0l0,14.635l-2.158,0l-2.893,-9.196Z" style="fill:#fff;"/><path d="M65.351,21.515l2.46,0l0,12.628l2.937,0l0,2.007l-5.397,0l0,-14.635Z" style="fill:#fff;"/><path d="M79.774,36.15l-2.526,0l-0.453,-2.677l-2.612,0l-0.43,2.677l-2.332,0l-0.001,-0.001l2.762,-14.634l2.807,0l2.785,14.635Zm-4.275,-10.513l-0.022,0l-0.971,5.872l1.964,0l-0.971,-5.872Z" style="fill:#fff;"/><path d="M82.841,26.954l0,9.196l-2.073,0l0,-14.635l2.418,0l2.655,8.397l0,-8.397l2.05,0l0,14.635l-2.157,0l-2.893,-9.196Z" style="fill:#fff;"/><path d="M93.269,36.151l-3.8,0l0,-14.637l3.8,0c2.634,0 3.562,1.662 3.562,3.93l0,6.777c0,2.245 -0.928,3.93 -3.562,3.93Zm-0.303,-12.628l-1.036,0l0,10.62l1.036,0l0,-0.001c1.014,0 1.405,-0.604 1.405,-1.488l0,-7.664c0,-0.863 -0.39,-1.467 -1.405,-1.467Z" style="fill:#fff;"/></svg>