<?xml version="1.0" encoding="UTF-8" standalone="no"?><!DOCTYPE svg PUBLIC "-//W3C//DTD SVG 1.1//EN" "http://www.w3.org/Graphics/SVG/1.1/DTD/svg11.dtd"><svg width="100%" height="100%" viewBox="0 0 97 37" version="1.1" xmlns="http://www.w3.org/2000/svg" xmlns:xlink="http://www.w3.org/1999/xlink" xml:space="preserve" xmlns:serif="http://www.serif.com/" style="fill-rule:evenodd;clip-rule:evenodd;stroke-linejoin:round;stroke-miterlimit:2;"><path d="M10.437,0.426l0,36.098l-6.07,0l0,-27.634l-0.055,0l-4.258,4.42l-0.054,0l0,-6.337l5.59,-6.548l4.847,0.001Z" style="fill:#fff;"/><path d="M30.455,8.254l0,3.14c0,3.034 -1.65,5.056 -4.153,5.858c3.035,0.69 4.473,2.82 4.473,6.122l0,5.325c0,5.003 -2.66,8.25 -8.785,8.25c-6.177,0 -8.361,-3.512 -8.361,-8.997l0,-4.74l5.539,0l0,5.169c0,2.128 0.743,3.511 2.822,3.511c1.861,0 2.712,-1.329 2.712,-3.248l0,-5.962c0,-1.92 -0.851,-2.928 -2.98,-2.928l-2.554,0l0,-4.632l2.291,0c1.968,0 3.243,-1.014 3.243,-2.93l0,-3.885c0,-1.972 -0.69,-3.248 -2.605,-3.248c-1.915,0 -2.61,1.276 -2.61,3.513l0,3.673l-5.539,0l0,-3.193c0,-5.325 2.185,-9.052 8.465,-9.052c5.559,0 8.013,3.105 8.042,8.254Z" style="fill:#fff;"/><path d="M44.951,11.242l0,-7.08c0,-2.289 1.079,-3.951 3.67,-3.951c2.72,0 3.475,1.511 3.475,3.67l0,1.726l-2.244,0l0,-1.92c0,-0.909 -0.302,-1.425 -1.188,-1.425c-0.886,0 -1.253,0.627 -1.253,1.51l0,7.858c0,0.886 0.367,1.511 1.253,1.511c0.886,0 1.188,-0.56 1.188,-1.425l0,-2.698l2.244,0l0,2.526c0,2.095 -0.863,3.648 -3.474,3.648c-2.556,0 -3.64,-1.637 -3.671,-3.95Z" style="fill:#fff;"/><path d="M53.675,0.384l2.46,0l0,12.628l2.936,0l0,2.007l-5.396,0l0,-14.635Z" style="fill:#fff;"/><rect x="60.411" y="0.383" width="2.46" height="14.637" style="fill:#fff;"/><path d="M71.485,5.522l-0.063,0l-1.662,9.498l-1.144,0l-1.837,-9.498l-0.042,0l0,9.498l-2.03,0l0,-14.637l2.872,0l1.597,8.246l0.021,0l1.425,-8.246l3.11,0l0,14.637l-2.247,0l0,-9.498Z" style="fill:#fff;"/><path d="M83.318,15.019l-2.525,0l-0.453,-2.677l-2.612,0l-0.432,2.677l-2.332,0l0,-0.001l2.764,-14.634l2.807,0l2.783,14.635Zm-4.273,-10.512l-0.022,0l-0.971,5.87l0,0.001l1.964,0l-0.971,-5.871Z" style="fill:#fff;"/><path d="M82.996,0.384l6.541,0l0,2.008l-2.03,0l0,12.628l-2.481,0l0,-12.628l-2.03,0l0,-2.008Z" style="fill:#fff;"/><path d="M90.899,0.384l5.872,0l0,2.008l-3.411,0l0,4.186l2.44,0l0,1.986l-2.44,0l0,4.448l3.41,0l0,2.007l-5.87,0l-0.001,-14.635Z" style="fill:#fff;"/><path d="M52.902,36.225l-2.525,0l-0.453,-2.676l-2.612,0l-0.432,2.676l-2.332,0l0.001,-0.001l2.763,-14.634l2.807,0l2.783,14.635Zm-4.273,-10.512l-0.02,0l-0.972,5.87l1.964,0l-0.972,-5.87Z" style="fill:#fff;"/><path d="M53.596,32.447l0,-7.08c0,-2.288 1.08,-3.95 3.671,-3.95c2.719,0 3.475,1.51 3.475,3.67l0,1.728l-2.244,0l0,-1.923c0,-0.906 -0.303,-1.425 -1.188,-1.425c-0.886,0 -1.253,0.627 -1.253,1.511l0,7.857c0,0.886 0.367,1.512 1.253,1.512c0.885,0 1.188,-0.56 1.188,-1.425l0,-2.698l2.244,0l0,2.525c0,2.095 -0.863,3.649 -3.475,3.649c-2.592,0 -3.67,-1.684 -3.67,-3.95l-0.001,-0.001Z" style="fill:#fff;"/><path d="M61.629,21.59l6.54,0l0,2.008l-2.03,0l0,12.626l-2.48,0l0,-12.626l-2.03,0l0,-2.008Z" style="fill:#fff;"/><rect x="69.532" y="21.59" width="2.46" height="14.635" style="fill:#fff;"/><path d="M73.634,32.447l0,-7.08c0,-2.288 1.123,-3.95 3.713,-3.95c2.611,0 3.734,1.662 3.734,3.95l0,7.08c0,2.267 -1.123,3.95 -3.734,3.95c-2.59,0 -3.713,-1.683 -3.713,-3.95Zm4.988,0.388l0,-7.857c0,-0.884 -0.39,-1.51 -1.275,-1.51c-0.863,0 -1.251,0.626 -1.251,1.51l0,7.857c0,0.886 0.388,1.512 1.251,1.512c0.886,0 1.274,-0.626 1.274,-1.512l0.001,0Z" style="fill:#fff;"/><path d="M84.754,27.03l0,9.194l-2.074,0l0,-14.634l2.42,0l2.654,8.397l0,-8.397l2.05,0l0,14.635l-2.158,0l-2.892,-9.195Z" style="fill:#fff;"/></svg>