<?xml version="1.0" encoding="UTF-8" standalone="no"?><!DOCTYPE svg PUBLIC "-//W3C//DTD SVG 1.1//EN" "http://www.w3.org/Graphics/SVG/1.1/DTD/svg11.dtd"><svg width="100%" height="100%" viewBox="0 0 88 37" version="1.1" xmlns="http://www.w3.org/2000/svg" xmlns:xlink="http://www.w3.org/1999/xlink" xml:space="preserve" xmlns:serif="http://www.serif.com/" style="fill-rule:evenodd;clip-rule:evenodd;stroke-linejoin:round;stroke-miterlimit:2;"><path d="M4.315,8.9l0.052,0l0,27.646l6.073,0l0,-36.114l-4.848,0l-5.592,6.551l0,6.337l0.054,0l4.261,-4.42Z" style="fill:#fff;"/><path d="M32.892,5.612l0,9.195l-2.074,0l0,-14.633l2.42,0l2.654,8.395l0,-8.395l2.05,0l0,14.633l-2.158,0l-2.892,-9.195Z" style="fill:#fff;"/><path d="M43.291,0c2.601,0.006 3.72,1.665 3.72,3.95l0,7.08c0,2.268 -1.123,3.952 -3.735,3.952c-2.59,0 -3.713,-1.684 -3.713,-3.953l0,-7.079c0,-2.289 1.123,-3.95 3.713,-3.95l0.015,0Zm1.259,11.42l0,-7.86c0,-0.883 -0.388,-1.509 -1.274,-1.509c-0.863,0 -1.251,0.626 -1.251,1.51l0,7.859c0,0.885 0.388,1.51 1.251,1.51c0.886,0 1.274,-0.625 1.274,-1.51Z" style="fill:#fff;"/><path d="M33.28,36.467l-2.46,0l0,-14.635l3.648,0c2.483,0 3.39,1.23 3.39,3.28l0,3.088c0,2.05 -0.907,3.303 -3.39,3.303l-1.188,0l0,4.964Zm0.908,-12.628l-0.908,0l0,5.764l0.908,0c0.84,0 1.208,-0.41 1.208,-1.21l0,-3.366c0,-0.8 -0.368,-1.188 -1.208,-1.188Z" style="fill:#fff;"/><path d="M39.348,32.688l0,-7.08c0,-2.288 1.123,-3.949 3.713,-3.949c2.612,0 3.734,1.66 3.734,3.949l0,7.08c0,2.267 -1.122,3.952 -3.734,3.952c-2.59,0 -3.713,-1.685 -3.713,-3.952Zm4.987,0.39l0,-7.859c0,-0.884 -0.388,-1.51 -1.274,-1.51c-0.863,0 -1.251,0.626 -1.251,1.51l0,7.86c0,0.885 0.388,1.509 1.251,1.509c0.886,0 1.274,-0.624 1.274,-1.51Z" style="fill:#fff;"/><path d="M55.865,21.832l-2.786,14.633l-2.674,0l-2.786,-14.633l2.504,0l1.684,10.21l0.021,0l1.727,-10.21l2.31,0Z" style="fill:#fff;"/><path d="M57.097,21.832l5.871,0l0,2.007l-3.41,0l0,4.188l2.44,0l0,1.985l-2.44,0l0,4.448l3.41,0l0,2.005l-5.871,0l0,-14.633Z" style="fill:#fff;"/><path d="M66.964,36.467l-2.46,0l0,-14.635l3.583,0c2.483,0 3.389,1.23 3.389,3.28l0,1.878c0,1.576 -0.561,2.504 -1.963,2.827l2.353,6.65l-2.592,0l-2.31,-6.713l0,6.713Zm0.821,-12.628l-0.821,0l0,4.555l0.821,0c0.842,0 1.21,-0.433 1.21,-1.21l0,-2.157c0,-0.8 -0.368,-1.188 -1.21,-1.188Z" style="fill:#fff;"/><path d="M72.536,21.832l6.541,0l0,2.007l-2.03,0l0,12.626l-2.481,0l0,-12.626l-2.03,0l0,-2.007Z" style="fill:#fff;"/><path d="M85.23,30.898l0,5.569l-2.46,0l0,-5.57l-2.741,-9.065l2.567,0l1.49,5.546l0.023,0l1.489,-5.546l2.353,0l-2.721,9.066Z" style="fill:#fff;"/></svg>