<?xml version="1.0" encoding="UTF-8" standalone="no"?><!DOCTYPE svg PUBLIC "-//W3C//DTD SVG 1.1//EN" "http://www.w3.org/Graphics/SVG/1.1/DTD/svg11.dtd"><svg width="100%" height="100%" viewBox="0 0 114 37" version="1.1" xmlns="http://www.w3.org/2000/svg" xmlns:xlink="http://www.w3.org/1999/xlink" xml:space="preserve" xmlns:serif="http://www.serif.com/" style="fill-rule:evenodd;clip-rule:evenodd;stroke-linejoin:round;stroke-miterlimit:2;"><path d="M10.437,0.244l0,36.099l-6.07,0l0,-27.633l-0.054,0l-4.257,4.418l-0.056,0l0,-6.334l5.59,-6.55l4.847,0Z" style="fill:#fff;"/><path d="M28.921,0.236l0,25.515l2.452,0l0,4.741l-2.452,0l0,5.86l-5.751,0l0,-5.858l-10.708,0l0,-3.73l10.493,-26.528l5.966,0Zm-5.646,25.515l0,-14.862l-0.054,0l-5.432,14.862l5.486,0Z" style="fill:#fff;"/><path d="M44.259,0.174l2.46,0l0,12.627l2.937,0l0,2.007l-5.397,0l0,-14.634Z" style="fill:#fff;"/><rect x="50.8" y="0.174" width="2.46" height="14.635" style="fill:#fff;"/><path d="M54.902,0.174l5.765,0l0,2.006l-3.305,0l0,4.188l2.462,0l0,1.986l-2.462,0l0,6.454l-2.46,0l0,-14.634Z" style="fill:#fff;"/><path d="M61.769,0.174l5.873,0l0,2.006l-3.412,0l0,4.188l2.44,0l0,1.986l-2.44,0l0,4.447l3.412,0l0,2.007l-5.873,0l0,-14.634Z" style="fill:#fff;"/><path d="M76.065,14.808l-3.823,0l0,-14.635l3.563,0c2.46,0 3.28,1.144 3.28,3.216l0,1.488c0,1.232 -0.453,2.009 -1.469,2.332c1.232,0.281 1.837,1.102 1.837,2.44l0,1.943c0,2.072 -0.928,3.216 -3.388,3.216Zm-0.304,-6.583l-1.059,0l0,4.576l1.08,0c0.82,0 1.21,-0.41 1.21,-1.186l0,-2.204c0,-0.777 -0.367,-1.186 -1.231,-1.186Zm-0.217,-6.045l-0.841,0l0,4.166l0.864,0c0.798,0 1.165,-0.409 1.165,-1.186l0,-1.792c0,-0.8 -0.367,-1.188 -1.188,-1.188Z" style="fill:#fff;"/><path d="M80.512,0.174l5.87,0l0,2.006l-3.41,0l0,4.188l2.44,0l0,1.986l-2.44,0l0,4.447l3.41,0l0,2.007l-5.87,0l0,-14.634Z" style="fill:#fff;"/><path d="M87.874,0.174l2.46,0l0,12.627l2.937,0l0,2.007l-5.397,0l0,-14.634Z" style="fill:#fff;"/><path d="M94.223,11.031l0,-7.082c0,-2.286 1.123,-3.949 3.714,-3.949c2.611,0 3.734,1.663 3.734,3.95l0,7.081c0,2.265 -1.123,3.95 -3.734,3.95c-2.59,0 -3.714,-1.685 -3.714,-3.95Zm4.988,0.389l0,-7.858c0,-0.885 -0.389,-1.51 -1.274,-1.51c-0.863,0 -1.253,0.625 -1.253,1.51l0,7.858c0,0.885 0.39,1.51 1.253,1.51c0.885,0 1.274,-0.625 1.274,-1.51Z" style="fill:#fff;"/><path d="M108.192,5.764l-1.382,9.045l-2.308,0l-1.964,-14.635l2.374,0l1.144,9.28l0.023,0l1.228,-9.28l2.009,0l1.36,9.28l0.02,0l1.122,-9.28l2.074,0l-1.9,14.635l-2.332,0l-1.444,-9.045l-0.024,0Z" style="fill:#fff;"/><path d="M49.574,27.248l-1.382,9.045l-2.309,0l-1.964,-14.635l2.374,0l1.144,9.28l0.023,0l1.228,-9.28l2.009,0l1.36,9.28l0.02,0l1.124,-9.28l2.072,0l-1.9,14.635l-2.331,0l-1.444,-9.045l-0.024,0Z" style="fill:#fff;"/><path d="M63.392,36.292l-2.525,0l-0.454,-2.676l-2.611,0l-0.433,2.676l-2.332,0l2.765,-14.635l2.804,0l2.786,14.635Zm-4.276,-10.512l-0.02,0l-0.97,5.871l1.962,0l-0.972,-5.871Z" style="fill:#fff;"/><path d="M62.919,21.657l6.54,0l0,2.009l-2.027,0l0,12.626l-2.483,0l0,-12.626l-2.03,0l0,-2.009Z" style="fill:#fff;"/><path d="M70.606,21.657l5.87,0l0,2.009l-3.41,0l0,4.186l2.44,0l0,1.986l-2.44,0l0,4.447l3.41,0l0,2.007l-5.87,0l0,-14.635Z" style="fill:#fff;"/><path d="M80.257,36.293l-2.46,0l0,-14.636l3.581,0c2.483,0 3.39,1.23 3.39,3.282l0,1.877c0,1.576 -0.56,2.504 -1.963,2.828l2.353,6.65l-2.592,0l-2.309,-6.712l0,-0.003l-0.001,0l0.001,0.003l0,6.711Zm0.82,-12.628l-0.82,0l0,4.555l0.82,0c0.842,0 1.21,-0.432 1.21,-1.209l0,-2.16c0,-0.8 -0.368,-1.186 -1.21,-1.186Z" style="fill:#fff;"/></svg>