<?xml version="1.0" encoding="UTF-8" standalone="no"?><!DOCTYPE svg PUBLIC "-//W3C//DTD SVG 1.1//EN" "http://www.w3.org/Graphics/SVG/1.1/DTD/svg11.dtd"><svg width="100%" height="100%" viewBox="0 0 84 37" version="1.1" xmlns="http://www.w3.org/2000/svg" xmlns:xlink="http://www.w3.org/1999/xlink" xml:space="preserve" xmlns:serif="http://www.serif.com/" style="fill-rule:evenodd;clip-rule:evenodd;stroke-linejoin:round;stroke-miterlimit:2;"><path d="M15.814,31.683l-9.99,0l0,-1.71c0,-2.83 1.015,-3.9 2.562,-5.556l3.901,-4.114c3.152,-3.365 3.846,-5.501 3.846,-9.136l0,-3.527c0,-5.18 -2.511,-7.64 -7.96,-7.64c-5.34,0 -8.068,2.833 -8.068,7.908l0,4.38l5.558,0l0,-4.542c0,-2.188 1.068,-2.831 2.351,-2.831c1.173,0 2.19,0.481 2.19,2.725l0,2.991c0,2.995 -0.268,4.17 -2.244,6.253l-3.422,3.632c-3.31,3.53 -4.538,5.879 -4.538,9.457l0,6.68l15.814,0l0,-4.97Z" style="fill:#fff;"/><path d="M35.941,13.099l3.748,0l0,2.013l-6.325,0l0,-2.013l3.876,-10.654l-3.486,0l0,-2.013l6.085,0l0,2.013l-3.898,10.654Z" style="fill:#fff;"/><path d="M41.356,0.433l5.89,0l0,2.013l-3.422,0l0,4.2l2.448,0l0,1.992l-2.448,0l0,4.462l3.421,0l0,2.013l-5.888,0l-0.001,-14.68Z" style="fill:#fff;"/><path d="M51.253,15.113l-2.468,0l0,-14.68l3.594,0c2.49,0 3.4,1.234 3.4,3.291l0,1.883c0,1.58 -0.563,2.511 -1.97,2.836l2.36,6.67l-2.6,0l-2.316,-6.734l0,6.734Zm0.823,-12.666l-0.823,0l0,4.569l0.823,0c0.845,0 1.213,-0.435 1.213,-1.214l0,-2.163c0,-0.802 -0.368,-1.192 -1.213,-1.192Z" style="fill:#fff;"/><path d="M57.34,11.322l0,-7.102c0,-2.295 1.126,-3.96 3.724,-3.96c2.62,0 3.746,1.665 3.746,3.96l0,7.102c0,2.274 -1.126,3.965 -3.746,3.965c-2.598,0 -3.724,-1.69 -3.724,-3.965Zm5.002,0.392l0,-7.883c0,-0.887 -0.39,-1.514 -1.278,-1.514c-0.865,0 -1.256,0.627 -1.256,1.514l0,7.883c0,0.888 0.391,1.514 1.256,1.514c0.889,0 1.278,-0.626 1.278,-1.514Z" style="fill:#fff;"/><path d="M38.353,30.154l-2.383,0l0,6.472l-2.466,0l0,-14.677l2.466,0l0,6.212l2.383,0l0,-6.212l2.49,0l0,14.678l-2.49,0l0,-6.473Z" style="fill:#fff;"/><path d="M49.637,21.948l0,11.107c0,2.273 -0.975,3.745 -3.485,3.745c-2.6,0 -3.683,-1.472 -3.683,-3.745l0,-11.107l2.468,0l0,11.345c0,0.867 0.347,1.45 1.215,1.45c0.863,0 1.21,-0.583 1.21,-1.45l0,-11.345l2.275,0Z" style="fill:#fff;"/><path d="M53.342,27.404l0,9.222l-2.078,0l0,-14.677l2.425,0l2.662,8.42l0,-8.42l2.056,0l0,14.678l-2.165,0l-2.9,-9.223Z" style="fill:#fff;"/><path d="M63.758,28.789l3.51,0l0,7.837l-1.777,0l0,-1.602c-0.325,1.105 -1.017,1.777 -2.36,1.777c-2.123,0 -3.097,-1.689 -3.097,-3.963l0,-7.102c0,-2.295 1.105,-3.962 3.703,-3.962c2.729,0 3.53,1.516 3.53,3.68l0,1.3l-2.252,0l0,-1.493c0,-0.91 -0.347,-1.43 -1.234,-1.43c-0.888,0 -1.28,0.628 -1.28,1.516l0,7.88c0,0.89 0.369,1.517 1.215,1.517c0.8,0 1.212,-0.455 1.212,-1.407l0,-2.598l-1.17,0l0,-1.95Z" style="fill:#fff;"/><path d="M68.893,21.948l5.889,0l0,2.013l-3.422,0l0,4.2l2.449,0l0,1.992l-2.449,0l0,4.462l3.422,0l0,2.013l-5.89,0l0.001,-14.68Z" style="fill:#fff;"/><path d="M78.788,36.627l-2.467,0l0,-14.68l3.594,0c2.489,0 3.4,1.235 3.4,3.292l0,1.882c0,1.581 -0.564,2.512 -1.97,2.836l2.36,6.67l-2.6,0l-2.317,-6.733l0,6.733Zm0.824,-12.666l-0.824,0l0,4.569l0.824,0c0.844,0 1.212,-0.434 1.212,-1.213l0,-2.165c0,-0.802 -0.368,-1.191 -1.212,-1.191Z" style="fill:#fff;"/></svg>