<?xml version="1.0" encoding="UTF-8" standalone="no"?><!DOCTYPE svg PUBLIC "-//W3C//DTD SVG 1.1//EN" "http://www.w3.org/Graphics/SVG/1.1/DTD/svg11.dtd"><svg width="100%" height="100%" viewBox="0 0 137 37" version="1.1" xmlns="http://www.w3.org/2000/svg" xmlns:xlink="http://www.w3.org/1999/xlink" xml:space="preserve" xmlns:serif="http://www.serif.com/" style="fill-rule:evenodd;clip-rule:evenodd;stroke-linejoin:round;stroke-miterlimit:2;"><path d="M8.36,36.963c6.128,0 8.79,-3.25 8.79,-8.255l0,-5.325c0,-3.304 -1.44,-5.436 -4.474,-6.126c2.502,-0.8 4.154,-2.824 4.154,-5.86l0,-3.141c0,-5.114 -2.45,-8.256 -8.043,-8.256c-6.286,0 -8.47,3.725 -8.47,9.054l0,3.194l5.538,0l0,-3.674c0,-2.237 0.695,-3.515 2.612,-3.515c1.919,0 2.608,1.278 2.608,3.248l0,3.889c0,1.919 -1.278,2.93 -3.246,2.93l-2.293,0l0,4.635l2.558,0c2.13,0 2.98,1.01 2.98,2.928l0,5.966c0,1.915 -0.85,3.25 -2.714,3.25c-2.077,0 -2.824,-1.387 -2.824,-3.515l0,-5.169l-5.536,0l0,4.74c0,5.488 2.183,9.003 8.36,9.003l0,-0.001Z" style="fill:#fff;"/><path d="M37.663,7.173l3.497,0l0,7.815l-1.772,0l0,-1.597c-0.323,1.1 -1.014,1.77 -2.353,1.77c-2.114,0 -3.086,-1.684 -3.086,-3.951l0,-7.08c0,-2.289 1.1,-3.951 3.69,-3.951c2.721,0 3.52,1.511 3.52,3.67l0,1.294l-2.243,0l0,-1.488c0,-0.907 -0.347,-1.425 -1.232,-1.425c-0.886,0 -1.274,0.625 -1.274,1.511l0,7.857c0,0.886 0.367,1.511 1.209,1.511c0.797,0 1.209,-0.453 1.209,-1.402l0,-2.592l-1.165,0l0,-1.942Z" style="fill:#fff;"/><path d="M42.781,11.21l0,-7.082c0,-2.286 1.123,-3.948 3.713,-3.948c2.611,0 3.734,1.662 3.734,3.948l0,7.082c0,2.266 -1.123,3.95 -3.734,3.95c-2.554,0 -3.681,-1.637 -3.713,-3.95Zm4.987,0.389l0,-7.857c0,-0.886 -0.388,-1.512 -1.274,-1.512c-0.863,0 -1.253,0.626 -1.253,1.512l0,7.857c0,0.885 0.39,1.51 1.253,1.51c0.886,0 1.274,-0.625 1.274,-1.51Z" style="fill:#fff;"/><path d="M51.85,11.21l0,-7.082c0,-2.286 1.121,-3.948 3.712,-3.948c2.611,0 3.734,1.662 3.734,3.948l0,7.082c0,2.266 -1.123,3.95 -3.734,3.95c-2.59,0 -3.712,-1.684 -3.712,-3.95Zm4.986,0.389l0,-7.857c0,-0.886 -0.389,-1.512 -1.274,-1.512c-0.863,0 -1.252,0.626 -1.252,1.512l0,7.857c0,0.885 0.389,1.51 1.252,1.51c0.885,0 1.274,-0.625 1.274,-1.51Z" style="fill:#fff;"/><path d="M64.718,14.989l-3.802,0l0,-14.637l3.8,0c2.633,0 3.561,1.662 3.561,3.93l0.001,-0.001l0,6.778c0,2.244 -0.928,3.93 -3.56,3.93Zm-0.302,-12.631l-1.037,0l0,10.622l1.037,0c1.014,0 1.402,-0.605 1.402,-1.489l0,-7.663c0,-0.865 -0.388,-1.47 -1.402,-1.47Z" style="fill:#fff;"/><path d="M78.082,8.533l-2.375,0l0,6.455l-2.46,0l0,-14.635l2.46,0l0,6.195l2.375,0l0,-6.195l2.482,0l0,14.635l-2.482,0l0,-6.455Z" style="fill:#fff;"/><path d="M82.294,0.353l5.873,0l0,2.006l-3.411,0l0,4.188l2.44,0l0,1.986l-2.44,0l0,4.448l3.412,0l0,2.007l-5.873,0l-0.001,-14.635Z" style="fill:#fff;"/><path d="M97.668,14.988l-2.527,0l-0.453,-2.677l-2.612,0l-0.43,2.677l-2.332,0l2.762,-14.636l2.807,0l2.785,14.636Zm-4.276,-10.512l-0.02,0l-0.972,5.87l1.964,0l-0.972,-5.87Z" style="fill:#fff;"/><path d="M98.898,0.353l2.46,0l0,12.628l2.937,0l0,2.007l-5.397,0l0,-14.635Z" style="fill:#fff;"/><path d="M103.952,0.353l6.54,0l0,2.006l-2.027,0l0,12.629l-2.483,0l0,-12.629l-2.03,0l0,-2.006Z" style="fill:#fff;"/><path d="M116.69,8.533l-2.375,0l0,6.455l-2.46,0l0,-14.635l2.46,0l0,6.195l2.375,0l0,-6.195l2.482,0l0,14.635l-2.482,0l0,-6.455Z" style="fill:#fff;"/><path d="M41.932,36.454l-2.525,0l-0.454,-2.677l-2.611,0l-0.432,2.677l-2.33,0l-0.001,-0.001l2.763,-14.634l2.806,0l2.784,14.635Zm-4.274,-10.513l-0.02,0l-0.973,5.872l1.965,0l-0.972,-5.872Z" style="fill:#fff;"/><path d="M45.022,27.259l0,9.195l-2.072,0l0,-14.636l2.416,0l2.656,8.397l0,-8.397l2.05,0l0,14.636l-2.158,0l-2.892,-9.195Z" style="fill:#fff;"/><path d="M55.601,36.454l-3.8,0l0,-14.635l3.8,0c2.634,0 3.562,1.66 3.562,3.93l0,6.776c0,2.245 -0.928,3.929 -3.562,3.929Zm-0.302,-12.628l-1.037,0l0,10.621l1.037,0c1.014,0 1.404,-0.604 1.404,-1.488l0,-7.666c0,-0.863 -0.39,-1.467 -1.404,-1.467Z" style="fill:#fff;"/><path d="M68.578,27.409l-1.381,9.045l-2.31,0l-1.964,-14.635l2.374,0l1.144,9.282l0.023,0l1.229,-9.282l2.008,0l1.359,9.282l0.023,0l1.122,-9.282l2.072,0l-1.9,14.635l-2.331,0l-1.447,-9.045l-0.021,0Z" style="fill:#fff;"/><path d="M75.554,21.818l5.87,0l0,2.01l-3.41,0l0,4.185l2.44,0l0,1.986l-2.44,0l0,4.448l3.41,0l0,2.007l-5.87,0l0,-14.636Z" style="fill:#fff;"/><path d="M82.96,21.818l2.46,0l0,12.629l2.937,0l0,2.007l-5.397,0l0,-14.636Z" style="fill:#fff;"/><path d="M89.697,21.818l2.46,0l0,12.629l2.937,0l0,2.007l-5.397,0l0,-14.636Z" style="fill:#fff;"/><rect x="94.771" y="27.797" width="3.454" height="1.988" style="fill:#fff;"/><path d="M103.516,36.453l-3.822,0l0,-14.635l3.56,0c2.462,0 3.283,1.144 3.283,3.218l0,1.488c0,1.23 -0.453,2.009 -1.469,2.332c1.232,0.281 1.836,1.1 1.836,2.44l0,1.943c0,2.07 -0.927,3.214 -3.388,3.214Zm-0.304,-6.583l-1.058,0l0,4.576l1.08,0c0.82,0 1.21,-0.41 1.21,-1.186l0,-2.202c0,-0.778 -0.367,-1.188 -1.232,-1.188Zm-0.216,-6.043l-0.842,0l0,4.166l0.863,0c0.8,0 1.167,-0.41 1.167,-1.188l0,-1.792c0,-0.798 -0.367,-1.186 -1.188,-1.186Z" style="fill:#fff;"/><path d="M108.352,21.818l5.873,0l0,2.01l-3.413,0l0,4.185l2.44,0l0,1.986l-2.44,0l0,4.448l3.413,0l0,2.007l-5.873,0l0,-14.636Z" style="fill:#fff;"/><rect x="115.758" y="21.82" width="2.46" height="14.633" style="fill:#fff;"/><path d="M122.042,27.259l0,9.195l-2.072,0l0,-14.636l2.418,0l2.654,8.397l0,-8.397l2.05,0l0,14.636l-2.157,0l-2.893,-9.195Z" style="fill:#fff;"/><path d="M132.536,28.64l3.497,0l0,7.813l-1.77,0l0,-1.597c-0.323,1.102 -1.016,1.771 -2.355,1.771c-2.114,0 -3.086,-1.683 -3.086,-3.95l0,-7.08c0,-2.288 1.102,-3.95 3.69,-3.95c2.723,0 3.52,1.509 3.52,3.668l0,1.296l-2.243,0l0,-1.489c0,-0.907 -0.347,-1.425 -1.232,-1.425c-0.884,0 -1.274,0.626 -1.274,1.511l0,7.857c0,0.886 0.367,1.512 1.21,1.512c0.798,0 1.21,-0.454 1.21,-1.405l0,-2.59l-1.167,0l0,-1.942Z" style="fill:#fff;"/></svg>