<?xml version="1.0" encoding="UTF-8" standalone="no"?><!DOCTYPE svg PUBLIC "-//W3C//DTD SVG 1.1//EN" "http://www.w3.org/Graphics/SVG/1.1/DTD/svg11.dtd"><svg width="100%" height="100%" viewBox="0 0 104 37" version="1.1" xmlns="http://www.w3.org/2000/svg" xmlns:xlink="http://www.w3.org/1999/xlink" xml:space="preserve" xmlns:serif="http://www.serif.com/" style="fill-rule:evenodd;clip-rule:evenodd;stroke-linejoin:round;stroke-miterlimit:2;"><path d="M16.528,0.19l0,25.516l2.462,0l0,4.739l-2.462,0l0,5.86l-5.776,0l0,-5.859l-10.752,0l0,-3.728l10.535,-26.528l5.993,0Zm-5.67,25.516l0,-14.862l-0.054,0l-5.455,14.862l5.509,0Z" style="fill:#fff;"/><path d="M33.937,21.645l5.898,0l0,2.008l-3.427,0l0,4.186l2.451,0l0,1.986l-2.45,0l0,4.448l3.426,0l0,2.007l-5.898,0l0,-14.635Z" style="fill:#fff;"/><path d="M45.148,36.281l-3.818,0l0,-14.637l3.817,0c2.645,0 3.577,1.662 3.577,3.93l0,6.777c0,2.244 -0.931,3.93 -3.576,3.93Zm-0.304,-12.629l-1.041,0l0,10.62l1.041,0c1.018,0 1.41,-0.604 1.41,-1.488l0,-7.664c0,-0.863 -0.392,-1.468 -1.41,-1.468Z" style="fill:#fff;"/><path d="M57.528,21.645l0,11.073c0,2.267 -0.976,3.734 -3.49,3.734c-2.602,0 -3.686,-1.467 -3.686,-3.734l0,-11.073l2.471,0l0,11.31c0,0.865 0.348,1.446 1.216,1.446c0.865,0 1.214,-0.581 1.214,-1.446l0,-11.31l2.275,0Z" style="fill:#fff;"/><path d="M59.155,32.502l0,-7.08c0,-2.288 1.084,-3.95 3.687,-3.95c2.73,0 3.488,1.51 3.488,3.67l0,1.726l-2.253,0l0,-1.92c0,-0.907 -0.304,-1.426 -1.193,-1.426c-0.89,0 -1.258,0.628 -1.258,1.512l0,7.857c0,0.885 0.369,1.511 1.258,1.511c0.89,0 1.193,-0.56 1.193,-1.425l0,-2.7l2.253,0l0,2.528c0,2.094 -0.866,3.648 -3.488,3.648c-2.603,0 -3.687,-1.684 -3.687,-3.95l0,-0.001Z" style="fill:#fff;"/><path d="M75.503,36.28l-2.537,0l-0.456,-2.677l-2.622,0l-0.432,2.677l-2.343,0l2.775,-14.635l2.818,0l2.797,14.635Zm-4.293,-10.512l-0.022,0l-0.975,5.87l1.973,0l-0.976,-5.87Z" style="fill:#fff;"/><path d="M75.18,21.645l6.568,0l0,2.008l-2.038,0l0,12.627l-2.492,0l0,-12.627l-2.038,0l0,-2.008Z" style="fill:#fff;"/><rect x="83.115" y="21.645" width="2.47" height="14.635" style="fill:#fff;"/><path d="M87.233,32.502l0,-7.08c0,-2.288 1.13,-3.95 3.73,-3.95c2.622,0 3.75,1.662 3.75,3.95l0,7.08c0,2.267 -1.128,3.95 -3.75,3.95c-2.6,0 -3.73,-1.683 -3.73,-3.95Zm5.009,0.389l0,-7.857c0,-0.884 -0.389,-1.512 -1.28,-1.512c-0.866,0 -1.256,0.628 -1.256,1.512l0,7.857c0,0.885 0.39,1.51 1.256,1.51c0.891,0 1.28,-0.625 1.28,-1.51Z" style="fill:#fff;"/><path d="M98.424,27.084l0,9.196l-2.083,0l0,-14.635l2.428,0l2.667,8.397l0,-8.397l2.06,0l0,14.635l-2.17,0l-2.902,-9.196Z" style="fill:#fff;"/><path d="M36.757,15.8l0,-0.993c-1.973,-0.346 -2.818,-1.792 -2.818,-3.778l0,-7.079c0,-2.29 1.128,-3.95 3.729,-3.95c2.622,0 3.75,1.66 3.75,3.95l0,7.079c0,1.597 -0.563,2.85 -1.82,3.455l1.82,0.344l0,1.837l-4.66,-0.865l-0.001,0Zm2.19,-4.252l0,-7.986c0,-0.886 -0.39,-1.513 -1.28,-1.513c-0.866,0 -1.258,0.627 -1.258,1.513l0,7.985c0,0.863 0.392,1.512 1.259,1.512c0.89,0 1.28,-0.649 1.28,-1.512l-0.001,0.001Z" style="fill:#fff;"/><path d="M50.199,0.172l0,11.073c0,2.267 -0.976,3.734 -3.489,3.734c-2.603,0 -3.686,-1.467 -3.686,-3.734l0,-11.073l2.47,0l0,11.31c0,0.865 0.348,1.446 1.216,1.446c0.865,0 1.212,-0.581 1.212,-1.446l0,-11.31l2.278,0l-0.001,0Z" style="fill:#fff;"/><path d="M59.524,14.807l-2.537,0l-0.455,-2.676l-2.623,0l-0.432,2.676l-2.342,0l2.774,-14.635l2.818,0l2.797,14.635Zm-4.293,-10.512l-0.021,0l-0.976,5.871l1.973,0l-0.976,-5.871Z" style="fill:#fff;"/><path d="M60.717,0.172l2.47,0l0,12.628l2.949,0l0,2.007l-5.42,0l0.001,-14.635Z" style="fill:#fff;"/><rect x="67.287" y="0.171" width="2.47" height="14.637" style="fill:#fff;"/><path d="M70.908,0.172l6.568,0l0,2.009l-2.036,0l0,12.626l-2.494,0l0,-12.626l-2.038,0l0,-2.009Z" style="fill:#fff;"/><path d="M83.483,9.238l0,5.57l-2.47,0l0,-5.57l-2.753,-9.065l2.578,0l1.498,5.546l0.021,0l1.495,-5.546l2.365,0l-2.734,9.065Z" style="fill:#fff;"/></svg>