<?xml version="1.0" encoding="UTF-8" standalone="no"?><!DOCTYPE svg PUBLIC "-//W3C//DTD SVG 1.1//EN" "http://www.w3.org/Graphics/SVG/1.1/DTD/svg11.dtd"><svg width="100%" height="100%" viewBox="0 0 94 39" version="1.1" xmlns="http://www.w3.org/2000/svg" xmlns:xlink="http://www.w3.org/1999/xlink" xml:space="preserve" xmlns:serif="http://www.serif.com/" style="fill-rule:evenodd;clip-rule:evenodd;stroke-linejoin:round;stroke-miterlimit:2;"><path d="M16.156,0.172l0,4.955l-10.486,0l0,9l0.054,0c1.014,-1.674 2.763,-2.502 5.136,-2.502c3.309,0.036 6.204,2.335 6.204,7.991l0,8.841c0,5.008 -2.513,8.257 -8.664,8.257c-6.207,0 -8.4,-3.516 -8.4,-9.002l0,-4.1l5.566,0l0,4.527c0,2.13 0.746,3.515 2.834,3.515c1.872,0 2.567,-1.33 2.567,-3.25l0,-8.734c0,-1.972 -0.75,-3.253 -2.622,-3.253c-1.71,0 -2.675,1.172 -2.675,3.302l0,0.802l-5.559,0l0,-20.349l16.045,0Z" style="fill:#fff;"/><path d="M56.829,21.646l0,11.073c0,2.267 -0.976,3.734 -3.49,3.734c-2.602,0 -3.686,-1.467 -3.686,-3.734l0,-11.073l2.47,0l0,11.31c0,0.865 0.348,1.446 1.217,1.446c0.864,0 1.212,-0.581 1.212,-1.446l0,-11.31l2.277,0Z" style="fill:#fff;"/><path d="M90.914,36.282l-2.47,0l0,-5.57l-2.753,-9.066l2.578,0l1.496,5.547l0.023,0l1.495,-5.547l2.363,0l-2.732,9.066l0,5.57Z" style="fill:#fff;"/><path d="M84.777,23.654l-2.038,0l0,12.627l-2.492,0l0,-12.627l-2.038,0l0,-2.008l6.568,0l0,2.008Z" style="fill:#fff;"/><path d="M39.438,23.654l-3.425,0l0,4.186l2.451,0l0,1.986l-2.451,0l0,4.448l3.425,0l0,2.007l-5.896,0l0,-14.635l5.896,0l0,2.008Z" style="fill:#fff;"/><path d="M70.142,34.274l2.949,0l0,2.007l-5.42,0l0,-14.635l2.471,0l0,12.628Z" style="fill:#fff;"/><rect x="74.415" y="21.646" width="2.47" height="14.635" style="fill:#fff;"/><path d="M43.384,37.274l0,-0.993c-1.97,-0.346 -2.816,-1.793 -2.816,-3.777l0,-7.08c0,-2.29 1.127,-3.95 3.727,-3.95c2.624,0 3.75,1.66 3.75,3.95l0,7.08c0,1.596 -0.563,2.849 -1.82,3.453l1.82,0.345l0,1.836l-4.66,-0.864l-0.001,0Zm2.19,-4.253l0,-7.985c0,-0.886 -0.388,-1.513 -1.28,-1.513c-0.866,0 -1.256,0.627 -1.256,1.513l0,7.985c0,0.863 0.39,1.511 1.257,1.511c0.891,0 1.28,-0.648 1.28,-1.511l-0.001,0Z" style="fill:#fff;"/><path d="M66.455,36.281l-2.537,0l-0.454,-2.677l-2.622,0l-0.434,2.677l-2.342,0l2.776,-14.635l2.816,0l2.797,14.635Zm-4.293,-10.512l-0.02,0l-0.975,5.87l1.97,0l-0.975,-5.87Z" style="fill:#fff;"/><path d="M40.784,14.808l-1.779,0l0,-1.597c-0.325,1.1 -1.018,1.77 -2.363,1.77c-2.123,0 -3.099,-1.684 -3.099,-3.95l0,-7.082c0,-2.288 1.107,-3.949 3.706,-3.949c2.732,0 3.535,1.51 3.535,3.67l0,1.293l-2.254,0l0,-1.489c0,-0.906 -0.347,-1.425 -1.237,-1.425c-0.887,0 -1.28,0.628 -1.28,1.511l0,7.858c0,0.885 0.37,1.51 1.217,1.51c0.8,0 1.212,-0.453 1.212,-1.402l0,-2.59l-1.17,0l0,-1.943l0,0.001l3.512,0l0,7.814Z" style="fill:#fff;"/><path d="M51.935,14.808l-2.082,0l0,-14.635l2.428,0l2.667,8.397l0,-8.397l2.06,0l0,14.636l-2.17,0l-2.903,-9.197l0,9.196Z" style="fill:#fff;"/><path d="M73.573,2.182l-3.426,0l0,4.186l2.45,0l0,1.985l-2.45,0l0,4.448l3.425,0l0,2.007l-5.895,0l0,-14.635l5.896,0l0,2.009Z" style="fill:#fff;"/><path d="M48.309,2.182l-3.427,0l0,4.186l2.451,0l0,1.985l-2.451,0l0,4.448l3.427,0l0,2.007l-5.898,0l0,-14.635l5.898,0l0,2.009Z" style="fill:#fff;"/><path d="M62.451,14.809l-3.817,0l0,-14.637l3.817,0c2.607,0 3.549,1.617 3.576,3.93l0,6.778c0,2.22 -0.912,3.893 -3.576,3.929Zm-0.303,-12.628l-1.041,0l0,10.62l1.04,0l0,-0.001c1.019,0 1.409,-0.604 1.409,-1.488l0,-7.664c0,-0.834 -0.364,-1.426 -1.408,-1.467Z" style="fill:#fff;"/><path d="M77.563,14.809l-2.47,0l0,-14.637l3.598,0c2.493,0 3.404,1.23 3.404,3.283l0,1.877c0,1.576 -0.565,2.504 -1.973,2.827l2.363,6.65l-2.601,0l-2.32,-6.715l-0.001,0l0,6.715Zm0.824,-12.628l-0.824,0l0,4.555l0.824,0c0.847,0 1.214,-0.432 1.214,-1.21l0,-2.159c0,-0.773 -0.343,-1.16 -1.214,-1.186Z" style="fill:#fff;"/></svg>