<?xml version="1.0" encoding="UTF-8" standalone="no"?><!DOCTYPE svg PUBLIC "-//W3C//DTD SVG 1.1//EN" "http://www.w3.org/Graphics/SVG/1.1/DTD/svg11.dtd"><svg width="100%" height="100%" viewBox="0 0 136 37" version="1.1" xmlns="http://www.w3.org/2000/svg" xmlns:xlink="http://www.w3.org/1999/xlink" xml:space="preserve" xmlns:serif="http://www.serif.com/" style="fill-rule:evenodd;clip-rule:evenodd;stroke-linejoin:round;stroke-miterlimit:2;"><path d="M6.072,16.565c0.907,-1.756 2.452,-2.932 5.009,-2.932c4.368,0 6.711,2.984 6.711,8.896l0,5.328c0,5.592 -2.504,9.11 -8.947,9.11l0,0.001c-6.393,0 -8.845,-4.049 -8.845,-9.644l0,-17.578c0,-5.646 2.4,-9.746 8.79,-9.746c6.71,0 8.47,3.726 8.47,9.054l0,1.917l-5.538,0l0,-2.397c0,-2.236 -0.641,-3.516 -2.824,-3.516c-2.182,0 -2.876,1.544 -2.876,3.73l0,7.777l0.05,0Zm-0.051,5.219c0.106,-2.023 0.958,-3.302 2.877,-3.302c2.076,0 2.875,1.28 2.875,3.624l0,6.286c0,2.288 -0.85,3.621 -2.928,3.621c-2.026,0 -2.824,-1.384 -2.824,-3.621l0,-6.608Z" style="fill:#fff;"/><path d="M41.043,36.466l-2.525,0l-0.453,-2.677l-2.612,0l-0.432,2.677l-2.329,0l2.762,-14.635l2.805,0l2.784,14.635Zm-4.272,-10.512l-0.02,0l-0.973,5.87l1.965,0l-0.972,-5.87Z" style="fill:#fff;"/><path d="M44.134,27.27l0,9.196l-2.071,0l0,-14.635l2.417,0l2.655,8.397l0,-8.397l2.05,0l0,14.635l-2.157,0l-2.894,-9.196Z" style="fill:#fff;"/><path d="M54.757,36.467l-3.8,0l0,-14.637l3.8,0c2.634,0 3.562,1.662 3.562,3.93l0,6.777c0,2.244 -0.928,3.93 -3.562,3.93Zm-0.303,-12.629l-1.037,0l0,10.62l1.037,0c1.014,0 1.404,-0.604 1.404,-1.488l0,-7.664c0,-0.863 -0.39,-1.468 -1.404,-1.468Z" style="fill:#fff;"/><path d="M63.805,33.314l0,-1.963l2.288,0l0,2.007c0,0.819 0.366,1.295 1.21,1.295c0.776,0 1.12,-0.518 1.12,-1.295l0,-0.563c0,-0.84 -0.344,-1.36 -1.1,-2.071l-1.446,-1.447c-1.402,-1.381 -2.05,-2.223 -2.05,-3.906l0,-0.498c0,-1.813 1.057,-3.216 3.454,-3.216c2.46,0 3.432,1.21 3.432,3.325l0,1.187l-2.246,0l0,-1.273c0,-0.842 -0.388,-1.253 -1.165,-1.253c-0.69,0 -1.167,0.389 -1.167,1.21l0,0.302c0,0.82 0.455,1.295 1.167,1.985l1.575,1.554c1.339,1.36 1.986,2.18 1.986,3.8l0,0.713c0,2.007 -1.08,3.432 -3.582,3.432c-2.469,0 -3.448,-1.365 -3.476,-3.325Z" style="fill:#fff;"/><path d="M79.933,36.466l-2.527,0l-0.453,-2.677l-2.612,0l-0.43,2.677l-2.332,0l2.762,-14.635l2.807,0l2.785,14.635Zm-4.275,-10.512l-0.02,0l-0.973,5.87l1.964,0l-0.971,-5.87Z" style="fill:#fff;"/><path d="M83.195,27.27l0,9.196l-2.074,0l0,-14.635l2.419,0l2.655,8.397l0,-8.397l2.05,0l0,14.635l-2.157,0l-2.893,-9.196Z" style="fill:#fff;"/><rect x="90.212" y="21.831" width="2.46" height="14.635" style="fill:#fff;"/><path d="M93.863,21.831l6.54,0l0,2.008l-2.03,0l0,12.627l-2.48,0l0,-12.627l-2.03,0l0,-2.008Z" style="fill:#fff;"/><path d="M108.172,36.466l-2.527,0l-0.445,-2.677l-2.616,0l-0.43,2.677l-2.333,0l2.763,-14.635l2.804,0l2.784,14.635Zm-4.274,-10.512l-0.023,0l-0.968,5.87l1.97,0l-0.979,-5.87Z" style="fill:#fff;"/><path d="M107.403,21.831l6.534,0l0,2.008l-2.026,0l0,12.627l-2.481,0l0,-12.627l-2.026,0l-0.001,-2.008Z" style="fill:#fff;"/><rect x="115.24" y="21.831" width="2.46" height="14.635" style="fill:#fff;"/><path d="M119.313,32.688l0,-7.08c0,-2.288 1.125,-3.95 3.718,-3.95c2.615,0 3.74,1.662 3.74,3.95l0,7.08c0,2.267 -1.125,3.95 -3.74,3.95c-2.593,0 -3.718,-1.683 -3.718,-3.95Zm4.998,0.389l0,-7.857c0,-0.884 -0.39,-1.512 -1.28,-1.512c-0.857,0 -1.247,0.628 -1.247,1.512l0,7.857c0,0.885 0.39,1.51 1.247,1.51c0.89,0 1.28,-0.625 1.28,-1.51Z" style="fill:#fff;"/><path d="M130.455,27.27l0,9.196l-2.07,0l0,-14.635l2.414,0l2.66,8.397l0,-8.397l2.05,0l0,14.635l-2.16,0l-2.894,-9.196Z" style="fill:#fff;"/><path d="M32.963,11.099l0,-7.08c0,-2.289 1.08,-3.951 3.672,-3.951c2.718,0 3.474,1.511 3.474,3.67l0,1.728l-2.244,0l0,-1.922c0,-0.907 -0.302,-1.424 -1.188,-1.424c-0.886,0 -1.253,0.626 -1.253,1.51l0,7.859c0,0.884 0.367,1.51 1.253,1.51c0.886,0 1.188,-0.561 1.188,-1.426l0,-2.697l2.244,0l0,2.525c0,2.095 -0.863,3.648 -3.474,3.648c-2.592,0 -3.671,-1.683 -3.671,-3.95l-0.001,0Z" style="fill:#fff;"/><path d="M41.659,0.242l2.46,0l0,12.628l2.937,0l0,2.007l-5.397,0l0,-14.635Z" style="fill:#fff;"/><path d="M48.396,0.242l5.871,0l0,2.007l-3.41,0l0,4.188l2.44,0l0,1.986l-2.44,0l0,4.447l3.41,0l0,2.007l-5.871,0l0,-14.635Z" style="fill:#fff;"/><path d="M63.767,14.877l-2.525,0l-0.454,-2.676l-2.611,0l-0.432,2.676l-2.331,0l2.763,-14.635l2.806,0l2.784,14.635Zm-4.274,-10.512l-0.021,0l-0.972,5.871l1.965,0l-0.972,-5.871Z" style="fill:#fff;"/><path d="M67.073,5.681l0,9.195l-2.072,0l0,-14.633l2.418,0l2.654,8.394l0,-8.393l2.05,0l0,14.633l-2.158,0l-2.892,-9.196Z" style="fill:#fff;"/><path d="M82.662,5.832l-1.381,9.045l-2.31,0l-1.964,-14.635l2.374,0l1.144,9.282l0.023,0l1.23,-9.282l2.007,0l1.36,9.282l0.021,0l1.123,-9.282l2.072,0l-1.9,14.635l-2.332,0l-1.444,-9.045l-0.023,0Z" style="fill:#fff;"/><path d="M96.632,14.877l-2.527,0l-0.453,-2.676l-2.612,0l-0.43,2.676l-2.332,0l2.762,-14.635l2.807,0l2.785,14.635Zm-4.275,-10.512l-0.021,0l-0.972,5.871l-0.001,0l1.965,0l-0.971,-5.871Z" style="fill:#fff;"/><path d="M96.33,0.242l6.544,0l0,2.007l-2.031,0l0,12.628l-2.483,0l0,-12.628l-2.03,0l0,-2.007Z" style="fill:#fff;"/><path d="M104.065,0.242l5.866,0l0,2.007l-3.406,0l0,4.188l2.437,0l0,1.986l-2.437,0l0,4.447l3.406,0l0,2.007l-5.866,0l0,-14.635Z" style="fill:#fff;"/><path d="M113.737,14.877l-2.46,0l0,-14.635l3.584,0c2.482,0 3.383,1.23 3.383,3.281l0,1.877c0,1.576 -0.557,2.504 -1.96,2.828l2.35,6.65l-2.593,0l-2.304,-6.714l0,6.713Zm0.812,-12.628l-0.812,0l0,4.555l0.812,0c0.847,0 1.214,-0.432 1.214,-1.209l0,-2.158c0,-0.8 -0.367,-1.188 -1.214,-1.188Z" style="fill:#fff;"/></svg>