<?xml version="1.0" encoding="UTF-8" standalone="no"?><!DOCTYPE svg PUBLIC "-//W3C//DTD SVG 1.1//EN" "http://www.w3.org/Graphics/SVG/1.1/DTD/svg11.dtd"><svg width="100%" height="100%" viewBox="0 0 137 37" version="1.1" xmlns="http://www.w3.org/2000/svg" xmlns:xlink="http://www.w3.org/1999/xlink" xml:space="preserve" xmlns:serif="http://www.serif.com/" style="fill-rule:evenodd;clip-rule:evenodd;stroke-linejoin:round;stroke-miterlimit:2;"><path d="M0,5.168l9.324,0l-8.053,31.29l5.987,0l7.894,-30.648l0,-5.619l-15.152,0l0,4.977Z" style="fill:#fff;"/><path d="M40.545,14.87l-2.512,0l-0.45,-2.686l-2.598,0l-0.43,2.686l-2.318,0l2.749,-14.696l2.79,0l2.769,14.696Zm-4.25,-10.554l-0.021,0l-0.967,5.894l1.954,0l-0.966,-5.894Z" style="fill:#fff;"/><path d="M41.448,0.174l5.732,0l0,2.017l-3.285,0l0,4.203l2.448,0l0,1.994l-2.448,0l0,6.482l-2.447,0l0,-14.696Z" style="fill:#fff;"/><path d="M48.147,0.174l5.733,0l0,2.017l-3.286,0l0,4.203l2.448,0l0,1.994l-2.447,0l0,6.482l-2.447,0l-0.001,-14.696Z" style="fill:#fff;"/><path d="M54.632,11.077l0,-7.11c0,-2.298 1.117,-3.967 3.693,-3.967c2.597,0 3.714,1.67 3.714,3.967l0,7.11c0,2.276 -1.117,3.967 -3.714,3.967c-2.576,0 -3.692,-1.69 -3.692,-3.967l-0.001,0Zm4.96,0.39l0,-7.89c0,-0.888 -0.386,-1.518 -1.267,-1.518c-0.858,0 -1.244,0.63 -1.244,1.518l0,7.89c0,0.89 0.386,1.518 1.244,1.518c0.881,0 1.267,-0.629 1.267,-1.518Z" style="fill:#fff;"/><path d="M65.776,14.871l-2.446,0l0,-14.698l3.563,0c2.47,0 3.37,1.237 3.37,3.297l0,1.884c0,1.583 -0.558,2.515 -1.953,2.84l2.34,6.677l-2.578,0l-2.296,-6.74l0,6.74Zm0.816,-12.681l-0.816,0l0,4.574l0.816,0c0.837,0 1.203,-0.434 1.203,-1.214l0,-2.167c0,-0.803 -0.366,-1.193 -1.203,-1.193Z" style="fill:#fff;"/><path d="M75.268,14.871l-3.779,0l0,-14.697l3.779,0c2.62,0 3.542,1.67 3.542,3.946l0,6.806c0,2.254 -0.923,3.945 -3.542,3.945Zm-0.301,-12.682l-1.03,0l0,10.666l1.03,0c1.008,0 1.395,-0.607 1.395,-1.494l0,-7.698c0,-0.867 -0.387,-1.474 -1.395,-1.474Z" style="fill:#fff;"/><path d="M87.699,14.87l-2.512,0l-0.45,-2.686l-2.597,0l-0.43,2.686l-2.319,0l2.749,-14.696l2.79,0l2.769,14.696Zm-4.251,-10.554l-0.02,0l-0.967,5.894l1.954,0l-0.967,-5.894Z" style="fill:#fff;"/><path d="M92.401,14.87l-3.799,0l0,-14.697l3.543,0c2.446,0 3.262,1.15 3.262,3.232l0,1.494c0,1.236 -0.45,2.017 -1.46,2.342c1.223,0.282 1.826,1.105 1.826,2.45l0,1.951c0,2.08 -0.923,3.228 -3.372,3.228Zm-0.3,-6.611l-1.052,0l0,4.596l1.073,0c0.816,0 1.204,-0.412 1.204,-1.192l0,-2.21c0,-0.783 -0.365,-1.194 -1.225,-1.194Zm-0.215,-6.069l-0.837,0l0,4.185l0.86,0c0.793,0 1.158,-0.413 1.158,-1.193l0,-1.799c0,-0.803 -0.365,-1.193 -1.181,-1.193Z" style="fill:#fff;"/><path d="M96.89,0.174l2.447,0l0,12.68l2.92,0l0,2.016l-5.367,0l0,-14.696Z" style="fill:#fff;"/><path d="M103.267,0.174l5.84,0l0,2.017l-3.393,0l0,4.203l2.427,0l0,1.994l-2.427,0l0,4.467l3.394,0l0,2.015l-5.84,0l-0.001,-14.696Z" style="fill:#fff;"/><path d="M120.379,14.87l-2.511,0l-0.451,-2.686l-2.597,0l-0.43,2.686l-2.319,0l2.749,-14.696l2.789,0l2.77,14.696Zm-4.252,-10.554l-0.02,0l-0.966,5.894l1.954,0l-0.968,-5.894Z" style="fill:#fff;"/><path d="M123.345,5.637l0,9.233l-2.061,0l0,-14.696l2.405,0l2.638,8.431l0,-8.431l2.04,0l0,14.696l-2.146,0l-2.876,-9.233Z" style="fill:#fff;"/><path d="M133.437,14.871l-3.78,0l0,-14.697l3.78,0c2.617,0 3.54,1.67 3.54,3.946l0,6.806c0,2.254 -0.923,3.945 -3.54,3.945Zm-0.301,-12.682l-1.031,0l0,10.666l1.03,0c1.009,0 1.395,-0.607 1.395,-1.494l0,-7.698c0,-0.867 -0.386,-1.474 -1.394,-1.474Z" style="fill:#fff;"/><path d="M32.604,32.663l0,-7.076c0,-2.287 1.068,-3.948 3.631,-3.948c2.693,0 3.441,1.51 3.441,3.667l0,1.726l-2.223,0l0,-1.92c0,-0.905 -0.298,-1.424 -1.174,-1.424c-0.877,0 -1.239,0.626 -1.239,1.51l0,7.853c0,0.885 0.362,1.511 1.239,1.511c0.876,0 1.174,-0.561 1.174,-1.424l0,-2.697l2.223,0l0,2.524c0,2.093 -0.854,3.646 -3.44,3.646c-2.528,0 -3.602,-1.635 -3.632,-3.948Z" style="fill:#fff;"/><path d="M41.212,21.811l2.436,0l0,12.622l2.907,0l0,2.006l-5.343,0l0,-14.628Z" style="fill:#fff;"/><path d="M47.877,21.811l5.811,0l0,2.007l-3.375,0l0,4.186l2.414,0l0,1.985l-2.414,0l0,4.444l3.375,0l0,2.006l-5.81,0l-0.001,-14.628Z" style="fill:#fff;"/><path d="M63.09,36.439l-2.5,0l-0.448,-2.676l-2.587,0l-0.426,2.676l-2.309,0l-0.001,0.001l2.736,-14.629l2.779,0l2.756,14.628Zm-4.232,-10.506l-0.021,0l-0.961,5.867l-0.001,0.001l1.946,0l-0.963,-5.868Z" style="fill:#fff;"/><path d="M66.356,27.249l0,9.19l-2.051,0l0,-14.626l2.392,0l2.629,8.393l0,-8.393l2.03,0l0,14.628l-2.137,0l-2.863,-9.192Z" style="fill:#fff;"/><path d="M77.869,21.811l5.811,0l0,2.007l-3.375,0l0,4.186l2.414,0l0,1.985l-2.414,0l0,4.444l3.375,0l0,2.006l-5.81,0l-0.001,-14.628Z" style="fill:#fff;"/><path d="M87.184,27.249l0,9.19l-2.052,0l0,-14.626l2.392,0l2.629,8.393l0,-8.393l2.03,0l0,14.628l-2.137,0l-2.862,-9.192Z" style="fill:#fff;"/><path d="M93.761,21.811l5.811,0l0,2.007l-3.374,0l0,4.186l2.413,0l0,1.985l-2.413,0l0,4.444l3.374,0l0,2.006l-5.81,0l-0.001,-14.628Z" style="fill:#fff;"/><path d="M103.483,36.439l-2.436,0l0,-14.628l3.547,0c2.456,0 3.354,1.23 3.354,3.279l0,1.878c0,1.576 -0.554,2.502 -1.943,2.827l2.327,6.644l-2.563,0l-2.286,-6.71l0,6.71Zm0.813,-12.621l-0.813,0l0,4.553l0.813,0c0.831,0 1.195,-0.433 1.195,-1.21l0,-2.156c0,-0.8 -0.364,-1.187 -1.195,-1.187Z" style="fill:#fff;"/><path d="M113.16,28.629l3.462,0l0,7.81l-1.753,0l0,-1.596c-0.32,1.1 -1.005,1.768 -2.33,1.768c-2.091,0 -3.054,-1.682 -3.054,-3.947l0,-7.077c0,-2.287 1.089,-3.948 3.652,-3.948c2.693,0 3.485,1.511 3.485,3.668l0,1.293l-2.223,0l0,-1.488c0,-0.905 -0.342,-1.424 -1.218,-1.424c-0.877,0 -1.26,0.627 -1.26,1.51l0,7.854c0,0.884 0.362,1.51 1.195,1.51c0.792,0 1.198,-0.453 1.198,-1.403l0,-2.588l-1.154,0l0,-1.942Z" style="fill:#fff;"/><path d="M122.922,30.873l0,5.566l-2.435,0l0,-5.566l-2.714,-9.062l2.543,0l1.475,5.545l0.02,0l1.474,-5.545l2.33,0l-2.693,9.062Z" style="fill:#fff;"/></svg>