<?xml version="1.0" encoding="UTF-8" standalone="no"?><!DOCTYPE svg PUBLIC "-//W3C//DTD SVG 1.1//EN" "http://www.w3.org/Graphics/SVG/1.1/DTD/svg11.dtd"><svg width="100%" height="100%" viewBox="0 0 150 38" version="1.1" xmlns="http://www.w3.org/2000/svg" xmlns:xlink="http://www.w3.org/1999/xlink" xml:space="preserve" xmlns:serif="http://www.serif.com/" style="fill-rule:evenodd;clip-rule:evenodd;stroke-linejoin:round;stroke-miterlimit:2;"><path d="M17.96,27.763l0,-3.96c0,-3.475 -1.218,-5.99 -4.026,-7.275c2.38,-1.173 3.495,-3.312 3.495,-6.31l0,-1.498c0,-5.67 -2.913,-8.72 -8.474,-8.72c-5.508,0 -8.37,3.05 -8.37,8.72l0,1.498c0,2.943 1.06,5.137 3.39,6.31c-2.807,1.285 -3.975,3.8 -3.975,7.275l0,3.96c0,5.509 2.6,9.36 8.955,9.36c6.408,0 9.005,-3.851 9.005,-9.36Zm-6.039,0.642c0,2.193 -0.796,3.745 -2.966,3.745c-2.12,0 -2.913,-1.552 -2.913,-3.745l0,-5.885c0,-2.192 0.793,-3.743 2.913,-3.743c2.17,0 2.966,1.55 2.966,3.743l0,5.885Zm-5.668,-20.058c0,-2.195 0.743,-3.478 2.702,-3.478c2.01,0 2.754,1.283 2.754,3.478l0,2.458c0,2.194 -0.744,3.48 -2.754,3.48c-1.959,0 -2.702,-1.286 -2.702,-3.48l0,-2.458Z" style="fill:#fff;"/><path d="M35.001,15.05l-3.78,0l0,-14.697l3.78,0c2.618,0 3.54,1.67 3.54,3.946l0,6.806c0,2.254 -0.922,3.945 -3.54,3.945Zm-0.3,-12.682l-1.031,0l0,10.666l1.031,0c1.008,0 1.394,-0.607 1.394,-1.494l0,-7.698c0,-0.867 -0.386,-1.474 -1.394,-1.474Z" style="fill:#fff;"/><path d="M40.09,0.353l5.839,0l0,2.017l-3.392,0l0,4.203l2.427,0l0,1.994l-2.427,0l0,4.467l3.392,0l0,2.015l-5.839,0l0,-14.696Z" style="fill:#fff;"/><path d="M47.177,11.256l0,-7.11c0,-2.298 1.072,-3.967 3.65,-3.967c2.703,0 3.455,1.518 3.455,3.686l0,1.735l-2.232,0l0,-1.93c0,-0.911 -0.3,-1.432 -1.181,-1.432c-0.881,0 -1.246,0.63 -1.246,1.518l0,7.89c0,0.89 0.365,1.518 1.246,1.518c0.88,0 1.181,-0.563 1.181,-1.432l0,-2.708l2.232,0l0,2.536c0,2.103 -0.858,3.663 -3.455,3.663c-2.542,0 -3.62,-1.643 -3.65,-3.967Z" style="fill:#fff;"/><path d="M55.765,0.353l5.839,0l0,2.017l-3.392,0l0,4.203l2.427,0l0,1.994l-2.427,0l0,4.467l3.392,0l0,2.015l-5.839,0l0,-14.696Z" style="fill:#fff;"/><path d="M65.127,5.816l0,9.233l-2.06,0l0,-14.696l2.403,0l2.64,8.431l0,-8.431l2.04,0l0,14.696l-2.146,0l-2.877,-9.233Z" style="fill:#fff;"/><path d="M71.42,0.353l6.504,0l0,2.017l-2.018,0l0,12.68l-2.469,0l0,-12.68l-2.018,0l0.001,-2.017Z" style="fill:#fff;"/><path d="M86.9,5.967l-1.374,9.083l-2.298,0l-1.951,-14.697l2.361,0l1.138,9.322l0.021,0l1.223,-9.322l1.998,0l1.35,9.322l0.023,0l1.115,-9.322l2.062,0l-1.889,14.697l-2.319,0l-1.438,-9.083l-0.022,0Z" style="fill:#fff;"/><path d="M93.408,11.256l0,-7.11c0,-2.298 1.117,-3.967 3.69,-3.967c2.598,0 3.714,1.67 3.714,3.967l0,7.11c0,2.276 -1.116,3.967 -3.713,3.967c-2.574,0 -3.691,-1.69 -3.691,-3.967Zm4.958,0.39l0,-7.89c0,-0.888 -0.385,-1.518 -1.267,-1.518c-0.858,0 -1.244,0.63 -1.244,1.518l0,7.89c0,0.89 0.386,1.518 1.244,1.518c0.882,0 1.267,-0.629 1.267,-1.518Z" style="fill:#fff;"/><path d="M104.807,15.05l-2.446,0l0,-14.698l3.562,0c2.469,0 3.37,1.237 3.37,3.297l0,1.884c0,1.583 -0.557,2.515 -1.951,2.84l2.34,6.677l-2.578,0l-2.296,-6.74l-0.001,0l0,6.74Zm0.817,-12.681l-0.816,0l-0.001,0.001l0,4.573l0.817,0c0.837,0 1.202,-0.434 1.202,-1.214l0,-2.167c0,-0.803 -0.365,-1.193 -1.202,-1.193Z" style="fill:#fff;"/><path d="M113.225,7.896l0,7.154l-2.446,0l0,-14.698l2.446,0l0,6.46l2.662,-6.46l2.405,0l-2.833,6.612l2.897,8.086l-2.576,0l-2.555,-7.154Z" style="fill:#fff;"/><path d="M130.081,15.049l-2.513,0l-0.45,-2.686l-2.598,0l-0.43,2.686l-2.317,0l2.747,-14.696l2.791,0l2.77,14.696Zm-4.252,-10.554l-0.02,0l-0.967,5.894l1.954,0l-0.967,-5.894Z" style="fill:#fff;"/><path d="M132.958,5.816l0,9.233l-2.06,0l0,-14.696l2.405,0l2.638,8.431l0,-8.431l2.04,0l0,14.696l-2.146,0l-2.877,-9.233Z" style="fill:#fff;"/><path d="M143.373,15.05l-3.78,0l0,-14.697l3.78,0c2.62,0 3.543,1.67 3.543,3.946l0,6.806c0,2.254 -0.923,3.945 -3.543,3.945Zm-0.3,-12.682l-1.031,0l0,10.666l1.031,0c1.008,0 1.396,-0.607 1.396,-1.494l0,-7.698c0,-0.867 -0.388,-1.474 -1.396,-1.474Z" style="fill:#fff;"/><path d="M31.222,21.945l5.838,0l0,2.017l-3.392,0l0,4.203l2.428,0l0,1.994l-2.429,0l0,4.467l3.392,0l0,2.015l-5.838,0l0.001,-14.696Z" style="fill:#fff;"/><path d="M38.137,32.848l0,-7.11c0,-2.298 1.072,-3.967 3.65,-3.967c2.704,0 3.455,1.517 3.455,3.686l0,1.735l-2.232,0l0,-1.93c0,-0.911 -0.3,-1.432 -1.18,-1.432c-0.882,0 -1.247,0.63 -1.247,1.518l0,7.89c0,0.89 0.365,1.517 1.246,1.517c0.88,0 1.181,-0.563 1.181,-1.43l0,-2.71l2.232,0l0,2.536c0,2.104 -0.858,3.664 -3.455,3.664c-2.542,0 -3.62,-1.643 -3.65,-3.967Z" style="fill:#fff;"/><path d="M46.575,32.848l0,-7.11c0,-2.298 1.117,-3.967 3.693,-3.967c2.597,0 3.714,1.67 3.714,3.967l0,7.11c0,2.276 -1.117,3.967 -3.714,3.967c-2.54,0 -3.661,-1.643 -3.693,-3.967Zm4.96,0.39l0,-7.89c0,-0.888 -0.386,-1.518 -1.267,-1.518c-0.858,0 -1.246,0.63 -1.246,1.518l0,7.89c0,0.89 0.388,1.518 1.246,1.518c0.88,0 1.267,-0.629 1.267,-1.518Z" style="fill:#fff;"/><path d="M57.44,27.407l0,9.234l-2.062,0l0,-14.696l2.405,0l2.64,8.432l0,-8.432l2.04,0l0,14.696l-2.148,0l-2.875,-9.234Z" style="fill:#fff;"/><path d="M63.86,32.848l0,-7.11c0,-2.298 1.117,-3.967 3.693,-3.967c2.597,0 3.713,1.67 3.713,3.967l0,7.11c0,2.276 -1.116,3.967 -3.713,3.967c-2.576,0 -3.693,-1.69 -3.693,-3.967Zm4.96,0.39l0,-7.89c0,-0.888 -0.387,-1.518 -1.267,-1.518c-0.858,0 -1.246,0.63 -1.246,1.518l0,7.89c0,0.89 0.388,1.518 1.246,1.518c0.88,0 1.267,-0.629 1.267,-1.518Z" style="fill:#fff;"/><path d="M79.404,27.104l-0.063,0l-1.653,9.538l-1.137,0l-1.825,-9.538l-0.044,0l0,9.538l-2.018,0l0,-14.698l2.857,0l1.587,8.28l0.021,0l1.417,-8.28l3.092,0l0,14.698l-2.234,0l0,-9.538Z" style="fill:#fff;"/><rect x="83.035" y="21.945" width="2.446" height="14.695" style="fill:#fff;"/><path d="M86.857,32.848l0,-7.11c0,-2.298 1.073,-3.967 3.65,-3.967c2.704,0 3.456,1.517 3.456,3.686l0,1.735l-2.232,0l0,-1.93c0,-0.911 -0.3,-1.432 -1.181,-1.432c-0.881,0 -1.247,0.63 -1.247,1.518l0,7.89c0,0.89 0.366,1.517 1.247,1.517c0.88,0 1.18,-0.563 1.18,-1.43l0,-2.71l2.233,0l0,2.536c0,2.104 -0.859,3.664 -3.455,3.664c-2.542,0 -3.62,-1.643 -3.651,-3.967Z" style="fill:#fff;"/><path d="M101.823,28.795l3.48,0l0,7.846l-1.762,0l0,-1.604c-0.322,1.106 -1.009,1.777 -2.34,1.777c-2.104,0 -3.07,-1.689 -3.07,-3.965l0,-7.11c0,-2.298 1.095,-3.967 3.67,-3.967c2.706,0 3.501,1.515 3.501,3.684l0,1.3l-2.233,0l0,-1.494c0,-0.91 -0.345,-1.431 -1.224,-1.431c-0.88,0 -1.268,0.628 -1.268,1.518l0,7.89c0,0.889 0.365,1.517 1.204,1.517c0.793,0 1.202,-0.457 1.202,-1.41l0,-2.6l-1.16,0l0,-1.95l0,-0.001Z" style="fill:#fff;"/><path d="M109.359,36.642l-2.446,0l0,-14.698l3.563,0c2.467,0 3.37,1.237 3.37,3.296l0,1.885c0,1.583 -0.558,2.515 -1.953,2.84l2.34,6.677l-2.578,0l-2.296,-6.743l0,6.743Zm0.816,-12.681l-0.816,0l0,4.574l0.816,0c0.837,0 1.203,-0.434 1.203,-1.214l0,-2.169c0,-0.801 -0.366,-1.191 -1.203,-1.191Z" style="fill:#fff;"/><path d="M114.964,32.848l0,-7.11c0,-2.298 1.117,-3.967 3.693,-3.967c2.597,0 3.714,1.67 3.714,3.967l0,7.11c0,2.276 -1.117,3.967 -3.714,3.967c-2.576,0 -3.693,-1.69 -3.693,-3.967Zm4.96,0.39l0,-7.89c0,-0.888 -0.386,-1.518 -1.267,-1.518c-0.858,0 -1.246,0.63 -1.246,1.518l0,7.89c0,0.89 0.388,1.518 1.246,1.518c0.88,0 1.267,-0.629 1.267,-1.518Z" style="fill:#fff;"/><path d="M128.642,27.559l-1.374,9.083l-2.298,0l-1.952,-14.697l2.361,0l1.138,9.322l0.02,0l1.226,-9.322l1.995,0l1.351,9.322l0.023,0l1.117,-9.322l2.06,0l-1.889,14.697l-2.32,0l-1.437,-9.083l-0.021,0Z" style="fill:#fff;"/><path d="M135.064,21.945l6.504,0l0,2.017l-2.018,0l0,12.68l-2.468,0l0,-12.68l-2.018,0l0,-2.017Z" style="fill:#fff;"/><path d="M147.13,30.16l-2.363,0l0,6.481l-2.447,0l0,-14.696l2.447,0l0,6.22l2.363,0l0,-6.22l2.467,0l0,14.696l-2.467,0l0,-6.481Z" style="fill:#fff;"/></svg>