<?xml version="1.0" encoding="UTF-8" standalone="no"?><!DOCTYPE svg PUBLIC "-//W3C//DTD SVG 1.1//EN" "http://www.w3.org/Graphics/SVG/1.1/DTD/svg11.dtd"><svg width="100%" height="100%" viewBox="0 0 159 37" version="1.1" xmlns="http://www.w3.org/2000/svg" xmlns:xlink="http://www.w3.org/1999/xlink" xml:space="preserve" xmlns:serif="http://www.serif.com/" style="fill-rule:evenodd;clip-rule:evenodd;stroke-linejoin:round;stroke-miterlimit:2;"><path d="M5.749,25.981l0,2.395c0,2.237 0.798,3.515 2.982,3.515c2.181,0 3.033,-1.545 3.033,-3.728l0,-7.77l-0.051,0c-0.907,1.753 -2.45,2.925 -5.005,2.925c-4.367,0 -6.708,-2.98 -6.708,-8.89l0,-5.325c0,-5.59 2.501,-9.103 8.943,-9.103c6.39,0 8.84,4.046 8.84,9.638l0,17.566c0,5.644 -2.559,9.744 -8.943,9.744c-6.709,0 -8.629,-3.727 -8.629,-9.048l0,-1.919l5.538,0Zm6.015,-10.806c-0.105,2.021 -0.958,3.299 -2.873,3.299c-2.074,0 -2.875,-1.278 -2.875,-3.622l0,-6.281c0,-2.29 0.85,-3.618 2.928,-3.618c2.024,0 2.82,1.383 2.82,3.618l0,6.604Z" style="fill:#fff;"/><rect x="27.26" y="0.831" width="2.285" height="13.586" style="fill:#fff;"/><path d="M32.892,5.881l0,8.537l-1.924,0l0,-13.587l2.244,0l2.465,7.797l0,-7.797l1.903,0l0,13.587l-2.003,0l-2.685,-8.537Z" style="fill:#fff;"/><path d="M42.509,14.418l-3.529,0l0,-13.586l3.53,0c2.408,0 3.28,1.5 3.305,3.646l0,6.293c0,2.085 -0.863,3.647 -3.306,3.647Zm-0.281,-11.723l-0.963,0l0,9.86l0.963,0c0.94,0 1.302,-0.56 1.302,-1.383l0,-7.114c0,-0.801 -0.362,-1.363 -1.302,-1.363Z" style="fill:#fff;"/><path d="M53.849,0.832l0,10.28c0,2.103 -0.903,3.467 -3.226,3.467c-2.406,0 -3.408,-1.364 -3.408,-3.467l0,-10.28l2.285,0l0,10.5c0,0.803 0.321,1.344 1.123,1.344c0.801,0 1.12,-0.541 1.12,-1.344l0,-10.5l2.106,0Z" style="fill:#fff;"/><path d="M55.129,11.492l0,-1.822l2.127,0l0,1.862c0,0.763 0.339,1.202 1.12,1.202c0.723,0 1.043,-0.48 1.043,-1.202l0,-0.521c0,-0.78 -0.32,-1.262 -1.021,-1.923l-1.345,-1.343c-1.302,-1.282 -1.903,-2.064 -1.903,-3.628l0,-0.46c0,-1.684 0.983,-2.987 3.207,-2.987c2.285,0 3.185,1.123 3.185,3.088l0,1.102l-2.083,0l0,-1.185c0,-0.78 -0.36,-1.161 -1.082,-1.161c-0.642,0 -1.081,0.36 -1.081,1.123l0,0.28c0,0.762 0.42,1.203 1.08,1.844l1.463,1.443c1.242,1.264 1.843,2.025 1.843,3.527l0,0.663c0,1.862 -1.001,3.184 -3.325,3.184c-2.281,0 -3.194,-1.254 -3.228,-3.086Z" style="fill:#fff;"/><path d="M62.221,0.832l6.074,0l0,1.862l-1.886,0l0,11.723l-2.304,0l0,-11.722l-1.884,0l0,-1.863Z" style="fill:#fff;"/><path d="M71.738,14.418l-2.285,0l0,-13.586l3.327,0c2.306,0 3.146,1.142 3.146,3.045l0,1.744c0,1.462 -0.52,2.325 -1.824,2.625l2.186,6.172l-2.406,0l-2.144,-6.232l0,6.232Zm0.761,-11.723l-0.761,0l0,4.228l0.76,0c0.783,0 1.124,-0.4 1.124,-1.121l0,-2.005c0,-0.742 -0.341,-1.102 -1.123,-1.102Z" style="fill:#fff;"/><path d="M81.215,9.248l0,5.17l-2.284,0l0,-5.17l-2.545,-8.417l2.385,0l1.383,5.15l0.02,0l1.382,-5.15l2.185,0l-2.526,8.417Z" style="fill:#fff;"/><path d="M86.104,12.415l-1.162,3.065l-1.284,0l0.28,-3.246l2.166,0l0,0.181Z" style="fill:#fff;"/><rect x="89.709" y="0.831" width="2.284" height="13.586" style="fill:#fff;"/><path d="M95.339,5.881l0,8.537l-1.923,0l0,-13.587l2.243,0l2.465,7.797l0,-7.797l1.903,0l0,13.587l-2.003,0l-2.685,-8.537Z" style="fill:#fff;"/><path d="M103.353,5.881l0,8.537l-1.925,0l0,-13.587l2.244,0l2.466,7.797l0,-7.797l1.903,0l0,13.587l-2.003,0l-2.685,-8.537Z" style="fill:#fff;"/><path d="M109.442,10.91l0,-6.573c0,-2.124 1.043,-3.667 3.447,-3.667c2.425,0 3.467,1.543 3.467,3.667l0,6.573c0,2.105 -1.042,3.667 -3.467,3.667c-2.37,0 -3.417,-1.518 -3.447,-3.667Zm3.438,-8.337c-0.796,0.005 -1.153,0.585 -1.153,1.402l0,7.297c0,0.82 0.36,1.402 1.162,1.402c0.822,0 1.182,-0.581 1.182,-1.402l0,-7.297c0,-0.82 -0.36,-1.402 -1.182,-1.402l-0.009,0Z" style="fill:#fff;"/><path d="M125.071,0.832l-2.585,13.585l-2.485,0l-2.586,-13.585l2.325,0l1.564,9.479l0.019,0l1.604,-9.48l2.144,0.001Z" style="fill:#fff;"/><path d="M132.502,14.419l-2.342,0l-0.422,-2.487l-2.425,0l-0.4,2.487l-2.166,0l2.566,-13.588l2.606,0l2.583,13.588Zm-3.966,-9.761l-0.021,0l-0.902,5.452l1.823,0l-0.9,-5.452Z" style="fill:#fff;"/><path d="M132.28,0.832l6.074,0l0,1.862l-1.884,0l0,11.723l-2.306,0l0,-11.722l-1.884,0l0,-1.863Z" style="fill:#fff;"/><rect x="139.512" y="0.831" width="2.284" height="13.586" style="fill:#fff;"/><path d="M143.219,10.91l0,-6.573c0,-2.124 1.042,-3.667 3.446,-3.667c2.425,0 3.467,1.543 3.467,3.667l0,6.573c0,2.105 -1.042,3.667 -3.467,3.667c-2.37,0 -3.416,-1.518 -3.446,-3.667Zm3.437,-8.337c-0.796,0.005 -1.153,0.585 -1.153,1.402l0,7.297c0,0.82 0.36,1.402 1.162,1.402c0.822,0 1.182,-0.581 1.182,-1.402l0,-7.297c0,-0.82 -0.36,-1.402 -1.182,-1.402l-0.009,0Z" style="fill:#fff;"/><path d="M153.456,5.881l0,8.537l-1.923,0l0,-13.587l2.243,0l2.465,7.797l0,-7.797l1.904,0l0,13.587l-2.004,0l-2.685,-8.537Z" style="fill:#fff;"/><path d="M34.646,35.934l-2.344,0l-0.422,-2.485l-2.425,0l-0.4,2.485l-2.166,0l2.566,-13.588l2.606,0l2.585,13.588Zm-3.968,-9.76l-0.02,0l-0.9,5.45l-0.001,0.001l1.823,0l-0.902,-5.451Z" style="fill:#fff;"/><path d="M37.41,27.396l0,8.537l-1.926,0l0,-13.587l2.244,0l2.466,7.795l0,-7.795l1.903,0l0,13.587l-2.003,0l-2.684,-8.537Z" style="fill:#fff;"/><path d="M47.027,35.933l-3.529,0l0,-13.588l3.529,0c2.444,0 3.305,1.545 3.305,3.648l0,6.293c0,2.085 -0.86,3.647 -3.305,3.647Zm-0.281,-11.723l-0.961,0l0,9.86l0.961,0c0.942,0 1.302,-0.562 1.302,-1.383l0,-7.115c0,-0.802 -0.36,-1.362 -1.302,-1.362Z" style="fill:#fff;"/><rect x="53.937" y="22.345" width="2.284" height="13.589" style="fill:#fff;"/><path d="M59.568,27.396l0,8.537l-1.924,0l0,-13.587l2.244,0l2.465,7.795l0,-7.795l1.904,0l0,13.587l-2.004,0l-2.685,-8.537Z" style="fill:#fff;"/><path d="M65.657,22.345l5.351,0l0,1.865l-3.066,0l0,3.887l2.286,0l0,1.844l-2.286,0l0,5.992l-2.285,0l0,-13.588Z" style="fill:#fff;"/><path d="M74.393,35.933l-2.285,0l0,-13.588l3.327,0c2.305,0 3.145,1.144 3.145,3.047l0,1.744c0,1.462 -0.52,2.325 -1.824,2.625l2.186,6.172l-2.406,0l-2.143,-6.233l0,6.233Zm0.76,-11.723l-0.76,0l0,4.228l0.76,0c0.782,0 1.123,-0.4 1.123,-1.121l0,-2.005c0,-0.742 -0.34,-1.102 -1.123,-1.102Z" style="fill:#fff;"/><path d="M87.316,35.934l-2.344,0l-0.422,-2.485l-2.425,0l-0.4,2.485l-2.164,0l2.564,-13.588l2.606,0l2.585,13.588Zm-3.968,-9.76l-0.02,0l-0.9,5.45l-0.001,0.001l1.823,0l-0.902,-5.451Z" style="fill:#fff;"/><path d="M88.035,33.007l0,-1.822l2.125,0l0,1.863c0,0.76 0.34,1.202 1.123,1.202c0.72,0 1.04,-0.48 1.04,-1.202l0,-0.522c0,-0.78 -0.32,-1.262 -1.021,-1.925l-1.344,-1.342c-1.303,-1.281 -1.904,-2.063 -1.904,-3.627l0,-0.46c0,-1.684 0.983,-2.987 3.208,-2.987c2.284,0 3.186,1.123 3.186,3.086l0,1.104l-2.083,0l0,-1.185c0,-0.78 -0.362,-1.161 -1.082,-1.161c-0.642,0 -1.083,0.36 -1.083,1.123l0,0.28c0,0.762 0.42,1.201 1.083,1.844l1.462,1.443c1.242,1.262 1.843,2.023 1.843,3.527l0,0.661c0,1.863 -1.001,3.186 -3.326,3.186c-2.281,0 -3.193,-1.254 -3.227,-3.086Z" style="fill:#fff;"/><path d="M95.328,22.345l6.073,0l0,1.865l-1.886,0l0,11.723l-2.303,0l0,-11.723l-1.884,0l0,-1.865Z" style="fill:#fff;"/><path d="M104.844,35.933l-2.284,0l0,-13.588l3.326,0c2.306,0 3.146,1.144 3.146,3.047l0,1.744c0,1.462 -0.52,2.325 -1.824,2.625l2.186,6.172l-2.406,0l-2.144,-6.233l0,6.233Zm0.761,-11.723l-0.761,0l0,4.228l0.761,0c0.782,0 1.123,-0.4 1.123,-1.121l0,-2.005c0,-0.742 -0.34,-1.102 -1.123,-1.102Z" style="fill:#fff;"/><path d="M117.007,22.345l0,10.28c0,2.106 -0.901,3.468 -3.226,3.468c-2.404,0 -3.408,-1.362 -3.408,-3.467l0,-10.281l2.285,0l0,10.501c0,0.802 0.322,1.343 1.123,1.343c0.801,0 1.123,-0.541 1.123,-1.343l0,-10.501l2.103,0Z" style="fill:#fff;"/><path d="M118.408,32.426l0,-6.574c0,-2.123 1.001,-3.668 3.407,-3.668c2.524,0 3.227,1.405 3.227,3.408l0,1.603l-2.085,0l0,-1.782c0,-0.842 -0.28,-1.324 -1.101,-1.324c-0.825,0 -1.164,0.582 -1.164,1.403l0,7.294c0,0.823 0.34,1.405 1.164,1.405c0.82,0 1.101,-0.522 1.101,-1.324l0,-2.504l2.085,0l0,2.344c0,1.944 -0.804,3.387 -3.227,3.387c-2.372,0 -3.379,-1.519 -3.407,-3.668Z" style="fill:#fff;"/><path d="M125.619,22.345l6.073,0l0,1.865l-1.883,0l0,11.723l-2.306,0l0,-11.723l-1.884,0l0,-1.865Z" style="fill:#fff;"/><path d="M139.485,22.345l0,10.28c0,2.106 -0.901,3.468 -3.226,3.468c-2.404,0 -3.406,-1.362 -3.406,-3.467l0,-10.281l2.283,0l0,10.501c0,0.802 0.321,1.343 1.123,1.343c0.803,0 1.123,-0.541 1.123,-1.343l0,-10.501l2.103,0Z" style="fill:#fff;"/><path d="M143.17,35.933l-2.284,0l0,-13.588l3.327,0c2.305,0 3.145,1.144 3.145,3.047l0,1.744c0,1.462 -0.52,2.325 -1.824,2.625l2.186,6.172l-2.406,0l-2.144,-6.233l0,6.233Zm0.761,-11.723l-0.761,0l0,4.228l0.761,0c0.782,0 1.123,-0.4 1.123,-1.121l0,-2.005c0,-0.742 -0.34,-1.102 -1.123,-1.102Z" style="fill:#fff;"/><path d="M148.7,22.345l5.451,0l0,1.865l-3.166,0l0,3.887l2.265,0l0,1.844l-2.265,0l0,4.13l3.166,0l0,1.862l-5.45,0l-0.001,-13.588Z" style="fill:#fff;"/></svg>