<svg xmlns="http://www.w3.org/2000/svg" width="180" height="180" viewBox="0 0 180 180">
    <g fill="none" fill-rule="evenodd">
        <path fill="#F1F1F1" d="M0 180h180V0H0z"/>
        <path fill="#3FAE49" d="M67.481 55.172a26.648 26.648 0 0 1 4.198-5.4L57.914 34.676a47.123 47.123 0 0 0-8.74 11.377l18.307 9.119z"/>
        <path fill="#D19F2A" d="M101.227 44.508A26.446 26.446 0 0 1 107 48.125l13.802-15.071a46.979 46.979 0 0 0-12.233-7.632l-7.342 19.086z"/>
        <path fill="#C22033" d="M132.839 49.047l-18.296 9.12a26.161 26.161 0 0 1 1.833 6.466l20.346-1.923a45.91 45.91 0 0 0-3.883-13.663"/>
        <path fill="#2D9A47" d="M113.231 55.523l18.294-9.12a47.075 47.075 0 0 0-8.548-11.348l-13.805 15.067a26.55 26.55 0 0 1 4.06 5.4"/>
        <path fill="#48773C" d="M63.846 68.525c0-.411.012-.822.031-1.232L43.52 65.471a47.481 47.481 0 0 0-.103 3.054c0 3.905.486 7.699 1.386 11.323l19.661-5.64a26.465 26.465 0 0 1-.618-5.683"/>
        <path fill="#FDB714" d="M110.67 85.257a26.847 26.847 0 0 1-4.964 4.671l10.746 17.402a47.425 47.425 0 0 0 10.531-9.776L110.67 85.257z"/>
        <path fill="#EF412A" d="M116.66 68.525c0 1.926-.208 3.805-.606 5.617l19.656 5.648a46.434 46.434 0 0 0 1.38-11.265c0-.965-.034-1.92-.088-2.875l-20.36 1.923c.01.32.019.634.019.952"/>
        <path fill="#F99D25" d="M70.166 85.647l-16.27 12.366a47.257 47.257 0 0 0 10.623 9.623l10.748-17.381a26.773 26.773 0 0 1-5.101-4.608"/>
        <path fill="#007DBB" d="M64.175 64.356a26.103 26.103 0 0 1 1.95-6.559l-18.288-9.111a46.461 46.461 0 0 0-4.036 13.844l20.374 1.826z"/>
        <path fill="#8F1838" d="M113.952 108.904l-10.732-17.38a26.267 26.267 0 0 1-6.264 2.546l3.787 20.102a46.474 46.474 0 0 0 13.21-5.268"/>
        <path fill="#00ADD8" d="M115.273 76.989a26.434 26.434 0 0 1-2.86 5.885l16.32 12.31a46.573 46.573 0 0 0 6.187-12.55l-19.647-5.645z"/>
        <path fill="#F36E24" d="M94.062 94.656c-1.243.18-2.517.278-3.809.278-1.04 0-2.066-.065-3.075-.183l-3.783 20.105a47.015 47.015 0 0 0 14.45-.114l-3.783-20.086z"/>
        <path fill="#EA1D2D" d="M91.942 42.17a26.26 26.26 0 0 1 6.534 1.261l7.342-19.08a46.558 46.558 0 0 0-13.876-2.628V42.17z"/>
        <path fill="#E01A83" d="M84.269 94.249a26.214 26.214 0 0 1-6.483-2.452l-10.753 17.392a46.593 46.593 0 0 0 13.454 5.142L84.27 94.25z"/>
        <path fill="#1B3668" d="M82.316 43.337a26.181 26.181 0 0 1 6.672-1.186V21.706a46.642 46.642 0 0 0-14.064 2.562l7.392 19.07z"/>
        <path fill="#CD8B2A" d="M68.376 83.297a26.338 26.338 0 0 1-3.116-6.245L45.615 82.69a46.674 46.674 0 0 0 6.488 12.97l16.273-12.364z"/>
        <path fill="#00558A" d="M73.891 47.811a26.42 26.42 0 0 1 5.664-3.425l-7.39-19.06a46.872 46.872 0 0 0-12.05 7.38L73.891 47.81z"/>
        <path fill="#000" d="M18.02 129.405h8.466v2.597h-2.625v16.343h-3.213v-16.343h-2.627zM33.945 139.993h-3.072v8.353h-3.186v-18.94h3.186v8.016h3.072v-8.017h3.212v18.941h-3.212zM38.778 129.405h7.599v2.597h-4.415v5.42h3.156v2.57h-3.156v5.756h4.415v2.597h-7.6zM55.289 138.233h4.525v10.113h-2.29v-2.067c-.42 1.424-1.315 2.292-3.046 2.292-2.738 0-3.994-2.18-3.994-5.114v-9.163c0-2.96 1.423-5.114 4.776-5.114 3.52 0 4.554 1.956 4.554 4.75v1.677h-2.905v-1.928c0-1.174-.447-1.845-1.594-1.845-1.144 0-1.647.812-1.647 1.956v10.17c0 1.145.475 1.956 1.564 1.956 1.034 0 1.564-.587 1.564-1.817v-3.352H55.29v-2.514zM61.49 129.405h3.187v16.343h3.797v2.597h-6.983zM75.598 143.96v-10.17c0-1.144-.502-1.955-1.646-1.955-1.12 0-1.622.811-1.622 1.956v10.17c0 1.145.502 1.955 1.622 1.955 1.144 0 1.646-.81 1.646-1.956m-6.453-.502v-9.165c0-2.961 1.452-5.112 4.807-5.112 3.379 0 4.83 2.151 4.83 5.112v9.165c0 2.933-1.451 5.112-4.83 5.112-3.355 0-4.807-2.18-4.807-5.112M83.505 139.825v5.922h1.397c1.062 0 1.564-.53 1.564-1.535v-2.85c0-1.006-.476-1.537-1.594-1.537h-1.367zm0-2.43h1.118c1.033 0 1.508-.53 1.508-1.536v-2.32c0-1.033-.475-1.536-1.536-1.536h-1.09v5.392zm-3.186-7.99h4.611c3.185 0 4.244 1.48 4.244 4.162v1.928c0 1.592-.585 2.597-1.898 3.017 1.593.364 2.375 1.426 2.375 3.157v2.514c0 2.682-1.202 4.162-4.387 4.162H80.32v-18.94zM94.204 142.34h2.543l-1.257-7.6h-.028l-1.258 7.6zm-3.995 6.006l3.576-18.94h3.633l3.602 18.94h-3.268l-.587-3.464h-3.38l-.558 3.464h-3.018zM102.11 129.405h3.186v16.343h3.797v2.597h-6.983zM117.755 138.233h4.521v10.113h-2.286v-2.067c-.42 1.424-1.315 2.292-3.045 2.292-2.738 0-3.995-2.18-3.995-5.114v-9.163c0-2.96 1.424-5.114 4.777-5.114 3.514 0 4.55 1.956 4.55 4.75v1.677h-2.902v-1.928c0-1.174-.448-1.845-1.592-1.845-1.148 0-1.649.812-1.649 1.956v10.17c0 1.145.475 1.956 1.564 1.956 1.034 0 1.564-.587 1.564-1.817v-3.352h-1.507v-2.514zM130.356 143.96v-10.17c0-1.144-.5-1.955-1.646-1.955-1.125 0-1.626.811-1.626 1.956v10.17c0 1.145.501 1.955 1.626 1.955 1.145 0 1.646-.81 1.646-1.956m-6.454-.502v-9.165c0-2.961 1.446-5.112 4.808-5.112 3.372 0 4.83 2.151 4.83 5.112v9.165c0 2.933-1.458 5.112-4.83 5.112-3.362 0-4.808-2.18-4.808-5.112M138.114 142.34h2.549l-1.257-7.6h-.033l-1.259 7.6zm-3.983 6.006l3.572-18.94h3.627l3.606 18.94h-3.272l-.578-3.464h-3.383l-.557 3.464h-3.015zM145.972 129.405h3.183v16.343h3.796v2.597h-6.979zM153.652 144.267v-2.543h2.961v2.6c0 1.06.478 1.676 1.57 1.676 1.001 0 1.446-.671 1.446-1.677v-.725c0-1.092-.445-1.761-1.423-2.684l-1.872-1.871c-1.814-1.788-2.659-2.877-2.659-5.056v-.643c0-2.346 1.37-4.164 4.474-4.164 3.183 0 4.441 1.566 4.441 4.302v1.538h-2.905v-1.648c0-1.09-.5-1.62-1.502-1.62-.902 0-1.513.502-1.513 1.563v.392c0 1.062.588 1.675 1.513 2.57l2.036 2.012c1.726 1.759 2.571 2.82 2.571 4.917v.92c0 2.598-1.402 4.445-4.64 4.445-3.24 0-4.498-1.817-4.498-4.304M24.66 157.186h-3.778v4.213h-.798v-8.801h4.987v.74h-4.19v3.109h3.78zM27.985 156.141c-1.55 0-1.643.998-1.643 2.323 0 1.327.093 2.325 1.643 2.325 1.525 0 1.643-.998 1.643-2.325 0-1.325-.118-2.323-1.643-2.323m0 5.376c-2.007 0-2.464-1.257-2.464-3.053 0-1.794.457-3.05 2.464-3.05 2.017 0 2.465 1.256 2.465 3.05 0 1.796-.448 3.053-2.465 3.053M35.077 156.236a2.286 2.286 0 0 0-.705-.095c-.797 0-1.267.13-1.7.376v4.882h-.823v-5.868h.459l.175.494a3.18 3.18 0 0 1 1.89-.61c.268 0 .48.023.704.058v.763zM38.777 154.945c0 1.255.727 1.374 2.112 1.55 1.726.221 2.793.645 2.793 2.37 0 1.197-.633 2.65-3.252 2.65-.808 0-1.912-.221-2.462-.467v-.763c.561.187 1.253.492 2.475.492 1.83 0 2.383-.855 2.383-1.912 0-1.256-.517-1.502-1.984-1.69-2.077-.258-2.874-.74-2.874-2.243 0-1.02.49-2.451 2.956-2.451 1.08 0 1.809.186 2.288.41v.787c-.798-.341-1.432-.459-2.3-.459-1.736 0-2.135.798-2.135 1.726M45.659 159.792c0 .763.444.998 1.172.998.763 0 1.15-.13 1.585-.378v-4.881h.822v5.869h-.458l-.176-.492c-.552.41-1.15.608-1.773.608-1.395 0-1.995-.633-1.995-1.76v-4.225h.823v4.261zM52.703 158.032c1.666.151 2.065.715 2.065 1.677 0 .905-.575 1.806-2.358 1.806-.565 0-1.373-.139-1.749-.291v-.705c.364.128.926.27 1.76.27 1.222 0 1.549-.516 1.549-1.068 0-.54-.163-.916-1.327-1.009-1.7-.153-2.054-.752-2.054-1.56 0-.833.541-1.738 2.195-1.738.552 0 1.174.07 1.69.295v.703c-.458-.153-.915-.27-1.7-.27-1.162 0-1.408.435-1.408 1.01 0 .515.21.785 1.337.88M59.195 161.47a2.61 2.61 0 0 1-.528.047c-.974 0-1.877-.446-1.877-1.596v-3.743h-1.174v-.365l1.174-.34v-1.585l.82-.235v1.878h1.82v.647h-1.82v3.648c0 .716.389 1.01 1.129 1.01.15 0 .304-.012.456-.024v.657zM62.391 158.43c-.833.082-1.198.517-1.198 1.198 0 .529.13 1.161 1.245 1.161.633 0 1.057-.176 1.561-.47v-2.041l-1.608.153zm.21-2.289c-.786 0-1.301.142-1.76.293v-.704c.517-.222 1.197-.315 1.76-.315 1.762 0 2.22.798 2.22 1.97v4.014h-.458l-.176-.47a3.076 3.076 0 0 1-1.773.588c-1.536 0-2.053-.904-2.053-1.89 0-.998.55-1.736 2.09-1.829l1.548-.095v-.328c0-.858-.306-1.234-1.397-1.234zM66.525 160.226v-4.695h.798v4.788c0 .411.128.53.492.53v.667c-.846 0-1.29-.351-1.29-1.29m.399-7.042c.328 0 .587.259.587.587a.581.581 0 0 1-.587.587.58.58 0 0 1-.587-.587.58.58 0 0 1 .587-.587M72.735 157.14c0-.763-.447-.999-1.174-.999-.763 0-1.151.13-1.584.376v4.882h-.822v-5.867h.457l.175.492c.554-.41 1.152-.61 1.774-.61 1.397 0 1.994.634 1.994 1.76v4.225h-.82v-4.26zM76.88 158.43c-.832.082-1.198.517-1.198 1.198 0 .529.13 1.161 1.246 1.161.634 0 1.056-.176 1.56-.47v-2.041l-1.607.153zm.211-2.289c-.785 0-1.302.142-1.759.293v-.704c.517-.222 1.197-.315 1.76-.315 1.76 0 2.219.798 2.219 1.97v4.014h-.459l-.175-.47a3.076 3.076 0 0 1-1.774.588c-1.535 0-2.052-.904-2.052-1.89 0-.998.55-1.736 2.09-1.829l1.548-.095v-.328c0-.858-.306-1.234-1.398-1.234zM81.649 156.517v3.896c.457.246.878.377 1.641.377 1.41 0 1.585-1.162 1.585-2.325 0-1.162-.175-2.324-1.585-2.324-.763 0-1.184.13-1.641.376m4.047 1.948c0 1.692-.515 3.05-2.406 3.05-.633 0-1.22-.209-1.83-.597l-.175.481h-.459v-8.8h.823v3.298a3.045 3.045 0 0 1 1.641-.483c1.891 0 2.406 1.362 2.406 3.05M87.285 160.226V152.6h.798v7.72c0 .411.128.53.492.53v.667c-.843 0-1.29-.351-1.29-1.29M90.607 158.172h3.053c0-1.045-.06-2.031-1.41-2.031-1.361 0-1.607.974-1.643 2.031m1.644-2.757c1.996 0 2.23 1.36 2.23 3.051v.376h-3.874c.048 1.02.319 1.947 1.644 1.947.845 0 1.362-.082 1.936-.328v.704c-.657.294-1.362.352-1.936.352-1.983 0-2.464-1.36-2.464-3.051 0-1.69.481-3.05 2.464-3.05M99.156 160.66h1.643c2.112 0 2.817-1.55 2.817-3.662s-.705-3.66-2.817-3.66h-1.643v7.322zm-.798.74v-8.8h2.394c2.876 0 3.71 1.899 3.71 4.398 0 2.5-.834 4.402-3.71 4.402h-2.394zM106.26 158.172h3.051c0-1.045-.058-2.031-1.408-2.031-1.362 0-1.608.974-1.643 2.031m1.643-2.757c1.995 0 2.229 1.36 2.229 3.051v.376h-3.872c.048 1.02.317 1.947 1.643 1.947.846 0 1.36-.082 1.937-.328v.704c-.657.294-1.362.352-1.937.352-1.984 0-2.465-1.36-2.465-3.051 0-1.69.481-3.05 2.465-3.05M111.791 155.531l1.678 4.814 1.679-4.814h.903l-2.288 5.986h-.587l-2.288-5.986zM117.51 158.172h3.052c0-1.045-.06-2.031-1.409-2.031-1.362 0-1.608.974-1.643 2.031m1.643-2.757c1.995 0 2.232 1.36 2.232 3.051v.376h-3.875c.046 1.02.316 1.947 1.643 1.947.845 0 1.362-.082 1.937-.328v.704c-.66.294-1.362.352-1.937.352-1.982 0-2.466-1.36-2.466-3.051 0-1.69.484-3.05 2.466-3.05M122.955 160.226V152.6h.801v7.72c0 .411.134.53.49.53v.667c-.847 0-1.291-.351-1.291-1.29M127.952 156.141c-1.558 0-1.646.998-1.646 2.323 0 1.327.088 2.325 1.646 2.325 1.526 0 1.636-.998 1.636-2.325 0-1.325-.11-2.323-1.636-2.323m0 5.376c-2.014 0-2.47-1.257-2.47-3.053 0-1.794.456-3.05 2.47-3.05 2.014 0 2.46 1.256 2.46 3.05 0 1.796-.446 3.053-2.46 3.053M135.866 158.465c0-1.161-.177-2.323-1.592-2.323-.756 0-1.18.13-1.636.376v3.894c.457.248.88.376 1.636.376 1.415 0 1.592-1.161 1.592-2.323m-3.228 2.571v3.297h-.824v-8.802h.457l.179.481c.611-.387 1.19-.597 1.824-.597 1.893 0 2.404 1.361 2.404 3.05 0 1.69-.511 3.051-2.404 3.051a3.043 3.043 0 0 1-1.636-.48M145.004 157.14c0-.763-.445-.999-1.112-.999-.724 0-1.125.14-1.592.389.043.186.066.386.066.61v4.26h-.824v-4.26c0-.763-.444-.999-1.112-.999-.68 0-1.069.118-1.526.354v4.904h-.824v-5.867h.457l.18.48c.567-.41 1.178-.598 1.713-.598.79 0 1.335.223 1.646.67.601-.422 1.225-.67 1.816-.67 1.256 0 1.936.587 1.936 1.76v4.225h-.824v-4.26zM148.01 158.172h3.048c0-1.045-.067-2.031-1.413-2.031-1.358 0-1.602.974-1.636 2.031m1.636-2.757c1.993 0 2.237 1.36 2.237 3.051v.376h-3.873c.044 1.02.311 1.947 1.636 1.947.846 0 1.37-.082 1.937-.328v.704c-.657.294-1.358.352-1.937.352-1.98 0-2.46-1.36-2.46-3.051 0-1.69.48-3.05 2.46-3.05M156.847 157.14c0-.763-.445-.999-1.18-.999-.757 0-1.147.13-1.581.376v4.882h-.822v-5.867h.455l.179.492c.555-.41 1.146-.61 1.77-.61 1.402 0 2.003.634 2.003 1.76v4.225h-.824v-4.26zM162.178 161.47a2.663 2.663 0 0 1-.534.047c-.968 0-1.87-.446-1.87-1.596v-3.743h-1.18v-.365l1.18-.34v-1.585l.812-.235v1.878h1.826v.647h-1.826v3.648c0 .716.39 1.01 1.135 1.01.146 0 .3-.012.457-.024v.657z"/>
    </g>
</svg>
