<?xml version="1.0" encoding="UTF-8" standalone="no"?><!DOCTYPE svg PUBLIC "-//W3C//DTD SVG 1.1//EN" "http://www.w3.org/Graphics/SVG/1.1/DTD/svg11.dtd"><svg width="100%" height="100%" viewBox="0 0 180 180" version="1.1" xmlns="http://www.w3.org/2000/svg" xmlns:xlink="http://www.w3.org/1999/xlink" xml:space="preserve" xmlns:serif="http://www.serif.com/" style="fill-rule:evenodd;clip-rule:evenodd;stroke-linejoin:round;stroke-miterlimit:2;"><g><path d="M13.252,21.706l0,6.337l0.053,0l4.26,-4.42l0.054,0l0,27.645l6.072,0l0,-36.115l-4.849,0l-5.59,6.553Zm24.874,4.901c-2.397,0 -4.152,0.85 -5.114,2.502l-0.054,0l0,-9.002l10.442,0l0,-4.953l-15.98,0l0,20.349l5.538,0l0,-0.803c0,-2.128 0.96,-3.3 2.664,-3.3c1.865,0 2.611,1.28 2.611,3.25l0,8.735c0,1.915 -0.692,3.248 -2.558,3.248c-2.076,0 -2.819,-1.385 -2.819,-3.515l0,-4.527l-5.543,0l0,4.103c0,5.485 2.185,9 8.362,9c6.126,0 8.628,-3.25 8.628,-8.256l0,-8.843c0,-5.7 -2.927,-7.99 -6.177,-7.99m37.094,94.661c0.217,0 0.393,0.178 0.393,0.396l0,13.043c0,0.001 0,0.002 0,0.003c0,0.216 -0.178,0.394 -0.394,0.394c0,0 0,0 0,0l-5.277,0c-0.001,0 -0.002,0 -0.003,0c-0.217,0 -0.396,-0.179 -0.396,-0.396c0,0 0,-0.001 0,-0.001l0,-13.043c0,-0.218 0.178,-0.396 0.399,-0.396l5.278,0Zm57.96,19.435l-86.976,0c-0.221,0.004 -0.4,0.187 -0.399,0.408l0,5.318c0,0.216 0.181,0.39 0.4,0.39l86.977,0c0.216,0.001 0.395,-0.174 0.399,-0.39l0,-5.318c-0.001,-0.22 -0.18,-0.403 -0.4,-0.408m-0.001,10.566l-86.976,0c-0.217,-0.001 -0.396,0.175 -0.399,0.392l0,5.332c0,0.212 0.181,0.393 0.4,0.393l86.977,0c0.216,-0.002 0.394,-0.177 0.399,-0.393l0,-5.332c-0.004,-0.216 -0.184,-0.392 -0.4,-0.392m-16.551,-44.437c-1.088,-0.851 -3.987,-2.835 -7.525,-2.835c-2.527,0 -4.88,0.994 -6.984,2.966c-0.149,0.142 -0.233,0.341 -0.232,0.547l0,0.474c0,0.234 0.076,0.45 0.246,0.594c0.19,0.142 0.389,0.197 0.614,0.142c0.227,-0.041 0.435,-0.152 0.597,-0.316c0.457,-0.307 1.703,-0.726 3.485,-0.726c1.842,0 5.462,0.494 8.962,3.756l0.08,0.074c0.408,0.41 1.081,0.413 1.493,0.007l0.07,-0.074c3.519,-3.269 7.134,-3.763 8.975,-3.763c1.795,0 3.035,0.419 3.492,0.726c0.125,0.123 0.28,0.222 0.482,0.294c0.077,0.022 0.298,0.068 0.51,0.017c0.322,-0.09 0.546,-0.385 0.546,-0.719l0,-0.418c0,-0.198 -0.086,-0.4 -0.234,-0.54c-2.123,-2.024 -4.5,-3.047 -7.068,-3.047c-3.506,0 -6.391,1.955 -7.509,2.84m-5.398,-34.665c-0.186,0.091 -0.324,0.257 -0.38,0.456l-0.088,0.292c-0.065,0.223 -0.023,0.465 0.115,0.652c0.126,0.173 0.323,0.281 0.537,0.294c0.04,0.005 0.08,0.014 0.11,0.005c0.147,-0.003 0.291,-0.039 0.421,-0.107c0.076,-0.016 0.237,-0.06 0.525,-0.06c0.39,0 3.896,0.118 6.214,4.06l0.03,0.056c0.116,0.219 0.318,0.38 0.557,0.444c0.237,0.075 0.495,0.051 0.715,-0.065l0.059,-0.028c1.268,-0.634 2.581,-0.96 3.88,-0.96c2.196,0 3.63,0.897 3.966,1.271c0.069,0.125 0.172,0.236 0.292,0.323c0.074,0.043 0.204,0.108 0.283,0.136c0.038,0.01 0.084,0.016 0.128,0.02c0.023,0.003 0.051,0.003 0.077,0.003c0.12,0 0.232,-0.028 0.345,-0.086c0.18,-0.09 0.313,-0.252 0.369,-0.445l0.074,-0.257c0.021,-0.068 0.031,-0.139 0.03,-0.21c0.002,-0.132 -0.033,-0.262 -0.1,-0.375c-1.691,-2.933 -4.14,-3.546 -5.902,-3.546c-1.309,0 -2.455,0.339 -3.13,0.587c-0.796,-1.072 -2.811,-3.286 -5.866,-3.286c-1.073,0 -2.168,0.276 -3.261,0.826m-18.379,13.381l0.027,0.391c0.011,0.241 0.141,0.461 0.346,0.586c0.174,0.111 0.386,0.144 0.585,0.09c0.198,-0.05 0.374,-0.161 0.504,-0.318c0.37,-0.268 1.56,-0.755 3.316,-0.755c1.69,0 4.26,0.452 6.879,2.603l0.06,0.061c0.187,0.162 0.426,0.254 0.67,0.254l0.064,0c0.274,-0.022 0.529,-0.148 0.684,-0.33l0.058,-0.064c2.9,-3.068 6.022,-3.525 7.625,-3.525c1.142,0 1.952,0.237 2.268,0.414c0.118,0.104 0.267,0.185 0.452,0.236c0.053,0.012 0.18,0.035 0.318,0.021c0.062,-0.01 0.123,-0.024 0.183,-0.044c0.314,-0.11 0.517,-0.418 0.494,-0.749l-0.02,-0.339c-0.014,-0.201 -0.109,-0.387 -0.262,-0.518c-1.73,-1.455 -3.599,-2.188 -5.563,-2.188c-3.06,0 -5.5,1.806 -6.511,2.692c-0.925,-0.63 -3.17,-1.926 -5.803,-1.926c-2.314,0 -4.39,0.961 -6.172,2.85c-0.139,0.152 -0.212,0.353 -0.202,0.558m-44.013,6.983c0,-5.209 4.22,-9.43 9.427,-9.43c0.206,0 0.404,0.017 0.605,0.03c0.497,-6.592 5.989,-11.79 12.709,-11.79c7.047,0 12.76,5.711 12.76,12.758c0,1.996 -0.473,3.877 -1.29,5.558c6.384,1.415 11.164,7.102 11.164,13.912c0,7.874 -6.382,14.257 -14.257,14.257c-0.575,0 -19.027,-0.11 -19.027,-0.11c-5.577,-0.003 -10.095,-4.52 -10.095,-10.095c0,-2.682 1.049,-5.105 2.75,-6.913c-2.833,-1.628 -4.747,-4.675 -4.747,-8.177m8.535,-77.368l2.46,0l0,12.63l2.937,0l0,2.007l-5.397,0l0,-14.637Zm6.736,14.635l2.46,0l0,-14.635l-2.46,0l0,14.635Zm4.319,-14.635l5.764,0l0,2.01l-3.304,0l0,4.185l2.462,0l0,1.986l-2.462,0l0,6.455l-2.46,0l0,-14.636Zm7.039,0l5.873,0l0,2.01l-3.413,0l0,4.185l2.44,0l0,1.986l-2.44,0l0,4.448l3.413,0l0,2.007l-5.873,0l0,-14.636Zm-13.125,32.754l0,-7.857c0,-0.884 -0.387,-1.511 -1.275,-1.511c-0.862,0 -1.25,0.627 -1.25,1.51l0,7.858c0,0.886 0.388,1.51 1.25,1.51c0.888,0 1.275,-0.624 1.275,-1.51m-4.986,-0.388l0,-7.08c0,-2.289 1.123,-3.951 3.711,-3.951c2.614,0 3.735,1.662 3.735,3.95l0,7.08c0,2.267 -1.121,3.951 -3.735,3.951c-2.588,0 -3.711,-1.684 -3.711,-3.95m10.881,-5.419l0,9.196l-2.071,0l0,-14.635l2.418,0l2.655,8.397l0,-8.397l2.049,0l0,14.635l-2.158,0l-2.893,-9.196Zm10.365,-5.439l2.46,0l0,12.628l2.937,0l0,2.007l-5.397,0l0,-14.635Zm9.155,9.994l1.964,0l-0.971,-5.872l-0.022,0l-0.971,5.872Zm-3.086,4.64l2.762,-14.634l2.807,0l2.785,14.635l-2.526,0l-0.453,-2.677l-2.612,0l-0.43,2.677l-2.332,0l-0.001,-0.001Zm11.421,-9.195l0,9.196l-2.073,0l0,-14.635l2.418,0l2.655,8.397l0,-8.397l2.05,0l0,14.635l-2.157,0l-2.893,-9.196Zm10.125,7.188c1.014,0 1.405,-0.604 1.405,-1.488l0,-7.664c0,-0.863 -0.39,-1.467 -1.405,-1.467l-1.036,0l0,10.62l1.036,0l0,-0.001Zm3.865,-8.699l0,6.778c0,2.245 -0.928,3.93 -3.562,3.93l-3.8,0l0,-14.637l3.8,0c2.634,0 3.562,1.662 3.562,3.93l0,-0.001Z" style="fill:#fff;"/></g></svg>