<?xml version="1.0" encoding="UTF-8" standalone="no"?><!DOCTYPE svg PUBLIC "-//W3C//DTD SVG 1.1//EN" "http://www.w3.org/Graphics/SVG/1.1/DTD/svg11.dtd"><svg width="100%" height="100%" viewBox="0 0 180 180" version="1.1" xmlns="http://www.w3.org/2000/svg" xmlns:xlink="http://www.w3.org/1999/xlink" xml:space="preserve" xmlns:serif="http://www.serif.com/" style="fill-rule:evenodd;clip-rule:evenodd;stroke-linejoin:round;stroke-miterlimit:2;"><g><path d="M26.924,15.172l0,36.113l-6.097,0l0,-27.645l-0.054,0l-4.28,4.422l-0.051,0l0,-6.34l5.615,-6.55l4.867,0Zm2.781,0l15.3,0l0,5.593l-7.971,30.52l-6.046,0l8.13,-31.161l-9.413,0l0,-4.952Zm77.215,95.173c4.614,-4.263 7.51,-10.347 7.51,-17.095c0,-1.01 -0.074,-2.005 -0.197,-2.982c9.375,1 16.704,8.922 16.704,18.524c0,5.454 -2.38,10.352 -6.146,13.765c-3.526,-6.581 -10.12,-11.284 -17.871,-12.212m15.903,23.157c0,10.27 -8.393,18.63 -18.711,18.63c-3.358,0 -6.498,-0.899 -9.226,-2.445c3.981,-4.183 6.434,-9.83 6.434,-16.03c0,-1.528 -0.153,-3.02 -0.436,-4.464c3.472,1.923 7.377,2.93 11.346,2.926c3.538,0.003 7.031,-0.797 10.214,-2.341c0.249,1.205 0.38,2.45 0.38,3.724m-63.64,0.154c0,-1.323 0.142,-2.615 0.408,-3.86c3.176,1.533 6.659,2.327 10.186,2.323c4.101,0 7.955,-1.058 11.312,-2.907c-0.268,1.414 -0.404,2.851 -0.406,4.29c0,6.301 2.53,12.023 6.623,16.225c-2.855,1.673 -6.104,2.556 -9.413,2.557c-10.318,0 -18.71,-8.356 -18.71,-18.628m-8.116,-24.864c0,-9.602 7.328,-17.523 16.703,-18.524c-0.128,0.989 -0.194,1.985 -0.195,2.982c0,6.818 2.955,12.964 7.653,17.232c-7.772,0.882 -14.398,5.557 -17.963,12.12c-3.792,-3.409 -6.198,-8.33 -6.198,-13.81m39.934,-34.173c7.666,0 14.26,4.616 17.151,11.203c-7.613,1.335 -13.966,6.338 -17.151,13.108c-3.184,-6.771 -9.538,-11.775 -17.15,-13.108c2.89,-6.587 9.484,-11.203 17.15,-11.203m4.454,42.38c2.671,-1.398 5.641,-2.129 8.656,-2.13c7.355,0 13.715,4.261 16.772,10.424c-2.67,1.399 -5.64,2.13 -8.654,2.13c-7.36,0 -13.72,-4.262 -16.774,-10.425m-8.968,0.127c-3.08,6.094 -9.402,10.298 -16.71,10.298c-2.992,-0.001 -5.94,-0.722 -8.594,-2.102c3.077,-6.094 9.404,-10.296 16.71,-10.296c3.1,0 6.017,0.764 8.594,2.1m-13.952,-26.741c9.01,1.335 15.953,9.067 15.953,18.408c0,0.973 -0.099,1.927 -0.245,2.862c-9.01,-1.335 -15.951,-9.067 -15.951,-18.404c0,-0.977 0.097,-1.93 0.243,-2.866m18.552,56.463c-3.502,-3.387 -5.687,-8.116 -5.687,-13.345c0,-5.151 2.114,-9.819 5.515,-13.194c3.5,3.386 5.687,8.115 5.687,13.348c0,5.15 -2.11,9.817 -5.515,13.19m18.623,-53.596c0,9.337 -6.938,17.069 -15.949,18.404c-0.156,-0.946 -0.237,-1.903 -0.244,-2.862c0,-9.34 6.941,-17.073 15.948,-18.407c0.147,0.935 0.245,1.888 0.245,2.865m25.943,15.542c0,-12.58 -10.048,-22.856 -22.565,-23.311c-3.219,-9.054 -11.905,-15.56 -22.087,-15.56c-10.182,0 -18.865,6.506 -22.089,15.56c-12.517,0.457 -22.56,10.733 -22.56,23.31c0,7.464 3.542,14.117 9.039,18.39c-0.613,2.104 -0.925,4.284 -0.926,6.475c0,12.86 10.51,23.325 23.428,23.325c4.902,0 9.455,-1.51 13.22,-4.084c3.848,2.567 8.372,3.935 12.998,3.93c12.918,0 23.426,-10.467 23.426,-23.325c0,-2.202 -0.314,-4.33 -0.887,-6.348c5.474,-4.274 9.003,-10.915 9.003,-18.362m-75.771,-91.618l0,5.764l0.91,0c0.846,0 1.215,-0.411 1.215,-1.21l0,-3.368c0,-0.8 -0.369,-1.186 -1.214,-1.186l-0.91,0l-0.001,0Zm-2.47,-2.009l3.663,0c2.494,0 3.402,1.232 3.402,3.283l0,3.086c0,2.05 -0.908,3.304 -3.402,3.304l-1.193,0l0,4.964l-2.47,0l0,-14.637Zm10.472,9.995l1.973,0l-0.976,-5.871l-0.021,0l-0.976,5.87l0,0.001Zm-3.099,4.64l2.774,-14.635l2.818,0l2.797,14.635l-2.537,0l-0.455,-2.676l-2.623,0l-0.432,2.676l-2.342,0Zm12.097,-12.626l0,4.555l0.824,0c0.845,0 1.214,-0.432 1.214,-1.21l0,-2.159c0,-0.8 -0.369,-1.186 -1.214,-1.186l-0.824,0Zm0,5.913l0,6.715l-2.471,0l0,-14.637l3.598,0c2.492,0 3.404,1.232 3.404,3.283l0,1.877c0,1.576 -0.564,2.504 -1.973,2.827l2.363,6.65l-2.603,0l-2.318,-6.715Zm5.4,-7.921l6.568,0l0,2.009l-2.036,0l0,12.625l-2.495,0l0,-12.625l-2.038,0l0.001,-2.009Zm10.213,5.439l0,9.197l-2.083,0l0,-14.636l2.429,0l2.666,8.397l0,-8.397l2.06,0l0,14.636l-2.17,0l-2.902,-9.197Zm7.112,-5.439l5.895,0l0,2.009l-3.425,0l0,4.186l2.451,0l0,1.985l-2.45,0l0,4.448l3.424,0l0,2.007l-5.895,0l0,-14.635Zm9.907,2.008l0,4.555l0.824,0c0.845,0 1.214,-0.432 1.214,-1.21l0,-2.159c0,-0.8 -0.369,-1.186 -1.214,-1.186l-0.824,0Zm0,5.913l0,6.715l-2.47,0l0,-14.637l3.598,0c2.493,0 3.404,1.232 3.404,3.283l0,1.877c0,1.576 -0.563,2.504 -1.973,2.827l2.363,6.65l-2.601,0l-2.321,-6.715Zm5.768,3.563l0,-1.964l2.298,0l0,2.006c0,0.821 0.369,1.296 1.216,1.296c0.778,0 1.126,-0.519 1.126,-1.296l0,-0.56c0,-0.842 -0.348,-1.36 -1.105,-2.072l-1.452,-1.446c-1.41,-1.382 -2.06,-2.225 -2.06,-3.907l0,-0.497c0,-1.814 1.061,-3.216 3.468,-3.216c2.47,0 3.447,1.209 3.447,3.325l0,1.186l-2.254,0l0,-1.274c0,-0.842 -0.392,-1.251 -1.17,-1.251c-0.695,0 -1.172,0.388 -1.172,1.209l0,0.3c0,0.823 0.456,1.295 1.172,1.988l1.581,1.553c1.345,1.36 1.994,2.181 1.994,3.8l0,0.711c0,2.009 -1.083,3.432 -3.598,3.432c-2.515,0 -3.49,-1.402 -3.49,-3.323m13.464,-3.303l-2.384,0l0,6.455l-2.47,0l0,-14.636l2.47,0l0,6.195l2.384,0l0,-6.195l2.494,0l0,14.636l-2.494,0l0,-6.455Zm4.122,6.453l2.47,0l0,-14.634l-2.47,0l0,14.634Zm6.59,-12.626l0,5.764l0.912,0c0.845,0 1.214,-0.411 1.214,-1.21l0,-3.368c0,-0.8 -0.369,-1.186 -1.214,-1.186l-0.913,0l0.001,0Zm-2.471,-2.009l3.665,0c2.492,0 3.402,1.232 3.402,3.283l0,3.086c0,2.05 -0.91,3.304 -3.402,3.304l-1.195,0l0,4.964l-2.47,0l0,-14.637Zm8.023,11.485l0,-1.964l2.298,0l0,2.006c0,0.821 0.369,1.296 1.216,1.296c0.778,0 1.126,-0.519 1.126,-1.296l0,-0.56c0,-0.842 -0.348,-1.36 -1.107,-2.072l-1.452,-1.446c-1.408,-1.382 -2.058,-2.225 -2.058,-3.907l0,-0.497c0,-1.814 1.06,-3.216 3.468,-3.216c2.47,0 3.446,1.209 3.446,3.325l0,1.186l-2.253,0l0,-1.274c0,-0.842 -0.392,-1.251 -1.17,-1.251c-0.696,0 -1.172,0.388 -1.172,1.209l0,0.3c0,0.823 0.455,1.295 1.172,1.988l1.58,1.553c1.346,1.36 1.995,2.181 1.995,3.8l0,0.711c0,2.009 -1.085,3.432 -3.598,3.432c-2.515,0 -3.49,-1.402 -3.49,-3.323m-87.601,9.78l5.788,0l0,2.008l-3.318,0l0,4.186l2.473,0l0,1.986l-2.473,0l0,6.455l-2.47,0l0,-14.635Zm11.643,11.246l0,-7.857c0,-0.884 -0.39,-1.512 -1.28,-1.512c-0.866,0 -1.256,0.628 -1.256,1.512l0,7.857c0,0.885 0.39,1.511 1.257,1.511c0.89,0 1.28,-0.626 1.28,-1.511m-5.007,-0.389l0,-7.08c0,-2.288 1.125,-3.95 3.727,-3.95c2.622,0 3.75,1.662 3.75,3.95l0,7.08c0,2.267 -1.128,3.95 -3.75,3.95c-2.602,0 -3.727,-1.683 -3.727,-3.95m11.576,-8.85l0,4.555l0.824,0c0.845,0 1.214,-0.432 1.214,-1.209l0,-2.16c0,-0.799 -0.369,-1.186 -1.214,-1.186l-0.824,0Zm0,5.914l0,6.715l-2.47,0l0,-14.637l3.598,0c2.491,0 3.404,1.232 3.404,3.283l0,1.876c0,1.577 -0.565,2.505 -1.973,2.828l2.363,6.65l-2.603,0l-2.319,-6.715Zm8.415,-7.921l6.567,0l0,2.008l-2.036,0l0,12.627l-2.494,0l0,-12.627l-2.037,0l0,-2.008Zm12.596,8.18l-2.386,0l0,6.455l-2.47,0l0,-14.635l2.47,0l0,6.194l2.386,0l0,-6.194l2.492,0l0,14.635l-2.492,0l0,-6.455Zm4.12,-8.18l5.897,0l0,2.008l-3.427,0l0,4.186l2.451,0l0,1.986l-2.45,0l0,4.448l3.426,0l0,2.007l-5.897,0l0,-14.635Zm13.79,6.821l3.513,0l0,7.813l-1.778,0l0,-1.597c-0.325,1.102 -1.019,1.77 -2.363,1.77c-2.125,0 -3.101,-1.682 -3.101,-3.95l0,-7.08c0,-2.287 1.106,-3.95 3.708,-3.95c2.731,0 3.534,1.51 3.534,3.67l0,1.295l-2.255,0l0,-1.49c0,-0.907 -0.348,-1.424 -1.235,-1.424c-0.89,0 -1.281,0.626 -1.281,1.511l0,7.857c0,0.886 0.368,1.512 1.215,1.512c0.802,0 1.215,-0.456 1.215,-1.404l0,-2.59l-1.172,0l0,-1.944l0,0.001Zm9.91,4.425l0,-7.857c0,-0.884 -0.39,-1.512 -1.28,-1.512c-0.866,0 -1.258,0.628 -1.258,1.512l0,7.857c0,0.885 0.392,1.511 1.258,1.511c0.89,0 1.28,-0.626 1.28,-1.511m-5.009,-0.389l0,-7.08c0,-2.288 1.128,-3.95 3.73,-3.95c2.621,0 3.75,1.662 3.75,3.95l0,7.08c0,2.267 -1.129,3.95 -3.75,3.95c-2.602,0 -3.73,-1.683 -3.73,-3.95m11.275,-0.863l1.973,0l-0.976,-5.872l-0.02,0l-0.977,5.872Zm-3.098,4.64l2.774,-14.634l2.816,0l2.797,14.635l-2.536,0l-0.455,-2.677l-2.622,0l-0.434,2.677l-2.34,0l0,-0.001Zm9.602,-14.634l2.47,0l0,12.628l2.95,0l0,2.007l-5.42,0l0,-14.635Zm6.311,11.484l0,-1.965l2.297,0l0,2.007c0,0.82 0.37,1.295 1.215,1.295c0.78,0 1.127,-0.518 1.127,-1.295l0,-0.56c0,-0.842 -0.347,-1.36 -1.106,-2.072l-1.453,-1.447c-1.408,-1.381 -2.06,-2.224 -2.06,-3.906l0,-0.498c0,-1.813 1.063,-3.216 3.47,-3.216c2.47,0 3.447,1.21 3.447,3.325l0,1.187l-2.255,0l0,-1.274c0,-0.842 -0.39,-1.252 -1.17,-1.252c-0.694,0 -1.17,0.389 -1.17,1.21l0,0.3c0,0.822 0.455,1.295 1.17,1.987l1.58,1.554c1.347,1.36 1.997,2.18 1.997,3.8l0,0.71c0,2.01 -1.086,3.433 -3.599,3.433c-2.514,0 -3.49,-1.402 -3.49,-3.323" style="fill:#fff;"/></g></svg>