<?xml version="1.0" encoding="UTF-8" standalone="no"?><!DOCTYPE svg PUBLIC "-//W3C//DTD SVG 1.1//EN" "http://www.w3.org/Graphics/SVG/1.1/DTD/svg11.dtd"><svg width="100%" height="100%" viewBox="0 0 180 180" version="1.1" xmlns="http://www.w3.org/2000/svg" xmlns:xlink="http://www.w3.org/1999/xlink" xml:space="preserve" xmlns:serif="http://www.serif.com/" style="fill-rule:evenodd;clip-rule:evenodd;stroke-linejoin:round;stroke-miterlimit:2;"><g><path d="M25.275,23.608l0.052,0l0,27.646l6.073,0l0,-36.114l-4.848,0l-5.592,6.551l0,6.337l0.054,0l4.261,-4.42Zm121.01,66.858c2.716,-0.003 4.95,-2.239 4.95,-4.955c0,-0.002 0,-0.003 0,-0.005c0,-0.002 0,-0.004 0,-0.006c0,-2.716 -2.234,-4.952 -4.95,-4.954c-2.722,-0.001 -4.962,2.238 -4.963,4.96c0.001,2.722 2.241,4.961 4.963,4.96m5.788,1.912c-0.118,-0.014 -0.236,-0.03 -0.378,-0.03l-10.836,0c-0.133,0 -0.253,0.016 -0.364,0.03c-3.386,0.31 -6.009,3.185 -6.008,6.586l0,13.744c0,0 0,0.001 0,0.001c0,1.053 0.866,1.919 1.919,1.92c1.054,0 1.922,-0.866 1.924,-1.92l0,-11.805c0,-0.442 0.123,-1.043 0.937,-1.043c0.555,0 0.677,0.594 0.694,0.971l0,35.384c0.04,1.487 1.274,2.688 2.761,2.688c1.487,0 2.721,-1.201 2.761,-2.688l0,-20.392c0.008,-0.223 0.095,-0.808 0.8,-0.808l0.001,0c0.701,0 0.777,0.585 0.784,0.808l0,20.392c0,1.52 1.239,2.761 2.77,2.761c1.513,-0.001 2.758,-1.247 2.758,-2.76l0,-35.385c0.021,-0.377 0.137,-0.971 0.696,-0.971c0.81,0 0.939,0.6 0.939,1.043l0,11.804c0.024,1.038 0.884,1.878 1.922,1.878c1.037,0 1.897,-0.84 1.921,-1.878l0,-13.744c0.003,-3.399 -2.617,-6.274 -6.001,-6.586m-44.928,0.43l0,0c2.574,0 4.692,-2.118 4.692,-4.692c0,-0.001 0,-0.003 0,-0.004c0,-0.002 0,-0.004 0,-0.006c0,-2.575 -2.117,-4.694 -4.692,-4.697c-2.552,0.037 -4.631,2.147 -4.631,4.699c0,2.553 2.079,4.663 4.631,4.7m5.586,8.621c0.614,-0.178 0.786,0.64 0.786,0.64l3.145,10.603c0,0 0.6,2.274 2.563,1.693c1.98,-0.582 1.28,-2.91 1.28,-2.91l-3.902,-12.708c0,0 -1.396,-3.674 -4.483,-3.674l-9.95,0c-3.09,0 -4.487,3.674 -4.487,3.674l-3.903,12.708c0,0 -0.696,2.328 1.28,2.91c1.966,0.581 2.564,-1.693 2.564,-1.693l3.147,-10.603c0,0 0.17,-0.818 0.784,-0.64c0.615,0.176 0.383,1.05 0.383,1.05l-5.478,19.871l5.095,0l0,14.234c0.002,1.343 1.107,2.446 2.45,2.445c1.349,0 2.44,-1.097 2.44,-2.445l0,-14.234l1.392,0l0,14.234c0,1.342 1.105,2.447 2.447,2.447c1.342,0 2.447,-1.105 2.447,-2.447l0,-14.234l5.093,0l-5.474,-19.872c0,0 -0.23,-0.873 0.381,-1.049m-33.711,-8.621c0,0 0.001,0 0.001,0c2.575,0 4.693,-2.118 4.693,-4.693c0,-0.001 0,-0.002 0,-0.003c0,-2.596 -2.1,-4.703 -4.694,-4.703c-2.576,0.002 -4.695,2.123 -4.695,4.699c0,0.001 0,0.003 0,0.004c0,2.594 2.1,4.696 4.695,4.696m9.457,5.94c0,0 -1.392,-3.675 -4.482,-3.675l-9.95,0c-3.087,0 -4.486,3.675 -4.486,3.675l-3.901,12.707c0,0 -0.1,0.336 -0.116,0.784c-0.263,-0.356 -0.68,-0.566 -1.122,-0.566c-0.486,0 -0.938,0.254 -1.191,0.669l-0.016,-0.007c-0.114,0.099 -1.938,3.346 -2.541,3.95c-0.636,0.64 -1.206,0.568 -1.206,0.568l-4.736,0c0,0 -0.574,0.073 -1.207,-0.569c-0.61,-0.603 -2.427,-3.85 -2.543,-3.949l-0.012,0.007c-0.262,-0.413 -0.718,-0.665 -1.207,-0.667c-0.482,0 -0.89,0.258 -1.148,0.625l0,-13.336c0.002,-3.401 -2.62,-6.276 -6.006,-6.587c-0.113,-0.014 -0.23,-0.03 -0.364,-0.03l-10.837,0c-0.143,0 -0.262,0.016 -0.378,0.03c-3.386,0.312 -6.006,3.187 -6.004,6.587l0,13.744c0,0.736 0.422,1.37 1.034,1.694c-0.027,0.054 -0.056,0.107 -0.069,0.17l-4.404,23.34c-0.005,0.036 -0.008,0.073 -0.008,0.109c0,0.399 0.328,0.728 0.728,0.728c0.339,0 0.635,-0.237 0.71,-0.568l4.403,-23.34c0.016,-0.091 0.015,-0.185 -0.004,-0.276c0.851,-0.212 1.454,-0.98 1.457,-1.857l0,-11.804c0,-0.443 0.127,-1.044 0.937,-1.044c0.559,0 0.675,0.594 0.7,0.972l0,35.384c0,1.514 1.246,2.76 2.76,2.76c1.514,0 2.76,-1.246 2.76,-2.76l0,-20.39c0.011,-0.226 0.085,-0.81 0.788,-0.81l0.002,0c0.705,0 0.79,0.584 0.796,0.81l0,20.39c0.028,1.495 1.266,2.709 2.761,2.709c1.496,0 2.734,-1.214 2.762,-2.709l0,-35.384c0.016,-0.378 0.143,-0.972 0.696,-0.972c0.814,0 0.937,0.601 0.937,1.044l0,11.804c0,1.058 0.861,1.922 1.922,1.922c0.765,0 1.419,-0.451 1.728,-1.096c0.03,0.105 0.056,0.186 0.056,0.186l3.94,7.131c0,0 0.243,0.49 0.243,0.94l0,1.403l-2.08,7.634l2.08,0l0,6.275l0.007,0c0,1.069 0.862,1.926 1.927,1.926c1.064,0 1.921,-0.857 1.921,-1.926l0,-6.043c0,0 -0.01,-0.102 0,-0.232l1.162,0c0.01,0.13 0,0.232 0,0.232l0,6.043c0,1.069 0.864,1.926 1.928,1.926c1.063,0 1.93,-0.857 1.93,-1.926l0,-6.275l2.083,0l-2.084,-7.678l0,-1.358c0,-0.45 0.24,-0.94 0.24,-0.94l3.64,-6.584c0,0 0.234,-0.495 0.362,-0.855c0.199,0.404 0.536,0.768 1.162,0.952c1.965,0.582 2.562,-1.692 2.562,-1.692l3.148,-10.606c0,0 0.17,-0.815 0.783,-0.638c0.615,0.176 0.383,1.048 0.383,1.048l-5.477,19.873l5.094,0l0,14.235c0.003,1.341 1.107,2.443 2.448,2.444c0,0 0.001,0 0.001,0c1.341,0 2.444,-1.103 2.444,-2.444l0,-14.235l1.392,0l0,14.235c0,0.001 0,0.001 0,0.002c0,1.34 1.102,2.442 2.442,2.442l0.004,0c1.341,0 2.444,-1.103 2.444,-2.444l0,-14.235l5.095,0l-5.473,-19.873c0,0 -0.232,-0.872 0.378,-1.048c0.613,-0.177 0.787,0.638 0.787,0.638l3.144,10.606c0,0 0.6,2.274 2.564,1.692c1.979,-0.582 1.28,-2.91 1.28,-2.91l-3.903,-12.707Zm39.129,15.642c0.001,0 0.001,0 0.002,0c2.142,0 3.905,-1.763 3.905,-3.905c0,-0.002 0,-0.004 0,-0.006c0,-0.002 0,-0.003 0,-0.005c0,-2.139 -1.761,-3.9 -3.9,-3.9c-0.002,0 -0.005,0 -0.007,0c-0.002,0 -0.005,0 -0.007,0c-2.14,0 -3.901,1.761 -3.901,3.901c0,0.001 0,0.003 0,0.004c0,0.002 0,0.003 0,0.005c0,2.143 1.763,3.906 3.906,3.906c0.001,0 0.001,0 0.002,0m9.264,11.114c-0.048,-0.151 -2.489,-6.137 -2.777,-6.977c-0.88,-2.572 -2.485,-2.551 -4.03,-2.593c-1.546,-0.037 -2.47,0 -2.47,0c0,0 -0.986,-0.04 -3.026,0.02c-2.037,0.064 -2.68,1.108 -4.926,6.888c-0.32,0.833 -1.406,3.525 -1.42,3.686l0.014,0.004c-0.192,0.459 -0.348,1.427 0.57,1.849c1.075,0.494 1.676,-0.545 1.676,-0.545l2.124,-6.775c0,0 0.368,-0.455 0.368,0.014l0,15.952l0.01,0c0,1.109 0.893,2.005 2.005,2.005c0.001,0 0.001,0 0.002,0c1.098,0 2.002,-0.904 2.002,-2.002c0,-0.001 0,-0.002 0,-0.003l0,-6.297c0,0 -0.114,-0.889 0.6,-0.889c0.72,0 0.609,0.89 0.609,0.89l0,6.296c0,1.102 0.907,2.008 2.009,2.008c1.101,0 2.008,-0.906 2.008,-2.008l0,-15.952c0,-0.469 0.248,-0.133 0.248,-0.133l1.666,4.64c0,0 0.724,2.073 0.945,2.164c0.18,0.075 0.373,0.113 0.568,0.113c0.598,0 1.14,-0.362 1.369,-0.914c0.201,-0.47 0.141,-1.012 -0.158,-1.427l0.014,-0.014Zm-100.054,-35.038c2.721,0 4.961,-2.239 4.963,-4.96c-0.002,-2.721 -2.242,-4.96 -4.963,-4.96c-2.717,0.002 -4.952,2.238 -4.952,4.955c0,0.002 0,0.003 0,0.005c0,0.001 0,0.003 0,0.004c0,2.717 2.235,4.954 4.952,4.956" style="fill:#fff;"/><path d="M57.095,114.39c0.001,0 0.001,0 0.002,0c2.142,0 3.905,-1.763 3.905,-3.905c0,-0.002 0,-0.004 0,-0.006c0,-0.002 0,-0.003 0,-0.005c0,-2.139 -1.761,-3.9 -3.9,-3.9c-0.002,0 -0.005,0 -0.007,0c-0.002,0 -0.004,0 -0.006,0c-2.139,0 -3.9,1.761 -3.9,3.9c0,0.002 0,0.003 0,0.005c0,0.002 0,0.004 0,0.006c0,2.142 1.763,3.905 3.905,3.905c0,0 0.001,0 0.001,0m-3.243,-94.07l0,9.195l-2.074,0l0,-14.633l2.42,0l2.654,8.395l0,-8.395l2.05,0l0,14.633l-2.158,0l-2.892,-9.195Zm11.658,5.808l0,-7.86c0,-0.883 -0.388,-1.509 -1.274,-1.509c-0.863,0 -1.251,0.626 -1.251,1.51l0,7.859c0,0.885 0.388,1.51 1.251,1.51c0.886,0 1.274,-0.625 1.274,-1.51m-4.987,-0.39l0,-7.08c0,-2.289 1.123,-3.95 3.713,-3.95c2.612,0 3.735,1.661 3.735,3.95l0,7.08c0,2.268 -1.123,3.952 -3.735,3.952c-2.59,0 -3.713,-1.684 -3.713,-3.953m-6.283,12.81l0,5.764l0.908,0c0.84,0 1.208,-0.41 1.208,-1.21l0,-3.366c0,-0.8 -0.368,-1.188 -1.208,-1.188l-0.908,0Zm-2.46,-2.007l3.648,0c2.483,0 3.39,1.23 3.39,3.28l0,3.088c0,2.05 -0.907,3.303 -3.39,3.303l-1.188,0l0,4.964l-2.46,0l0,-14.635Zm13.515,11.246l0,-7.859c0,-0.884 -0.388,-1.51 -1.274,-1.51c-0.863,0 -1.251,0.626 -1.251,1.51l0,7.86c0,0.885 0.388,1.509 1.251,1.509c0.886,0 1.274,-0.624 1.274,-1.51m-4.987,-0.39l0,-7.08c0,-2.288 1.123,-3.949 3.713,-3.949c2.612,0 3.734,1.66 3.734,3.949l0,7.08c0,2.267 -1.122,3.952 -3.734,3.952c-2.59,0 -3.713,-1.685 -3.713,-3.952m16.517,-10.856l-2.786,14.633l-2.674,0l-2.786,-14.633l2.504,0l1.684,10.21l0.021,0l1.727,-10.21l2.31,0Zm1.232,0l5.871,0l0,2.007l-3.41,0l0,4.188l2.44,0l0,1.985l-2.44,0l0,4.448l3.41,0l0,2.005l-5.871,0l0,-14.633Zm9.867,2.007l0,4.555l0.821,0c0.842,0 1.21,-0.433 1.21,-1.21l0,-2.157c0,-0.8 -0.368,-1.188 -1.21,-1.188l-0.82,0l-0.001,0Zm0,5.915l0,6.713l-2.46,0l0,-14.635l3.583,0c2.483,0 3.389,1.23 3.389,3.28l0,1.878c0,1.576 -0.561,2.504 -1.963,2.827l2.353,6.65l-2.592,0l-2.31,-6.713Zm5.572,-7.922l6.541,0l0,2.007l-2.03,0l0,12.626l-2.481,0l0,-12.626l-2.03,0l0,-2.007Zm12.694,9.066l0,5.569l-2.46,0l0,-5.57l-2.741,-9.065l2.567,0l1.49,5.546l0.023,0l1.489,-5.546l2.353,0l-2.721,9.066Z" style="fill:#fff;"/></g></svg>