<?xml version="1.0" encoding="UTF-8" standalone="no"?><!DOCTYPE svg PUBLIC "-//W3C//DTD SVG 1.1//EN" "http://www.w3.org/Graphics/SVG/1.1/DTD/svg11.dtd"><svg width="100%" height="100%" viewBox="0 0 180 180" version="1.1" xmlns="http://www.w3.org/2000/svg" xmlns:xlink="http://www.w3.org/1999/xlink" xml:space="preserve" xmlns:serif="http://www.serif.com/" style="fill-rule:evenodd;clip-rule:evenodd;stroke-linejoin:round;stroke-miterlimit:2;"><g><path d="M13.392,21.773l0,6.363l0.05,0l4.238,-4.44l0.053,0l0,27.764l6.04,0l0,-36.268l-4.823,0l-5.558,6.581Zm13.77,0l0,6.363l0.053,0l4.24,-4.44l0.05,0l0,27.764l6.041,0l0,-36.268l-4.82,0l-5.564,6.581Zm2.847,115.279l26.792,0c0.363,-0.003 0.66,-0.302 0.659,-0.665c-0.002,-0.163 -0.063,-0.321 -0.173,-0.442l-0.037,-0.038l-13.33,-17.416l-0.131,-0.145c-0.124,-0.137 -0.3,-0.215 -0.484,-0.215c-0.16,0.003 -0.313,0.063 -0.432,0.17l-0.08,0.093l-0.125,0.143l-13.005,17.232l-0.2,0.247c-0.075,0.11 -0.115,0.24 -0.115,0.373c0,0.363 0.297,0.661 0.66,0.663m26.712,2.457l-26.845,0c-0.361,0.002 -0.657,0.299 -0.657,0.66c0,0.001 0,0.002 0,0.003l0,21.215c0,0.366 0.296,0.666 0.657,0.666l8.642,0l0,-13.348c0,-0.37 0.292,-0.664 0.657,-0.664l8.022,0c0.361,0 0.655,0.295 0.655,0.664l0,13.348l8.87,0c0.362,0 0.658,-0.3 0.658,-0.666l0,-21.215c0,-0.001 0,-0.002 0,-0.003c0,-0.361 -0.296,-0.658 -0.657,-0.66m90.375,3.129c0,0.355 -0.289,0.64 -0.65,0.64l-7.936,0c-0.002,0 -0.005,0 -0.007,0c-0.352,0 -0.642,-0.288 -0.645,-0.64l0,-4.874c0,-0.351 0.29,-0.637 0.652,-0.637l7.935,0c0.362,0 0.65,0.286 0.65,0.637l0,4.874l0.001,0Zm0,9.004c0,0.354 -0.289,0.64 -0.65,0.64l-7.936,0c-0.002,0 -0.005,0 -0.007,0c-0.352,0 -0.642,-0.288 -0.645,-0.64l0,-4.87c0,-0.357 0.29,-0.641 0.652,-0.641l7.935,0c0.362,0 0.65,0.284 0.65,0.64l0,4.87l0.001,0.001Zm-12.132,-9.004c0,0.355 -0.29,0.64 -0.648,0.64l-7.938,0c-0.003,0 -0.006,0 -0.009,0c-0.352,0 -0.642,-0.288 -0.645,-0.64l0,-4.874c0,-0.351 0.29,-0.637 0.654,-0.637l7.938,0c0.358,0 0.648,0.286 0.648,0.637l0,4.874Zm0,9.004c0,0.354 -0.29,0.64 -0.648,0.64l-7.938,0c-0.003,0 -0.006,0 -0.009,0c-0.352,0 -0.642,-0.288 -0.645,-0.64l0,-4.87c0,-0.357 0.29,-0.641 0.654,-0.641l7.938,0c0.358,0 0.648,0.284 0.648,0.64l0,4.871Zm14.538,-17.688l-26.573,0c-0.003,0 -0.005,0 -0.008,0c-0.35,0 -0.638,0.287 -0.64,0.637l0,27.094c0,0.353 0.29,0.638 0.648,0.638l26.572,0c0.36,0 0.65,-0.285 0.65,-0.638l0,-27.095c-0.002,-0.35 -0.291,-0.637 -0.641,-0.637c-0.003,0 -0.006,0 -0.009,0l0.001,0.001Zm-65.557,-43.634c-0.001,0.188 -0.156,0.343 -0.344,0.343l-5.952,0c0,0 0,0 0,0c-0.187,0 -0.341,-0.154 -0.341,-0.341c0,0 0,-0.001 0,-0.001l0,-6.703c0,-0.001 0,-0.003 0,-0.004c0,-0.187 0.153,-0.34 0.34,-0.34l5.953,0c0.19,0 0.344,0.152 0.344,0.344l0,6.703l0,-0.001Zm0,15.384c0,0.19 -0.154,0.345 -0.344,0.345l-5.952,0c-0.187,-0.001 -0.341,-0.155 -0.341,-0.342c0,-0.001 0,-0.002 0,-0.003l0,-6.704c0,-0.189 0.15,-0.339 0.34,-0.339l5.953,0c0.19,0 0.344,0.15 0.344,0.34l0,6.703Zm0,15.388c0,0.19 -0.154,0.346 -0.344,0.346l-5.952,0c-0.187,-0.001 -0.341,-0.155 -0.341,-0.342c0,-0.001 0,-0.003 0,-0.004l0,-6.7c0,-0.191 0.15,-0.347 0.34,-0.347l5.953,0c0.19,0 0.344,0.156 0.344,0.346l0,6.701Zm0,15.385c0,0.001 0,0.002 0,0.003c0,0.187 -0.154,0.341 -0.341,0.341c-0.001,0 -0.002,0 -0.003,0l-5.952,0c-0.19,0 -0.341,-0.15 -0.341,-0.344l0,-6.698c0,-0.002 0,-0.003 0,-0.005c0,-0.187 0.153,-0.34 0.34,-0.34l5.953,0c0.19,0 0.344,0.151 0.344,0.345l0,6.698Zm0,15.386c0,0.19 -0.154,0.346 -0.344,0.346l-5.952,0c-0.187,-0.001 -0.341,-0.155 -0.341,-0.342c0,-0.001 0,-0.003 0,-0.004l0,-6.699c0,-0.19 0.15,-0.342 0.34,-0.342l5.953,0c0.19,0 0.344,0.152 0.344,0.342l0,6.699Zm-11.675,-61.542c-0.001,0.188 -0.155,0.341 -0.343,0.342l-5.954,0c-0.187,-0.002 -0.339,-0.155 -0.34,-0.342l0,-6.703c0,-0.001 0,-0.003 0,-0.004c0,-0.187 0.153,-0.34 0.34,-0.34l5.954,0c0.189,0 0.343,0.152 0.343,0.344l0,6.703Zm0,15.383c0,0.19 -0.154,0.345 -0.343,0.345l-5.954,0c-0.188,-0.002 -0.341,-0.157 -0.34,-0.345l0,-6.704c0,-0.189 0.151,-0.339 0.34,-0.339l5.954,0c0.001,0 0.002,0 0.003,0c0.187,0 0.34,0.153 0.34,0.34l0,6.703Zm0,15.388c0,0.19 -0.154,0.346 -0.343,0.346l-5.954,0c-0.187,-0.002 -0.34,-0.156 -0.34,-0.343c0,-0.001 0,-0.002 0,-0.003l0,-6.7c0,-0.191 0.151,-0.347 0.34,-0.347l5.954,0c0.189,0 0.343,0.156 0.343,0.346l0,6.701Zm0,15.385c0,0.001 0,0.002 0,0.003c0,0.187 -0.154,0.341 -0.341,0.341c-0.001,0 -0.001,0 -0.002,0l-5.954,0c0,0 0,0 0,0c-0.187,0 -0.34,-0.153 -0.34,-0.34c0,-0.001 0,-0.003 0,-0.004l0,-6.698c0,-0.194 0.151,-0.345 0.34,-0.345l5.954,0c0.189,0 0.343,0.151 0.343,0.345l0,6.698Zm0,15.386c0,0.19 -0.154,0.346 -0.343,0.346l-5.954,0c-0.187,-0.002 -0.34,-0.156 -0.34,-0.343c0,-0.001 0,-0.002 0,-0.003l0,-6.699c0,-0.001 0,-0.001 0,-0.002c0,-0.187 0.153,-0.34 0.34,-0.34l5.954,0c0.189,0 0.343,0.152 0.343,0.342l0,6.699Zm15.466,-80.799l-26.003,0c-0.35,0.003 -0.636,0.294 -0.634,0.644l0,89.737c0,0.353 0.287,0.643 0.634,0.643l26.003,0c0.35,0 0.64,-0.29 0.64,-0.643l0,-89.737c0,-0.352 -0.288,-0.642 -0.64,-0.644Zm62.387,60.164c0,0.002 0,0.003 0,0.005c0,0.294 -0.241,0.535 -0.535,0.536l-26.743,0c-0.294,-0.002 -0.535,-0.244 -0.535,-0.538c0,-0.001 0,-0.002 0,-0.003l0,-5.4c0,-0.294 0.241,-0.537 0.535,-0.54l26.743,0c0.297,0 0.535,0.243 0.535,0.54l0,5.4Zm-33.934,-15.798c0,0.35 -0.286,0.639 -0.636,0.642l-7.749,0c-0.351,-0.001 -0.64,-0.29 -0.64,-0.641c0,0 0,-0.001 0,-0.001l0,-4.899c0,-0.001 0,-0.003 0,-0.004c0,-0.351 0.289,-0.64 0.64,-0.64l7.749,0c0.35,0.002 0.636,0.29 0.636,0.64c0,0.001 0,0.003 0,0.004l0,4.899Zm0,9.053c0,0.353 -0.288,0.64 -0.636,0.64l-7.749,0c-0.351,0 -0.64,-0.289 -0.64,-0.64l0,-4.899c0,-0.001 0,-0.001 0,-0.002c0,-0.351 0.289,-0.64 0.64,-0.64l7.749,0c0.35,0.002 0.637,0.292 0.636,0.642l0,4.899Zm0,9.053c-0.001,0.349 -0.287,0.637 -0.636,0.639l-7.749,0c-0.351,0 -0.64,-0.289 -0.64,-0.64l0,-4.9c0,-0.001 0,-0.001 0,-0.002c0,-0.351 0.289,-0.64 0.64,-0.64l7.749,0c0.35,0.002 0.637,0.292 0.636,0.642l0,4.901Zm0,9.051c0,0.35 -0.286,0.638 -0.636,0.64l-7.749,0c-0.351,0 -0.64,-0.289 -0.64,-0.64l0,-4.899c0,-0.358 0.287,-0.642 0.64,-0.642l7.749,0c0.35,0.002 0.637,0.292 0.636,0.642l0,4.899Zm0,9.05c0.001,0.35 -0.286,0.64 -0.636,0.642l-7.749,0c0,0 0,0 0,0c-0.351,0 -0.64,-0.289 -0.64,-0.64c0,-0.001 0,-0.002 0,-0.003l0,-4.898c0,-0.351 0.289,-0.64 0.64,-0.64l7.749,0c0.35,0.002 0.636,0.29 0.636,0.64l0,4.899Zm-11.826,-37.937l0,10.791c0,0.35 -0.286,0.638 -0.636,0.64l-7.747,0c0,0 -0.001,0 -0.001,0c-0.351,0 -0.639,-0.288 -0.639,-0.639c0,0 0,-0.001 0,-0.001l0,-1.359c0.003,-0.082 0.02,-0.163 0.05,-0.24c0.012,-0.027 0.013,-0.037 0.038,-0.074c0.014,-0.03 0.037,-0.058 0.054,-0.085l0.073,-0.106c0.991,-1.431 5.462,-6.992 7.34,-9.316l0.187,-0.23c0.14,-0.172 0.35,-0.273 0.572,-0.273c0.356,0 0.64,0.263 0.71,0.6l0,0.292l-0.001,0Zm-0.023,19.835c0,0.001 0,0.002 0,0.003c0,0.348 -0.286,0.635 -0.634,0.636l-7.75,0c-0.35,-0.001 -0.638,-0.29 -0.637,-0.64l0,-4.9c0,-0.356 0.285,-0.642 0.637,-0.642l7.75,0c0.353,0 0.634,0.286 0.634,0.642l0,4.901Zm0,9.051c0,0.355 -0.28,0.64 -0.634,0.64l-7.75,0c-0.35,-0.001 -0.637,-0.288 -0.637,-0.638c0,-0.001 0,-0.001 0,-0.002l0,-4.899c0,-0.358 0.285,-0.642 0.637,-0.642l7.75,0c0.353,0 0.634,0.284 0.634,0.642l0,4.899Zm0,9.05c0,0.002 0,0.004 0,0.006c0,0.348 -0.286,0.635 -0.634,0.636l-7.75,0c-0.35,-0.001 -0.637,-0.288 -0.637,-0.638c0,-0.002 0,-0.003 0,-0.005l0,-4.898c0,-0.353 0.285,-0.64 0.637,-0.64l7.75,0c0.353,0 0.634,0.287 0.634,0.64l0,4.899Zm4.046,-45.848l0.182,-0.23c1.75,-2.267 4.696,-5.93 6.132,-7.71l0.189,-0.227c0.14,-0.171 0.35,-0.271 0.571,-0.271c0.355,0 0.64,0.259 0.71,0.6l0,8.281c0,0.4 -0.315,0.722 -0.708,0.738c-0.01,0 -0.021,0.007 -0.031,0.007c-0.01,0 -0.021,-0.007 -0.032,-0.007l-6.387,0c-0.013,0 -0.021,0.007 -0.032,0.007c-0.01,0 -0.02,-0.007 -0.033,-0.007c-0.393,-0.016 -0.707,-0.345 -0.706,-0.738c0,-0.159 0.051,-0.315 0.145,-0.443Zm10.758,-17.78c-0.082,-0.292 -0.349,-0.497 -0.652,-0.5c-0.134,0.004 -0.263,0.047 -0.372,0.125c-0.017,0.009 -0.034,0.02 -0.049,0.032l-0.22,0.279l-25.555,32.737l-0.119,0.159c-0.136,0.136 -0.215,0.319 -0.22,0.511l0,40.229c0,0.352 0.285,0.64 0.636,0.64l25.978,0c0.348,-0.002 0.634,-0.289 0.634,-0.637c0,-0.001 0,-0.002 0,-0.003l0,-73.3c0,-0.093 -0.02,-0.186 -0.06,-0.27l-0.001,-0.002Zm-69.869,-61.308l0,-1.973l2.277,0l0,2.015c0,0.824 0.365,1.302 1.202,1.302c0.771,0 1.115,-0.52 1.115,-1.302l0,-0.563c0,-0.845 -0.344,-1.366 -1.094,-2.08l-1.436,-1.453c-1.398,-1.387 -2.041,-2.232 -2.041,-3.923l0,-0.5c0,-1.82 1.052,-3.229 3.434,-3.229c2.446,0 3.413,1.214 3.413,3.34l0,1.19l-2.232,0l0,-1.28c0,-0.844 -0.388,-1.256 -1.159,-1.256c-0.688,0 -1.158,0.39 -1.158,1.213l0,0.305c0,0.824 0.449,1.299 1.158,1.994l1.568,1.562c1.332,1.364 1.973,2.188 1.973,3.814l0,0.716c0,2.015 -1.073,3.446 -3.563,3.446c-2.49,0 -3.457,-1.41 -3.457,-3.338m15.203,-11.532l0,11.12c0,2.276 -0.967,3.75 -3.457,3.75c-2.578,0 -3.649,-1.474 -3.649,-3.75l0,-11.12l2.447,0l0,11.358c0,0.868 0.344,1.452 1.202,1.452c0.858,0 1.202,-0.584 1.202,-1.452l0,-11.358l2.255,0Zm1.247,11.532l0,-1.973l2.274,0l0,2.015c0,0.824 0.367,1.302 1.204,1.302c0.772,0 1.115,-0.52 1.115,-1.302l0,-0.563c0,-0.845 -0.343,-1.366 -1.096,-2.08l-1.437,-1.453c-1.394,-1.387 -2.039,-2.232 -2.039,-3.923l0,-0.5c0,-1.82 1.05,-3.229 3.436,-3.229c2.446,0 3.411,1.214 3.411,3.34l0,1.19l-2.232,0l0,-1.28c0,-0.844 -0.386,-1.256 -1.158,-1.256c-0.687,0 -1.16,0.39 -1.16,1.213l0,0.305c0,0.824 0.452,1.299 1.16,1.994l1.566,1.562c1.331,1.364 1.976,2.188 1.976,3.814l0,0.716c0,2.015 -1.075,3.446 -3.563,3.446c-2.49,0 -3.457,-1.41 -3.457,-3.338m7.601,-11.532l6.504,0l0,2.016l-2.018,0l0,12.68l-2.47,0l0,-12.68l-2.016,0l0,-2.016Zm9.125,10.036l1.955,0l-0.966,-5.896l-0.023,0l-0.966,5.896Zm-3.069,4.66l2.747,-14.696l2.791,0l2.768,14.697l-2.511,0l-0.45,-2.688l-2.598,0l-0.428,2.688l-2.319,0l0,-0.001Zm9.294,0l2.447,0l0,-14.696l-2.447,0l0,14.696Zm5.907,-9.234l0,9.233l-2.062,0l0,-14.693l2.406,0l2.639,8.43l0,-8.43l2.04,0l0,14.694l-2.148,0l-2.875,-9.234Zm8.889,4.574l1.952,0l-0.966,-5.896l-0.02,0l-0.966,5.896Zm-3.069,4.66l2.748,-14.696l2.79,0l2.77,14.697l-2.512,0l-0.45,-2.688l-2.597,0l-0.43,2.688l-2.318,0l-0.001,-0.001Zm11.529,-6.611l0,4.595l1.074,0c0.815,0 1.201,-0.411 1.201,-1.191l0,-2.211c0,-0.78 -0.365,-1.193 -1.223,-1.193l-1.052,0Zm0,-1.885l0.86,0c0.793,0 1.158,-0.413 1.158,-1.193l0,-1.798c0,-0.803 -0.365,-1.193 -1.18,-1.193l-0.838,0l0,4.184Zm-2.447,-6.2l3.542,0c2.447,0 3.263,1.148 3.263,3.23l0,1.495c0,1.237 -0.45,2.017 -1.459,2.341c1.223,0.283 1.824,1.105 1.824,2.45l0,1.952c0,2.08 -0.924,3.227 -3.37,3.227l-3.8,0l0,-14.693l0,-0.002Zm8.18,0l2.447,0l0,12.682l2.92,0l0,2.015l-5.367,0l0,-14.697Zm6.272,0l5.838,0l0,2.016l-3.392,0l0,4.205l2.426,0l0,1.994l-2.426,0l0,4.467l3.392,0l0,2.015l-5.838,0l0,-14.697Zm9.962,10.902l0,-7.11c0,-2.297 1.072,-3.967 3.65,-3.967c2.705,0 3.455,1.518 3.455,3.687l0,1.734l-2.232,0l0,-1.93c0,-0.91 -0.3,-1.43 -1.183,-1.43c-0.879,0 -1.244,0.629 -1.244,1.516l0,7.892c0,0.888 0.365,1.516 1.244,1.516c0.883,0 1.183,-0.563 1.183,-1.431l0,-2.709l2.232,0l0,2.536c0,2.103 -0.858,3.663 -3.455,3.663c-2.578,0 -3.65,-1.69 -3.65,-3.967m8.244,3.794l2.447,0l0,-14.696l-2.447,0l0,14.696Zm3.373,-14.696l6.505,0l0,2.016l-2.02,0l0,12.68l-2.468,0l0,-12.68l-2.017,0l0,-2.016Zm7.471,14.696l2.446,0l0,-14.696l-2.446,0l0,14.696Zm3.716,-14.696l5.838,0l0,2.016l-3.392,0l0,4.205l2.426,0l0,1.994l-2.426,0l0,4.467l3.392,0l0,2.015l-5.838,0l0,-14.697Zm6.505,11.532l0,-1.973l2.277,0l0,2.015c0,0.824 0.365,1.302 1.202,1.302c0.771,0 1.114,-0.52 1.114,-1.302l0,-0.563c0,-0.845 -0.343,-1.366 -1.093,-2.08l-1.438,-1.453c-1.396,-1.387 -2.04,-2.232 -2.04,-3.923l0,-0.5c0,-1.82 1.053,-3.229 3.435,-3.229c2.446,0 3.413,1.214 3.413,3.34l0,1.19l-2.234,0l0,-1.28c0,-0.844 -0.386,-1.256 -1.157,-1.256c-0.688,0 -1.158,0.39 -1.158,1.213l0,0.305c0,0.824 0.449,1.299 1.158,1.994l1.566,1.562c1.332,1.364 1.975,2.188 1.975,3.814l0,0.716c0,2.015 -1.073,3.446 -3.563,3.446c-2.49,0 -3.457,-1.41 -3.457,-3.338m-110.819,20.097l1.955,0l-0.968,-5.896l-0.021,0l-0.966,5.896Zm-3.07,4.66l2.748,-14.696l2.79,0l2.77,14.697l-2.512,0l-0.45,-2.688l-2.598,0l-0.428,2.688l-2.32,0l0,-0.001Zm11.337,-9.234l0,9.235l-2.06,0l0,-14.696l2.402,0l2.64,8.431l0,-8.431l2.042,0l0,14.696l-2.148,0l-2.876,-9.235Zm9.855,7.219c1.01,0 1.396,-0.607 1.396,-1.495l0,-7.697c0,-0.866 -0.386,-1.474 -1.396,-1.474l-1.031,0l0,10.665l1.031,0l0,0.001Zm3.845,-8.736l0,6.807c0,2.253 -0.925,3.946 -3.544,3.946l-3.78,0l0,-14.699l3.78,0c2.62,0 3.544,1.67 3.544,3.946Zm3.563,6.959l0,-7.11c0,-2.298 1.075,-3.968 3.653,-3.968c2.703,0 3.453,1.518 3.453,3.685l0,1.735l-2.23,0l0,-1.929c0,-0.91 -0.3,-1.431 -1.183,-1.431c-0.881,0 -1.246,0.628 -1.246,1.518l0,7.89c0,0.889 0.365,1.517 1.246,1.517c0.882,0 1.183,-0.565 1.183,-1.431l0,-2.709l2.23,0l0,2.536c0,2.104 -0.858,3.664 -3.453,3.664c-2.578,0 -3.653,-1.691 -3.653,-3.967m13.357,0.39l0,-7.89c0,-0.89 -0.388,-1.518 -1.267,-1.518c-0.858,0 -1.246,0.628 -1.246,1.518l0,7.89c0,0.889 0.388,1.515 1.246,1.515c0.879,0 1.267,-0.626 1.267,-1.515m-4.96,-0.39l0,-7.112c0,-2.296 1.115,-3.966 3.693,-3.966c2.597,0 3.713,1.67 3.713,3.966l0,7.112c0,2.274 -1.116,3.967 -3.713,3.967c-2.578,0 -3.693,-1.693 -3.693,-3.967m15.5,-5.745l-0.06,0l-1.656,9.537l-1.138,0l-1.824,-9.536l-0.042,0l0,9.536l-2.02,0l0,-14.696l2.855,0l1.589,8.28l0.02,0l1.418,-8.28l3.092,0l0,14.696l-2.234,0l0,-9.537Zm10.329,0l-0.064,0l-1.652,9.537l-1.14,0l-1.824,-9.536l-0.043,0l0,9.536l-2.017,0l0,-14.696l2.856,0l1.586,8.28l0.023,0l1.417,-8.28l3.092,0l0,14.696l-2.234,0l0,-9.537Zm10.693,-5.159l0,11.12c0,2.276 -0.967,3.75 -3.455,3.75c-2.576,0 -3.651,-1.474 -3.651,-3.75l0,-11.121l2.447,0l0,11.36c0,0.868 0.344,1.452 1.204,1.452c0.86,0 1.202,-0.584 1.202,-1.452l0,-11.36l2.253,0l0,0.001Zm3.415,5.462l0,9.235l-2.06,0l0,-14.696l2.405,0l2.64,8.431l0,-8.431l2.04,0l0,14.696l-2.146,0l-2.879,-9.235Zm6.378,9.234l2.447,0l0,-14.696l-2.447,0l0,14.696Zm3.522,-14.696l6.505,0l0,2.017l-2.017,0l0,12.68l-2.47,0l0,-12.68l-2.018,0l0,-2.017Zm7.601,14.696l2.447,0l0,-14.696l-2.447,0l0,14.696Zm3.822,-14.696l5.839,0l0,2.017l-3.392,0l0,4.204l2.427,0l0,1.994l-2.427,0l0,4.466l3.392,0l0,2.016l-5.84,0l0.001,-14.697Zm6.873,11.532l0,-1.973l2.275,0l0,2.016c0,0.822 0.365,1.3 1.204,1.3c0.77,0 1.115,-0.52 1.115,-1.3l0,-0.565c0,-0.844 -0.345,-1.366 -1.098,-2.08l-1.436,-1.453c-1.395,-1.387 -2.04,-2.232 -2.04,-3.923l0,-0.5c0,-1.82 1.052,-3.229 3.436,-3.229c2.447,0 3.411,1.214 3.411,3.34l0,1.19l-2.231,0l0,-1.276c0,-0.847 -0.387,-1.259 -1.157,-1.259c-0.689,0 -1.162,0.39 -1.162,1.215l0,0.303c0,0.824 0.452,1.3 1.162,1.994l1.564,1.56c1.331,1.368 1.976,2.19 1.976,3.815l0,0.717c0,2.015 -1.074,3.446 -3.563,3.446c-2.49,0 -3.457,-1.41 -3.457,-3.338" style="fill:#fff;"/></g></svg>