<?xml version="1.0" encoding="UTF-8" standalone="no"?><!DOCTYPE svg PUBLIC "-//W3C//DTD SVG 1.1//EN" "http://www.w3.org/Graphics/SVG/1.1/DTD/svg11.dtd"><svg width="100%" height="100%" viewBox="0 0 180 180" version="1.1" xmlns="http://www.w3.org/2000/svg" xmlns:xlink="http://www.w3.org/1999/xlink" xml:space="preserve" xmlns:serif="http://www.serif.com/" style="fill-rule:evenodd;clip-rule:evenodd;stroke-linejoin:round;stroke-miterlimit:2;"><g><path d="M23.535,15.23l0,36.099l-6.07,0l0,-27.633l-0.054,0l-4.257,4.418l-0.056,0l0,-6.334l5.59,-6.55l4.847,0Zm7.352,25.507l5.432,-14.862l0.054,0l0,14.862l-5.486,0Zm11.132,10.6l0,-5.859l2.452,0l0,-4.741l-2.452,0l0,-25.515l-5.966,0l-10.493,26.528l0,3.73l10.708,0l0,5.858l5.751,0l0,-0.001Zm70.143,82.288c-3.269,-0.001 -5.958,-2.691 -5.958,-5.96l0,0c0,-3.266 2.688,-5.954 5.954,-5.954c0.001,0 0.003,0 0.004,0c0.003,0 0.006,0 0.009,0c3.266,0 5.954,2.688 5.955,5.954c0,3.29 -2.666,5.96 -5.964,5.96m25.878,-2.776c-2.254,-3.047 -16.814,-21.61 -37.229,-21.61c-17.728,0 -36.691,16.08 -36.691,16.08c0,0 -7.125,-14.583 -21.696,-15.982c-0.085,0 -0.176,-0.02 -0.273,-0.02l-0.091,0c-0.304,0.017 -0.589,0.312 -0.555,0.577c0.04,0.255 0.226,0.533 0.226,0.533c1.879,3.117 6.673,11.99 6.673,20.852c0,8.893 -4.822,17.788 -6.683,20.892l-0.125,0.198c-0.059,0.092 -0.09,0.199 -0.091,0.308c0.002,0.3 0.237,0.552 0.537,0.574l0.158,-0.014c0.048,0 0.099,0 0.152,-0.014c14.617,-1.362 21.768,-15.986 21.768,-15.986c0,0 18.963,16.08 36.691,16.08c20.415,0 34.975,-18.565 37.23,-21.605c0.06,-0.083 0.112,-0.155 0.156,-0.208c0.03,-0.071 0.046,-0.148 0.047,-0.225c0,-0.079 -0.02,-0.16 -0.047,-0.221c-0.044,-0.061 -0.095,-0.134 -0.157,-0.21m-96.075,-56.503c-0.044,-0.01 -0.076,-0.024 -0.113,-0.024c-0.321,0.001 -0.585,0.266 -0.585,0.587c0,0.001 0,0.002 0,0.003l0,4.065c0,0.17 0.063,0.32 0.17,0.42c9.856,8.563 19.185,0.54 21.345,-1.58c0.039,-0.066 0.091,-0.122 0.153,-0.167c0.096,-0.065 0.208,-0.102 0.323,-0.106c0.153,0 0.296,0.06 0.397,0.159c0.01,0.01 0.02,0.019 0.029,0.024c11.13,10.623 22.803,2.02 25.231,0l0.24,-0.22c0.07,-0.029 0.145,-0.043 0.22,-0.042c0.08,-0.002 0.159,0.013 0.233,0.043l0.239,0.22c2.428,2.018 14.099,10.622 25.23,0c0.002,-0.006 0.016,-0.015 0.023,-0.025c0.105,-0.102 0.246,-0.159 0.393,-0.159c0.123,0 0.234,0.046 0.324,0.106c0.068,0.04 0.114,0.102 0.165,0.167c2.156,2.12 11.477,10.143 21.34,1.58c0.103,-0.1 0.17,-0.25 0.17,-0.42l0,-4.066c0,-0.003 0,-0.006 0,-0.009c0,-0.318 -0.26,-0.579 -0.578,-0.581c-0.043,0 -0.081,0.014 -0.127,0.024c-0.096,0.056 -0.194,0.107 -0.295,0.153c-3.03,1.518 -12.43,5.13 -20.964,-2.944c-0.079,-0.073 -0.163,-0.149 -0.246,-0.237c-0.079,-0.033 -0.164,-0.051 -0.25,-0.053c-0.06,0 -0.124,0.018 -0.175,0.029c-0.12,0.046 -0.224,0.126 -0.299,0.23c-2.542,1.938 -14.213,9.84 -24.608,0.142l-0.152,-0.147c-0.115,-0.107 -0.265,-0.169 -0.422,-0.174c-0.152,0.006 -0.297,0.068 -0.406,0.174l-0.162,0.147c-10.39,9.697 -22.074,1.796 -24.613,-0.142c-0.071,-0.104 -0.171,-0.184 -0.288,-0.23c-0.062,-0.01 -0.122,-0.029 -0.187,-0.029c-0.085,0.003 -0.168,0.021 -0.246,0.053c-0.075,0.088 -0.167,0.164 -0.25,0.237c-8.531,8.074 -17.927,4.462 -20.96,2.944c-0.102,-0.048 -0.202,-0.099 -0.3,-0.153m20.818,18.256c0.041,-0.063 0.094,-0.119 0.155,-0.163c0.095,-0.066 0.206,-0.104 0.321,-0.11c0.153,0 0.297,0.063 0.399,0.165c0.007,0.009 0.02,0.017 0.026,0.023c11.128,10.61 22.804,2.01 25.232,0l0.24,-0.227c0.07,-0.026 0.144,-0.038 0.219,-0.037c0.086,0 0.167,0.01 0.235,0.037l0.24,0.227c2.426,2.01 14.097,10.61 25.23,0c0.001,-0.006 0.012,-0.014 0.02,-0.023c0.104,-0.105 0.246,-0.164 0.394,-0.165c0.116,0.004 0.229,0.042 0.324,0.11c0.07,0.046 0.115,0.095 0.165,0.162c2.156,2.123 11.477,10.147 21.34,1.576c0.111,-0.108 0.173,-0.256 0.173,-0.41l0,-4.075c0,-0.001 0,-0.001 0,-0.002c0,-0.319 -0.263,-0.582 -0.582,-0.582c0,0 0,0 0,0c-0.042,0 -0.08,0.018 -0.124,0.025c-0.092,0.044 -0.188,0.095 -0.297,0.147c-3.028,1.52 -12.434,5.123 -20.964,-2.94c-0.079,-0.075 -0.161,-0.15 -0.246,-0.233c-0.077,-0.042 -0.163,-0.062 -0.25,-0.058c-0.061,0 -0.121,0.015 -0.175,0.044c-0.123,0.032 -0.23,0.11 -0.297,0.218c-2.541,1.936 -14.215,9.839 -24.611,0.144l-0.153,-0.153c-0.114,-0.108 -0.265,-0.167 -0.422,-0.164c-0.151,0 -0.297,0.059 -0.406,0.164l-0.16,0.153c-10.39,9.695 -22.074,1.792 -24.613,-0.144c-0.064,-0.107 -0.168,-0.185 -0.288,-0.218c-0.137,-0.064 -0.296,-0.059 -0.429,0.014c-0.081,0.082 -0.167,0.158 -0.255,0.233c-8.53,8.063 -17.927,4.46 -20.958,2.94c-0.107,-0.052 -0.207,-0.103 -0.299,-0.147c-0.045,-0.007 -0.075,-0.025 -0.112,-0.025c-0.001,0 -0.001,0 -0.002,0c-0.321,0 -0.584,0.263 -0.585,0.584l0,4.073c0,0.169 0.063,0.308 0.169,0.411c9.856,8.57 19.186,0.547 21.346,-1.576m-5.425,-77.438l2.46,0l0,12.627l2.937,0l0,2.007l-5.397,0l0,-14.634Zm6.541,14.635l2.46,0l0,-14.635l-2.46,0l0,14.635Zm4.102,-14.635l5.765,0l0,2.006l-3.305,0l0,4.188l2.462,0l0,1.986l-2.462,0l0,6.454l-2.46,0l0,-14.634Zm6.867,0l5.873,0l0,2.006l-3.412,0l0,4.188l2.44,0l0,1.986l-2.44,0l0,4.447l3.412,0l0,2.007l-5.873,0l0,-14.634Zm12.933,8.051l0,4.576l1.08,0c0.82,0 1.21,-0.41 1.21,-1.186l0,-2.204c0,-0.777 -0.367,-1.186 -1.231,-1.186l-1.059,0Zm0,-1.879l0.865,0c0.798,0 1.165,-0.409 1.165,-1.186l0,-1.792c0,-0.8 -0.367,-1.188 -1.188,-1.188l-0.841,0l0,4.166l-0.001,0Zm-2.46,-6.173l3.563,0c2.46,0 3.28,1.144 3.28,3.216l0,1.488c0,1.232 -0.453,2.009 -1.469,2.332c1.232,0.281 1.837,1.102 1.837,2.44l0,1.943c0,2.072 -0.928,3.216 -3.388,3.216l-3.823,0l0,-14.635Zm8.27,0.001l5.87,0l0,2.006l-3.41,0l0,4.188l2.44,0l0,1.986l-2.44,0l0,4.447l3.41,0l0,2.007l-5.87,0l0,-14.634Zm7.362,0l2.46,0l0,12.627l2.937,0l0,2.007l-5.397,0l0,-14.634Zm11.337,11.246l0,-7.858c0,-0.885 -0.389,-1.51 -1.274,-1.51c-0.863,0 -1.253,0.625 -1.253,1.51l0,7.858c0,0.885 0.39,1.51 1.253,1.51c0.885,0 1.274,-0.625 1.274,-1.51m-4.988,-0.389l0,-7.082c0,-2.286 1.123,-3.949 3.714,-3.949c2.611,0 3.734,1.663 3.734,3.95l0,7.081c0,2.265 -1.123,3.95 -3.734,3.95c-2.59,0 -3.714,-1.685 -3.714,-3.95m13.969,-5.267l-1.382,9.045l-2.308,0l-1.964,-14.635l2.374,0l1.144,9.28l0.023,0l1.228,-9.28l2.009,0l1.36,9.28l0.02,0l1.122,-9.28l2.074,0l-1.9,14.635l-2.332,0l-1.444,-9.045l-0.024,0Zm-58.618,21.484l-1.382,9.045l-2.309,0l-1.964,-14.635l2.374,0l1.144,9.28l0.023,0l1.228,-9.28l2.009,0l1.36,9.28l0.02,0l1.124,-9.28l2.072,0l-1.9,14.635l-2.331,0l-1.444,-9.045l-0.024,0Zm8.551,4.403l1.963,0l-0.972,-5.871l-0.02,0l-0.97,5.871l-0.001,0Zm-3.088,4.641l2.765,-14.635l2.804,0l2.786,14.635l-2.525,0l-0.454,-2.676l-2.611,0l-0.433,2.676l-2.332,0Zm7.882,-14.635l6.54,0l0,2.009l-2.027,0l0,12.626l-2.483,0l0,-12.626l-2.03,0l0,-2.009Zm7.687,0l5.87,0l0,2.009l-3.41,0l0,4.186l2.44,0l0,1.986l-2.44,0l0,4.447l3.41,0l0,2.007l-5.87,0l0,-14.635Zm9.651,2.008l0,4.555l0.82,0c0.842,0 1.21,-0.432 1.21,-1.209l0,-2.16c0,-0.8 -0.368,-1.186 -1.21,-1.186l-0.82,0Zm0,5.914l0,6.714l-2.46,0l0,-14.636l3.581,0c2.483,0 3.39,1.23 3.39,3.282l0,1.877c0,1.576 -0.56,2.504 -1.963,2.828l2.353,6.65l-2.592,0l-2.31,-6.715l0.001,0Z" style="fill:#fff;"/></g></svg>