<?xml version="1.0" encoding="UTF-8" standalone="no"?><!DOCTYPE svg PUBLIC "-//W3C//DTD SVG 1.1//EN" "http://www.w3.org/Graphics/SVG/1.1/DTD/svg11.dtd"><svg width="100%" height="100%" viewBox="0 0 180 180" version="1.1" xmlns="http://www.w3.org/2000/svg" xmlns:xlink="http://www.w3.org/1999/xlink" xml:space="preserve" xmlns:serif="http://www.serif.com/" style="fill-rule:evenodd;clip-rule:evenodd;stroke-linejoin:round;stroke-miterlimit:2;"><g><path d="M13.913,21.735l0,6.339l0.054,0l4.278,-4.422l0.057,0l0,27.645l6.097,0l0,-36.115l-4.87,0l-5.616,6.553Zm25.783,21.414c0,2.29 -0.856,3.622 -2.94,3.622c-2.033,0 -2.836,-1.385 -2.836,-3.622l0,-6.604c0.108,-2.025 0.964,-3.304 2.89,-3.304c2.083,0 2.886,1.28 2.886,3.622l0,6.286Zm6.046,-0.533l0,-5.326c0,-5.912 -2.354,-8.897 -6.74,-8.897c-2.569,0 -4.118,1.172 -5.027,2.93l-0.055,0l0,-7.777c0,-2.185 0.695,-3.73 2.89,-3.73c2.192,0 2.835,1.278 2.835,3.515l0,2.4l5.56,0l0,-1.918c0,-5.327 -1.763,-9.054 -8.504,-9.054c-6.418,0 -8.825,4.1 -8.825,9.748l0,17.577c0,5.592 2.462,9.64 8.88,9.64c6.471,0 8.986,-3.514 8.986,-9.108Zm14.206,-25.443l0,5.764l0.91,0c0.846,0 1.214,-0.411 1.214,-1.21l0,-3.367c0,-0.8 -0.368,-1.186 -1.214,-1.186l-0.91,0l0,-0.001Zm-2.47,-2.009l3.663,0c2.491,0 3.402,1.232 3.402,3.283l0,3.086c0,2.05 -0.91,3.304 -3.402,3.304l-1.193,0l0,4.963l-2.47,0l0,-14.636Zm8.259,0.001l5.898,0l0,2.009l-3.427,0l0,4.185l2.451,0l0,1.986l-2.451,0l0,4.448l3.427,0l0,2.007l-5.898,0l0,-14.635Zm10.061,9.994l1.973,0l-0.976,-5.871l-0.021,0l-0.976,5.87l0,0.001Zm-3.099,4.641l2.774,-14.635l2.818,0l2.797,14.635l-2.537,0l-0.456,-2.676l-2.622,0l-0.433,2.676l-2.34,0l-0.001,0Zm9.322,-3.777l0,-7.08c0,-2.289 1.084,-3.951 3.685,-3.951c2.732,0 3.49,1.511 3.49,3.67l0,1.728l-2.253,0l0,-1.922c0,-0.907 -0.305,-1.425 -1.193,-1.425c-0.89,0 -1.258,0.627 -1.258,1.51l0,7.858c0,0.886 0.369,1.511 1.258,1.511c0.888,0 1.193,-0.56 1.193,-1.425l0,-2.697l2.254,0l0,2.525c0,2.095 -0.867,3.648 -3.491,3.648c-2.601,0 -3.685,-1.683 -3.685,-3.95m8.63,-10.858l5.898,0l0,2.009l-3.427,0l0,4.185l2.45,0l0,1.986l-2.45,0l0,4.448l3.427,0l0,2.007l-5.899,0l0.001,-14.635Zm9.973,12.477l-1.258,3.302l-1.387,0l0.303,-3.497l2.342,0l0,0.195Zm10.69,-12.477l0,11.31c0,2.116 -0.932,3.497 -3.404,3.497c-2.557,0 -3.253,-1.402 -3.253,-3.258l0,-2.914l2.343,0l0,2.959c0,0.733 0.261,1.165 0.91,1.165c0.673,0 0.934,-0.432 0.934,-1.188l0,-11.57l2.47,0l0,-0.001Zm8.781,0l0,11.073c0,2.267 -0.976,3.734 -3.49,3.734c-2.602,0 -3.686,-1.467 -3.686,-3.734l0,-11.073l2.471,0l0,11.31c0,0.865 0.348,1.448 1.216,1.448c0.865,0 1.212,-0.583 1.212,-1.448l0,-11.31l2.277,0Zm1.497,11.485l0,-1.965l2.298,0l0,2.006c0,0.821 0.369,1.296 1.214,1.296c0.78,0 1.126,-0.519 1.126,-1.296l0,-0.56c0,-0.842 -0.346,-1.359 -1.105,-2.072l-1.452,-1.446c-1.408,-1.382 -2.06,-2.223 -2.06,-3.907l0,-0.497c0,-1.814 1.063,-3.216 3.47,-3.216c2.47,0 3.447,1.209 3.447,3.325l0,1.186l-2.256,0l0,-1.274c0,-0.842 -0.39,-1.251 -1.17,-1.251c-0.693,0 -1.17,0.388 -1.17,1.209l0,0.3c0,0.823 0.456,1.295 1.17,1.988l1.581,1.553c1.347,1.36 1.996,2.181 1.996,3.8l0,0.711c0,2.009 -1.085,3.432 -3.598,3.432c-2.515,0 -3.49,-1.402 -3.49,-3.323m8.327,-11.484l6.568,0l0,2.009l-2.037,0l0,12.626l-2.493,0l0,-12.626l-2.039,0l0.001,-2.009Zm7.935,14.635l2.47,0l0,-14.634l-2.47,0l0,14.634Zm4.119,-3.777l0,-7.08c0,-2.289 1.083,-3.951 3.686,-3.951c2.73,0 3.49,1.511 3.49,3.67l0,1.728l-2.254,0l0,-1.922c0,-0.907 -0.304,-1.425 -1.193,-1.425c-0.89,0 -1.258,0.627 -1.258,1.51l0,7.858c0,0.886 0.368,1.511 1.258,1.511c0.89,0 1.193,-0.56 1.193,-1.425l0,-2.697l2.253,0l0,2.525c0,2.095 -0.866,3.648 -3.489,3.648c-2.603,0 -3.686,-1.683 -3.686,-3.95m8.739,-10.858l5.896,0l0,2.009l-3.425,0l0,4.185l2.45,0l0,1.986l-2.45,0l0,4.448l3.425,0l0,2.007l-5.896,0l0,-14.635Zm-90.527,31.934l1.973,0l-0.976,-5.871l-0.021,0l-0.976,5.871Zm-3.1,4.641l2.775,-14.635l2.818,0l2.797,14.635l-2.536,0l-0.456,-2.676l-2.622,0l-0.432,2.676l-2.342,0l-0.002,0Zm11.708,-9.195l0,9.194l-2.082,0l0,-14.633l2.428,0l2.667,8.396l0,-8.396l2.059,0l0,14.633l-2.167,0l-2.905,-9.194Zm10.213,7.188c1.018,0 1.41,-0.605 1.41,-1.489l0,-7.664c0,-0.864 -0.392,-1.469 -1.41,-1.469l-1.041,0l0,10.622l1.041,0Zm3.88,-8.7l0,6.779c0,2.244 -0.931,3.927 -3.577,3.927l-3.815,0l0,-14.635l3.815,0c2.646,0 3.577,1.663 3.577,3.93l0,-0.001Zm3.991,7.555l0,-1.964l2.297,0l0,2.008c0,0.82 0.37,1.295 1.216,1.295c0.778,0 1.126,-0.518 1.126,-1.295l0,-0.562c0,-0.842 -0.348,-1.36 -1.106,-2.072l-1.45,-1.446c-1.41,-1.382 -2.06,-2.223 -2.06,-3.907l0,-0.497c0,-1.814 1.06,-3.216 3.467,-3.216c2.47,0 3.447,1.209 3.447,3.325l0,1.186l-2.255,0l0,-1.274c0,-0.842 -0.392,-1.251 -1.17,-1.251c-0.695,0 -1.172,0.388 -1.172,1.207l0,0.304c0,0.82 0.456,1.293 1.172,1.986l1.581,1.555c1.345,1.359 1.995,2.18 1.995,3.798l0,0.713c0,2.005 -1.086,3.432 -3.599,3.432c-2.514,0 -3.49,-1.404 -3.49,-3.325m8.003,-11.483l6.568,0l0,2.007l-2.038,0l0,12.628l-2.493,0l0,-12.628l-2.039,0l0.002,-2.007Zm10.406,2.007l0,4.555l0.824,0c0.846,0 1.214,-0.432 1.214,-1.21l0,-2.157c0,-0.8 -0.368,-1.188 -1.214,-1.188l-0.824,0Zm0,5.915l0,6.713l-2.47,0l0,-14.635l3.598,0c2.492,0 3.404,1.23 3.404,3.281l0,1.877c0,1.576 -0.565,2.504 -1.973,2.827l2.363,6.65l-2.603,0l-2.319,-6.713Zm11.103,3.324l0,-7.859c0,-0.883 -0.39,-1.51 -1.28,-1.51c-0.866,0 -1.258,0.627 -1.258,1.51l0,7.86c0,0.885 0.392,1.509 1.258,1.509c0.89,0 1.28,-0.624 1.28,-1.51m-5.009,-0.39l0,-7.08c0,-2.288 1.128,-3.949 3.73,-3.949c2.621,0 3.75,1.66 3.75,3.949l0,7.08c0,2.269 -1.129,3.952 -3.75,3.952c-2.602,0 -3.73,-1.683 -3.73,-3.952m11.188,-5.416l0,9.194l-2.08,0l0,-14.633l2.426,0l2.667,8.396l0,-8.396l2.06,0l0,14.633l-2.168,0l-2.905,-9.194Zm10.429,1.381l3.513,0l0,7.813l-1.779,0l0,-1.599c-0.324,1.102 -1.018,1.772 -2.364,1.772c-2.123,0 -3.1,-1.684 -3.1,-3.95l0,-7.08c0,-2.289 1.107,-3.951 3.707,-3.951c2.733,0 3.536,1.51 3.536,3.669l0,1.295l-2.255,0l0,-1.488c0,-0.907 -0.348,-1.426 -1.236,-1.426c-0.889,0 -1.28,0.626 -1.28,1.512l0,7.857c0,0.885 0.368,1.511 1.215,1.511c0.801,0 1.214,-0.453 1.214,-1.402l0,-2.592l-1.171,0l0,-1.942l0,0.001Zm-75.522,28.782l2.47,0l0,-14.635l-2.47,0l0,14.635Zm6.31,-9.195l0,9.194l-2.08,0l0,-14.635l2.427,0l2.665,8.397l0,-8.397l2.06,0l0,14.635l-2.168,0l-2.904,-9.194Zm6.57,6.044l0,-1.965l2.297,0l0,2.008c0,0.823 0.37,1.295 1.216,1.295c0.778,0 1.126,-0.516 1.126,-1.295l0,-0.56c0,-0.842 -0.348,-1.359 -1.106,-2.072l-1.453,-1.447c-1.408,-1.381 -2.057,-2.223 -2.057,-3.906l0,-0.498c0,-1.813 1.06,-3.216 3.467,-3.216c2.47,0 3.447,1.21 3.447,3.325l0,1.187l-2.254,0l0,-1.275c0,-0.841 -0.392,-1.25 -1.17,-1.25c-0.695,0 -1.172,0.388 -1.172,1.208l0,0.303c0,0.82 0.456,1.293 1.172,1.985l1.581,1.554c1.345,1.362 1.994,2.18 1.994,3.8l0,0.713c0,2.007 -1.085,3.432 -3.598,3.432c-2.515,0 -3.49,-1.404 -3.49,-3.325m8,-11.485l6.568,0l0,2.008l-2.036,0l0,12.627l-2.494,0l0,-12.628l-2.038,0l0,-2.007Zm7.937,14.635l2.47,0l0,-14.635l-2.47,0l0,14.635Zm3.838,-14.635l6.567,0l0,2.008l-2.036,0l0,12.627l-2.494,0l0,-12.628l-2.037,0l0,-2.007Zm15.11,0l0,11.073c0,2.266 -0.975,3.736 -3.488,3.736c-2.603,0 -3.687,-1.47 -3.687,-3.736l0,-11.073l2.47,0l0,11.311c0,0.863 0.348,1.447 1.217,1.447c0.864,0 1.214,-0.584 1.214,-1.447l0,-11.311l2.275,0l-0.001,0Zm1.347,0l6.568,0l0,2.008l-2.036,0l0,12.627l-2.494,0l0,-12.628l-2.038,0l0,-2.007Zm7.935,14.635l2.47,0l0,-14.635l-2.47,0l0,14.635Zm9.128,-3.389l0,-7.857c0,-0.884 -0.39,-1.512 -1.28,-1.512c-0.866,0 -1.257,0.628 -1.257,1.512l0,7.857c0,0.885 0.391,1.51 1.258,1.51c0.89,0 1.28,-0.625 1.28,-1.51m-5.009,-0.389l0,-7.08c0,-2.288 1.128,-3.95 3.729,-3.95c2.622,0 3.75,1.662 3.75,3.95l0,7.08c0,2.267 -1.128,3.95 -3.75,3.95c-2.601,0 -3.729,-1.683 -3.729,-3.95m11.189,-5.417l0,9.194l-2.08,0l0,-14.635l2.428,0l2.665,8.397l0,-8.397l2.059,0l0,14.635l-2.167,0l-2.905,-9.194Zm6.57,6.044l0,-1.965l2.298,0l0,2.008c0,0.823 0.368,1.295 1.214,1.295c0.78,0 1.126,-0.516 1.126,-1.295l0,-0.56c0,-0.842 -0.346,-1.359 -1.105,-2.072l-1.452,-1.447c-1.409,-1.381 -2.06,-2.223 -2.06,-3.906l0,-0.498c0,-1.813 1.063,-3.216 3.47,-3.216c2.47,0 3.446,1.21 3.446,3.325l0,1.187l-2.255,0l0,-1.275c0,-0.841 -0.39,-1.25 -1.17,-1.25c-0.694,0 -1.17,0.388 -1.17,1.208l0,0.303c0,0.82 0.455,1.293 1.17,1.985l1.583,1.554c1.344,1.362 1.994,2.18 1.994,3.8l0,0.713c0,2.007 -1.085,3.432 -3.598,3.432c-2.515,0 -3.491,-1.404 -3.491,-3.325m-20.105,18.673c0,0 -1.514,2.002 -1.073,3.95c0.443,1.953 2.675,3.113 2.675,3.113c0,0 1.514,-2.001 1.073,-3.95c-0.441,-1.953 -2.675,-3.113 -2.675,-3.113m-2.466,11.431c0,0 1.514,-2.003 1.073,-3.954c-0.443,-1.95 -2.675,-3.108 -2.675,-3.108c0,0 -1.516,2 -1.077,3.952c0.447,1.949 2.68,3.11 2.68,3.11m6.219,-2.143c0,0 1.599,1.604 3.418,1.442c1.822,-0.16 3.17,-2.024 3.17,-2.024c0,0 -1.596,-1.606 -3.418,-1.445c-1.822,0.16 -3.17,2.027 -3.17,2.027m2.619,-8.574c-1.48,1.495 -1.273,4.144 -1.273,4.144c0,0 2.61,0.226 4.095,-1.27c1.48,-1.495 1.272,-4.143 1.272,-4.143c0,0 -2.612,-0.225 -4.094,1.269m-3.269,14.524c1.815,0.214 3.52,-1.337 3.52,-1.337c0,0 -1.234,-1.897 -3.047,-2.111c-1.815,-0.213 -3.522,1.34 -3.522,1.34c0,0 1.237,1.895 3.05,2.108m1.62,31.376l-13.556,0c-1.06,0 -1.92,0.851 -1.92,1.909c0,1.054 0.86,1.91 1.92,1.91l13.556,0c1.031,-0.024 1.866,-0.878 1.866,-1.909c0,-1.032 -0.835,-1.886 -1.866,-1.91m0,21.051l-13.556,0c-1.06,0 -1.92,0.853 -1.92,1.909c0,1.054 0.86,1.908 1.92,1.908l13.556,0c0.002,0 0.003,0 0.005,0c1.047,0 1.91,-0.861 1.912,-1.908c-0.001,-1.047 -0.863,-1.909 -1.91,-1.909c-0.002,0 -0.005,0 -0.007,0m-60.967,-25.687c-0.308,-0.099 -0.622,-0.179 -0.94,-0.241c-0.318,-0.062 0.347,0.105 0.94,0.24" style="fill:#fff;"/><path d="M82.025,138.47c0.894,0.016 1.79,-0.01 2.689,-0.071l0,7.054l-2.69,-0.062l0,-6.92l0.001,-0.001Zm38.497,1.528l-12.562,0c-0.597,-0.001 -1.09,0.489 -1.092,1.086l0,3.789l-8.2,0.898l-11.981,-0.275l0,-7.285c1.611,-0.203 3.205,-0.525 4.768,-0.963c11.53,-3.241 14.045,-12.736 13.795,-19.305c-0.25,-6.69 1.899,-9.29 4.989,-10.444c0.886,-0.33 1.76,-0.54 2.56,-0.676c0.034,1.643 0.37,3.555 1.107,5.83c0.273,-0.015 0.547,-0.038 0.817,-0.068c-0.778,-2.327 -1.11,-4.242 -1.13,-5.876c1.596,-0.188 2.736,-0.081 2.736,-0.081c0,0 -1.08,-0.578 -2.603,-1.845c0.519,-3.169 2.414,-5.114 4.366,-7.104c1.073,-1.094 2.183,-2.226 3.056,-3.572l-0.681,-0.438c-0.826,1.28 -1.911,2.38 -2.956,3.446c-1.904,1.94 -3.826,3.923 -4.477,7.068c-0.694,-0.624 -1.353,-1.285 -1.975,-1.98c-2.843,-3.176 -6.504,-0.842 -11.724,3.998c-5.224,4.838 -11.79,5.003 -18.205,-1.533c-8.464,-8.626 -15.845,-8.577 -20.907,-8.087c3.463,1.467 4.673,4.69 6.427,12.881c1.838,8.595 6.47,12.483 12.807,13.02c-3.526,1.24 -3.699,3.222 -8.423,6.47c-3.686,2.533 -8.876,1.732 -10.98,1.257c3.861,1.199 8.437,5.234 12.528,6.636c2.416,0.819 4.925,1.332 7.468,1.525l0,6.975l-21.46,-0.486l0,4.866l40.078,-0.914l8.2,0.9l0,3.783c0,0.601 0.489,1.09 1.092,1.09l12.562,0c0.603,0 1.092,-0.489 1.092,-1.09l0,-12.41c-0.002,-0.597 -0.495,-1.087 -1.092,-1.086Zm-63.107,8.922c0,1.026 -0.718,1.859 -1.604,1.859l-0.967,0c-0.884,0 -1.604,-0.833 -1.604,-1.86l0,-3.363c0,-1.028 0.72,-1.859 1.604,-1.859l0.967,0c0.886,0 1.604,0.831 1.604,1.86l0,3.363Z" style="fill:#fff;"/></g></svg>