<?xml version="1.0" encoding="UTF-8" standalone="no"?><!DOCTYPE svg PUBLIC "-//W3C//DTD SVG 1.1//EN" "http://www.w3.org/Graphics/SVG/1.1/DTD/svg11.dtd"><svg width="100%" height="100%" viewBox="0 0 180 180" version="1.1" xmlns="http://www.w3.org/2000/svg" xmlns:xlink="http://www.w3.org/1999/xlink" xml:space="preserve" xmlns:serif="http://www.serif.com/" style="fill-rule:evenodd;clip-rule:evenodd;stroke-linejoin:round;stroke-miterlimit:2;"><g><path d="M22.875,15.186l0,36.098l-6.07,0l0,-27.634l-0.055,0l-4.258,4.42l-0.054,0l0,-6.337l5.59,-6.548l4.847,0.001Zm20.018,7.828l0,3.14c0,3.034 -1.65,5.056 -4.153,5.858c3.035,0.69 4.473,2.82 4.473,6.122l0,5.325c0,5.003 -2.66,8.25 -8.785,8.25c-6.177,0 -8.361,-3.512 -8.361,-8.997l0,-4.74l5.539,0l0,5.169c0,2.128 0.743,3.511 2.822,3.511c1.861,0 2.712,-1.329 2.712,-3.248l0,-5.962c0,-1.92 -0.851,-2.928 -2.98,-2.928l-2.554,0l0,-4.632l2.291,0c1.968,0 3.243,-1.014 3.243,-2.93l0,-3.885c0,-1.972 -0.69,-3.248 -2.605,-3.248c-1.915,0 -2.61,1.276 -2.61,3.513l0,3.673l-5.539,0l0,-3.193c0,-5.325 2.185,-9.052 8.465,-9.052c5.592,0 8.042,3.142 8.042,8.254m74.047,95.815c-0.742,-0.204 -3.845,-4.494 -1.392,-7.318c0.408,-0.464 -0.823,-1.83 -0.487,-1.857c1.343,-0.104 2.056,0.73 2.408,1.93c0.028,0.528 0.049,1.063 0.049,1.602c0,1.935 -0.202,3.82 -0.578,5.643m-7.573,13.955c-0.299,-0.078 -0.59,-0.185 -0.868,-0.32c-1.508,-0.77 -1.328,0.459 -2.07,0.188c-0.745,-0.276 0.838,-1.998 -1.392,-0.543c-2.218,1.452 -1.62,-0.225 -2.588,-2.683c-0.977,-2.462 1.114,-5.272 2.86,-5.909c2.403,-0.868 3.893,-1.045 5.02,-1.323c3.32,-0.83 4.022,-2.8 4.625,-1.6c0.114,0.224 0.223,0.437 0.323,0.637c0.195,0.359 0.417,1.086 0.429,1.801c-1.399,3.663 -3.559,6.987 -6.339,9.752m-19.496,8.047c-2.7,0 -5.305,-0.394 -7.769,-1.114c-0.353,-0.289 -0.555,-0.772 -0.334,-1.35c0.856,-2.23 3.403,-3.103 5.413,-3.297c4.483,-0.437 10.373,2.91 11.31,2.37c0.94,-0.54 2.835,-3.004 5.617,-2.9c1.897,0.073 1.883,0.391 2.52,0.632c-4.81,3.678 -10.702,5.667 -16.757,5.659m-3.757,-18.018c-0.381,0.622 -1.42,5.27 -2.117,4.73c-0.702,-0.542 0.283,-5.391 0.485,-5.76c1.09,-2.003 3.453,-1.905 1.632,1.03m11.29,-5.488c-0.547,0.485 -1.944,0.309 -2.644,-0.238c-0.694,-0.54 0.441,-1.439 0.856,-1.47c0.932,-0.083 2.329,1.216 1.787,1.708m12.2,0.047c-0.299,-0.11 -0.56,-0.394 -0.788,-1.072c-0.224,-0.678 0.347,-1.067 0.904,-0.792c0.567,0.286 1.304,1.133 1.304,1.586c0,0.452 -1.116,0.398 -1.42,0.278m1.174,0.85c0.931,-0.075 2.326,1.213 1.78,1.707c-0.543,0.49 -1.937,0.31 -2.636,-0.237c-0.696,-0.54 0.44,-1.436 0.856,-1.47m-29.652,11.023c-0.538,2.114 -1.165,2.875 -1.7,3.54c-0.533,0.675 -2.512,1.535 -3.769,1.443c-1.256,-0.094 -1.432,-3.45 -1.432,-5.175c0,-0.596 -0.843,1.17 -1.283,-2.42c-0.281,-2.298 -1.757,0.24 -1.86,-1.293c-0.106,-1.53 -0.844,-1.225 -1.62,-2.181c-0.77,-0.956 -1.732,0.093 -2.811,0.575c-1.072,0.478 -0.63,0.727 -2.155,0.247c-0.038,-0.01 -0.06,-0.022 -0.096,-0.035c-1.438,-3.405 -2.177,-7.064 -2.172,-10.76c0,-0.933 0.049,-1.85 0.137,-2.759c0.053,-0.091 0.107,-0.18 0.17,-0.256c1.462,-1.73 1.429,-2.136 1.429,-2.136l1.618,-0.558c0,0 2.582,0.397 4.53,1.13c1.6,0.6 4.124,1.959 5.591,1.361c1.061,-0.439 1.893,-1.017 1.792,-1.901c-0.119,-1.109 -0.992,-1.37 -2.049,-0.626c-0.39,0.275 -1.22,-1.67 -1.871,-1.57c-0.652,0.096 0.805,2.286 0.253,2.379c-0.555,0.095 -1.668,-2.283 -1.858,-2.668c-0.188,-0.381 -1.047,-1.335 -1.818,-0.608c-1.631,1.548 -4.278,1.455 -4.81,1.852c-1.619,1.211 -2.046,-0.397 -2.01,-1.377c0.066,-0.225 0.131,-0.45 0.203,-0.672c0.53,-0.583 2.425,-0.777 3.077,-0.342c0.714,0.478 1.227,-0.122 1.506,-0.413c0.285,-0.283 0.185,-0.742 0.007,-1.123c-0.182,-0.383 0.357,-0.666 0.726,-0.765c0.373,-0.098 1.605,-0.96 2.097,-1.25c0.495,-0.284 3.052,-0.593 4.198,-0.022c1.144,0.578 2.195,0.107 2.757,-0.555c0.707,-0.839 1.606,-1.478 2.005,-1.672c0.401,-0.188 -0.986,-1.481 -2.126,-0.07c-1.144,1.404 -1.726,1.534 -2.262,1.534c-0.538,0 -3.729,-0.796 -4.122,-1.805c-0.389,-1.007 0.998,-1.762 2.177,-2.333c1.177,-0.56 4.4,-0.554 5.223,-0.74c1.676,-0.367 3.817,-1.21 4.896,-0.475c1.073,0.723 -4.506,1.993 -2.672,2.983c0.652,0.358 3.601,-1.698 4.612,-2.223c2.377,-1.225 -2.306,-1.63 -1.698,-4.123c0.687,-2.817 -5.743,-1.728 -8.948,-1.487c4.44,-2.85 9.607,-4.363 14.883,-4.356c13.043,0 23.967,9.032 26.879,21.18c0.017,0.431 -0.028,0.862 -0.134,1.28c-0.251,0.997 -2.14,1.852 -3.237,0.25c-0.28,-0.404 -1.465,-1.524 -1.425,0.392c0.039,1.915 1.861,2.11 0.093,3.261c-1.764,1.148 -2.088,0.87 -2.905,1.162c-0.813,0.288 -1.604,2.262 -1.41,3.318c0.2,1.054 2.718,3.934 0.848,3.817c-0.438,-0.034 -3.74,-2.288 -4.286,-3.74c-0.575,-1.527 -1.204,-3.02 -1.649,-4.174c-0.451,-1.145 -1.616,-1.439 -2.604,-0.766c-0.982,0.675 0.274,1.346 -0.432,2.787c-0.705,1.436 -1.211,2.72 -2.25,1.533c-2.697,-3.091 -6.618,-1.566 -7.233,-5.007c-0.332,-1.865 -1.938,-1.685 -3.28,-2.743c-1.35,-1.05 -2.103,-1.622 -2.33,-0.86c-0.2,0.668 4.225,4.174 4.542,5.074c0.469,1.335 -1.325,2.513 -2.64,2.83c-1.307,0.314 -1.885,-0.739 -3.174,-2.08c-1.286,-1.339 -1.85,-2.297 -1.94,-1.244c-0.128,1.52 1.223,3.754 2.536,4.589c1.118,0.71 2.37,1.03 2.009,2.179c-0.364,1.152 -0.005,0.5 -1.26,1.74c-1.255,1.247 -1.494,1.646 -1.403,3.366c0.09,1.728 -0.358,1.828 -0.629,3.262c-0.267,1.436 -0.89,0.193 -1.432,2.299m-14.85,-30.466c0.063,-0.073 0.12,-0.135 0.144,-0.166c0.5,-0.568 1.492,-0.691 2.18,-0.798c0.688,-0.116 1.605,0.23 1.716,0.687c0.118,0.453 -1.726,1.288 -2.063,1.6c-0.954,0.881 -2.448,2.672 -3.321,2.865c-0.287,0.065 -0.522,0.02 -0.716,-0.075c0.57,-1.426 1.259,-2.802 2.06,-4.113m1.418,-2.818c0.357,-0.524 1.545,-2.023 1.69,-2.213c0.306,-0.393 0.913,-0.473 1.338,-0.55c0.42,-0.08 0.982,0.157 1.05,0.473c0.073,0.318 -0.163,1.546 -0.37,1.757c-0.582,0.603 -2.096,1.457 -2.931,1.323c-0.647,-0.1 -0.9,-0.599 -0.777,-0.79m87.877,16.336c-4.718,-6.62 -26.064,-33.047 -65.742,-33.047c-39.685,0 -61.025,26.427 -65.75,33.047c-0.2,0.283 -0.375,0.525 -0.515,0.734c0.14,0.213 0.314,0.457 0.515,0.744c4.725,6.616 26.065,33.043 65.75,33.043c39.678,0 61.024,-26.427 65.742,-33.043c0.206,-0.287 0.376,-0.53 0.512,-0.744c-0.136,-0.209 -0.306,-0.451 -0.512,-0.734m-98.18,-86.295l0,-7.08c0,-2.289 1.079,-3.951 3.67,-3.951c2.72,0 3.475,1.511 3.475,3.67l0,1.726l-2.244,0l0,-1.92c0,-0.909 -0.302,-1.425 -1.188,-1.425c-0.886,0 -1.253,0.627 -1.253,1.51l0,7.858c0,0.886 0.367,1.511 1.253,1.511c0.886,0 1.188,-0.56 1.188,-1.425l0,-2.698l2.244,0l0,2.526c0,2.095 -0.863,3.648 -3.474,3.648c-2.592,0 -3.671,-1.684 -3.671,-3.95m8.724,-10.858l2.46,0l0,12.628l2.936,0l0,2.007l-5.396,0l0,-14.635Zm6.736,14.636l2.46,0l0,-14.637l-2.46,0l0,14.637Zm11.074,-9.498l-0.063,0l-1.662,9.498l-1.144,0l-1.837,-9.498l-0.042,0l0,9.498l-2.03,0l0,-14.637l2.872,0l1.597,8.246l0.021,0l1.425,-8.246l3.11,0l0,14.637l-2.247,0l0,-9.498Zm6.567,4.856l1.964,0l-0.971,-5.871l-0.022,0l-0.971,5.87l0,0.001Zm-3.088,4.64l2.764,-14.634l2.807,0l2.783,14.635l-2.525,0l-0.453,-2.677l-2.612,0l-0.432,2.677l-2.332,0l0,-0.001Zm8.032,-14.634l6.541,0l0,2.008l-2.03,0l0,12.628l-2.481,0l0,-12.628l-2.03,0l0,-2.008Zm7.903,0l5.872,0l0,2.008l-3.411,0l0,4.186l2.44,0l0,1.986l-2.44,0l0,4.448l3.41,0l0,2.007l-5.87,0l-0.001,-14.635Zm-43.262,31.199l1.964,0l-0.972,-5.87l-0.02,0l-0.972,5.87Zm-3.088,4.641l2.763,-14.634l2.807,0l2.783,14.635l-2.525,0l-0.453,-2.676l-2.612,0l-0.432,2.676l-2.332,0l0.001,-0.001Zm9.047,-3.777l0,-7.08c0,-2.288 1.08,-3.95 3.671,-3.95c2.719,0 3.475,1.51 3.475,3.67l0,1.728l-2.244,0l0,-1.923c0,-0.906 -0.303,-1.425 -1.188,-1.425c-0.886,0 -1.253,0.627 -1.253,1.511l0,7.857c0,0.886 0.367,1.512 1.253,1.512c0.885,0 1.188,-0.56 1.188,-1.425l0,-2.698l2.244,0l0,2.525c0,2.095 -0.863,3.649 -3.475,3.649c-2.592,0 -3.67,-1.684 -3.67,-3.95m8.032,-10.858l6.54,0l0,2.008l-2.03,0l0,12.626l-2.48,0l0,-12.626l-2.03,0l0,-2.008Zm7.903,14.635l2.46,0l0,-14.635l-2.46,0l0,14.635Zm9.09,-3.39l0,-7.857c0,-0.884 -0.39,-1.51 -1.275,-1.51c-0.863,0 -1.251,0.626 -1.251,1.51l0,7.857c0,0.886 0.388,1.512 1.251,1.512c0.886,0 1.274,-0.626 1.274,-1.512m-4.987,-0.388l0,-7.08c0,-2.288 1.123,-3.95 3.713,-3.95c2.611,0 3.734,1.662 3.734,3.95l0,7.08c0,2.267 -1.123,3.95 -3.734,3.95c-2.59,0 -3.713,-1.683 -3.713,-3.95m11.12,-5.417l0,9.194l-2.074,0l0,-14.634l2.42,0l2.654,8.397l0,-8.397l2.05,0l0,14.635l-2.158,0l-2.892,-9.195Z" style="fill:#fff;"/></g></svg>