<?xml version="1.0" encoding="UTF-8" standalone="no"?><!DOCTYPE svg PUBLIC "-//W3C//DTD SVG 1.1//EN" "http://www.w3.org/Graphics/SVG/1.1/DTD/svg11.dtd"><svg width="100%" height="100%" viewBox="0 0 180 180" version="1.1" xmlns="http://www.w3.org/2000/svg" xmlns:xlink="http://www.w3.org/1999/xlink" xml:space="preserve" xmlns:serif="http://www.serif.com/" style="fill-rule:evenodd;clip-rule:evenodd;stroke-linejoin:round;stroke-miterlimit:2;"><g><path d="M17.431,23.684l0,27.789l6.104,0l0,-36.303l-4.874,0l-5.619,6.586l0,6.374l0.052,0l4.283,-4.447l0.054,0.001Zm16.439,19.385l0,-19.492c0,-2.195 0.8,-3.75 2.89,-3.75c2.14,0 2.944,1.555 2.944,3.75l0,19.493c0,2.197 -0.803,3.744 -2.944,3.744c-2.09,0 -2.89,-1.547 -2.89,-3.744m11.94,-0.964l0,-17.565c0,-5.677 -2.838,-9.798 -9.05,-9.798c-6.155,0 -8.996,4.12 -8.996,9.798l0,17.564c0,5.62 2.84,9.796 8.996,9.796c6.212,0 9.05,-4.175 9.05,-9.796m14.147,-24.934l0,4.574l0.824,0c0.845,0 1.214,-0.432 1.214,-1.214l0,-2.167c0,-0.803 -0.369,-1.193 -1.214,-1.193l-0.824,0Zm0,5.94l0,6.741l-2.471,0l0,-14.696l3.598,0c2.494,0 3.404,1.235 3.404,3.295l0,1.886c0,1.583 -0.564,2.515 -1.973,2.84l2.363,6.675l-2.6,0l-2.321,-6.74l0,-0.001Zm6.093,-7.955l5.898,0l0,2.015l-3.428,0l0,4.206l2.451,0l0,1.994l-2.451,0l0,4.466l3.427,0l0,2.015l-5.897,0l0,-14.696Zm10.452,12.68c1.018,0 1.41,-0.607 1.41,-1.494l0,-7.696c0,-0.869 -0.392,-1.476 -1.41,-1.476l-1.041,0l0,10.666l1.041,0Zm3.88,-8.735l0,6.806c0,2.254 -0.931,3.946 -3.576,3.946l-3.817,0l0,-14.698l3.817,0c2.645,0 3.577,1.67 3.577,3.946l-0.001,0Zm8.804,-3.945l0,11.12c0,2.276 -0.976,3.75 -3.49,3.75c-2.602,0 -3.686,-1.474 -3.686,-3.75l0,-11.12l2.471,0l0,11.358c0,0.868 0.346,1.452 1.216,1.452c0.865,0 1.212,-0.584 1.212,-1.452l0,-11.358l2.277,0Zm1.627,10.904l0,-7.11c0,-2.298 1.084,-3.968 3.687,-3.968c2.73,0 3.488,1.518 3.488,3.685l0,1.735l-2.253,0l0,-1.93c0,-0.91 -0.304,-1.43 -1.193,-1.43c-0.89,0 -1.258,0.628 -1.258,1.517l0,7.89c0,0.89 0.369,1.518 1.258,1.518c0.89,0 1.193,-0.565 1.193,-1.431l0,-2.71l2.253,0l0,2.537c0,2.102 -0.866,3.663 -3.488,3.663c-2.603,0 -3.687,-1.69 -3.687,-3.967m8.738,-10.903l5.898,0l0,2.015l-3.427,0l0,4.206l2.451,0l0,1.994l-2.451,0l0,4.466l3.427,0l0,2.015l-5.899,0l0.001,-14.696Zm10.949,12.68c1.019,0 1.41,-0.607 1.41,-1.494l0,-7.696c0,-0.869 -0.391,-1.476 -1.41,-1.476l-1.04,0l0,10.666l1.04,0Zm3.881,-8.735l0,6.806c0,2.254 -0.932,3.946 -3.577,3.946l-3.817,0l0,-14.698l3.817,0c2.645,0 3.577,1.67 3.577,3.946Zm-56.901,32.121l2.47,0l0,-14.696l-2.47,0l0,14.696Zm6.157,-9.233l0,9.234l-2.08,0l0,-14.696l2.428,0l2.666,8.432l0,-8.432l2.058,0l0,14.696l-2.167,0l-2.905,-9.234Zm6.483,-5.462l5.896,0l0,2.017l-3.426,0l0,4.203l2.452,0l0,1.994l-2.452,0l0,4.467l3.426,0l0,2.015l-5.896,0l0,-14.696Zm11.816,11.423l0,-8.02c0,-0.89 -0.388,-1.519 -1.28,-1.519c-0.866,0 -1.256,0.629 -1.256,1.52l0,8.019c0,0.866 0.39,1.517 1.257,1.517c0.891,0 1.28,-0.651 1.28,-1.517l-0.001,0Zm-2.19,4.27l0,-0.997c-1.97,-0.348 -2.816,-1.8 -2.816,-3.794l0,-7.11c0,-2.298 1.128,-3.965 3.727,-3.965c2.624,0 3.75,1.667 3.75,3.965l0,7.11c0,1.604 -0.563,2.862 -1.82,3.47l1.82,0.345l0,1.844l-4.66,-0.868l-0.001,0Zm13.226,-15.693l0,11.119c0,2.276 -0.975,3.75 -3.488,3.75c-2.603,0 -3.687,-1.474 -3.687,-3.75l0,-11.12l2.47,0l0,11.358c0,0.868 0.348,1.453 1.217,1.453c0.866,0 1.212,-0.585 1.212,-1.453l0,-11.357l2.276,0Zm3.884,10.035l1.972,0l-0.975,-5.896l-0.022,0l-0.975,5.896Zm-3.1,4.66l2.775,-14.696l2.816,0l2.797,14.697l-2.536,0l-0.455,-2.688l-2.622,0l-0.434,2.688l-2.34,0l-0.001,-0.001Zm9.41,-14.695l2.47,0l0,12.68l2.95,0l0,2.016l-5.42,0l0,-14.696Zm6.524,14.695l2.471,0l0,-14.696l-2.47,0l-0.001,14.696Zm3.601,-14.695l6.569,0l0,2.017l-2.037,0l0,12.68l-2.493,0l0,-12.68l-2.039,0l0,-2.017Zm7.719,14.695l2.47,0l0,-14.696l-2.47,0l0,14.696Zm3.88,-14.695l5.897,0l0,2.017l-3.426,0l0,4.203l2.452,0l0,1.994l-2.452,0l0,4.467l3.426,0l0,2.015l-5.896,0l-0.001,-14.696Zm6.875,11.531l0,-1.971l2.297,0l0,2.015c0,0.824 0.37,1.3 1.216,1.3c0.779,0 1.126,-0.52 1.126,-1.3l0,-0.563c0,-0.845 -0.347,-1.366 -1.105,-2.082l-1.452,-1.453c-1.41,-1.387 -2.06,-2.232 -2.06,-3.923l0,-0.499c0,-1.821 1.061,-3.23 3.468,-3.23c2.47,0 3.447,1.215 3.447,3.34l0,1.19l-2.254,0l0,-1.277c0,-0.847 -0.391,-1.258 -1.17,-1.258c-0.695,0 -1.171,0.39 -1.171,1.214l0,0.303c0,0.824 0.455,1.3 1.171,1.994l1.581,1.562c1.345,1.366 1.995,2.188 1.995,3.814l0,0.716c0,2.016 -1.086,3.447 -3.599,3.447c-2.514,0 -3.49,-1.41 -3.49,-3.34m-72.367,50.313l-16.92,16.92l16.92,16.92l0,-33.84Zm61.227,33.84l16.918,-16.92l-16.918,-16.92l0,33.84Zm-13.669,-47.459l-16.92,-16.92l-16.92,16.92l33.84,0Zm-33.839,61.139l16.918,16.922l16.922,-16.921l-33.84,-0.001Zm-1.475,-36.2l36.737,0l0,-10.195l-36.737,0l0,10.195Zm0,21.447l36.737,0l0,-10.659l-36.737,0l0,10.659Z" style="fill:#fff;"/></g></svg>