<?xml version="1.0" encoding="UTF-8" standalone="no"?><!DOCTYPE svg PUBLIC "-//W3C//DTD SVG 1.1//EN" "http://www.w3.org/Graphics/SVG/1.1/DTD/svg11.dtd"><svg width="100%" height="100%" viewBox="0 0 180 180" version="1.1" xmlns="http://www.w3.org/2000/svg" xmlns:xlink="http://www.w3.org/1999/xlink" xml:space="preserve" xmlns:serif="http://www.serif.com/" style="fill-rule:evenodd;clip-rule:evenodd;stroke-linejoin:round;stroke-miterlimit:2;"><g><path d="M18.582,23.751l0.054,0l0,27.763l6.07,0l0,-36.267l-4.85,0l-5.589,6.579l0,6.365l0.051,0l4.264,-4.44Zm9.744,-1.015l0,4.386l5.54,0l0,-4.548c0,-2.192 1.068,-2.832 2.344,-2.832c1.174,0 2.184,0.48 2.184,2.728l0,2.993c0,2.996 -0.265,4.172 -2.239,6.26l-3.407,3.636c-3.302,3.531 -4.529,5.884 -4.529,9.468l0,6.688l15.769,0l0,-4.975l-9.963,0l0,-1.712c0,-2.834 1.013,-3.904 2.556,-5.562l3.89,-4.12c3.143,-3.368 3.837,-5.51 3.837,-9.148l0,-3.528c0,-5.19 -2.503,-7.65 -7.938,-7.65c-5.328,0 -8.044,2.836 -8.044,7.916m111.825,73.734c-7.312,-5.794 -16.072,-6.42 -19.494,-6.42c-1.806,0 -3.48,0.163 -4.704,0.456l-0.482,0.111c-4.625,1.098 -12.368,2.933 -21.383,14.167l-0.264,0.33c-0.15,0.214 -0.226,0.443 -0.226,0.68c0,0.206 0.052,0.402 0.16,0.596l0.203,0.337c1.489,2.5 2.726,4.67 3.708,6.512c0.203,0.397 0.613,0.648 1.06,0.648c0.329,0 0.643,-0.136 0.868,-0.376c0.062,-0.085 0.127,-0.171 0.169,-0.238c7.785,-10.815 13.888,-12.255 17.925,-13.207l0.5,-0.12c0.556,-0.135 1.457,-0.21 2.471,-0.21c1.88,0 8.404,0.312 13.49,4.348c4.53,3.59 6.834,9.324 6.834,17.042c0,12.935 -6.233,17.98 -11.465,19.935c-1.991,0.749 -4.15,1.13 -6.388,1.13c-5.388,0 -9.532,-2.165 -9.588,-2.194l-0.374,-0.181c-4.497,-1.963 -11.212,-6.05 -17.56,-18.853c-13.016,-26.25 -23.948,-28.736 -31.187,-30.383l-0.381,-0.084c-0.554,-0.128 -2.12,-0.42 -4.666,-0.42c-4.191,0 -12.256,0.825 -19.166,6.365c-4.718,3.78 -10.345,11.123 -10.345,24.632c0,8.232 1.689,13.669 6.017,19.388c0.814,1.116 8.356,10.896 22.837,10.896c2.145,0 4.37,-0.22 6.613,-0.651c2.643,-0.509 6.723,-1.822 11.28,-5.178l3.806,3.45c0.426,0.39 1.164,0.35 1.547,-0.072c0.184,-0.198 0.284,-0.465 0.274,-0.726l2.943,-18.217l0.002,-0.212c-0.002,-0.302 -0.13,-0.59 -0.353,-0.794c-0.193,-0.183 -0.441,-0.282 -0.763,-0.282l-0.007,0l-17.662,4.902l-0.334,0.055c-0.225,0.048 -0.42,0.164 -0.562,0.326c-0.185,0.203 -0.288,0.468 -0.288,0.743c0,0.311 0.132,0.608 0.362,0.817l3.66,3.323c-1.924,1.185 -3.846,1.97 -5.716,2.333c-1.592,0.306 -3.17,0.46 -4.685,0.46c-10.007,0 -14.93,-6.594 -15.134,-6.873l-0.099,-0.137c-3.044,-4.015 -4.073,-7.435 -4.073,-13.551c0,-7.744 2.258,-13.481 6.707,-17.051c4.954,-3.967 11.326,-4.276 13.163,-4.276c1.005,0 1.917,0.076 2.502,0.21l0.39,0.088c5.78,1.313 13.694,3.113 24.663,25.243c5.796,11.682 13.062,19.325 22.195,23.354c1.063,0.543 6.727,3.256 13.994,3.256c3.384,0 6.667,-0.584 9.75,-1.739c5.343,-1.999 17.754,-8.83 17.754,-29.032c0,-13.499 -5.712,-20.86 -10.497,-24.657m-79.822,-79.279l0,4.571l0.822,0c0.84,0 1.207,-0.432 1.207,-1.214l0,-2.167c0,-0.803 -0.367,-1.19 -1.207,-1.19l-0.823,0l0.001,0Zm0,5.937l0,6.743l-2.46,0l0,-14.698l3.582,0c2.484,0 3.39,1.235 3.39,3.297l0,1.884c0,1.583 -0.56,2.515 -1.964,2.84l2.353,6.677l-2.59,0l-2.312,-6.743l0.001,0Zm6.09,-7.954l5.871,0l0,2.017l-3.41,0l0,4.203l2.44,0l0,1.994l-2.44,0l0,4.467l3.41,0l0,2.015l-5.87,0l-0.001,-14.696Zm7.298,11.531l0,-1.971l2.288,0l0,2.015c0,0.824 0.366,1.3 1.21,1.3c0.776,0 1.12,-0.52 1.12,-1.3l0,-0.563c0,-0.845 -0.344,-1.366 -1.1,-2.082l-1.446,-1.453c-1.402,-1.388 -2.05,-2.233 -2.05,-3.923l0,-0.5c0,-1.821 1.057,-3.23 3.454,-3.23c2.46,0 3.433,1.215 3.433,3.34l0,1.19l-2.247,0l0,-1.277c0,-0.847 -0.389,-1.258 -1.165,-1.258c-0.691,0 -1.167,0.39 -1.167,1.214l0,0.304c0,0.824 0.455,1.3 1.167,1.994l1.574,1.561c1.34,1.366 1.986,2.189 1.986,3.814l0,0.716c0,2.016 -1.08,3.447 -3.582,3.447c-2.504,0 -3.476,-1.41 -3.476,-3.339m11.013,-9.513l0,5.786l0.908,0c0.842,0 1.21,-0.412 1.21,-1.215l0,-3.38c0,-0.804 -0.368,-1.192 -1.21,-1.192l-0.908,0l0,0.001Zm-2.46,-2.018l3.648,0c2.483,0 3.39,1.235 3.39,3.297l0,3.098c0,2.06 -0.907,3.316 -3.39,3.316l-1.188,0l0,4.987l-2.46,0l0,-14.698Zm13.537,11.294l0,-7.89c0,-0.89 -0.387,-1.518 -1.274,-1.518c-0.863,0 -1.252,0.629 -1.252,1.518l0,7.89c0,0.89 0.389,1.516 1.252,1.516c0.887,0 1.274,-0.627 1.274,-1.516m-4.986,-0.39l0,-7.112c0,-2.296 1.123,-3.965 3.712,-3.965c2.613,0 3.734,1.67 3.734,3.965l0,7.112c0,2.275 -1.121,3.967 -3.734,3.967c-2.59,0 -3.712,-1.692 -3.712,-3.967m11.162,-5.441l0,9.235l-2.073,0l0,-14.697l2.418,0l2.655,8.432l0,-8.432l2.05,0l0,14.697l-2.159,0l-2.891,-9.235Zm6.586,6.069l0,-1.971l2.288,0l0,2.015c0,0.824 0.367,1.3 1.21,1.3c0.776,0 1.122,-0.52 1.122,-1.3l0,-0.563c0,-0.845 -0.346,-1.366 -1.102,-2.082l-1.446,-1.452c-1.403,-1.388 -2.05,-2.233 -2.05,-3.923l0,-0.5c0,-1.821 1.057,-3.23 3.454,-3.23c2.46,0 3.432,1.215 3.432,3.34l0,1.19l-2.244,0l0,-1.277c0,-0.847 -0.39,-1.258 -1.165,-1.258c-0.693,0 -1.167,0.39 -1.167,1.214l0,0.304c0,0.824 0.453,1.3 1.167,1.994l1.574,1.561c1.34,1.366 1.986,2.189 1.986,3.814l0,0.716c0,2.016 -1.08,3.447 -3.583,3.447c-2.505,0 -3.476,-1.41 -3.476,-3.339m8.55,3.166l2.46,0l0,-14.698l-2.46,0l0,14.698Zm6.581,-6.612l0,4.596l1.08,0c0.824,0 1.214,-0.413 1.214,-1.192l0,-2.212c0,-0.78 -0.368,-1.19 -1.236,-1.19l-1.058,0l0,-0.002Zm0,-1.886l0.869,0c0.8,0 1.168,-0.411 1.168,-1.191l0,-1.8c0,-0.803 -0.367,-1.192 -1.191,-1.192l-0.846,0l0,4.183Zm-2.46,-6.2l3.562,0c2.46,0 3.283,1.15 3.283,3.232l0,1.493c0,1.237 -0.455,2.017 -1.47,2.341c1.236,0.283 1.837,1.107 1.837,2.451l0,1.95c0,2.081 -0.922,3.23 -3.383,3.23l-3.829,0l0,-14.697Zm8.682,0.001l2.46,0l0,12.68l2.939,0l0,2.016l-5.399,0l0,-14.696Zm6.757,0l5.876,0l0,2.017l-3.416,0l0,4.203l2.448,0l0,1.994l-2.448,0l0,4.467l3.416,0l0,2.015l-5.876,0l0,-14.696Zm-78.809,32.489l0,-7.11c0,-2.297 1.079,-3.967 3.671,-3.967c2.72,0 3.474,1.518 3.474,3.687l0,1.734l-2.244,0l0,-1.93c0,-0.91 -0.302,-1.431 -1.188,-1.431c-0.886,0 -1.253,0.63 -1.253,1.517l0,7.89c0,0.89 0.367,1.518 1.253,1.518c0.886,0 1.188,-0.563 1.188,-1.431l0,-2.71l2.244,0l0,2.537c0,2.103 -0.863,3.663 -3.474,3.663c-2.592,0 -3.671,-1.69 -3.671,-3.967m13.69,0.39l0,-7.89c0,-0.887 -0.387,-1.517 -1.275,-1.517c-0.863,0 -1.251,0.63 -1.251,1.517l0,7.89c0,0.89 0.388,1.518 1.251,1.518c0.888,0 1.274,-0.628 1.274,-1.518m-4.987,-0.39l0,-7.11c0,-2.297 1.125,-3.967 3.713,-3.967c2.612,0 3.734,1.67 3.734,3.967l0,7.11c0,2.277 -1.122,3.967 -3.734,3.967c-2.588,0 -3.713,-1.69 -3.713,-3.967m11.142,-5.44l0,9.233l-2.074,0l0,-14.695l2.419,0l2.655,8.432l0,-8.432l2.05,0l0,14.696l-2.157,0l-2.893,-9.234Zm6.541,6.07l0,-1.973l2.288,0l0,2.017c0,0.824 0.368,1.298 1.211,1.298c0.775,0 1.121,-0.518 1.121,-1.298l0,-0.565c0,-0.845 -0.346,-1.364 -1.1,-2.08l-1.446,-1.453c-1.404,-1.387 -2.05,-2.232 -2.05,-3.923l0,-0.5c0,-1.82 1.055,-3.229 3.452,-3.229c2.46,0 3.433,1.214 3.433,3.34l0,1.19l-2.245,0l0,-1.28c0,-0.844 -0.39,-1.256 -1.165,-1.256c-0.692,0 -1.167,0.39 -1.167,1.214l0,0.304c0,0.824 0.454,1.3 1.167,1.994l1.575,1.56c1.339,1.368 1.986,2.19 1.986,3.815l0,0.717c0,2.015 -1.08,3.446 -3.584,3.446c-2.504,0 -3.476,-1.41 -3.476,-3.338m15.72,-11.533l0,11.12c0,2.278 -0.974,3.751 -3.476,3.751c-2.592,0 -3.67,-1.473 -3.67,-3.752l0,-11.118l2.46,0l0,11.358c0,0.868 0.347,1.454 1.21,1.454c0.865,0 1.209,-0.586 1.209,-1.454l0,-11.359l2.267,0Zm8.398,5.159l-0.064,0l-1.662,9.539l-1.144,0l-1.835,-9.539l-0.044,0l0,9.539l-2.028,0l0,-14.699l2.872,0l1.596,8.282l0.02,0l1.426,-8.282l3.109,0l0,14.699l-2.246,0l0,-9.539Zm6.329,-3.143l0,5.789l0.906,0c0.842,0 1.21,-0.413 1.21,-1.215l0,-3.38c0,-0.804 -0.368,-1.194 -1.21,-1.194l-0.906,0Zm-2.46,-2.017l3.648,0c2.483,0 3.388,1.237 3.388,3.297l0,3.1c0,2.058 -0.905,3.316 -3.388,3.316l-1.188,0l0,4.986l-2.46,0l0,-14.699Zm7.837,0.001l6.537,0l0,2.017l-2.024,0l0,12.68l-2.484,0l0,-12.68l-2.03,0l0.001,-2.017Zm7.707,14.696l2.46,0l0,-14.695l-2.46,0l0,14.695Zm8.87,-3.403l0,-7.89c0,-0.887 -0.39,-1.517 -1.268,-1.517c-0.869,0 -1.259,0.63 -1.259,1.517l0,7.89c0,0.89 0.39,1.518 1.259,1.518c0.878,0 1.268,-0.628 1.268,-1.518m-4.987,-0.39l0,-7.11c0,-2.297 1.125,-3.967 3.719,-3.967c2.614,0 3.729,1.67 3.729,3.967l0,7.11c0,2.277 -1.115,3.967 -3.73,3.967c-2.593,0 -3.718,-1.69 -3.718,-3.967m10.953,-5.44l0,9.233l-2.07,0l0,-14.695l2.414,0l2.65,8.432l0,-8.432l2.058,0l0,14.696l-2.158,0l-2.894,-9.234Zm-82.053,26.16l1.965,0l-0.972,-5.896l-0.021,0l-0.972,5.896Zm-3.086,4.66l2.763,-14.696l2.806,0l2.785,14.697l-2.527,0l-0.453,-2.688l-2.611,0l-0.433,2.688l-2.33,0l0,-0.001Zm11.507,-9.233l0,9.234l-2.073,0l0,-14.696l2.418,0l2.655,8.432l0,-8.432l2.05,0l0,14.696l-2.159,0l-2.891,-9.234Zm10.02,7.218c1.014,0 1.402,-0.607 1.402,-1.495l0,-7.696c0,-0.866 -0.388,-1.473 -1.402,-1.473l-1.037,0l0,10.664l1.037,0Zm3.862,-8.736l0,6.807c0,2.253 -0.927,3.946 -3.56,3.946l-3.801,0l0,-14.698l3.801,0c2.633,0 3.56,1.669 3.56,3.945Zm6.263,-1.928l0,5.786l0.909,0c0.841,0 1.209,-0.41 1.209,-1.214l0,-3.381c0,-0.803 -0.368,-1.191 -1.21,-1.191l-0.908,0Zm-2.46,-2.017l3.648,0c2.483,0 3.39,1.235 3.39,3.296l0,3.1c0,2.058 -0.907,3.315 -3.39,3.315l-1.188,0l0,4.987l-2.46,0l0,-14.698Zm10.839,2.017l0,4.572l0.82,0c0.842,0 1.21,-0.432 1.21,-1.214l0,-2.167c0,-0.803 -0.368,-1.191 -1.21,-1.191l-0.82,0Zm0,5.938l0,6.743l-2.46,0l0,-14.698l3.581,0c2.485,0 3.39,1.235 3.39,3.296l0,1.885c0,1.583 -0.56,2.515 -1.963,2.84l2.353,6.677l-2.592,0l-2.309,-6.743Zm10.902,3.339l0,-7.89c0,-0.89 -0.386,-1.518 -1.274,-1.518c-0.861,0 -1.251,0.628 -1.251,1.518l0,7.89c0,0.89 0.39,1.516 1.251,1.516c0.888,0 1.274,-0.627 1.274,-1.516m-4.987,-0.39l0,-7.112c0,-2.296 1.125,-3.965 3.713,-3.965c2.613,0 3.734,1.67 3.734,3.965l0,7.112c0,2.274 -1.12,3.967 -3.734,3.967c-2.588,0 -3.713,-1.693 -3.713,-3.967m12.417,1.777c1.014,0 1.404,-0.607 1.404,-1.495l0,-7.696c0,-0.866 -0.39,-1.473 -1.404,-1.473l-1.037,0l0,10.664l1.037,0Zm3.864,-8.736l0,6.807c0,2.253 -0.928,3.946 -3.562,3.946l-3.8,0l0,-14.698l3.8,0c2.634,0 3.562,1.669 3.562,3.945Zm8.62,-3.945l0,11.12c0,2.276 -0.978,3.75 -3.484,3.75c-2.592,0 -3.66,-1.474 -3.66,-3.75l0,-11.12l2.458,0l0,11.358c0,0.868 0.346,1.452 1.202,1.452c0.87,0 1.214,-0.584 1.214,-1.452l0,-11.358l2.27,0Zm1.47,10.904l0,-7.112c0,-2.296 1.079,-3.965 3.662,-3.965c2.728,0 3.483,1.517 3.483,3.684l0,1.735l-2.247,0l0,-1.929c0,-0.91 -0.3,-1.43 -1.192,-1.43c-0.879,0 -1.246,0.627 -1.246,1.517l0,7.89c0,0.89 0.367,1.517 1.246,1.517c0.891,0 1.192,-0.564 1.192,-1.43l0,-2.71l2.247,0l0,2.536c0,2.104 -0.868,3.664 -3.483,3.664c-2.583,0 -3.662,-1.69 -3.662,-3.967m8.27,-10.904l6.534,0l0,2.018l-2.027,0l0,12.679l-2.481,0l0,-12.68l-2.026,0l0,-2.017Zm7.702,14.697l2.46,0l0,-14.697l-2.46,0l0,14.697Zm8.871,-3.403l0,-7.89c0,-0.89 -0.39,-1.518 -1.269,-1.518c-0.868,0 -1.258,0.628 -1.258,1.518l0,7.89c0,0.89 0.39,1.516 1.258,1.516c0.879,0 1.269,-0.627 1.269,-1.516m-4.986,-0.39l0,-7.112c0,-2.296 1.123,-3.965 3.717,-3.965c2.615,0 3.73,1.67 3.73,3.965l0,7.112c0,2.274 -1.115,3.967 -3.73,3.967c-2.594,0 -3.717,-1.693 -3.717,-3.967m10.952,-5.441l0,9.234l-2.07,0l0,-14.696l2.414,0l2.65,8.432l0,-8.432l2.058,0l0,14.696l-2.158,0l-2.894,-9.234Z" style="fill:#fff;"/></g></svg>