<?xml version="1.0" encoding="UTF-8" standalone="no"?><!DOCTYPE svg PUBLIC "-//W3C//DTD SVG 1.1//EN" "http://www.w3.org/Graphics/SVG/1.1/DTD/svg11.dtd"><svg width="100%" height="100%" viewBox="0 0 180 180" version="1.1" xmlns="http://www.w3.org/2000/svg" xmlns:xlink="http://www.w3.org/1999/xlink" xml:space="preserve" xmlns:serif="http://www.serif.com/" style="fill-rule:evenodd;clip-rule:evenodd;stroke-linejoin:round;stroke-miterlimit:2;"><g><path d="M33.807,46.334l-9.99,0l0,-1.71c0,-2.83 1.015,-3.9 2.562,-5.556l3.901,-4.114c3.152,-3.365 3.846,-5.501 3.846,-9.136l0,-3.527c0,-5.18 -2.511,-7.64 -7.96,-7.64c-5.34,0 -8.068,2.833 -8.068,7.908l0,4.38l5.558,0l0,-4.542c0,-2.188 1.068,-2.831 2.351,-2.831c1.173,0 2.19,0.481 2.19,2.725l0,2.991c0,2.995 -0.268,4.17 -2.244,6.253l-3.422,3.632c-3.31,3.53 -4.538,5.879 -4.538,9.457l0,6.68l15.814,0l0,-4.97Zm40.62,106.351l0,2.526c-0.001,0.017 -0.009,0.038 -0.009,0.056c0,0.023 0.008,0.042 0.01,0.06c0.027,0.623 0.541,1.124 1.164,1.135c0.007,0 0.015,0.005 0.023,0.005c0.01,0 0.02,-0.005 0.029,-0.005l29.636,0c0.008,0 0.017,0.005 0.026,0.005c0.009,0 0.016,-0.005 0.025,-0.005c0.643,-0.012 1.165,-0.543 1.168,-1.186c0,-0.002 0.006,-0.004 0.006,-0.01c0,0 -0.006,-0.003 -0.006,-0.006l0,-2.86c16.684,-5.469 29.181,-18.99 31.931,-35.468c0.006,-0.035 0.01,-0.069 0.014,-0.099c0.011,-0.054 0.017,-0.11 0.018,-0.165c0,-0.663 -0.534,-1.199 -1.199,-1.199l-94.451,0c-0.666,0 -1.202,0.536 -1.202,1.199l0.063,0.54c2.887,16.634 15.727,30.23 32.754,35.477m32.046,-77.527c-0.39,0.553 -9.515,13.69 0.203,24.314c4.458,4.876 4.072,9.179 2.799,12.084l6.233,0c1.264,-4.29 0.742,-9.67 -4.319,-15.2c-7.161,-7.828 0.092,-18.41 0.201,-18.573c0.853,-1.208 0.397,-2.763 -1.013,-3.489c-1.414,-0.72 -3.247,-0.336 -4.104,0.864m-15.788,36.398l6.236,0c1.26,-4.293 0.737,-9.67 -4.324,-15.2c-7.163,-7.83 0.083,-18.404 0.2,-18.579c0.849,-1.202 0.398,-2.755 -1.016,-3.483c-1.408,-0.719 -3.245,-0.338 -4.098,0.864c-0.391,0.552 -9.526,13.69 0.2,24.314c4.459,4.878 4.07,9.18 2.802,12.084m-21.796,-36.398c-0.395,0.553 -9.52,13.69 0.199,24.314c4.46,4.878 4.075,9.18 2.804,12.084l6.235,0c1.26,-4.289 0.739,-9.669 -4.326,-15.2c-7.163,-7.828 0.088,-18.41 0.205,-18.577c0.846,-1.204 0.395,-2.759 -1.019,-3.485c-1.408,-0.726 -3.243,-0.338 -4.098,0.864m-14.955,-47.408l3.748,0l0,2.013l-6.325,0l0,-2.013l3.876,-10.654l-3.486,0l0,-2.013l6.085,0l0,2.013l-3.898,10.654Zm5.415,-12.666l5.89,0l0,2.013l-3.422,0l0,4.2l2.448,0l0,1.992l-2.448,0l0,4.462l3.421,0l0,2.013l-5.888,0l-0.001,-14.68Zm9.897,2.013l0,4.57l0.823,0c0.845,0 1.213,-0.435 1.213,-1.214l0,-2.163c0,-0.802 -0.368,-1.192 -1.213,-1.192l-0.823,0l0,-0.001Zm0,5.933l0,6.734l-2.468,0l0,-14.68l3.594,0c2.49,0 3.4,1.234 3.4,3.291l0,1.883c0,1.58 -0.563,2.511 -1.97,2.836l2.36,6.67l-2.6,0l-2.316,-6.734Zm11.089,3.335l0,-7.883c0,-0.887 -0.39,-1.514 -1.278,-1.514c-0.865,0 -1.256,0.627 -1.256,1.514l0,7.883c0,0.888 0.391,1.514 1.256,1.514c0.889,0 1.278,-0.626 1.278,-1.514m-5.002,-0.392l0,-7.102c0,-2.295 1.126,-3.96 3.724,-3.96c2.62,0 3.746,1.665 3.746,3.96l0,7.102c0,2.274 -1.126,3.965 -3.746,3.965c-2.598,0 -3.724,-1.69 -3.724,-3.965m-18.987,18.832l-2.383,0l0,6.472l-2.466,0l0,-14.677l2.466,0l0,6.212l2.383,0l0,-6.212l2.49,0l0,14.678l-2.49,0l0,-6.473Zm11.284,-8.206l0,11.107c0,2.273 -0.975,3.745 -3.485,3.745c-2.6,0 -3.683,-1.472 -3.683,-3.745l0,-11.107l2.468,0l0,11.345c0,0.867 0.347,1.45 1.215,1.45c0.863,0 1.21,-0.583 1.21,-1.45l0,-11.345l2.275,0Zm3.705,5.456l0,9.222l-2.078,0l0,-14.677l2.425,0l2.662,8.42l0,-8.42l2.056,0l0,14.678l-2.165,0l-2.9,-9.223Zm10.416,1.385l3.51,0l0,7.837l-1.777,0l0,-1.602c-0.325,1.105 -1.017,1.777 -2.36,1.777c-2.123,0 -3.097,-1.689 -3.097,-3.963l0,-7.102c0,-2.295 1.105,-3.962 3.703,-3.962c2.729,0 3.53,1.516 3.53,3.68l0,1.3l-2.252,0l0,-1.493c0,-0.91 -0.347,-1.43 -1.234,-1.43c-0.888,0 -1.28,0.628 -1.28,1.516l0,7.88c0,0.89 0.369,1.517 1.215,1.517c0.8,0 1.212,-0.455 1.212,-1.407l0,-2.598l-1.17,0l0,-1.95Zm5.135,-6.841l5.889,0l0,2.013l-3.422,0l0,4.2l2.449,0l0,1.992l-2.449,0l0,4.462l3.422,0l0,2.013l-5.89,0l0.001,-14.68Zm9.895,2.013l0,4.569l0.824,0c0.844,0 1.212,-0.434 1.212,-1.213l0,-2.165c0,-0.802 -0.368,-1.191 -1.212,-1.191l-0.824,0Zm0,5.933l0,6.733l-2.467,0l0,-14.68l3.594,0c2.489,0 3.4,1.235 3.4,3.292l0,1.882c0,1.581 -0.564,2.512 -1.97,2.836l2.36,6.67l-2.6,0l-2.317,-6.733Z" style="fill:#fff;"/></g></svg>