<?xml version="1.0" encoding="UTF-8" standalone="no"?><!DOCTYPE svg PUBLIC "-//W3C//DTD SVG 1.1//EN" "http://www.w3.org/Graphics/SVG/1.1/DTD/svg11.dtd"><svg width="100%" height="100%" viewBox="0 0 180 180" version="1.1" xmlns="http://www.w3.org/2000/svg" xmlns:xlink="http://www.w3.org/1999/xlink" xml:space="preserve" xmlns:serif="http://www.serif.com/" style="fill-rule:evenodd;clip-rule:evenodd;stroke-linejoin:round;stroke-miterlimit:2;"><g><path d="M25.704,51.67c6.128,0 8.79,-3.25 8.79,-8.255l0,-5.325c0,-3.304 -1.44,-5.436 -4.474,-6.126c2.502,-0.8 4.154,-2.824 4.154,-5.86l0,-3.141c0,-5.114 -2.45,-8.256 -8.043,-8.256c-6.286,0 -8.47,3.725 -8.47,9.054l0,3.194l5.538,0l0,-3.674c0,-2.237 0.695,-3.515 2.612,-3.515c1.919,0 2.608,1.278 2.608,3.248l0,3.889c0,1.919 -1.278,2.93 -3.246,2.93l-2.293,0l0,4.635l2.558,0c2.13,0 2.98,1.01 2.98,2.928l0,5.966c0,1.915 -0.85,3.25 -2.714,3.25c-2.077,0 -2.824,-1.387 -2.824,-3.515l0,-5.169l-5.536,0l0,4.74c0,5.488 2.183,9.003 8.36,9.003m124.04,60.327c0,-5.04 -3.234,-9.125 -8.131,-9.125c-2.45,0 -5.404,2.681 -7.009,4.331c-1.604,-1.651 -4.363,-4.335 -6.813,-4.335c-4.898,0 -8.33,4.086 -8.33,9.128c0,2.52 0.992,4.799 2.6,6.453l12.554,12.579l12.538,-12.565l-0.01,-0.01c1.675,-1.73 2.608,-4.048 2.6,-6.456" style="fill:#fff;"/><path d="M96.29,151.562l-0.13,-0.003c-0.951,-0.059 -1.743,-0.771 -1.904,-1.71l-6.376,-37.141l-9.662,17.91c-0.422,0.779 -1.3,1.204 -2.173,1.051c-0.874,-0.155 -1.554,-0.858 -1.682,-1.736l-4.1,-28.666l-7.504,16.853c-0.33,0.743 -1.071,1.225 -1.884,1.225l-29.163,0c-1.131,0 -2.062,-0.931 -2.062,-2.062c0,-1.131 0.931,-2.062 2.062,-2.062l27.824,0l9.87,-22.17c0.332,-0.74 1.072,-1.218 1.883,-1.218c1.02,0 1.894,0.756 2.042,1.765l4.228,29.557l9.527,-17.663c-0.019,-0.113 -0.029,-0.228 -0.029,-0.343c0,-1.13 0.93,-2.06 2.06,-2.06c1.13,0 2.06,0.93 2.06,2.06c0,0.34 -0.084,0.674 -0.244,0.973l5.906,34.4l21.524,-71.5c0.261,-0.87 1.067,-1.47 1.975,-1.47c0.791,0 1.515,0.455 1.858,1.168l11.326,23.48c0.135,0.279 0.205,0.586 0.205,0.896c0,1.131 -0.931,2.062 -2.063,2.062c-0.79,0 -1.514,-0.454 -1.857,-1.166l-9.022,-18.707l-22.522,74.81c-0.261,0.869 -1.067,1.468 -1.974,1.467m-41.282,-129.682l3.497,0l0,7.815l-1.772,0l0,-1.597c-0.323,1.1 -1.014,1.77 -2.353,1.77c-2.114,0 -3.086,-1.684 -3.086,-3.951l0,-7.08c0,-2.289 1.1,-3.951 3.69,-3.951c2.721,0 3.52,1.511 3.52,3.67l0,1.294l-2.243,0l0,-1.488c0,-0.907 -0.347,-1.425 -1.232,-1.425c-0.886,0 -1.274,0.625 -1.274,1.511l0,7.857c0,0.886 0.367,1.511 1.209,1.511c0.797,0 1.209,-0.453 1.209,-1.402l0,-2.592l-1.165,0l0,-1.942Zm10.105,4.426l0,-7.857c0,-0.886 -0.388,-1.512 -1.274,-1.512c-0.863,0 -1.253,0.626 -1.253,1.512l0,7.857c0,0.885 0.39,1.51 1.253,1.51c0.886,0 1.274,-0.625 1.274,-1.51m-4.987,-0.389l0,-7.082c0,-2.286 1.123,-3.948 3.713,-3.948c2.611,0 3.734,1.662 3.734,3.948l0,7.082c0,2.266 -1.123,3.95 -3.734,3.95c-2.59,0 -3.713,-1.684 -3.713,-3.95m14.055,0.389l0,-7.857c0,-0.886 -0.389,-1.512 -1.274,-1.512c-0.863,0 -1.252,0.626 -1.252,1.512l0,7.857c0,0.885 0.389,1.51 1.252,1.51c0.885,0 1.274,-0.625 1.274,-1.51m-4.986,-0.389l0,-7.082c0,-2.286 1.121,-3.948 3.712,-3.948c2.611,0 3.734,1.662 3.734,3.948l0,7.082c0,2.266 -1.123,3.95 -3.734,3.95c-2.59,0 -3.712,-1.684 -3.712,-3.95m12.566,1.77c1.014,0 1.402,-0.605 1.402,-1.489l0,-7.663c0,-0.865 -0.388,-1.47 -1.402,-1.47l-1.037,0l0,10.622l1.037,0Zm3.862,-8.699l0,6.778c0,2.244 -0.928,3.93 -3.56,3.93l-3.802,0l0,-14.637l3.8,0c2.633,0 3.561,1.662 3.561,3.93l0.001,-0.001Zm9.804,4.252l-2.375,0l0,6.455l-2.46,0l0,-14.635l2.46,0l0,6.195l2.375,0l0,-6.195l2.482,0l0,14.635l-2.482,0l0,-6.455Zm4.212,-8.18l5.873,0l0,2.006l-3.411,0l0,4.188l2.44,0l0,1.986l-2.44,0l0,4.448l3.412,0l0,2.007l-5.873,0l-0.001,-14.635Zm10.106,9.993l1.964,0l-0.972,-5.87l-0.02,0l-0.972,5.87Zm-3.086,4.642l2.762,-14.636l2.807,0l2.785,14.636l-2.527,0l-0.453,-2.677l-2.612,0l-0.43,2.677l-2.332,0Zm9.584,-14.635l2.46,0l0,12.628l2.937,0l0,2.007l-5.397,0l0,-14.635Zm5.054,0l6.54,0l0,2.006l-2.027,0l0,12.629l-2.483,0l0,-12.629l-2.03,0l0,-2.006Zm12.738,8.18l-2.375,0l0,6.455l-2.46,0l0,-14.635l2.46,0l0,6.195l2.375,0l0,-6.195l2.482,0l0,14.635l-2.482,0l0,-6.455Zm-80.024,23.28l1.964,0l-0.972,-5.872l-0.02,0l-0.973,5.872l0.001,0Zm-3.087,4.64l2.763,-14.634l2.806,0l2.784,14.635l-2.525,0l-0.454,-2.677l-2.611,0l-0.432,2.677l-2.33,0l-0.001,-0.001Zm11.443,-9.194l0,9.195l-2.072,0l0,-14.636l2.416,0l2.656,8.397l0,-8.397l2.05,0l0,14.636l-2.158,0l-2.892,-9.195Zm10.277,7.188c1.014,0 1.404,-0.604 1.404,-1.488l0,-7.666c0,-0.863 -0.39,-1.467 -1.404,-1.467l-1.037,0l0,10.621l1.037,0Zm3.864,-8.699l0,6.777c0,2.245 -0.928,3.929 -3.562,3.929l-3.8,0l0,-14.635l3.8,0c2.634,0 3.562,1.66 3.562,3.93l0,-0.001Zm9.415,1.661l-1.381,9.045l-2.31,0l-1.964,-14.635l2.374,0l1.144,9.282l0.023,0l1.229,-9.282l2.008,0l1.359,9.282l0.023,0l1.122,-9.282l2.072,0l-1.9,14.635l-2.331,0l-1.447,-9.045l-0.021,0Zm6.976,-5.591l5.87,0l0,2.01l-3.41,0l0,4.185l2.44,0l0,1.986l-2.44,0l0,4.448l3.41,0l0,2.007l-5.87,0l0,-14.636Zm7.406,0l2.46,0l0,12.629l2.937,0l0,2.007l-5.397,0l0,-14.636Zm6.737,0l2.46,0l0,12.629l2.937,0l0,2.007l-5.397,0l0,-14.636Zm5.074,7.967l3.454,0l0,-1.988l-3.454,0l0,1.988Zm7.383,0.085l0,4.576l1.08,0c0.82,0 1.21,-0.41 1.21,-1.186l0,-2.202c0,-0.778 -0.367,-1.188 -1.232,-1.188l-1.058,0Zm0,-1.877l0.863,0c0.8,0 1.167,-0.41 1.167,-1.188l0,-1.792c0,-0.798 -0.367,-1.186 -1.188,-1.186l-0.842,0l0,4.166Zm-2.46,-6.175l3.56,0c2.462,0 3.283,1.144 3.283,3.218l0,1.488c0,1.23 -0.453,2.009 -1.469,2.332c1.232,0.281 1.836,1.1 1.836,2.44l0,1.943c0,2.07 -0.927,3.214 -3.388,3.214l-3.822,0l0,-14.635Zm8.658,0l5.873,0l0,2.01l-3.413,0l0,4.185l2.44,0l0,1.986l-2.44,0l0,4.448l3.413,0l0,2.007l-5.873,0l0,-14.636Zm7.406,14.635l2.46,0l0,-14.633l-2.46,0l0,14.633Zm6.284,-9.194l0,9.195l-2.072,0l0,-14.636l2.418,0l2.654,8.397l0,-8.397l2.05,0l0,14.636l-2.157,0l-2.893,-9.195Zm10.494,1.381l3.497,0l0,7.813l-1.77,0l0,-1.597c-0.323,1.102 -1.016,1.771 -2.355,1.771c-2.114,0 -3.086,-1.683 -3.086,-3.95l0,-7.08c0,-2.288 1.102,-3.95 3.69,-3.95c2.723,0 3.52,1.509 3.52,3.668l0,1.296l-2.243,0l0,-1.489c0,-0.907 -0.347,-1.425 -1.232,-1.425c-0.884,0 -1.274,0.626 -1.274,1.511l0,7.857c0,0.886 0.367,1.512 1.21,1.512c0.798,0 1.21,-0.454 1.21,-1.405l0,-2.59l-1.167,0l0,-1.942Z" style="fill:#fff;"/></g></svg>