<?xml version="1.0" encoding="UTF-8" standalone="no"?><!DOCTYPE svg PUBLIC "-//W3C//DTD SVG 1.1//EN" "http://www.w3.org/Graphics/SVG/1.1/DTD/svg11.dtd"><svg width="100%" height="100%" viewBox="0 0 180 180" version="1.1" xmlns="http://www.w3.org/2000/svg" xmlns:xlink="http://www.w3.org/1999/xlink" xml:space="preserve" xmlns:serif="http://www.serif.com/" style="fill-rule:evenodd;clip-rule:evenodd;stroke-linejoin:round;stroke-miterlimit:2;"><g><path d="M22.849,40.578l5.455,-14.862l0.054,0l0,14.862l-5.51,0l0.001,0Zm5.403,10.599l5.776,0l0,-5.86l2.462,0l0,-4.739l-2.462,0l0,-25.516l-5.993,0l-10.535,26.528l0,3.728l10.752,0l0,5.859Zm50.658,44.915l-32.26,-18.549l0,60.005l32.26,9.693l0,-51.149Zm3.547,0.122l0,51.048l32.469,-9.722l0,-59.994l-32.469,18.668Zm57.791,-20.189c-0.003,-2.087 -1.721,-3.803 -3.808,-3.803c-0.002,0 -0.003,0 -0.005,0c-0.004,0 -0.007,0 -0.011,0c-2.087,0 -3.806,1.716 -3.809,3.803l0,4.096l7.633,0l0,-4.096Zm-6.684,60.459l-0.947,0l3.817,13.284l3.811,-13.284l-0.945,0l0.945,0l0,-53.386l-7.631,0l0,53.386l0.95,0Z" style="fill:#fff;"/><path d="M121.854,80.12l-3.459,-2.72l0,61.775l-35.841,11.535l-3.644,0l-35.682,-9.928l0,-63.382l-3.461,2.72l0,63.078l38.979,10.746l3.969,0l35.963,-11.37l3.176,-0.932l0,-61.522Zm-70.417,-43.603l5.898,0l0,2.008l-3.427,0l0,4.186l2.451,0l0,1.986l-2.45,0l0,4.448l3.426,0l0,2.007l-5.898,0l0,-14.635Zm10.907,12.627c1.018,0 1.41,-0.604 1.41,-1.488l0,-7.664c0,-0.863 -0.392,-1.468 -1.41,-1.468l-1.041,0l0,10.62l1.041,0Zm3.88,-8.699l0,6.778c0,2.244 -0.931,3.93 -3.576,3.93l-3.818,0l0,-14.637l3.817,0c2.645,0 3.577,1.662 3.577,3.93l0,-0.001Zm8.804,-3.928l0,11.073c0,2.267 -0.976,3.734 -3.49,3.734c-2.602,0 -3.686,-1.467 -3.686,-3.734l0,-11.073l2.471,0l0,11.31c0,0.865 0.348,1.446 1.216,1.446c0.865,0 1.214,-0.581 1.214,-1.446l0,-11.31l2.275,0Zm1.627,10.857l0,-7.08c0,-2.288 1.084,-3.95 3.687,-3.95c2.73,0 3.488,1.51 3.488,3.67l0,1.726l-2.253,0l0,-1.92c0,-0.907 -0.304,-1.426 -1.193,-1.426c-0.89,0 -1.258,0.628 -1.258,1.512l0,7.857c0,0.885 0.369,1.511 1.258,1.511c0.89,0 1.193,-0.56 1.193,-1.425l0,-2.7l2.253,0l0,2.528c0,2.094 -0.866,3.648 -3.488,3.648c-2.603,0 -3.687,-1.684 -3.687,-3.95m11.058,-0.865l1.973,0l-0.976,-5.87l-0.022,0l-0.975,5.87Zm-3.1,4.642l2.775,-14.635l2.818,0l2.797,14.635l-2.537,0l-0.456,-2.677l-2.622,0l-0.432,2.677l-2.342,0l-0.001,0Zm8.067,-14.635l6.568,0l0,2.008l-2.038,0l0,12.627l-2.492,0l0,-12.627l-2.038,0l0,-2.008Zm7.935,14.635l2.47,0l0,-14.635l-2.47,0l0,14.635Zm9.127,-3.389l0,-7.857c0,-0.884 -0.389,-1.512 -1.28,-1.512c-0.866,0 -1.256,0.628 -1.256,1.512l0,7.857c0,0.885 0.39,1.51 1.256,1.51c0.891,0 1.28,-0.625 1.28,-1.51m-5.009,-0.389l0,-7.08c0,-2.288 1.13,-3.95 3.73,-3.95c2.622,0 3.75,1.662 3.75,3.95l0,7.08c0,2.267 -1.128,3.95 -3.75,3.95c-2.6,0 -3.73,-1.683 -3.73,-3.95m11.191,-5.418l0,9.196l-2.083,0l0,-14.635l2.428,0l2.667,8.397l0,-8.397l2.06,0l0,14.635l-2.17,0l-2.902,-9.196Zm-59.477,-15.536l0,-7.986c0,-0.886 -0.39,-1.513 -1.28,-1.513c-0.866,0 -1.258,0.627 -1.258,1.513l0,7.985c0,0.863 0.392,1.512 1.259,1.512c0.89,0 1.28,-0.649 1.28,-1.512l-0.001,0.001Zm-2.19,4.252l0,-0.993c-1.973,-0.346 -2.818,-1.792 -2.818,-3.778l0,-7.079c0,-2.29 1.128,-3.95 3.729,-3.95c2.622,0 3.75,1.66 3.75,3.95l0,7.079c0,1.597 -0.563,2.85 -1.82,3.455l1.82,0.344l0,1.837l-4.66,-0.865l-0.001,0Zm13.442,-15.628l0,11.073c0,2.267 -0.976,3.734 -3.489,3.734c-2.603,0 -3.686,-1.467 -3.686,-3.734l0,-11.073l2.47,0l0,11.31c0,0.865 0.348,1.446 1.216,1.446c0.865,0 1.212,-0.581 1.212,-1.446l0,-11.31l2.278,0l-0.001,0Zm4.035,9.994l1.973,0l-0.976,-5.871l-0.021,0l-0.976,5.871Zm-3.099,4.641l2.774,-14.635l2.818,0l2.797,14.635l-2.537,0l-0.455,-2.676l-2.623,0l-0.432,2.676l-2.342,0Zm9.582,-14.635l2.47,0l0,12.628l2.949,0l0,2.007l-5.42,0l0.001,-14.635Zm6.57,14.636l2.47,0l0,-14.637l-2.47,0l0,14.637Zm3.621,-14.636l6.568,0l0,2.009l-2.036,0l0,12.626l-2.494,0l0,-12.626l-2.038,0l0,-2.009Zm12.575,9.066l0,5.57l-2.47,0l0,-5.57l-2.753,-9.065l2.578,0l1.498,5.546l0.021,0l1.495,-5.546l2.365,0l-2.734,9.065Z" style="fill:#fff;"/></g></svg>