<?xml version="1.0" encoding="UTF-8" standalone="no"?><!DOCTYPE svg PUBLIC "-//W3C//DTD SVG 1.1//EN" "http://www.w3.org/Graphics/SVG/1.1/DTD/svg11.dtd"><svg width="100%" height="100%" viewBox="0 0 180 180" version="1.1" xmlns="http://www.w3.org/2000/svg" xmlns:xlink="http://www.w3.org/1999/xlink" xml:space="preserve" xmlns:serif="http://www.serif.com/" style="fill-rule:evenodd;clip-rule:evenodd;stroke-linejoin:round;stroke-miterlimit:2;"><g><path d="M28.693,26.496c-2.407,0 -4.172,0.852 -5.136,2.502l-0.054,0l0,-9l10.486,0l0,-4.955l-16.045,0l0,20.349l5.559,0l0,-0.802c0,-2.13 0.965,-3.302 2.675,-3.302c1.872,0 2.622,1.281 2.622,3.253l0,8.734c0,1.92 -0.695,3.25 -2.567,3.25c-2.088,0 -2.834,-1.385 -2.834,-3.515l0,-4.527l-5.566,0l0,4.1c0,5.486 2.193,9.002 8.4,9.002c6.151,0 8.664,-3.249 8.664,-8.257l0,-8.841c0,-5.701 -2.941,-7.991 -6.204,-7.991m60.94,103.531c-11.883,0 -21.549,-9.628 -21.549,-21.46c0,-11.834 9.666,-21.463 21.55,-21.463c11.885,0 21.552,9.629 21.552,21.463c0,11.832 -9.667,21.46 -21.553,21.46m41.39,-62.2l-22.356,0c-0.155,0.001 -0.282,0.127 -0.284,0.282l0,7.399c0,0.158 0.13,0.284 0.284,0.284l8.902,0l-9.883,9.843c-5.149,-4.038 -11.509,-6.231 -18.053,-6.224c-16.141,0 -29.278,13.08 -29.278,29.156c0,14.802 11.137,27.05 25.5,28.904l0,8.523l-8.815,0c-0.003,0 -0.005,0 -0.008,0c-0.155,0 -0.282,0.127 -0.282,0.282c0,0 0,0.001 0,0.001l0,7.93c0,0.154 0.126,0.28 0.28,0.28c0.003,0 0.007,0 0.01,0l8.816,0l0,8.39c0,0.157 0.127,0.283 0.282,0.283l7.96,0c0.001,0 0.001,0 0.002,0c0.156,0 0.284,-0.127 0.285,-0.283l0,-8.39l8.816,0c0.001,0 0.003,0 0.004,0c0.154,0 0.28,-0.126 0.28,-0.28c0,0 0,0 0,0l0,-7.93c0,0 0,-0.001 0,-0.001c0,-0.155 -0.127,-0.282 -0.282,-0.282c-0.001,0 -0.001,0 -0.002,0l-8.816,0l0,-8.661c13.893,-2.27 24.528,-14.3 24.528,-28.766c0,-6.24 -1.984,-12.024 -5.35,-16.77l9.744,-9.705l0,8.28c0,0.157 0.132,0.282 0.29,0.282l7.427,0c0.159,0 0.29,-0.125 0.29,-0.283l0,-22.261c-0.002,-0.157 -0.133,-0.285 -0.29,-0.283" style="fill:#fff;"/><path d="M103.011,99.757l-26.14,0c-0.156,0 -0.283,0.116 -0.283,0.253l0,6.304c0,0.147 0.127,0.258 0.282,0.258l26.141,0c0.162,0 0.29,-0.11 0.29,-0.258l0,-6.304c0,-0.137 -0.128,-0.253 -0.29,-0.253m0,11.253l-26.14,0c-0.156,0 -0.283,0.12 -0.283,0.262l0,6.302c0,0.14 0.127,0.254 0.282,0.254l26.141,0c0.162,0 0.29,-0.114 0.29,-0.254l0,-6.302c0,-0.143 -0.128,-0.262 -0.29,-0.262m-51.636,-74.493l5.896,0l0,2.008l-3.425,0l0,4.186l2.451,0l0,1.986l-2.451,0l0,4.448l3.425,0l0,2.007l-5.896,0l0,-14.635Zm12.032,11.375l0,-7.985c0,-0.886 -0.388,-1.513 -1.28,-1.513c-0.866,0 -1.256,0.627 -1.256,1.513l0,7.985c0,0.863 0.39,1.511 1.257,1.511c0.891,0 1.28,-0.648 1.28,-1.511l-0.001,0Zm-2.19,4.253l0,-0.993c-1.97,-0.346 -2.816,-1.793 -2.816,-3.777l0,-7.08c0,-2.29 1.127,-3.95 3.727,-3.95c2.624,0 3.75,1.66 3.75,3.95l0,7.08c0,1.596 -0.563,2.849 -1.82,3.453l1.82,0.345l0,1.836l-4.66,-0.864l-0.001,0Zm13.445,-15.628l0,11.073c0,2.267 -0.976,3.734 -3.49,3.734c-2.602,0 -3.686,-1.467 -3.686,-3.734l0,-11.073l2.47,0l0,11.31c0,0.865 0.348,1.446 1.217,1.446c0.864,0 1.212,-0.581 1.212,-1.446l0,-11.31l2.277,0Zm4.338,9.993l1.97,0l-0.975,-5.87l-0.02,0l-0.975,5.87Zm-3.101,4.642l2.776,-14.635l2.816,0l2.797,14.635l-2.537,0l-0.454,-2.677l-2.622,0l-0.434,2.677l-2.342,0Zm9.605,-14.635l2.471,0l0,12.628l2.949,0l0,2.007l-5.42,0l0,-14.635Zm6.744,14.635l2.47,0l0,-14.635l-2.47,0l0,14.635Zm3.794,-14.635l6.568,0l0,2.008l-2.038,0l0,12.627l-2.492,0l0,-12.627l-2.038,0l0,-2.008Zm12.705,9.066l0,5.57l-2.47,0l0,-5.57l-2.753,-9.066l2.578,0l1.496,5.547l0.023,0l1.495,-5.547l2.363,0l-2.732,9.066Zm-53.642,-23.718l3.512,0l0,7.814l-1.779,0l0,-1.597c-0.325,1.1 -1.018,1.77 -2.363,1.77c-2.123,0 -3.099,-1.684 -3.099,-3.95l0,-7.082c0,-2.288 1.107,-3.949 3.706,-3.949c2.732,0 3.535,1.51 3.535,3.67l0,1.293l-2.254,0l0,-1.489c0,-0.906 -0.347,-1.425 -1.237,-1.425c-0.887,0 -1.28,0.628 -1.28,1.511l0,7.858c0,0.885 0.37,1.51 1.217,1.51c0.8,0 1.212,-0.453 1.212,-1.402l0,-2.59l-1.17,0l0,-1.943l0,0.001Zm5.139,-6.821l5.898,0l0,2.009l-3.427,0l0,4.186l2.451,0l0,1.985l-2.451,0l0,4.448l3.427,0l0,2.007l-5.898,0l0,-14.635Zm9.524,5.439l0,9.196l-2.082,0l0,-14.635l2.428,0l2.667,8.397l0,-8.397l2.06,0l0,14.636l-2.17,0l-2.903,-9.197Zm10.212,7.188c1.019,0 1.409,-0.604 1.409,-1.488l0,-7.664c0,-0.863 -0.39,-1.467 -1.408,-1.467l-1.041,0l0,10.62l1.04,0l0,-0.001Zm3.88,-8.698l0,6.778c0,2.244 -0.932,3.929 -3.576,3.929l-3.817,0l0,-14.637l3.817,0c2.644,0 3.576,1.663 3.576,3.93Zm1.65,-3.929l5.896,0l0,2.009l-3.426,0l0,4.186l2.45,0l0,1.985l-2.45,0l0,4.448l3.425,0l0,2.007l-5.895,0l0,-14.635Zm9.886,2.008l0,4.555l0.824,0c0.847,0 1.214,-0.432 1.214,-1.21l0,-2.159c0,-0.8 -0.367,-1.186 -1.214,-1.186l-0.824,0Zm0,5.913l0,6.715l-2.47,0l0,-14.637l3.598,0c2.493,0 3.404,1.23 3.404,3.283l0,1.877c0,1.576 -0.565,2.504 -1.973,2.827l2.363,6.65l-2.601,0l-2.32,-6.715l-0.001,0Z" style="fill:#fff;"/></g></svg>