<?xml version="1.0" encoding="UTF-8" standalone="no"?><!DOCTYPE svg PUBLIC "-//W3C//DTD SVG 1.1//EN" "http://www.w3.org/Graphics/SVG/1.1/DTD/svg11.dtd"><svg width="100%" height="100%" viewBox="0 0 180 180" version="1.1" xmlns="http://www.w3.org/2000/svg" xmlns:xlink="http://www.w3.org/1999/xlink" xml:space="preserve" xmlns:serif="http://www.serif.com/" style="fill-rule:evenodd;clip-rule:evenodd;stroke-linejoin:round;stroke-miterlimit:2;"><g><path d="M24.978,36.47c0.106,-2.023 0.958,-3.302 2.877,-3.302c2.076,0 2.875,1.28 2.875,3.624l0,6.286c0,2.288 -0.85,3.621 -2.928,3.621c-2.026,0 -2.824,-1.384 -2.824,-3.621l0,-6.608Zm2.824,15.183c6.443,0 8.947,-3.518 8.947,-9.11l0,-5.328c0,-5.912 -2.343,-8.896 -6.711,-8.896c-2.557,0 -4.102,1.176 -5.009,2.932l-0.05,0l0,-7.777c0,-2.186 0.694,-3.73 2.876,-3.73c2.183,0 2.824,1.28 2.824,3.516l0,2.397l5.538,0l0,-1.917c0,-5.328 -1.76,-9.054 -8.47,-9.054c-6.39,0 -8.79,4.1 -8.79,9.746l0,17.578c0,5.595 2.452,9.644 8.845,9.644l0,-0.001Zm91.026,34.719c-1.761,-0.775 -3.993,-0.496 -6.137,0.372c-8.063,3.267 -13.55,4.443 -22.032,1.788c-5.34,-1.673 -10.336,-5.174 -16.241,-3.042c-3.92,1.41 -7.572,2.757 -12.004,2.722l-2.559,-13.122l60.813,0l-1.84,11.282Zm-20.614,38.967c0,0 -2.952,3.035 -7.753,2.704c-4.814,0.33 -7.762,-2.704 -7.762,-2.704c-4.868,-4.863 -3.132,-10.915 -1.438,-14.041c1.047,-1.958 8.527,-13.19 9.17,-14.147l0,-0.075c0,0 0.01,0.014 0.03,0.037l0.026,-0.037l0,0.075c0.626,0.956 8.117,12.19 9.163,14.147c1.697,3.126 3.428,9.178 -1.436,14.04l0,0.001Zm25.12,-52.859c-0.152,-0.165 -0.367,-0.259 -0.591,-0.257l-64.983,0c-0.222,-0.001 -0.434,0.093 -0.583,0.257c-0.139,0.173 -0.198,0.396 -0.164,0.615l10.917,66.027c0.061,0.365 0.38,0.636 0.75,0.636l13.398,0l0.918,10.755l-5.64,0.007l13.12,13.118l13.152,-13.148l-5.637,0.005l0.916,-10.737l13.635,0c0.374,0 0.689,-0.27 0.743,-0.647l10.215,-66.016c0.032,-0.219 -0.029,-0.442 -0.167,-0.615l0.001,0Zm-68.6,-25.97l1.966,0l-0.972,-5.87l-0.02,0l-0.973,5.87l-0.001,0Zm-3.085,4.642l2.762,-14.635l2.805,0l2.784,14.635l-2.525,0l-0.453,-2.677l-2.612,0l-0.432,2.677l-2.33,0l0.001,0Zm11.442,-9.196l0,9.196l-2.071,0l0,-14.635l2.417,0l2.655,8.397l0,-8.397l2.05,0l0,14.635l-2.157,0l-2.894,-9.196Zm10.32,7.188c1.014,0 1.404,-0.604 1.404,-1.488l0,-7.664c0,-0.863 -0.39,-1.468 -1.404,-1.468l-1.037,0l0,10.62l1.037,0Zm3.865,-8.699l0,6.778c0,2.244 -0.928,3.93 -3.562,3.93l-3.8,0l0,-14.637l3.8,0c2.634,0 3.562,1.662 3.562,3.93l0,-0.001Zm5.486,7.555l0,-1.963l2.288,0l0,2.007c0,0.819 0.366,1.295 1.21,1.295c0.776,0 1.12,-0.518 1.12,-1.295l0,-0.563c0,-0.84 -0.344,-1.36 -1.1,-2.071l-1.446,-1.447c-1.402,-1.381 -2.05,-2.223 -2.05,-3.906l0,-0.498c0,-1.813 1.057,-3.216 3.454,-3.216c2.46,0 3.432,1.21 3.432,3.325l0,1.187l-2.246,0l0,-1.273c0,-0.842 -0.388,-1.253 -1.165,-1.253c-0.69,0 -1.167,0.389 -1.167,1.21l0,0.302c0,0.82 0.455,1.295 1.167,1.985l1.575,1.554c1.339,1.36 1.986,2.18 1.986,3.8l0,0.713c0,2.007 -1.08,3.432 -3.582,3.432c-2.504,0 -3.476,-1.404 -3.476,-3.325m10.86,-1.49l1.964,0l-0.971,-5.87l-0.02,0l-0.973,5.87Zm-3.086,4.642l2.762,-14.635l2.807,0l2.785,14.635l-2.527,0l-0.453,-2.677l-2.612,0l-0.43,2.677l-2.332,0Zm11.616,-9.196l0,9.196l-2.074,0l0,-14.635l2.419,0l2.655,8.397l0,-8.397l2.05,0l0,14.635l-2.157,0l-2.893,-9.196Zm7.017,9.196l2.46,0l0,-14.635l-2.46,0l0,14.635Zm3.651,-14.635l6.54,0l0,2.008l-2.03,0l0,12.627l-2.48,0l0,-12.627l-2.03,0l0,-2.008Zm9.044,9.993l1.97,0l-0.979,-5.87l-0.023,0l-0.968,5.87Zm-3.086,4.642l2.763,-14.635l2.804,0l2.784,14.635l-2.527,0l-0.445,-2.677l-2.616,0l-0.43,2.677l-2.333,0Zm7.582,-14.635l6.534,0l0,2.008l-2.026,0l0,12.627l-2.481,0l0,-12.627l-2.026,0l-0.001,-2.008Zm7.837,14.635l2.46,0l0,-14.635l-2.46,0l0,14.635Zm9.071,-3.389l0,-7.857c0,-0.884 -0.39,-1.512 -1.28,-1.512c-0.857,0 -1.247,0.628 -1.247,1.512l0,7.857c0,0.885 0.39,1.51 1.247,1.51c0.89,0 1.28,-0.625 1.28,-1.51m-4.998,-0.389l0,-7.08c0,-2.288 1.125,-3.95 3.718,-3.95c2.615,0 3.74,1.662 3.74,3.95l0,7.08c0,2.267 -1.125,3.95 -3.74,3.95c-2.593,0 -3.718,-1.683 -3.718,-3.95m11.142,-5.418l0,9.196l-2.07,0l0,-14.635l2.414,0l2.66,8.397l0,-8.397l2.05,0l0,14.635l-2.16,0l-2.894,-9.196Zm-97.492,-16.171l0,-7.08c0,-2.289 1.08,-3.951 3.672,-3.951c2.718,0 3.474,1.511 3.474,3.67l0,1.728l-2.244,0l0,-1.922c0,-0.907 -0.302,-1.424 -1.188,-1.424c-0.886,0 -1.253,0.626 -1.253,1.51l0,7.859c0,0.884 0.367,1.51 1.253,1.51c0.886,0 1.188,-0.561 1.188,-1.426l0,-2.697l2.244,0l0,2.525c0,2.095 -0.863,3.648 -3.474,3.648c-2.592,0 -3.671,-1.683 -3.671,-3.95m8.695,-10.857l2.46,0l0,12.628l2.937,0l0,2.007l-5.397,0l0,-14.635Zm6.737,0l5.871,0l0,2.007l-3.41,0l0,4.188l2.44,0l0,1.986l-2.44,0l0,4.447l3.41,0l0,2.007l-5.871,0l0,-14.635Zm10.104,9.994l1.965,0l-0.972,-5.871l-0.021,0l-0.972,5.871Zm-3.086,4.641l2.763,-14.635l2.806,0l2.784,14.635l-2.525,0l-0.454,-2.676l-2.611,0l-0.432,2.676l-2.33,0l-0.001,0Zm11.659,-9.196l0,9.195l-2.072,0l0,-14.633l2.418,0l2.654,8.394l0,-8.393l2.05,0l0,14.633l-2.158,0l-2.892,-9.196Zm15.589,0.151l-1.381,9.045l-2.31,0l-1.964,-14.635l2.374,0l1.144,9.282l0.023,0l1.23,-9.282l2.007,0l1.36,9.282l0.021,0l1.123,-9.282l2.072,0l-1.9,14.635l-2.332,0l-1.444,-9.045l-0.023,0Zm8.701,4.404l1.965,0l-0.971,-5.871l-0.021,0l-0.972,5.871l-0.001,0Zm-3.085,4.641l2.762,-14.635l2.807,0l2.785,14.635l-2.527,0l-0.453,-2.676l-2.612,0l-0.43,2.676l-2.332,0Zm8.052,-14.635l6.544,0l0,2.007l-2.031,0l0,12.628l-2.483,0l0,-12.628l-2.03,0l0,-2.007Zm7.735,0l5.866,0l0,2.007l-3.406,0l0,4.188l2.437,0l0,1.986l-2.437,0l0,4.447l3.406,0l0,2.007l-5.866,0l0,-14.635Zm9.672,2.007l0,4.555l0.812,0c0.847,0 1.214,-0.432 1.214,-1.209l0,-2.158c0,-0.8 -0.367,-1.188 -1.214,-1.188l-0.812,0Zm0,5.915l0,6.713l-2.46,0l0,-14.635l3.584,0c2.482,0 3.383,1.23 3.383,3.281l0,1.877c0,1.576 -0.557,2.504 -1.96,2.828l2.35,6.65l-2.593,0l-2.304,-6.714Z" style="fill:#fff;"/></g></svg>