<?xml version="1.0" encoding="UTF-8" standalone="no"?><!DOCTYPE svg PUBLIC "-//W3C//DTD SVG 1.1//EN" "http://www.w3.org/Graphics/SVG/1.1/DTD/svg11.dtd"><svg width="100%" height="100%" viewBox="0 0 180 180" version="1.1" xmlns="http://www.w3.org/2000/svg" xmlns:xlink="http://www.w3.org/1999/xlink" xml:space="preserve" xmlns:serif="http://www.serif.com/" style="fill-rule:evenodd;clip-rule:evenodd;stroke-linejoin:round;stroke-miterlimit:2;"><g><path d="M18.535,20.167l9.324,0l-8.053,31.29l5.987,0l7.894,-30.648l0,-5.619l-15.152,0l0,4.977Zm35.307,5.042l1.954,0l-0.966,-5.894l-0.021,0l-0.967,5.894Zm-3.07,4.66l2.749,-14.696l2.79,0l2.769,14.696l-2.512,0l-0.45,-2.686l-2.598,0l-0.43,2.686l-2.32,0l0.002,0Zm9.211,-14.696l5.732,0l0,2.017l-3.285,0l0,4.203l2.448,0l0,1.994l-2.448,0l0,6.482l-2.447,0l0,-14.696Zm6.699,0l5.733,0l0,2.017l-3.286,0l0,4.203l2.448,0l0,1.994l-2.447,0l0,6.482l-2.447,0l-0.001,-14.696Zm11.445,11.293l0,-7.89c0,-0.888 -0.386,-1.518 -1.267,-1.518c-0.858,0 -1.244,0.63 -1.244,1.518l0,7.89c0,0.89 0.386,1.518 1.244,1.518c0.881,0 1.267,-0.629 1.267,-1.518m-4.96,-0.39l0,-7.11c0,-2.298 1.117,-3.967 3.693,-3.967c2.597,0 3.714,1.67 3.714,3.967l0,7.11c0,2.276 -1.117,3.967 -3.714,3.967c-2.576,0 -3.692,-1.69 -3.692,-3.967m11.143,-8.886l0,4.573l0.816,0c0.837,0 1.203,-0.434 1.203,-1.214l0,-2.167c0,-0.803 -0.366,-1.193 -1.203,-1.193l-0.816,0l0,0.001Zm0,5.94l0,6.74l-2.446,0l0,-14.698l3.563,0c2.47,0 3.37,1.237 3.37,3.297l0,1.884c0,1.583 -0.558,2.515 -1.953,2.84l2.34,6.677l-2.578,0l-2.296,-6.74Zm9.191,4.724c1.008,0 1.395,-0.607 1.395,-1.494l0,-7.698c0,-0.867 -0.387,-1.474 -1.395,-1.474l-1.03,0l0,10.666l1.03,0Zm3.843,-8.735l0,6.806c0,2.254 -0.923,3.945 -3.542,3.945l-3.779,0l0,-14.697l3.779,0c2.62,0 3.542,1.67 3.542,3.946Zm3.651,6.09l1.954,0l-0.967,-5.894l-0.02,0l-0.967,5.894Zm-3.07,4.66l2.749,-14.696l2.79,0l2.769,14.696l-2.512,0l-0.45,-2.686l-2.597,0l-0.43,2.686l-2.32,0l0.001,0Zm11.658,-6.611l0,4.596l1.073,0c0.816,0 1.204,-0.412 1.204,-1.192l0,-2.21c0,-0.783 -0.365,-1.194 -1.225,-1.194l-1.052,0Zm0,-1.884l0.86,0c0.793,0 1.158,-0.413 1.158,-1.193l0,-1.799c0,-0.803 -0.365,-1.193 -1.181,-1.193l-0.837,0l0,4.185Zm-2.447,-6.202l3.543,0c2.446,0 3.262,1.15 3.262,3.232l0,1.494c0,1.236 -0.45,2.017 -1.46,2.342c1.223,0.282 1.826,1.105 1.826,2.45l0,1.951c0,2.08 -0.923,3.228 -3.372,3.228l-3.799,0l0,-14.697Zm8.288,0.001l2.447,0l0,12.68l2.92,0l0,2.016l-5.367,0l0,-14.696Zm6.377,0l5.84,0l0,2.017l-3.393,0l0,4.203l2.427,0l0,1.994l-2.427,0l0,4.467l3.394,0l0,2.015l-5.84,0l-0.001,-14.696Zm11.874,10.036l1.954,0l-0.968,-5.894l-0.02,0l-0.966,5.894Zm-3.07,4.66l2.749,-14.696l2.789,0l2.77,14.696l-2.511,0l-0.451,-2.686l-2.597,0l-0.43,2.686l-2.32,0l0.001,0Zm11.274,-9.233l0,9.233l-2.061,0l0,-14.696l2.405,0l2.638,8.431l0,-8.431l2.04,0l0,14.696l-2.146,0l-2.876,-9.233Zm9.79,7.218c1.009,0 1.395,-0.607 1.395,-1.494l0,-7.698c0,-0.867 -0.386,-1.474 -1.394,-1.474l-1.031,0l0,10.666l1.03,0Zm3.842,-8.735l0,6.806c0,2.254 -0.923,3.945 -3.54,3.945l-3.78,0l0,-14.697l3.78,0c2.617,0 3.54,1.67 3.54,3.946Zm-104.373,28.543l0,-7.076c0,-2.287 1.068,-3.948 3.631,-3.948c2.693,0 3.441,1.51 3.441,3.667l0,1.726l-2.223,0l0,-1.92c0,-0.905 -0.298,-1.424 -1.174,-1.424c-0.877,0 -1.239,0.626 -1.239,1.51l0,7.853c0,0.885 0.362,1.511 1.239,1.511c0.876,0 1.174,-0.561 1.174,-1.424l0,-2.697l2.223,0l0,2.524c0,2.093 -0.854,3.646 -3.44,3.646c-2.564,0 -3.632,-1.682 -3.632,-3.948m8.608,-10.852l2.436,0l0,12.622l2.907,0l0,2.006l-5.343,0l0,-14.628Zm6.665,0l5.811,0l0,2.007l-3.375,0l0,4.186l2.414,0l0,1.985l-2.414,0l0,4.444l3.375,0l0,2.006l-5.81,0l-0.001,-14.628Zm9.998,9.99l1.946,0l-0.963,-5.868l-0.021,0l-0.961,5.867l-0.001,0.001Zm-3.056,4.639l2.736,-14.629l2.779,0l2.756,14.628l-2.5,0l-0.448,-2.676l-2.587,0l-0.426,2.676l-2.309,0l-0.001,0.001Zm11.537,-9.191l0,9.19l-2.051,0l0,-14.626l2.392,0l2.629,8.393l0,-8.393l2.03,0l0,14.628l-2.137,0l-2.863,-9.192Zm11.513,-5.438l5.811,0l0,2.007l-3.375,0l0,4.186l2.414,0l0,1.985l-2.414,0l0,4.444l3.375,0l0,2.006l-5.81,0l-0.001,-14.628Zm9.315,5.438l0,9.19l-2.052,0l0,-14.626l2.392,0l2.629,8.393l0,-8.393l2.03,0l0,14.628l-2.137,0l-2.862,-9.192Zm6.577,-5.438l5.811,0l0,2.007l-3.374,0l0,4.186l2.413,0l0,1.985l-2.413,0l0,4.444l3.374,0l0,2.006l-5.81,0l-0.001,-14.628Zm9.722,2.007l0,4.553l0.813,0c0.831,0 1.195,-0.433 1.195,-1.21l0,-2.156c0,-0.8 -0.364,-1.187 -1.195,-1.187l-0.813,0Zm0,5.911l0,6.71l-2.436,0l0,-14.628l3.547,0c2.456,0 3.354,1.23 3.354,3.279l0,1.878c0,1.576 -0.554,2.502 -1.943,2.827l2.327,6.644l-2.563,0l-2.286,-6.71Zm9.677,-1.1l3.462,0l0,7.81l-1.753,0l0,-1.596c-0.32,1.1 -1.005,1.768 -2.33,1.768c-2.091,0 -3.054,-1.682 -3.054,-3.947l0,-7.077c0,-2.287 1.089,-3.948 3.652,-3.948c2.693,0 3.485,1.511 3.485,3.668l0,1.293l-2.223,0l0,-1.488c0,-0.905 -0.342,-1.424 -1.218,-1.424c-0.877,0 -1.26,0.627 -1.26,1.51l0,7.854c0,0.884 0.362,1.51 1.195,1.51c0.792,0 1.198,-0.453 1.198,-1.403l0,-2.588l-1.154,0l0,-1.942Zm9.762,2.244l0,5.566l-2.435,0l0,-5.566l-2.714,-9.062l2.543,0l1.475,5.545l0.02,0l1.474,-5.545l2.33,0l-2.693,9.062Zm-51.898,113.402c1.181,0 2.14,-1.059 2.14,-2.026l0,-11.543c0,-0.972 -0.959,-2.042 -2.14,-2.042c-1.187,0 -2.153,1.07 -2.153,2.042l0,11.543c0,0.967 0.966,2.026 2.153,2.026m-0.236,-32.142c-7.499,0 -13.577,-6.137 -13.577,-13.712c0,-6.153 4.013,-11.359 9.542,-13.095l0,5.107c-2.982,1.541 -4.859,4.632 -4.853,7.988c0,4.96 3.977,8.978 8.888,8.978c4.91,0 8.888,-4.019 8.888,-8.978c0.007,-3.366 -1.88,-6.463 -4.875,-8l0,-5.1c5.541,1.727 9.566,6.938 9.566,13.1c0,7.575 -6.078,13.712 -13.579,13.712Zm-1.936,-29.456c0,-0.877 0.872,-1.843 1.943,-1.843c1.068,0 1.933,0.966 1.933,1.843l0,9.05c0,0.874 -0.865,1.83 -1.933,1.83c-1.071,0 -1.943,-0.956 -1.943,-1.83l0,-9.05Zm1.933,-10.414c-14.418,0 -26.104,11.804 -26.104,26.361c0,14.566 11.686,26.365 26.104,26.365c14.415,0 26.101,-11.799 26.101,-26.365c0,-14.557 -11.686,-26.36 -26.101,-26.36l0,-0.001Zm-29.967,26.131c0,-1.194 -1.049,-2.163 -2.007,-2.163l-11.43,0c-0.965,0 -2.024,0.969 -2.024,2.163c0,1.199 1.059,2.173 2.024,2.173l11.43,0c0.958,0 2.007,-0.974 2.007,-2.173m75.404,0c0,-1.194 -1.049,-2.163 -2.006,-2.163l-11.431,0c-0.963,0 -2.022,0.969 -2.022,2.163c0,1.199 1.059,2.173 2.022,2.173l11.43,0c0.958,0 2.007,-0.974 2.007,-2.173m-45.427,-30.262c1.181,0 2.14,-1.058 2.14,-2.025l0,-11.546c0,-0.973 -0.959,-2.04 -2.14,-2.04c-1.187,0 -2.153,1.067 -2.153,2.04l0,11.545c0,0.967 0.966,2.025 2.153,2.025m-26.017,15.23c0.59,-1.037 0.156,-2.403 -0.676,-2.883l-9.923,-5.734c-0.835,-0.485 -2.23,-0.176 -2.819,0.861c-0.589,1.042 -0.148,2.416 0.689,2.902l9.92,5.733c0.83,0.48 2.22,0.16 2.81,-0.879m65.445,37.822c0.587,-1.036 0.152,-2.403 -0.678,-2.885l-9.921,-5.732c-0.837,-0.485 -2.232,-0.174 -2.82,0.863c-0.588,1.04 -0.15,2.416 0.688,2.9l9.92,5.733c0.832,0.48 2.22,0.16 2.81,-0.879m-24.541,-49.05c1.028,0.593 2.378,0.153 2.856,-0.685l5.677,-10.018c0.48,-0.845 0.173,-2.254 -0.854,-2.847c-1.03,-0.596 -2.393,-0.151 -2.871,0.694l-5.68,10.018c-0.475,0.84 -0.159,2.243 0.872,2.838m-37.454,66.085c1.025,0.593 2.378,0.154 2.853,-0.684l5.68,-10.017c0.479,-0.845 0.171,-2.257 -0.856,-2.848c-1.028,-0.597 -2.393,-0.152 -2.87,0.692l-5.68,10.02c-0.475,0.838 -0.157,2.243 0.873,2.837m7.624,-66.06c1.026,-0.596 1.335,-1.995 0.856,-2.834l-5.697,-10.007c-0.482,-0.846 -1.84,-1.287 -2.866,-0.69c-1.03,0.594 -1.337,2.008 -0.854,2.851l5.697,10.006c0.479,0.839 1.835,1.27 2.864,0.674m37.588,66.009c1.026,-0.597 1.336,-1.996 0.86,-2.834l-5.699,-10.008c-0.482,-0.843 -1.84,-1.286 -2.867,-0.692c-1.03,0.597 -1.337,2.009 -0.853,2.854l5.697,10.008c0.477,0.836 1.833,1.268 2.862,0.672m3.335,-54.853c0.59,1.034 1.977,1.347 2.807,0.865l9.907,-5.753c0.837,-0.487 1.28,-1.858 0.689,-2.894c-0.593,-1.04 -1.99,-1.35 -2.826,-0.865l-9.909,5.755c-0.83,0.48 -1.26,1.855 -0.668,2.892m-65.366,37.959c0.588,1.034 1.976,1.346 2.806,0.864l9.909,-5.754c0.835,-0.486 1.277,-1.859 0.685,-2.893c-0.589,-1.04 -1.989,-1.35 -2.824,-0.866l-9.909,5.755c-0.83,0.481 -1.258,1.854 -0.667,2.894" style="fill:#fff;"/></g></svg>