<?xml version="1.0" encoding="UTF-8" standalone="no"?><!DOCTYPE svg PUBLIC "-//W3C//DTD SVG 1.1//EN" "http://www.w3.org/Graphics/SVG/1.1/DTD/svg11.dtd"><svg width="100%" height="100%" viewBox="0 0 180 180" version="1.1" xmlns="http://www.w3.org/2000/svg" xmlns:xlink="http://www.w3.org/1999/xlink" xml:space="preserve" xmlns:serif="http://www.serif.com/" style="fill-rule:evenodd;clip-rule:evenodd;stroke-linejoin:round;stroke-miterlimit:2;"><g><path d="M28.774,43.225c0,2.193 -0.796,3.745 -2.966,3.745c-2.12,0 -2.913,-1.552 -2.913,-3.745l0,-5.885c0,-2.192 0.793,-3.743 2.913,-3.743c2.17,0 2.966,1.55 2.966,3.743l0,5.885Zm-5.668,-20.058c0,-2.195 0.743,-3.478 2.702,-3.478c2.01,0 2.754,1.283 2.754,3.478l0,2.458c0,2.194 -0.744,3.48 -2.754,3.48c-1.959,0 -2.702,-1.286 -2.702,-3.48l0,-2.458Zm11.707,19.416l0,-3.96c0,-3.475 -1.218,-5.99 -4.026,-7.275c2.38,-1.173 3.495,-3.312 3.495,-6.31l0,-1.498c0,-5.67 -2.913,-8.72 -8.474,-8.72c-5.508,0 -8.37,3.05 -8.37,8.72l0,1.498c0,2.943 1.06,5.137 3.39,6.31c-2.807,1.285 -3.975,3.8 -3.975,7.275l0,3.96c0,5.509 2.6,9.36 8.955,9.36c6.408,0 9.005,-3.851 9.005,-9.36Zm89.033,46.025l-18.103,17.392c-0.684,0.686 -1.035,1.19 -1.035,2.611l0,48.741c-0.001,0.569 0.466,1.039 1.035,1.042l18.699,0c0.571,0 1.03,-0.47 1.03,-1.042l0,-68.304c0,-0.576 -0.445,-1.626 -1.626,-0.44m-52.156,22.658l-18.107,17.388c-0.682,0.688 -1.033,1.193 -1.033,2.61l0,26.09c0,0.57 0.465,1.037 1.033,1.037l18.703,0c0.571,0 1.03,-0.467 1.03,-1.037l0,-45.652c0,-0.575 -0.449,-1.628 -1.626,-0.436" style="fill:#fff;"/><path d="M132.075,67.518c0.008,-0.148 -0.048,-0.293 -0.154,-0.397c-0.091,-0.087 -0.21,-0.139 -0.335,-0.146l-0.1,0.005l-0.146,0.009l-13.864,3.157l-0.252,0.026c-0.1,0.02 -0.194,0.071 -0.269,0.143c-0.205,0.207 -0.205,0.547 0,0.754l0.156,0.159l3.166,3.196l-31.412,31.72l-14.509,-14.652c-0.078,-0.079 -0.184,-0.124 -0.295,-0.124c-0.111,0 -0.217,0.045 -0.295,0.124l-3.938,3.978c-0.003,0 -0.003,0.003 -0.003,0.003l-23.255,23.48c-0.161,0.165 -0.161,0.433 0,0.598l3.94,3.977c0.077,0.08 0.183,0.125 0.294,0.125c0.111,0 0.217,-0.045 0.294,-0.125l22.967,-23.186l10.527,10.632c0.012,0.016 0.017,0.034 0.035,0.051l3.937,3.971c0.077,0.081 0.184,0.126 0.295,0.126c0.111,0 0.218,-0.045 0.295,-0.126l35.65,-36l3.325,3.355c0.205,0.21 0.538,0.21 0.74,0c0.092,-0.091 0.147,-0.214 0.152,-0.344l0.001,-0.045l3.046,-14.29l0.007,-0.154Z" style="fill:#fff;"/><path d="M97.87,114.318l-8.759,8.919c-0.164,0.14 -0.411,0.13 -0.564,-0.022l-7.936,-8.17c-1.454,-1.46 -1.767,-0.275 -1.767,0.298l0,42.007c0,0.574 0.456,1.041 1.026,1.041l18.704,0c0.568,0 1.03,-0.467 1.03,-1.04l0,-42.703c0,-0.575 -0.448,-1.629 -1.734,-0.33m-46.316,-86.464c1.008,0 1.394,-0.607 1.394,-1.494l0,-7.698c0,-0.867 -0.386,-1.474 -1.394,-1.474l-1.031,0l0,10.666l1.031,0Zm3.84,-8.735l0,6.806c0,2.254 -0.922,3.945 -3.54,3.945l-3.78,0l0,-14.697l3.78,0c2.618,0 3.54,1.67 3.54,3.946Zm1.549,-3.946l5.839,0l0,2.017l-3.392,0l0,4.203l2.427,0l0,1.994l-2.427,0l0,4.467l3.392,0l0,2.015l-5.839,0l0,-14.696Zm7.087,10.903l0,-7.11c0,-2.298 1.072,-3.967 3.65,-3.967c2.703,0 3.455,1.518 3.455,3.686l0,1.735l-2.232,0l0,-1.93c0,-0.911 -0.3,-1.432 -1.181,-1.432c-0.881,0 -1.246,0.63 -1.246,1.518l0,7.89c0,0.89 0.365,1.518 1.246,1.518c0.88,0 1.181,-0.563 1.181,-1.432l0,-2.708l2.232,0l0,2.536c0,2.103 -0.858,3.663 -3.455,3.663c-2.578,0 -3.65,-1.69 -3.65,-3.967m8.588,-10.903l5.839,0l0,2.017l-3.392,0l0,4.203l2.427,0l0,1.994l-2.427,0l0,4.467l3.392,0l0,2.015l-5.839,0l0,-14.696Zm9.362,5.463l0,9.233l-2.06,0l0,-14.696l2.403,0l2.64,8.431l0,-8.431l2.04,0l0,14.696l-2.146,0l-2.877,-9.233Zm6.293,-5.463l6.504,0l0,2.017l-2.018,0l0,12.68l-2.469,0l0,-12.68l-2.018,0l0.001,-2.017Zm15.48,5.614l-1.374,9.083l-2.298,0l-1.951,-14.697l2.361,0l1.138,9.322l0.021,0l1.223,-9.322l1.998,0l1.35,9.322l0.023,0l1.115,-9.322l2.062,0l-1.889,14.697l-2.319,0l-1.438,-9.083l-0.022,0Zm11.466,5.679l0,-7.89c0,-0.888 -0.385,-1.518 -1.267,-1.518c-0.858,0 -1.244,0.63 -1.244,1.518l0,7.89c0,0.89 0.386,1.518 1.244,1.518c0.882,0 1.267,-0.629 1.267,-1.518m-4.958,-0.39l0,-7.11c0,-2.298 1.117,-3.967 3.69,-3.967c2.598,0 3.714,1.67 3.714,3.967l0,7.11c0,2.276 -1.116,3.967 -3.713,3.967c-2.574,0 -3.691,-1.69 -3.691,-3.967m11.399,-8.886l0,4.573l0.817,0c0.837,0 1.202,-0.434 1.202,-1.214l0,-2.167c0,-0.803 -0.365,-1.193 -1.202,-1.193l-0.816,0l-0.001,0.001Zm0,5.94l0,6.74l-2.446,0l0,-14.698l3.562,0c2.469,0 3.37,1.237 3.37,3.297l0,1.884c0,1.583 -0.557,2.515 -1.951,2.84l2.34,6.677l-2.578,0l-2.296,-6.74l-0.001,0Zm8.418,-0.414l0,7.154l-2.446,0l0,-14.698l2.446,0l0,6.46l2.662,-6.46l2.405,0l-2.833,6.612l2.897,8.086l-2.576,0l-2.555,-7.154Zm11.617,2.493l1.954,0l-0.967,-5.894l-0.02,0l-0.967,5.894Zm-3.069,4.66l2.747,-14.696l2.791,0l2.77,14.696l-2.513,0l-0.45,-2.686l-2.598,0l-0.43,2.686l-2.317,0Zm11.185,-9.233l0,9.233l-2.06,0l0,-14.696l2.405,0l2.638,8.431l0,-8.431l2.04,0l0,14.696l-2.146,0l-2.877,-9.233Zm10.115,7.218c1.008,0 1.396,-0.607 1.396,-1.494l0,-7.698c0,-0.867 -0.388,-1.474 -1.396,-1.474l-1.031,0l0,10.666l1.031,0Zm3.843,-8.735l0,6.806c0,2.254 -0.923,3.945 -3.543,3.945l-3.78,0l0,-14.697l3.78,0c2.62,0 3.543,1.67 3.543,3.946Zm-115.694,17.646l5.838,0l0,2.017l-3.392,0l0,4.203l2.428,0l0,1.994l-2.429,0l0,4.467l3.392,0l0,2.015l-5.838,0l0.001,-14.696Zm6.915,10.903l0,-7.11c0,-2.298 1.072,-3.967 3.65,-3.967c2.704,0 3.455,1.517 3.455,3.686l0,1.735l-2.232,0l0,-1.93c0,-0.911 -0.3,-1.432 -1.18,-1.432c-0.882,0 -1.247,0.63 -1.247,1.518l0,7.89c0,0.89 0.365,1.517 1.246,1.517c0.88,0 1.181,-0.563 1.181,-1.43l0,-2.71l2.232,0l0,2.536c0,2.104 -0.858,3.664 -3.455,3.664c-2.578,0 -3.65,-1.69 -3.65,-3.967m13.398,0.39l0,-7.89c0,-0.888 -0.386,-1.518 -1.267,-1.518c-0.858,0 -1.246,0.63 -1.246,1.518l0,7.89c0,0.89 0.388,1.518 1.246,1.518c0.88,0 1.267,-0.629 1.267,-1.518m-4.96,-0.39l0,-7.11c0,-2.298 1.117,-3.967 3.693,-3.967c2.597,0 3.714,1.67 3.714,3.967l0,7.11c0,2.276 -1.117,3.967 -3.714,3.967c-2.576,0 -3.693,-1.69 -3.693,-3.967m10.865,-5.441l0,9.234l-2.062,0l0,-14.696l2.405,0l2.64,8.432l0,-8.432l2.04,0l0,14.696l-2.148,0l-2.875,-9.234Zm11.38,5.831l0,-7.89c0,-0.888 -0.387,-1.518 -1.267,-1.518c-0.858,0 -1.246,0.63 -1.246,1.518l0,7.89c0,0.89 0.388,1.518 1.246,1.518c0.88,0 1.267,-0.629 1.267,-1.518m-4.96,-0.39l0,-7.11c0,-2.298 1.117,-3.967 3.693,-3.967c2.597,0 3.713,1.67 3.713,3.967l0,7.11c0,2.276 -1.116,3.967 -3.713,3.967c-2.576,0 -3.693,-1.69 -3.693,-3.967m15.544,-5.744l-0.063,0l-1.653,9.538l-1.137,0l-1.825,-9.538l-0.044,0l0,9.538l-2.018,0l0,-14.698l2.857,0l1.587,8.28l0.021,0l1.417,-8.28l3.092,0l0,14.698l-2.234,0l0,-9.538Zm3.631,9.536l2.446,0l0,-14.695l-2.446,0l0,14.695Zm3.822,-3.792l0,-7.11c0,-2.298 1.073,-3.967 3.65,-3.967c2.704,0 3.456,1.517 3.456,3.686l0,1.735l-2.232,0l0,-1.93c0,-0.911 -0.3,-1.432 -1.181,-1.432c-0.881,0 -1.247,0.63 -1.247,1.518l0,7.89c0,0.89 0.366,1.517 1.247,1.517c0.88,0 1.18,-0.563 1.18,-1.43l0,-2.71l2.233,0l0,2.536c0,2.104 -0.859,3.664 -3.455,3.664c-2.578,0 -3.651,-1.69 -3.651,-3.967m14.966,-4.053l3.48,0l0,7.846l-1.762,0l0,-1.604c-0.322,1.106 -1.009,1.777 -2.34,1.777c-2.104,0 -3.07,-1.689 -3.07,-3.965l0,-7.11c0,-2.298 1.095,-3.967 3.67,-3.967c2.706,0 3.501,1.515 3.501,3.684l0,1.3l-2.233,0l0,-1.494c0,-0.91 -0.345,-1.431 -1.224,-1.431c-0.88,0 -1.268,0.628 -1.268,1.518l0,7.89c0,0.889 0.365,1.517 1.204,1.517c0.793,0 1.202,-0.457 1.202,-1.41l0,-2.6l-1.16,0l0,-1.95l0,-0.001Zm7.536,-4.834l0,4.574l0.816,0c0.837,0 1.203,-0.434 1.203,-1.214l0,-2.169c0,-0.801 -0.366,-1.191 -1.203,-1.191l-0.816,0Zm0,5.938l0,6.743l-2.446,0l0,-14.698l3.563,0c2.467,0 3.37,1.237 3.37,3.296l0,1.885c0,1.583 -0.558,2.515 -1.953,2.84l2.34,6.677l-2.578,0l-2.296,-6.743Zm10.565,3.339l0,-7.89c0,-0.888 -0.386,-1.518 -1.267,-1.518c-0.858,0 -1.246,0.63 -1.246,1.518l0,7.89c0,0.89 0.388,1.518 1.246,1.518c0.88,0 1.267,-0.629 1.267,-1.518m-4.96,-0.39l0,-7.11c0,-2.298 1.117,-3.967 3.693,-3.967c2.597,0 3.714,1.67 3.714,3.967l0,7.11c0,2.276 -1.117,3.967 -3.714,3.967c-2.576,0 -3.693,-1.69 -3.693,-3.967m13.678,-5.289l-1.374,9.083l-2.298,0l-1.952,-14.697l2.361,0l1.138,9.322l0.02,0l1.226,-9.322l1.995,0l1.351,9.322l0.023,0l1.117,-9.322l2.06,0l-1.889,14.697l-2.32,0l-1.437,-9.083l-0.021,0Zm6.422,-5.614l6.504,0l0,2.017l-2.018,0l0,12.68l-2.468,0l0,-12.68l-2.018,0l0,-2.017Zm12.066,8.215l-2.363,0l0,6.481l-2.447,0l0,-14.696l2.447,0l0,6.22l2.363,0l0,-6.22l2.467,0l0,14.696l-2.467,0l0,-6.481Z" style="fill:#fff;"/></g></svg>