<?xml version="1.0" encoding="UTF-8" standalone="no"?><!DOCTYPE svg PUBLIC "-//W3C//DTD SVG 1.1//EN" "http://www.w3.org/Graphics/SVG/1.1/DTD/svg11.dtd"><svg width="100%" height="100%" viewBox="0 0 180 180" version="1.1" xmlns="http://www.w3.org/2000/svg" xmlns:xlink="http://www.w3.org/1999/xlink" xml:space="preserve" xmlns:serif="http://www.serif.com/" style="fill-rule:evenodd;clip-rule:evenodd;stroke-linejoin:round;stroke-miterlimit:2;"><g><path d="M27.24,30.07c-0.105,2.021 -0.958,3.299 -2.873,3.299c-2.074,0 -2.875,-1.278 -2.875,-3.622l0,-6.281c0,-2.29 0.85,-3.618 2.928,-3.618c2.024,0 2.82,1.383 2.82,3.618l0,6.604Zm6.019,-5.537c0,-5.592 -2.45,-9.638 -8.84,-9.638c-6.442,0 -8.943,3.513 -8.943,9.103l0,5.325c0,5.91 2.341,8.89 6.708,8.89c2.555,0 4.098,-1.172 5.005,-2.925l0.051,0l0,7.77c0,2.183 -0.852,3.728 -3.033,3.728c-2.184,0 -2.982,-1.278 -2.982,-3.515l0,-2.395l-5.538,0l0,1.919c0,5.321 1.92,9.048 8.629,9.048c6.384,0 8.943,-4.1 8.943,-9.744l0,-17.566Zm99.329,119.473l-19.115,11.031l0,-22.065l19.115,-11.034l0,22.068Zm-63.143,11.031l0,-20.387l17.658,10.197l-17.658,10.191l0,-0.001Zm-2.903,0l-19.111,-11.03l0,-22.07l19.111,11.035l0,22.065Zm20.56,-61.036l-17.656,10.199l0,-20.393l17.658,10.194l-0.002,0Zm23.468,10.196l-17.656,-10.196l17.656,-10.194l0,20.39Zm-17.656,15.224l19.108,-11.03l19.113,11.03l-19.113,11.035l-19.108,-11.035Zm-4.358,-2.514l-17.658,-10.195l17.658,-10.194l0,20.389Zm20.561,-10.193l-17.656,10.19l0,-20.385l17.656,10.196l0,-0.001Zm-20.56,35.616l-17.659,-10.196l17.658,-10.196l0,20.392l0.001,0Zm46.21,-24.167l-21.294,-12.289l0,-24.582c0,-0.52 -0.275,-0.998 -0.725,-1.258l-22.013,-12.71c-0.449,-0.258 -1.002,-0.258 -1.451,0l-22.016,12.71c-0.449,0.259 -0.727,0.74 -0.726,1.258l0,24.582l-21.29,12.289c-0.45,0.258 -0.726,0.738 -0.726,1.258l0,25.425c0,0.519 0.276,0.999 0.726,1.257l22.016,12.707c0.448,0.26 1.003,0.26 1.451,0l21.29,-12.287l21.287,12.287c0.448,0.26 1.004,0.26 1.452,0l22.02,-12.707c0.448,-0.259 0.724,-0.74 0.723,-1.257l0,-25.425c0,-0.52 -0.276,-1 -0.724,-1.258Zm-92.031,-88.851l2.285,0l0,-13.586l-2.285,0l0,13.586Zm5.632,-8.536l0,8.537l-1.924,0l0,-13.587l2.244,0l2.465,7.797l0,-7.797l1.903,0l0,13.587l-2.003,0l-2.685,-8.537Zm9.336,6.674c0.94,0 1.302,-0.56 1.302,-1.383l0,-7.114c0,-0.801 -0.362,-1.363 -1.302,-1.363l-0.963,0l0,9.86l0.963,0Zm3.587,-8.077l0,6.293c0,2.085 -0.863,3.647 -3.306,3.647l-3.529,0l0,-13.586l3.53,0c2.442,0 3.305,1.543 3.305,3.646Zm8.034,-3.646l0,10.28c0,2.103 -0.903,3.467 -3.226,3.467c-2.406,0 -3.408,-1.364 -3.408,-3.467l0,-10.28l2.285,0l0,10.5c0,0.803 0.321,1.344 1.123,1.344c0.801,0 1.12,-0.541 1.12,-1.344l0,-10.5l2.106,0Zm1.28,10.66l0,-1.822l2.127,0l0,1.862c0,0.763 0.339,1.202 1.12,1.202c0.723,0 1.043,-0.48 1.043,-1.202l0,-0.521c0,-0.78 -0.32,-1.262 -1.021,-1.923l-1.345,-1.343c-1.302,-1.282 -1.903,-2.064 -1.903,-3.628l0,-0.46c0,-1.684 0.983,-2.987 3.207,-2.987c2.285,0 3.185,1.123 3.185,3.088l0,1.102l-2.083,0l0,-1.185c0,-0.78 -0.36,-1.161 -1.082,-1.161c-0.642,0 -1.081,0.36 -1.081,1.123l0,0.28c0,0.762 0.42,1.203 1.08,1.844l1.463,1.443c1.242,1.264 1.843,2.025 1.843,3.527l0,0.663c0,1.862 -1.001,3.184 -3.325,3.184c-2.325,0 -3.228,-1.302 -3.228,-3.086m7.092,-10.66l6.074,0l0,1.862l-1.886,0l0,11.723l-2.304,0l0,-11.722l-1.884,0l0,-1.863Zm9.517,1.863l0,4.228l0.76,0c0.783,0 1.124,-0.4 1.124,-1.121l0,-2.005c0,-0.742 -0.341,-1.102 -1.123,-1.102l-0.761,0Zm0,5.491l0,6.232l-2.285,0l0,-13.586l3.327,0c2.306,0 3.146,1.142 3.146,3.045l0,1.744c0,1.462 -0.52,2.325 -1.824,2.625l2.186,6.172l-2.406,0l-2.144,-6.232Zm9.477,1.062l0,5.17l-2.284,0l0,-5.17l-2.545,-8.417l2.385,0l1.383,5.15l0.02,0l1.382,-5.15l2.185,0l-2.526,8.417Zm4.889,3.167l-1.162,3.065l-1.284,0l0.28,-3.246l2.166,0l0,0.181Zm3.605,2.002l2.284,0l0,-13.586l-2.284,0l0,13.586Zm5.63,-8.536l0,8.537l-1.923,0l0,-13.587l2.243,0l2.465,7.797l0,-7.797l1.903,0l0,13.587l-2.003,0l-2.685,-8.537Zm8.014,0l0,8.537l-1.925,0l0,-13.587l2.244,0l2.466,7.797l0,-7.797l1.903,0l0,13.587l-2.003,0l-2.685,-8.537Zm10.718,5.392l0,-7.298c0,-0.82 -0.36,-1.402 -1.182,-1.402c-0.802,0 -1.162,0.582 -1.162,1.402l0,7.297c0,0.82 0.36,1.402 1.162,1.402c0.822,0 1.182,-0.581 1.182,-1.402m-4.629,-0.362l0,-6.573c0,-2.124 1.043,-3.667 3.447,-3.667c2.425,0 3.467,1.543 3.467,3.667l0,6.573c0,2.105 -1.042,3.667 -3.467,3.667c-2.404,0 -3.447,-1.562 -3.447,-3.667m15.629,-10.078l-2.585,13.585l-2.485,0l-2.586,-13.585l2.325,0l1.564,9.479l0.019,0l1.604,-9.48l2.144,0.001Zm2.543,9.278l1.822,0l-0.9,-5.452l-0.021,0l-0.902,5.452l0.001,0Zm-2.867,4.309l2.566,-13.588l2.606,0l2.583,13.588l-2.342,0l-0.422,-2.487l-2.425,0l-0.4,2.487l-2.166,0Zm7.533,-13.587l6.074,0l0,1.862l-1.884,0l0,11.723l-2.306,0l0,-11.722l-1.884,0l0,-1.863Zm7.232,13.585l2.284,0l0,-13.586l-2.284,0l0,13.586Zm8.335,-3.144l0,-7.298c0,-0.82 -0.36,-1.402 -1.182,-1.402c-0.802,0 -1.162,0.582 -1.162,1.402l0,7.297c0,0.82 0.36,1.402 1.162,1.402c0.822,0 1.182,-0.581 1.182,-1.402m-4.628,-0.362l0,-6.573c0,-2.124 1.042,-3.667 3.446,-3.667c2.425,0 3.467,1.543 3.467,3.667l0,6.573c0,2.105 -1.042,3.667 -3.467,3.667c-2.404,0 -3.446,-1.562 -3.446,-3.667m10.237,-5.029l0,8.537l-1.923,0l0,-13.587l2.243,0l2.465,7.797l0,-7.797l1.904,0l0,13.587l-2.004,0l-2.685,-8.537Zm-123.699,25.744l1.823,0l-0.902,-5.451l-0.02,0l-0.9,5.45l-0.001,0.001Zm-2.868,4.309l2.566,-13.588l2.606,0l2.585,13.588l-2.344,0l-0.422,-2.485l-2.425,0l-0.4,2.485l-2.166,0Zm10.521,-8.538l0,8.537l-1.926,0l0,-13.587l2.244,0l2.466,7.795l0,-7.795l1.903,0l0,13.587l-2.003,0l-2.684,-8.537Zm9.336,6.674c0.942,0 1.302,-0.562 1.302,-1.383l0,-7.115c0,-0.802 -0.36,-1.362 -1.302,-1.362l-0.961,0l0,9.86l0.961,0Zm3.586,-8.077l0,6.293c0,2.085 -0.86,3.647 -3.305,3.647l-3.529,0l0,-13.588l3.529,0c2.444,0 3.305,1.545 3.305,3.648Zm3.605,9.941l2.284,0l0,-13.589l-2.284,0l0,13.589Zm5.631,-8.538l0,8.537l-1.924,0l0,-13.587l2.244,0l2.465,7.795l0,-7.795l1.904,0l0,13.587l-2.004,0l-2.685,-8.537Zm6.089,-5.051l5.351,0l0,1.865l-3.066,0l0,3.887l2.286,0l0,1.844l-2.286,0l0,5.992l-2.285,0l0,-13.588Zm8.736,1.865l0,4.228l0.76,0c0.782,0 1.123,-0.4 1.123,-1.121l0,-2.005c0,-0.742 -0.34,-1.102 -1.123,-1.102l-0.76,0Zm0,5.49l0,6.233l-2.285,0l0,-13.588l3.327,0c2.305,0 3.145,1.144 3.145,3.047l0,1.744c0,1.462 -0.52,2.325 -1.824,2.625l2.186,6.172l-2.406,0l-2.143,-6.233Zm8.034,1.925l1.823,0l-0.902,-5.451l-0.02,0l-0.9,5.45l-0.001,0.001Zm-2.866,4.309l2.564,-13.588l2.606,0l2.585,13.588l-2.344,0l-0.422,-2.485l-2.425,0l-0.4,2.485l-2.164,0Zm8.474,-2.927l0,-1.822l2.125,0l0,1.863c0,0.76 0.34,1.202 1.123,1.202c0.72,0 1.04,-0.48 1.04,-1.202l0,-0.522c0,-0.78 -0.32,-1.262 -1.021,-1.925l-1.344,-1.342c-1.303,-1.281 -1.904,-2.063 -1.904,-3.627l0,-0.46c0,-1.684 0.983,-2.987 3.208,-2.987c2.284,0 3.186,1.123 3.186,3.086l0,1.104l-2.083,0l0,-1.185c0,-0.78 -0.362,-1.161 -1.082,-1.161c-0.642,0 -1.083,0.36 -1.083,1.123l0,0.28c0,0.762 0.42,1.201 1.083,1.844l1.462,1.443c1.242,1.262 1.843,2.023 1.843,3.527l0,0.661c0,1.863 -1.001,3.186 -3.326,3.186c-2.325,0 -3.227,-1.302 -3.227,-3.086m7.293,-10.662l6.073,0l0,1.865l-1.886,0l0,11.723l-2.303,0l0,-11.723l-1.884,0l0,-1.865Zm9.516,1.865l0,4.228l0.761,0c0.782,0 1.123,-0.4 1.123,-1.121l0,-2.005c0,-0.742 -0.34,-1.102 -1.123,-1.102l-0.76,0l-0.001,0Zm0,5.49l0,6.233l-2.284,0l0,-13.588l3.326,0c2.306,0 3.146,1.144 3.146,3.047l0,1.744c0,1.462 -0.52,2.325 -1.824,2.625l2.186,6.172l-2.406,0l-2.144,-6.233Zm12.163,-7.355l0,10.28c0,2.106 -0.901,3.468 -3.226,3.468c-2.404,0 -3.408,-1.362 -3.408,-3.467l0,-10.281l2.285,0l0,10.501c0,0.802 0.322,1.343 1.123,1.343c0.801,0 1.123,-0.541 1.123,-1.343l0,-10.501l2.103,0Zm1.401,10.081l0,-6.574c0,-2.123 1.001,-3.668 3.407,-3.668c2.524,0 3.227,1.405 3.227,3.408l0,1.603l-2.085,0l0,-1.782c0,-0.842 -0.28,-1.324 -1.101,-1.324c-0.825,0 -1.164,0.582 -1.164,1.403l0,7.294c0,0.823 0.34,1.405 1.164,1.405c0.82,0 1.101,-0.522 1.101,-1.324l0,-2.504l2.085,0l0,2.344c0,1.944 -0.804,3.387 -3.227,3.387c-2.406,0 -3.407,-1.563 -3.407,-3.668m7.211,-10.081l6.073,0l0,1.865l-1.883,0l0,11.723l-2.306,0l0,-11.723l-1.884,0l0,-1.865Zm13.866,0l0,10.28c0,2.106 -0.901,3.468 -3.226,3.468c-2.404,0 -3.406,-1.362 -3.406,-3.467l0,-10.281l2.283,0l0,10.501c0,0.802 0.321,1.343 1.123,1.343c0.803,0 1.123,-0.541 1.123,-1.343l0,-10.501l2.103,0Zm3.685,1.865l0,4.228l0.761,0c0.782,0 1.123,-0.4 1.123,-1.121l0,-2.005c0,-0.742 -0.34,-1.102 -1.123,-1.102l-0.76,0l-0.001,0Zm0,5.49l0,6.233l-2.284,0l0,-13.588l3.327,0c2.305,0 3.145,1.144 3.145,3.047l0,1.744c0,1.462 -0.52,2.325 -1.824,2.625l2.186,6.172l-2.406,0l-2.144,-6.233Zm5.53,-7.355l5.451,0l0,1.865l-3.166,0l0,3.887l2.265,0l0,1.844l-2.265,0l0,4.13l3.166,0l0,1.862l-5.45,0l-0.001,-13.588Z" style="fill:#fff;"/></g></svg>