<?xml version="1.0" encoding="UTF-8" standalone="no"?><!DOCTYPE svg PUBLIC "-//W3C//DTD SVG 1.1//EN" "http://www.w3.org/Graphics/SVG/1.1/DTD/svg11.dtd"><svg width="100%" height="100%" viewBox="0 0 180 180" version="1.1" xmlns="http://www.w3.org/2000/svg" xmlns:xlink="http://www.w3.org/1999/xlink" xml:space="preserve" xmlns:serif="http://www.serif.com/" style="fill-rule:evenodd;clip-rule:evenodd;stroke-linejoin:round;stroke-miterlimit:2;"><g><path d="M67.481,55.172c1.162,-1.973 2.573,-3.788 4.198,-5.4l-13.765,-15.096c-3.477,3.324 -6.424,7.161 -8.74,11.377l18.307,9.119Z" style="fill:#3fae49;"/><path d="M101.227,44.508c2.072,0.952 4.013,2.167 5.773,3.617l13.802,-15.071c-3.661,-3.158 -7.787,-5.733 -12.233,-7.632l-7.342,19.086Z" style="fill:#d19f2a;"/><path d="M132.839,49.047l-18.296,9.12c0.886,2.068 1.503,4.241 1.833,6.466l20.346,-1.923c-0.578,-4.728 -1.888,-9.338 -3.883,-13.663" style="fill:#c22033;"/><path d="M113.231,55.523l18.294,-9.12c-2.259,-4.193 -5.141,-8.02 -8.548,-11.348l-13.805,15.067c1.578,1.62 2.942,3.434 4.06,5.4" style="fill:#2d9a47;"/><path d="M63.846,68.525c0,-0.411 0.012,-0.822 0.031,-1.232l-20.357,-1.822c-0.067,1.017 -0.101,2.035 -0.103,3.054c0,3.905 0.486,7.699 1.386,11.323l19.661,-5.64c-0.411,-1.866 -0.618,-3.772 -0.618,-5.683" style="fill:#48773c;"/><path d="M110.67,85.257c-1.449,1.762 -3.118,3.331 -4.964,4.671l10.746,17.402c3.986,-2.705 7.538,-6.001 10.531,-9.776l-16.313,-12.297Z" style="fill:#fdb714;"/><path d="M116.66,68.525c0,1.926 -0.208,3.805 -0.606,5.617l19.656,5.648c0.919,-3.684 1.382,-7.468 1.38,-11.265c0,-0.965 -0.034,-1.92 -0.088,-2.875l-20.36,1.923c0.01,0.32 0.019,0.634 0.019,0.952" style="fill:#ef412a;"/><path d="M70.166,85.647l-16.27,12.366c3.031,3.729 6.613,6.974 10.623,9.623l10.748,-17.381c-1.891,-1.31 -3.606,-2.859 -5.101,-4.608" style="fill:#f99d25;"/><path d="M64.175,64.356c0.359,-2.262 1.015,-4.468 1.95,-6.559l-18.288,-9.111c-2.058,4.376 -3.419,9.047 -4.036,13.844l20.374,1.826Z" style="fill:#007dbb;"/><path d="M113.952,108.904l-10.732,-17.38c-1.97,1.115 -4.075,1.971 -6.264,2.546l3.787,20.102c4.647,-1.068 9.103,-2.845 13.21,-5.268" style="fill:#8f1838;"/><path d="M115.273,76.989c-0.706,2.073 -1.667,4.049 -2.86,5.885l16.32,12.31c2.683,-3.848 4.768,-8.079 6.187,-12.55l-19.647,-5.645Z" style="fill:#00add8;"/><path d="M94.062,94.656c-1.243,0.18 -2.517,0.278 -3.809,0.278c-1.04,0 -2.066,-0.065 -3.075,-0.183l-3.783,20.105c4.794,0.707 9.668,0.668 14.45,-0.114l-3.783,-20.086Z" style="fill:#f36e24;"/><path d="M91.942,42.17c2.223,0.142 4.418,0.565 6.534,1.261l7.342,-19.08c-4.465,-1.576 -9.144,-2.463 -13.876,-2.628l0,20.447Z" style="fill:#ea1d2d;"/><path d="M84.269,94.249c-2.26,-0.527 -4.44,-1.351 -6.483,-2.452l-10.753,17.392c4.191,2.401 8.73,4.136 13.454,5.142l3.783,-20.081l-0.001,-0.001Z" style="fill:#e01a83;"/><path d="M82.316,43.337c2.163,-0.683 4.406,-1.081 6.672,-1.186l0,-20.445c-4.792,0.126 -9.536,0.99 -14.064,2.562l7.392,19.07l0,-0.001Z" style="fill:#1b3668;"/><path d="M68.376,83.297c-1.311,-1.934 -2.359,-4.034 -3.116,-6.245l-19.645,5.638c1.474,4.635 3.663,9.011 6.488,12.97l16.273,-12.364l0,0.001Z" style="fill:#cd8b2a;"/><path d="M73.891,47.811c1.737,-1.375 3.64,-2.525 5.664,-3.425l-7.39,-19.06c-4.366,1.837 -8.429,4.325 -12.05,7.38l13.776,15.104l0,0.001Z" style="fill:#00558a;"/><path d="M18.02,129.405l8.466,0l0,2.597l-2.625,0l0,16.343l-3.213,0l0,-16.343l-2.627,0l-0.001,-2.597Zm15.925,10.588l-3.072,0l0,8.353l-3.186,0l0,-18.94l3.186,0l0,8.016l3.072,0l0,-8.017l3.212,0l0,18.941l-3.212,0l0,-8.353Zm4.833,-10.588l7.599,0l0,2.597l-4.415,0l0,5.42l3.156,0l0,2.57l-3.156,0l0,5.756l4.415,0l0,2.597l-7.6,0l0.001,-18.94Zm16.511,8.828l4.525,0l0,10.113l-2.29,0l0,-2.067c-0.42,1.424 -1.315,2.292 -3.046,2.292c-2.738,0 -3.994,-2.18 -3.994,-5.114l0,-9.163c0,-2.96 1.423,-5.114 4.776,-5.114c3.52,0 4.554,1.956 4.554,4.75l0,1.677l-2.905,0l0,-1.928c0,-1.174 -0.447,-1.845 -1.594,-1.845c-1.144,0 -1.647,0.812 -1.647,1.956l0,10.17c0,1.145 0.475,1.956 1.564,1.956c1.034,0 1.564,-0.587 1.564,-1.817l0,-3.352l-1.506,0l0,-2.514l-0.001,0Zm6.201,-8.828l3.187,0l0,16.343l3.797,0l0,2.597l-6.983,0l-0.001,-18.94Zm14.108,14.555l0,-10.17c0,-1.144 -0.502,-1.955 -1.646,-1.955c-1.12,0 -1.622,0.811 -1.622,1.956l0,10.17c0,1.145 0.502,1.955 1.622,1.955c1.144,0 1.646,-0.81 1.646,-1.956m-6.453,-0.502l0,-9.165c0,-2.961 1.452,-5.112 4.807,-5.112c3.379,0 4.83,2.151 4.83,5.112l0,9.165c0,2.933 -1.451,5.112 -4.83,5.112c-3.355,0 -4.807,-2.18 -4.807,-5.112m14.36,-3.633l0,5.922l1.397,0c1.062,0 1.564,-0.53 1.564,-1.535l0,-2.85c0,-1.006 -0.476,-1.537 -1.594,-1.537l-1.367,0Zm0,-2.43l1.118,0c1.033,0 1.508,-0.53 1.508,-1.536l0,-2.32c0,-1.033 -0.475,-1.536 -1.536,-1.536l-1.09,0l0,5.392Zm-3.186,-7.99l4.611,0c3.185,0 4.244,1.48 4.244,4.162l0,1.928c0,1.592 -0.585,2.597 -1.898,3.017c1.593,0.364 2.375,1.426 2.375,3.157l0,2.514c0,2.682 -1.202,4.162 -4.387,4.162l-4.944,0l0,-18.94l-0.001,0Zm13.885,12.935l2.543,0l-1.257,-7.6l-0.028,0l-1.258,7.6Zm-3.995,6.006l3.576,-18.94l3.633,0l3.602,18.94l-3.268,0l-0.587,-3.464l-3.38,0l-0.558,3.464l-3.018,0Zm11.901,-18.941l3.186,0l0,16.343l3.797,0l0,2.597l-6.983,0l0,-18.94Zm15.645,8.828l4.521,0l0,10.113l-2.286,0l0,-2.067c-0.42,1.424 -1.315,2.292 -3.045,2.292c-2.738,0 -3.995,-2.18 -3.995,-5.114l0,-9.163c0,-2.96 1.424,-5.114 4.777,-5.114c3.514,0 4.55,1.956 4.55,4.75l0,1.677l-2.902,0l0,-1.928c0,-1.174 -0.448,-1.845 -1.592,-1.845c-1.148,0 -1.649,0.812 -1.649,1.956l0,10.17c0,1.145 0.475,1.956 1.564,1.956c1.034,0 1.564,-0.587 1.564,-1.817l0,-3.352l-1.507,0l0,-2.514Zm12.601,5.727l0,-10.17c0,-1.144 -0.5,-1.955 -1.646,-1.955c-1.125,0 -1.626,0.811 -1.626,1.956l0,10.17c0,1.145 0.501,1.955 1.626,1.955c1.145,0 1.646,-0.81 1.646,-1.956m-6.454,-0.502l0,-9.165c0,-2.961 1.446,-5.112 4.808,-5.112c3.372,0 4.83,2.151 4.83,5.112l0,9.165c0,2.933 -1.458,5.112 -4.83,5.112c-3.362,0 -4.808,-2.18 -4.808,-5.112m14.212,-1.118l2.549,0l-1.257,-7.6l-0.033,0l-1.259,7.6Zm-3.983,6.006l3.572,-18.94l3.627,0l3.606,18.94l-3.272,0l-0.578,-3.464l-3.383,0l-0.557,3.464l-3.015,0Zm11.841,-18.941l3.183,0l0,16.343l3.796,0l0,2.597l-6.979,0l0,-18.94Zm7.68,14.862l0,-2.543l2.961,0l0,2.6c0,1.06 0.478,1.676 1.57,1.676c1.001,0 1.446,-0.671 1.446,-1.677l0,-0.725c0,-1.092 -0.445,-1.761 -1.423,-2.684l-1.872,-1.871c-1.814,-1.788 -2.659,-2.877 -2.659,-5.056l0,-0.643c0,-2.346 1.37,-4.164 4.474,-4.164c3.183,0 4.441,1.566 4.441,4.302l0,1.538l-2.905,0l0,-1.648c0,-1.09 -0.5,-1.62 -1.502,-1.62c-0.902,0 -1.513,0.502 -1.513,1.563l0,0.392c0,1.062 0.588,1.675 1.513,2.57l2.036,2.012c1.726,1.759 2.571,2.82 2.571,4.917l0,0.92c0,2.598 -1.402,4.445 -4.64,4.445c-3.24,0 -4.498,-1.817 -4.498,-4.304m-128.992,12.919l-3.778,0l0,4.213l-0.798,0l0,-8.801l4.987,0l0,0.74l-4.19,0l0,3.109l3.78,0l-0.001,0.739Zm3.325,-1.045c-1.55,0 -1.643,0.998 -1.643,2.323c0,1.327 0.093,2.325 1.643,2.325c1.525,0 1.643,-0.998 1.643,-2.325c0,-1.325 -0.118,-2.323 -1.643,-2.323m0,5.376c-2.007,0 -2.464,-1.257 -2.464,-3.053c0,-1.794 0.457,-3.05 2.464,-3.05c2.017,0 2.465,1.256 2.465,3.05c0,1.796 -0.448,3.053 -2.465,3.053m7.092,-5.281c-0.229,-0.068 -0.466,-0.1 -0.705,-0.095c-0.797,0 -1.267,0.13 -1.7,0.376l0,4.882l-0.823,0l0,-5.868l0.459,0l0.175,0.494c0.549,-0.4 1.211,-0.614 1.89,-0.61c0.268,0 0.48,0.023 0.704,0.058l0,0.763Zm3.7,-1.291c0,1.255 0.727,1.374 2.112,1.55c1.726,0.221 2.793,0.645 2.793,2.37c0,1.197 -0.633,2.65 -3.252,2.65c-0.808,0 -1.912,-0.221 -2.462,-0.467l0,-0.763c0.561,0.187 1.253,0.492 2.475,0.492c1.83,0 2.383,-0.855 2.383,-1.912c0,-1.256 -0.517,-1.502 -1.984,-1.69c-2.077,-0.258 -2.874,-0.74 -2.874,-2.243c0,-1.02 0.49,-2.451 2.956,-2.451c1.08,0 1.809,0.186 2.288,0.41l0,0.787c-0.798,-0.341 -1.432,-0.459 -2.3,-0.459c-1.736,0 -2.135,0.798 -2.135,1.726m6.882,4.847c0,0.763 0.444,0.998 1.172,0.998c0.763,0 1.15,-0.13 1.585,-0.378l0,-4.881l0.822,0l0,5.869l-0.458,0l-0.176,-0.492c-0.552,0.41 -1.15,0.608 -1.773,0.608c-1.395,0 -1.995,-0.633 -1.995,-1.76l0,-4.225l0.823,0l0,4.261Zm7.044,-1.76c1.666,0.151 2.065,0.715 2.065,1.677c0,0.905 -0.575,1.806 -2.358,1.806c-0.565,0 -1.373,-0.139 -1.749,-0.291l0,-0.705c0.364,0.128 0.926,0.27 1.76,0.27c1.222,0 1.549,-0.516 1.549,-1.068c0,-0.54 -0.163,-0.916 -1.327,-1.009c-1.7,-0.153 -2.054,-0.752 -2.054,-1.56c0,-0.833 0.541,-1.738 2.195,-1.738c0.552,0 1.174,0.07 1.69,0.295l0,0.703c-0.458,-0.153 -0.915,-0.27 -1.7,-0.27c-1.162,0 -1.408,0.435 -1.408,1.01c0,0.515 0.21,0.785 1.337,0.88m6.492,3.438c-0.174,0.034 -0.351,0.049 -0.528,0.047c-0.974,0 -1.877,-0.446 -1.877,-1.596l0,-3.743l-1.174,0l0,-0.365l1.174,-0.34l0,-1.585l0.82,-0.235l0,1.878l1.82,0l0,0.647l-1.82,0l0,3.648c0,0.716 0.389,1.01 1.129,1.01c0.15,0 0.304,-0.012 0.456,-0.024l0,0.658Zm3.196,-3.04c-0.833,0.082 -1.198,0.517 -1.198,1.198c0,0.529 0.13,1.161 1.245,1.161c0.633,0 1.057,-0.176 1.561,-0.47l0,-2.041l-1.608,0.153l0,-0.001Zm0.21,-2.289c-0.786,0 -1.301,0.142 -1.76,0.293l0,-0.704c0.517,-0.222 1.197,-0.315 1.76,-0.315c1.762,0 2.22,0.798 2.22,1.97l0,4.014l-0.458,0l-0.176,-0.47c-0.516,0.375 -1.135,0.581 -1.773,0.588c-1.536,0 -2.053,-0.904 -2.053,-1.89c0,-0.998 0.55,-1.736 2.09,-1.829l1.548,-0.095l0,-0.328c0,-0.858 -0.306,-1.234 -1.397,-1.234l-0.001,0Zm3.924,4.085l0,-4.695l0.798,0l0,4.788c0,0.411 0.128,0.53 0.492,0.53l0,0.667c-0.846,0 -1.29,-0.351 -1.29,-1.29m0.399,-7.042c0.328,0 0.587,0.259 0.587,0.587c0,0.002 0,0.004 0,0.006c0,0.319 -0.262,0.581 -0.581,0.581c-0.002,0 -0.004,0 -0.006,0c-0.002,0 -0.005,0 -0.007,0c-0.318,0 -0.58,-0.262 -0.58,-0.58c0,-0.002 0,-0.005 0,-0.007c0,-0.002 0,-0.005 0,-0.007c0,-0.318 0.262,-0.58 0.58,-0.58c0.002,0 0.005,0 0.007,0m5.811,3.956c0,-0.763 -0.447,-0.999 -1.174,-0.999c-0.763,0 -1.151,0.13 -1.584,0.376l0,4.882l-0.822,0l0,-5.867l0.457,0l0.175,0.492c0.554,-0.41 1.152,-0.61 1.774,-0.61c1.397,0 1.994,0.634 1.994,1.76l0,4.225l-0.82,0l0,-4.26l0,0.001Zm4.145,1.29c-0.832,0.082 -1.198,0.517 -1.198,1.198c0,0.529 0.13,1.161 1.246,1.161c0.634,0 1.056,-0.176 1.56,-0.47l0,-2.041l-1.607,0.153l-0.001,-0.001Zm0.211,-2.289c-0.785,0 -1.302,0.142 -1.759,0.293l0,-0.704c0.517,-0.222 1.197,-0.315 1.76,-0.315c1.76,0 2.219,0.798 2.219,1.97l0,4.014l-0.459,0l-0.175,-0.47c-0.516,0.375 -1.136,0.581 -1.774,0.588c-1.535,0 -2.052,-0.904 -2.052,-1.89c0,-0.998 0.55,-1.736 2.09,-1.829l1.548,-0.095l0,-0.328c0,-0.858 -0.306,-1.234 -1.398,-1.234Zm4.558,0.376l0,3.896c0.457,0.246 0.878,0.377 1.641,0.377c1.41,0 1.585,-1.162 1.585,-2.325c0,-1.162 -0.175,-2.324 -1.585,-2.324c-0.763,0 -1.184,0.13 -1.641,0.376m4.047,1.948c0,1.692 -0.515,3.05 -2.406,3.05c-0.633,0 -1.22,-0.209 -1.83,-0.597l-0.175,0.481l-0.459,0l0,-8.8l0.823,0l0,3.298c0.49,-0.314 1.059,-0.482 1.641,-0.483c1.891,0 2.406,1.362 2.406,3.05m1.589,1.762l0,-7.626l0.798,0l0,7.72c0,0.411 0.128,0.53 0.492,0.53l0,0.667c-0.843,0 -1.29,-0.351 -1.29,-1.29m3.322,-2.055l3.053,0c0,-1.045 -0.06,-2.031 -1.41,-2.031c-1.361,0 -1.607,0.974 -1.643,2.031m1.644,-2.757c1.996,0 2.23,1.36 2.23,3.051l0,0.376l-3.874,0c0.048,1.02 0.319,1.947 1.644,1.947c0.845,0 1.362,-0.082 1.936,-0.328l0,0.704c-0.657,0.294 -1.362,0.352 -1.936,0.352c-1.983,0 -2.464,-1.36 -2.464,-3.051c0,-1.69 0.481,-3.05 2.464,-3.05m6.905,5.244l1.643,0c2.112,0 2.817,-1.55 2.817,-3.662c0,-2.112 -0.705,-3.66 -2.817,-3.66l-1.643,0l0,7.322Zm-0.798,0.74l0,-8.8l2.394,0c2.876,0 3.71,1.899 3.71,4.398c0,2.5 -0.834,4.402 -3.71,4.402l-2.394,0Zm7.902,-3.228l3.051,0c0,-1.045 -0.058,-2.031 -1.408,-2.031c-1.362,0 -1.608,0.974 -1.643,2.031m1.643,-2.757c1.995,0 2.229,1.36 2.229,3.051l0,0.376l-3.872,0c0.048,1.02 0.317,1.947 1.643,1.947c0.846,0 1.36,-0.082 1.937,-0.328l0,0.704c-0.657,0.294 -1.362,0.352 -1.937,0.352c-1.984,0 -2.465,-1.36 -2.465,-3.051c0,-1.69 0.481,-3.05 2.465,-3.05m3.888,0.115l1.678,4.814l1.679,-4.814l0.903,0l-2.288,5.986l-0.587,0l-2.288,-5.986l0.903,0Zm5.719,2.641l3.052,0c0,-1.045 -0.06,-2.031 -1.409,-2.031c-1.362,0 -1.608,0.974 -1.643,2.031m1.643,-2.757c1.995,0 2.232,1.36 2.232,3.051l0,0.376l-3.875,0c0.046,1.02 0.316,1.947 1.643,1.947c0.845,0 1.362,-0.082 1.937,-0.328l0,0.704c-0.66,0.294 -1.362,0.352 -1.937,0.352c-1.982,0 -2.466,-1.36 -2.466,-3.051c0,-1.69 0.484,-3.05 2.466,-3.05m3.802,4.81l0,-7.626l0.801,0l0,7.72c0,0.411 0.134,0.53 0.49,0.53l0,0.667c-0.847,0 -1.291,-0.351 -1.291,-1.29m4.997,-4.086c-1.558,0 -1.646,0.998 -1.646,2.323c0,1.327 0.088,2.325 1.646,2.325c1.526,0 1.636,-0.998 1.636,-2.325c0,-1.325 -0.11,-2.323 -1.636,-2.323m0,5.376c-2.014,0 -2.47,-1.257 -2.47,-3.053c0,-1.794 0.456,-3.05 2.47,-3.05c2.014,0 2.46,1.256 2.46,3.05c0,1.796 -0.446,3.053 -2.46,3.053m7.914,-3.052c0,-1.161 -0.177,-2.323 -1.592,-2.323c-0.756,0 -1.18,0.13 -1.636,0.376l0,3.894c0.457,0.248 0.88,0.376 1.636,0.376c1.415,0 1.592,-1.161 1.592,-2.323m-3.228,2.571l0,3.297l-0.824,0l0,-8.802l0.457,0l0.179,0.481c0.611,-0.387 1.19,-0.597 1.824,-0.597c1.893,0 2.404,1.361 2.404,3.05c0,1.69 -0.511,3.051 -2.404,3.051c-0.58,-0.001 -1.148,-0.167 -1.636,-0.48m12.366,-3.896c0,-0.763 -0.445,-0.999 -1.112,-0.999c-0.724,0 -1.125,0.14 -1.592,0.389c0.043,0.186 0.066,0.386 0.066,0.61l0,4.26l-0.824,0l0,-4.26c0,-0.763 -0.444,-0.999 -1.112,-0.999c-0.68,0 -1.069,0.118 -1.526,0.354l0,4.904l-0.824,0l0,-5.867l0.457,0l0.18,0.48c0.567,-0.41 1.178,-0.598 1.713,-0.598c0.79,0 1.335,0.223 1.646,0.67c0.601,-0.422 1.225,-0.67 1.816,-0.67c1.256,0 1.936,0.587 1.936,1.76l0,4.225l-0.824,0l0,-4.26l0,0.001Zm3.006,1.032l3.048,0c0,-1.045 -0.067,-2.031 -1.413,-2.031c-1.358,0 -1.602,0.974 -1.636,2.031m1.636,-2.757c1.993,0 2.237,1.36 2.237,3.051l0,0.376l-3.873,0c0.044,1.02 0.311,1.947 1.636,1.947c0.846,0 1.37,-0.082 1.937,-0.328l0,0.704c-0.657,0.294 -1.358,0.352 -1.937,0.352c-1.98,0 -2.46,-1.36 -2.46,-3.051c0,-1.69 0.48,-3.05 2.46,-3.05m7.202,1.724c0,-0.763 -0.445,-0.999 -1.18,-0.999c-0.757,0 -1.147,0.13 -1.581,0.376l0,4.882l-0.822,0l0,-5.867l0.455,0l0.179,0.492c0.555,-0.41 1.146,-0.61 1.77,-0.61c1.402,0 2.003,0.634 2.003,1.76l0,4.225l-0.824,0l0,-4.26l0,0.001Zm5.331,4.33c-0.176,0.034 -0.355,0.049 -0.534,0.047c-0.968,0 -1.87,-0.446 -1.87,-1.596l0,-3.743l-1.18,0l0,-0.365l1.18,-0.34l0,-1.585l0.812,-0.235l0,1.878l1.826,0l0,0.647l-1.826,0l0,3.648c0,0.716 0.39,1.01 1.135,1.01c0.146,0 0.3,-0.012 0.457,-0.024l0,0.658Z"/></g></svg>